<?xml version="1.0" encoding="UTF-8" standalone="no"?>
<!DOCTYPE svg PUBLIC "-//W3C//DTD SVG 1.1//EN"
 "http://www.w3.org/Graphics/SVG/1.1/DTD/svg11.dtd">
<!-- Generated by graphviz version 2.38.0 (20140413.2041)
 -->
<!-- Title: Control&#45;flow graph for function &#39;fun6()&#39;. Pages: 1 -->
<svg width="883pt" height="2340pt"
 viewBox="0.00 0.00 882.50 2340.00" xmlns="http://www.w3.org/2000/svg" xmlns:xlink="http://www.w3.org/1999/xlink">
<g id="graph0" class="graph" transform="scale(1 1) rotate(0) translate(4 2336)">
<title>Control&#45;flow graph for function &#39;fun6()&#39;.</title>
<polygon fill="white" stroke="none" points="-4,4 -4,-2336 878.5,-2336 878.5,4 -4,4"/>
<text text-anchor="middle" x="437.25" y="-7.8" font-family="Times,serif" font-size="14.00">Control&#45;flow graph for function &#39;fun6()&#39;.</text>
<!-- Node0x2e583e0 -->
<g id="node1" class="node"><title>Node0x2e583e0</title>
<polygon fill="none" stroke="black" points="121,-2295.5 121,-2331.5 180,-2331.5 180,-2295.5 121,-2295.5"/>
<text text-anchor="start" x="129" y="-2309.8" font-family="Times,serif" font-size="14.00">entry:</text>
</g>
<!-- Node0x2e2d120 -->
<g id="node2" class="node"><title>Node0x2e2d120</title>
<polygon fill="none" stroke="black" points="0,-2174.5 0,-2257.5 301,-2257.5 301,-2174.5 0,-2174.5"/>
<text text-anchor="start" x="8" y="-2242.3" font-family="Times,serif" font-size="14.00">0x8048b7a:</text>
<text text-anchor="start" x="8" y="-2227.3" font-family="Times,serif" font-size="14.00"> v1</text>
<text text-anchor="start" x="8" y="-2212.3" font-family="Times,serif" font-size="14.00"> v2 = IntToPtrCastExpr&lt;ptr&gt;((v1 + 8))</text>
<text text-anchor="start" x="8" y="-2197.3" font-family="Times,serif" font-size="14.00"> v3 = *(v2)</text>
<text text-anchor="start" x="8" y="-2182.3" font-family="Times,serif" font-size="14.00"> *(v2) = 0</text>
</g>
<!-- Node0x2e583e0&#45;&gt;Node0x2e2d120 -->
<g id="edge1" class="edge"><title>Node0x2e583e0&#45;&gt;Node0x2e2d120</title>
<path fill="none" stroke="black" d="M150.5,-2295.43C150.5,-2287.62 150.5,-2277.92 150.5,-2268.03"/>
<polygon fill="black" stroke="black" points="154,-2267.73 150.5,-2257.73 147,-2267.73 154,-2267.73"/>
</g>
<!-- Node0x2da9b30 -->
<g id="node3" class="node"><title>Node0x2da9b30</title>
<polygon fill="none" stroke="black" points="98,-2100.5 98,-2136.5 203,-2136.5 203,-2100.5 98,-2100.5"/>
<text text-anchor="start" x="106" y="-2114.8" font-family="Times,serif" font-size="14.00">if (v3 == 0):</text>
</g>
<!-- Node0x2e2d120&#45;&gt;Node0x2da9b30 -->
<g id="edge2" class="edge"><title>Node0x2e2d120&#45;&gt;Node0x2da9b30</title>
<path fill="none" stroke="black" d="M150.5,-2174.5C150.5,-2165.21 150.5,-2155.54 150.5,-2146.95"/>
<polygon fill="black" stroke="black" points="154,-2146.75 150.5,-2136.75 147,-2146.75 154,-2146.75"/>
</g>
<!-- Node0x2dae480 -->
<g id="node4" class="node"><title>Node0x2dae480</title>
<polygon fill="none" stroke="black" points="12,-1955.5 12,-1993.5 113,-1993.5 113,-1955.5 12,-1955.5"/>
<text text-anchor="start" x="20" y="-1978.3" font-family="Times,serif" font-size="14.00">0x8048bd1:</text>
<text text-anchor="start" x="20" y="-1963.3" font-family="Times,serif" font-size="14.00"> return</text>
</g>
<!-- Node0x2da9b30&#45;&gt;Node0x2dae480 -->
<g id="edge3" class="edge"><title>Node0x2da9b30&#45;&gt;Node0x2dae480</title>
<path fill="none" stroke="black" d="M139.885,-2100.37C124.788,-2076.01 96.9695,-2031.12 79.1227,-2002.32"/>
<polygon fill="black" stroke="black" points="81.9501,-2000.24 73.7074,-1993.58 76.0001,-2003.93 81.9501,-2000.24"/>
<text text-anchor="middle" x="158.5" y="-2070.8" font-family="Times,serif" font-size="14.00">v3 == 0</text>
</g>
<!-- Node0x2d99fb0 -->
<g id="node5" class="node"><title>Node0x2d99fb0</title>
<polygon fill="none" stroke="black" points="365.5,-2012.5 365.5,-2048.5 437.5,-2048.5 437.5,-2012.5 365.5,-2012.5"/>
<text text-anchor="start" x="373.5" y="-2026.8" font-family="Times,serif" font-size="14.00">v4 = v3</text>
</g>
<!-- Node0x2da9b30&#45;&gt;Node0x2d99fb0 -->
<g id="edge4" class="edge"><title>Node0x2da9b30&#45;&gt;Node0x2d99fb0</title>
<path fill="none" stroke="black" d="M200.39,-2100.41C245.714,-2084.88 312.014,-2062.16 355.937,-2047.11"/>
<polygon fill="black" stroke="black" points="357.174,-2050.39 365.5,-2043.83 354.905,-2043.77 357.174,-2050.39"/>
<text text-anchor="middle" x="318.5" y="-2070.8" font-family="Times,serif" font-size="14.00">v3 != 0</text>
</g>
<!-- Node0x2d18200 -->
<g id="node6" class="node"><title>Node0x2d18200</title>
<polygon fill="none" stroke="black" points="121.5,-23.5 121.5,-59.5 175.5,-59.5 175.5,-23.5 121.5,-23.5"/>
<text text-anchor="start" x="129.5" y="-37.8" font-family="Times,serif" font-size="14.00">exit:</text>
</g>
<!-- Node0x2dae480&#45;&gt;Node0x2d18200 -->
<g id="edge5" class="edge"><title>Node0x2dae480&#45;&gt;Node0x2d18200</title>
<path fill="none" stroke="black" d="M60.7323,-1955.46C58.9624,-1935.81 56.5,-1903.46 56.5,-1875.5 56.5,-1875.5 56.5,-1875.5 56.5,-130.5 56.5,-98.0749 86.7125,-73.9139 112.51,-59.1936"/>
<polygon fill="black" stroke="black" points="114.268,-62.2222 121.395,-54.3825 110.934,-56.0668 114.268,-62.2222"/>
</g>
<!-- Node0x2cac490 -->
<g id="node7" class="node"><title>Node0x2cac490</title>
<polygon fill="none" stroke="black" points="458,-1900.5 458,-1936.5 555,-1936.5 555,-1900.5 458,-1900.5"/>
<text text-anchor="start" x="466" y="-1914.8" font-family="Times,serif" font-size="14.00">while True:</text>
</g>
<!-- Node0x2d99fb0&#45;&gt;Node0x2cac490 -->
<g id="edge6" class="edge"><title>Node0x2d99fb0&#45;&gt;Node0x2cac490</title>
<path fill="none" stroke="black" d="M417.906,-2012.31C435.398,-1993.99 463.249,-1964.81 483.052,-1944.06"/>
<polygon fill="black" stroke="black" points="485.836,-1946.22 490.209,-1936.57 480.772,-1941.38 485.836,-1946.22"/>
</g>
<!-- Node0x2c92ff0 -->
<g id="node8" class="node"><title>Node0x2c92ff0</title>
<polygon fill="none" stroke="black" points="478.5,-1795.5 478.5,-1848.5 542.5,-1848.5 542.5,-1795.5 478.5,-1795.5"/>
<text text-anchor="start" x="486.5" y="-1833.3" font-family="Times,serif" font-size="14.00">v5 = 0</text>
<text text-anchor="start" x="486.5" y="-1818.3" font-family="Times,serif" font-size="14.00"> v6</text>
<text text-anchor="start" x="486.5" y="-1803.3" font-family="Times,serif" font-size="14.00"> v7</text>
</g>
<!-- Node0x2cac490&#45;&gt;Node0x2c92ff0 -->
<g id="edge7" class="edge"><title>Node0x2cac490&#45;&gt;Node0x2c92ff0</title>
<path fill="none" stroke="black" d="M507.234,-1900.17C507.719,-1888.7 508.373,-1873.25 508.969,-1859.18"/>
<polygon fill="black" stroke="black" points="512.483,-1858.92 509.409,-1848.78 505.489,-1858.62 512.483,-1858.92"/>
<text text-anchor="middle" x="526.5" y="-1870.8" font-family="Times,serif" font-size="14.00">True</text>
</g>
<!-- Node0x2da7fe0 -->
<g id="node9" class="node"><title>Node0x2da7fe0</title>
<polygon fill="none" stroke="black" points="476,-1721.5 476,-1757.5 575,-1757.5 575,-1721.5 476,-1721.5"/>
<text text-anchor="start" x="484" y="-1735.8" font-family="Times,serif" font-size="14.00">if (v1 != 0):</text>
</g>
<!-- Node0x2c92ff0&#45;&gt;Node0x2da7fe0 -->
<g id="edge8" class="edge"><title>Node0x2c92ff0&#45;&gt;Node0x2da7fe0</title>
<path fill="none" stroke="black" d="M515.329,-1795.09C516.936,-1786.46 518.732,-1776.82 520.362,-1768.07"/>
<polygon fill="black" stroke="black" points="523.853,-1768.45 522.244,-1757.97 516.971,-1767.16 523.853,-1768.45"/>
</g>
<!-- Node0x2b09c90 -->
<g id="node10" class="node"><title>Node0x2b09c90</title>
<polygon fill="none" stroke="black" points="388.5,-1633.5 388.5,-1669.5 662.5,-1669.5 662.5,-1633.5 388.5,-1633.5"/>
<text text-anchor="start" x="396.5" y="-1647.8" font-family="Times,serif" font-size="14.00">v8 = *(IntToPtrCastExpr&lt;ptr&gt;(v4))</text>
</g>
<!-- Node0x2da7fe0&#45;&gt;Node0x2b09c90 -->
<g id="edge9" class="edge"><title>Node0x2da7fe0&#45;&gt;Node0x2b09c90</title>
<path fill="none" stroke="black" d="M525.5,-1721.1C525.5,-1709.25 525.5,-1693.32 525.5,-1679.79"/>
<polygon fill="black" stroke="black" points="529,-1679.58 525.5,-1669.58 522,-1679.58 529,-1679.58"/>
<text text-anchor="middle" x="552.5" y="-1691.8" font-family="Times,serif" font-size="14.00">v1 != 0</text>
</g>
<!-- Node0x2cba750 -->
<g id="node11" class="node"><title>Node0x2cba750</title>
<polygon fill="none" stroke="black" points="720.5,-1331.5 720.5,-1399.5 874.5,-1399.5 874.5,-1331.5 720.5,-1331.5"/>
<text text-anchor="start" x="728.5" y="-1384.3" font-family="Times,serif" font-size="14.00">0x8048bae:</text>
<text text-anchor="start" x="728.5" y="-1369.3" font-family="Times,serif" font-size="14.00"> v7 = v5</text>
<text text-anchor="start" x="728.5" y="-1354.3" font-family="Times,serif" font-size="14.00"> v6 = v4</text>
<text text-anchor="start" x="728.5" y="-1339.3" font-family="Times,serif" font-size="14.00"> goto 0x8048bb5_2</text>
</g>
<!-- Node0x2da7fe0&#45;&gt;Node0x2cba750 -->
<g id="edge10" class="edge"><title>Node0x2da7fe0&#45;&gt;Node0x2cba750</title>
<path fill="none" stroke="black" d="M575.143,-1733.8C656.798,-1724.69 810.5,-1701.08 810.5,-1652.5 810.5,-1652.5 810.5,-1652.5 810.5,-1470.5 810.5,-1450.39 808.077,-1428.26 805.322,-1409.6"/>
<polygon fill="black" stroke="black" points="808.767,-1408.97 803.772,-1399.62 801.85,-1410.04 808.767,-1408.97"/>
<text text-anchor="middle" x="840.5" y="-1572.8" font-family="Times,serif" font-size="14.00">v1 == 0</text>
</g>
<!-- Node0x2dfbee0 -->
<g id="node12" class="node"><title>Node0x2dfbee0</title>
<polygon fill="none" stroke="black" points="374,-1557.5 374,-1595.5 677,-1595.5 677,-1557.5 374,-1557.5"/>
<text text-anchor="start" x="382" y="-1580.3" font-family="Times,serif" font-size="14.00">if (*(IntToPtrCastExpr&lt;ptr&gt;(v1)) &gt; v8):</text>
<text text-anchor="start" x="382" y="-1565.3" font-family="Times,serif" font-size="14.00"> else:</text>
</g>
<!-- Node0x2b09c90&#45;&gt;Node0x2dfbee0 -->
<g id="edge11" class="edge"><title>Node0x2b09c90&#45;&gt;Node0x2dfbee0</title>
<path fill="none" stroke="black" d="M525.5,-1633.2C525.5,-1624.99 525.5,-1614.97 525.5,-1605.7"/>
<polygon fill="black" stroke="black" points="529,-1605.69 525.5,-1595.69 522,-1605.69 529,-1605.69"/>
</g>
<!-- Node0x2bb6de0 -->
<g id="node13" class="node"><title>Node0x2bb6de0</title>
<polygon fill="none" stroke="black" points="464.5,-291.5 464.5,-359.5 774.5,-359.5 774.5,-291.5 464.5,-291.5"/>
<text text-anchor="start" x="472.5" y="-344.3" font-family="Times,serif" font-size="14.00">0x8048bb5_2:</text>
<text text-anchor="start" x="472.5" y="-329.3" font-family="Times,serif" font-size="14.00"> v15 = IntToPtrCastExpr&lt;ptr&gt;((v6 + 8))</text>
<text text-anchor="start" x="472.5" y="-314.3" font-family="Times,serif" font-size="14.00"> *(v15) = v7</text>
<text text-anchor="start" x="472.5" y="-299.3" font-family="Times,serif" font-size="14.00"> v16 = *(v15)</text>
</g>
<!-- Node0x2cba750&#45;&gt;Node0x2bb6de0 -->
<g id="edge12" class="edge"><title>Node0x2cba750&#45;&gt;Node0x2bb6de0</title>
<path fill="none" stroke="black" d="M797.5,-1331.43C797.5,-1311.46 797.5,-1285.52 797.5,-1262.5 797.5,-1262.5 797.5,-1262.5 797.5,-438 797.5,-404.954 775.193,-381.331 746.373,-364.602"/>
<polygon fill="black" stroke="black" points="747.694,-361.336 737.237,-359.629 744.347,-367.484 747.694,-361.336"/>
</g>
<!-- Node0x2b49010 -->
<g id="node14" class="node"><title>Node0x2b49010</title>
<polygon fill="none" stroke="black" points="101.5,-1437.5 101.5,-1505.5 415.5,-1505.5 415.5,-1437.5 101.5,-1437.5"/>
<text text-anchor="start" x="109.5" y="-1490.3" font-family="Times,serif" font-size="14.00">v9 = *(IntToPtrCastExpr&lt;ptr&gt;((v1 + 8)))</text>
<text text-anchor="start" x="109.5" y="-1475.3" font-family="Times,serif" font-size="14.00"> v10 = v1</text>
<text text-anchor="start" x="109.5" y="-1460.3" font-family="Times,serif" font-size="14.00"> v11</text>
<text text-anchor="start" x="109.5" y="-1445.3" font-family="Times,serif" font-size="14.00"> v12</text>
</g>
<!-- Node0x2dfbee0&#45;&gt;Node0x2b49010 -->
<g id="edge13" class="edge"><title>Node0x2dfbee0&#45;&gt;Node0x2b49010</title>
<path fill="none" stroke="black" d="M373.971,-1571.51C323.387,-1566.75 275.723,-1557.32 259.5,-1539 253.833,-1532.6 251.36,-1524.34 250.708,-1515.83"/>
<polygon fill="black" stroke="black" points="254.208,-1515.82 250.696,-1505.83 247.208,-1515.83 254.208,-1515.82"/>
<text text-anchor="middle" x="388.5" y="-1527.8" font-family="Times,serif" font-size="14.00">*(IntToPtrCastExpr&lt;ptr&gt;(v1)) &gt; v8</text>
</g>
<!-- Node0x2b3d890 -->
<g id="node15" class="node"><title>Node0x2b3d890</title>
<polygon fill="none" stroke="black" points="600.5,-1453.5 600.5,-1489.5 672.5,-1489.5 672.5,-1453.5 600.5,-1453.5"/>
<text text-anchor="start" x="608.5" y="-1467.8" font-family="Times,serif" font-size="14.00">v5 = v1</text>
</g>
<!-- Node0x2dfbee0&#45;&gt;Node0x2b3d890 -->
<g id="edge14" class="edge"><title>Node0x2dfbee0&#45;&gt;Node0x2b3d890</title>
<path fill="none" stroke="black" d="M521.385,-1557.44C520.007,-1546.88 520.166,-1533.75 526.5,-1524 540.825,-1501.95 567.29,-1489.16 590.672,-1481.85"/>
<polygon fill="black" stroke="black" points="591.815,-1485.16 600.46,-1479.03 589.882,-1478.43 591.815,-1485.16"/>
<text text-anchor="middle" x="661.5" y="-1527.8" font-family="Times,serif" font-size="14.00">*(IntToPtrCastExpr&lt;ptr&gt;(v1)) &lt;= v8</text>
</g>
<!-- Node0x2b37440 -->
<g id="node16" class="node"><title>Node0x2b37440</title>
<polygon fill="none" stroke="black" points="345.5,-217.5 345.5,-253.5 459.5,-253.5 459.5,-217.5 345.5,-217.5"/>
<text text-anchor="start" x="353.5" y="-231.8" font-family="Times,serif" font-size="14.00">if (v16 == 0):</text>
</g>
<!-- Node0x2bb6de0&#45;&gt;Node0x2b37440 -->
<g id="edge15" class="edge"><title>Node0x2bb6de0&#45;&gt;Node0x2b37440</title>
<path fill="none" stroke="black" d="M538.08,-291.482C509.82,-280.022 478.943,-267.5 453.802,-257.305"/>
<polygon fill="black" stroke="black" points="455.048,-254.033 444.465,-253.518 452.417,-260.52 455.048,-254.033"/>
</g>
<!-- Node0x2d333c0 -->
<g id="node17" class="node"><title>Node0x2d333c0</title>
<polygon fill="none" stroke="black" points="222,-1347.5 222,-1383.5 321,-1383.5 321,-1347.5 222,-1347.5"/>
<text text-anchor="start" x="230" y="-1361.8" font-family="Times,serif" font-size="14.00">if (v9 != 0):</text>
</g>
<!-- Node0x2b49010&#45;&gt;Node0x2d333c0 -->
<g id="edge16" class="edge"><title>Node0x2b49010&#45;&gt;Node0x2d333c0</title>
<path fill="none" stroke="black" d="M262.649,-1437.31C264.408,-1423.24 266.432,-1407.04 268.101,-1393.69"/>
<polygon fill="black" stroke="black" points="271.583,-1394.05 269.351,-1383.69 264.637,-1393.18 271.583,-1394.05"/>
</g>
<!-- Node0x2b3d890&#45;&gt;Node0x2cba750 -->
<g id="edge17" class="edge"><title>Node0x2b3d890&#45;&gt;Node0x2cba750</title>
<path fill="none" stroke="black" d="M663.086,-1453.33C683.307,-1440.26 711.928,-1421.78 737.566,-1405.22"/>
<polygon fill="black" stroke="black" points="739.629,-1408.05 746.13,-1399.68 735.831,-1402.17 739.629,-1408.05"/>
</g>
<!-- Node0x2ccb610 -->
<g id="node18" class="node"><title>Node0x2ccb610</title>
<polygon fill="none" stroke="black" points="351,-112.5 351,-150.5 452,-150.5 452,-112.5 351,-112.5"/>
<text text-anchor="start" x="359" y="-135.3" font-family="Times,serif" font-size="14.00">0x8048bd1:</text>
<text text-anchor="start" x="359" y="-120.3" font-family="Times,serif" font-size="14.00"> return</text>
</g>
<!-- Node0x2b37440&#45;&gt;Node0x2ccb610 -->
<g id="edge18" class="edge"><title>Node0x2b37440&#45;&gt;Node0x2ccb610</title>
<path fill="none" stroke="black" d="M402.33,-217.197C402.179,-201.708 401.953,-178.713 401.775,-160.59"/>
<polygon fill="black" stroke="black" points="405.275,-160.541 401.677,-150.576 398.276,-160.61 405.275,-160.541"/>
<text text-anchor="middle" x="437" y="-187.8" font-family="Times,serif" font-size="14.00">v16 == 0</text>
</g>
<!-- Node0x2d3edc0 -->
<g id="node19" class="node"><title>Node0x2d3edc0</title>
<polygon fill="none" stroke="black" points="234.5,-97.5 234.5,-165.5 332.5,-165.5 332.5,-97.5 234.5,-97.5"/>
<text text-anchor="start" x="242.5" y="-150.3" font-family="Times,serif" font-size="14.00">0x8048bbf:</text>
<text text-anchor="start" x="242.5" y="-135.3" font-family="Times,serif" font-size="14.00"> v3 = v16</text>
<text text-anchor="start" x="242.5" y="-120.3" font-family="Times,serif" font-size="14.00"> v4 = v16</text>
<text text-anchor="start" x="242.5" y="-105.3" font-family="Times,serif" font-size="14.00"> break</text>
</g>
<!-- Node0x2b37440&#45;&gt;Node0x2d3edc0 -->
<g id="edge19" class="edge"><title>Node0x2b37440&#45;&gt;Node0x2d3edc0</title>
<path fill="none" stroke="black" d="M363.538,-217.387C353.864,-212.213 343.876,-206.015 335.5,-199 326.812,-191.723 318.628,-182.775 311.436,-173.829"/>
<polygon fill="black" stroke="black" points="314.008,-171.434 305.124,-165.662 308.47,-175.715 314.008,-171.434"/>
<text text-anchor="middle" x="367" y="-187.8" font-family="Times,serif" font-size="14.00">v16 != 0</text>
</g>
<!-- Node0x2ccb6a0 -->
<g id="node20" class="node"><title>Node0x2ccb6a0</title>
<polygon fill="none" stroke="black" points="231,-1243.5 231,-1279.5 312,-1279.5 312,-1243.5 231,-1243.5"/>
<text text-anchor="start" x="239" y="-1257.8" font-family="Times,serif" font-size="14.00">v13 = v1</text>
</g>
<!-- Node0x2d333c0&#45;&gt;Node0x2ccb6a0 -->
<g id="edge20" class="edge"><title>Node0x2d333c0&#45;&gt;Node0x2ccb6a0</title>
<path fill="none" stroke="black" d="M271.5,-1347.2C271.5,-1331.42 271.5,-1307.86 271.5,-1289.59"/>
<polygon fill="black" stroke="black" points="275,-1289.55 271.5,-1279.55 268,-1289.55 275,-1289.55"/>
<text text-anchor="middle" x="298.5" y="-1301.8" font-family="Times,serif" font-size="14.00">v9 != 0</text>
</g>
<!-- Node0x2d334a0 -->
<g id="node21" class="node"><title>Node0x2d334a0</title>
<polygon fill="none" stroke="black" points="457.5,-1156.5 457.5,-1224.5 611.5,-1224.5 611.5,-1156.5 457.5,-1156.5"/>
<text text-anchor="start" x="465.5" y="-1209.3" font-family="Times,serif" font-size="14.00">0x8048baa:</text>
<text text-anchor="start" x="465.5" y="-1194.3" font-family="Times,serif" font-size="14.00"> v11 = 0</text>
<text text-anchor="start" x="465.5" y="-1179.3" font-family="Times,serif" font-size="14.00"> v12 = v10</text>
<text text-anchor="start" x="465.5" y="-1164.3" font-family="Times,serif" font-size="14.00"> goto 0x8048bb2_2</text>
</g>
<!-- Node0x2d333c0&#45;&gt;Node0x2d334a0 -->
<g id="edge21" class="edge"><title>Node0x2d333c0&#45;&gt;Node0x2d334a0</title>
<path fill="none" stroke="black" d="M297.679,-1347.28C338.956,-1320.13 420.187,-1266.69 475.898,-1230.05"/>
<polygon fill="black" stroke="black" points="477.836,-1232.96 484.267,-1224.54 473.989,-1227.11 477.836,-1232.96"/>
<text text-anchor="middle" x="400.5" y="-1301.8" font-family="Times,serif" font-size="14.00">v9 == 0</text>
</g>
<!-- Node0x2ccb610&#45;&gt;Node0x2d18200 -->
<g id="edge22" class="edge"><title>Node0x2ccb610&#45;&gt;Node0x2d18200</title>
<path fill="none" stroke="black" d="M372.278,-112.383C362.705,-106.942 351.863,-101.287 341.5,-97 289.077,-75.3152 225.2,-59.1559 185.687,-50.2731"/>
<polygon fill="black" stroke="black" points="186.223,-46.8071 175.704,-48.0673 184.713,-53.6423 186.223,-46.8071"/>
</g>
<!-- Node0x2b6f4c0 -->
<g id="node22" class="node"><title>Node0x2b6f4c0</title>
<polygon fill="none" stroke="black" points="207.5,-571.5 207.5,-639.5 361.5,-639.5 361.5,-571.5 207.5,-571.5"/>
<text text-anchor="start" x="215.5" y="-624.3" font-family="Times,serif" font-size="14.00">0x8048baa:</text>
<text text-anchor="start" x="215.5" y="-609.3" font-family="Times,serif" font-size="14.00"> v11 = 0</text>
<text text-anchor="start" x="215.5" y="-594.3" font-family="Times,serif" font-size="14.00"> v12 = v10</text>
<text text-anchor="start" x="215.5" y="-579.3" font-family="Times,serif" font-size="14.00"> goto 0x8048bb2_2</text>
</g>
<!-- Node0x2d3edc0&#45;&gt;Node0x2b6f4c0 -->
<g id="edge23" class="edge"><title>Node0x2d3edc0&#45;&gt;Node0x2b6f4c0</title>
<path fill="none" stroke="black" d="M283.5,-165.574C283.5,-185.536 283.5,-211.479 283.5,-234.5 283.5,-440 283.5,-440 283.5,-440 283.5,-481.104 283.816,-527.984 284.093,-561.154"/>
<polygon fill="black" stroke="black" points="280.595,-561.447 284.181,-571.417 287.595,-561.387 280.595,-561.447"/>
</g>
<!-- Node0x2b6f430 -->
<g id="node23" class="node"><title>Node0x2b6f430</title>
<polygon fill="none" stroke="black" points="223,-1101.5 223,-1137.5 320,-1137.5 320,-1101.5 223,-1101.5"/>
<text text-anchor="start" x="231" y="-1115.8" font-family="Times,serif" font-size="14.00">while True:</text>
</g>
<!-- Node0x2ccb6a0&#45;&gt;Node0x2b6f430 -->
<g id="edge24" class="edge"><title>Node0x2ccb6a0&#45;&gt;Node0x2b6f430</title>
<path fill="none" stroke="black" d="M271.5,-1243.33C271.5,-1219.51 271.5,-1176.16 271.5,-1147.85"/>
<polygon fill="black" stroke="black" points="275,-1147.81 271.5,-1137.81 268,-1147.81 275,-1147.81"/>
</g>
<!-- Node0x2db09b0 -->
<g id="node24" class="node"><title>Node0x2db09b0</title>
<polygon fill="none" stroke="black" points="311.5,-397.5 311.5,-480.5 639.5,-480.5 639.5,-397.5 311.5,-397.5"/>
<text text-anchor="start" x="319.5" y="-465.3" font-family="Times,serif" font-size="14.00">0x8048bb2_2:</text>
<text text-anchor="start" x="319.5" y="-450.3" font-family="Times,serif" font-size="14.00"> *(IntToPtrCastExpr&lt;ptr&gt;((v12 + 8))) = v4</text>
<text text-anchor="start" x="319.5" y="-435.3" font-family="Times,serif" font-size="14.00"> v7 = v11</text>
<text text-anchor="start" x="319.5" y="-420.3" font-family="Times,serif" font-size="14.00"> v6 = v3</text>
<text text-anchor="start" x="319.5" y="-405.3" font-family="Times,serif" font-size="14.00"> goto 0x8048bb5_2</text>
</g>
<!-- Node0x2d334a0&#45;&gt;Node0x2db09b0 -->
<g id="edge25" class="edge"><title>Node0x2d334a0&#45;&gt;Node0x2db09b0</title>
<path fill="none" stroke="black" d="M611.617,-1182.3C676.75,-1171.47 759.5,-1144.36 759.5,-1076.5 759.5,-1076.5 759.5,-1076.5 759.5,-604.5 759.5,-555.371 762.472,-532.462 726.5,-499 713.355,-486.773 683.808,-476.416 649.426,-467.957"/>
<polygon fill="black" stroke="black" points="650.148,-464.531 639.61,-465.622 648.528,-471.341 650.148,-464.531"/>
</g>
<!-- Node0x2b6f4c0&#45;&gt;Node0x2db09b0 -->
<g id="edge26" class="edge"><title>Node0x2b6f4c0&#45;&gt;Node0x2db09b0</title>
<path fill="none" stroke="black" d="M323.152,-571.211C351.188,-547.064 389.502,-514.066 420.693,-487.203"/>
<polygon fill="black" stroke="black" points="423.166,-489.692 428.459,-480.515 418.598,-484.388 423.166,-489.692"/>
</g>
<!-- Node0x2d40cf0 -->
<g id="node25" class="node"><title>Node0x2d40cf0</title>
<polygon fill="none" stroke="black" points="122.5,-996.5 122.5,-1049.5 430.5,-1049.5 430.5,-996.5 122.5,-996.5"/>
<text text-anchor="start" x="130.5" y="-1034.3" font-family="Times,serif" font-size="14.00">0x8048ba2:</text>
<text text-anchor="start" x="130.5" y="-1019.3" font-family="Times,serif" font-size="14.00"> if (*(IntToPtrCastExpr&lt;ptr&gt;(v9)) &gt; v8):</text>
<text text-anchor="start" x="130.5" y="-1004.3" font-family="Times,serif" font-size="14.00"> else:</text>
</g>
<!-- Node0x2b6f430&#45;&gt;Node0x2d40cf0 -->
<g id="edge27" class="edge"><title>Node0x2b6f430&#45;&gt;Node0x2d40cf0</title>
<path fill="none" stroke="black" d="M272.417,-1101.17C273.024,-1089.7 273.841,-1074.25 274.586,-1060.18"/>
<polygon fill="black" stroke="black" points="278.103,-1059.95 275.136,-1049.78 271.112,-1059.58 278.103,-1059.95"/>
<text text-anchor="middle" x="291.5" y="-1071.8" font-family="Times,serif" font-size="14.00">True</text>
</g>
<!-- Node0x2db09b0&#45;&gt;Node0x2bb6de0 -->
<g id="edge28" class="edge"><title>Node0x2db09b0&#45;&gt;Node0x2bb6de0</title>
<path fill="none" stroke="black" d="M527.895,-397.431C541.214,-387.118 555.501,-376.054 568.738,-365.806"/>
<polygon fill="black" stroke="black" points="571.061,-368.433 576.825,-359.543 566.775,-362.898 571.061,-368.433"/>
</g>
<!-- Node0x2d1b380 -->
<g id="node26" class="node"><title>Node0x2d1b380</title>
<polygon fill="none" stroke="black" points="123,-908.5 123,-944.5 446,-944.5 446,-908.5 123,-908.5"/>
<text text-anchor="start" x="131" y="-922.8" font-family="Times,serif" font-size="14.00">v14 = *(IntToPtrCastExpr&lt;ptr&gt;((v9 + 8)))</text>
</g>
<!-- Node0x2d40cf0&#45;&gt;Node0x2d1b380 -->
<g id="edge29" class="edge"><title>Node0x2d40cf0&#45;&gt;Node0x2d1b380</title>
<path fill="none" stroke="black" d="M206.577,-996.21C193.118,-987.215 185.62,-976.049 194.5,-963 197.748,-958.227 201.747,-954.095 206.236,-950.519"/>
<polygon fill="black" stroke="black" points="208.515,-953.201 214.79,-944.664 204.561,-947.424 208.515,-953.201"/>
<text text-anchor="middle" x="323.5" y="-966.8" font-family="Times,serif" font-size="14.00">*(IntToPtrCastExpr&lt;ptr&gt;(v9)) &gt; v8</text>
</g>
<!-- Node0x2da9a60 -->
<g id="node27" class="node"><title>Node0x2da9a60</title>
<polygon fill="none" stroke="black" points="424.5,-851.5 424.5,-889.5 524.5,-889.5 524.5,-851.5 424.5,-851.5"/>
<text text-anchor="start" x="432.5" y="-874.3" font-family="Times,serif" font-size="14.00">0x8048baa:</text>
<text text-anchor="start" x="432.5" y="-859.3" font-family="Times,serif" font-size="14.00"> v11 = v9</text>
</g>
<!-- Node0x2d40cf0&#45;&gt;Node0x2da9a60 -->
<g id="edge30" class="edge"><title>Node0x2d40cf0&#45;&gt;Node0x2da9a60</title>
<path fill="none" stroke="black" d="M415.296,-996.5C432.153,-991.158 445.794,-984.988 452.5,-978 472.338,-957.326 476.387,-923.738 476.395,-899.811"/>
<polygon fill="black" stroke="black" points="479.889,-899.495 476.157,-889.579 472.891,-899.658 479.889,-899.495"/>
<text text-anchor="middle" x="597.5" y="-966.8" font-family="Times,serif" font-size="14.00">*(IntToPtrCastExpr&lt;ptr&gt;(v9)) &lt;= v8</text>
</g>
<!-- Node0x2d909c0 -->
<g id="node28" class="node"><title>Node0x2d909c0</title>
<polygon fill="none" stroke="black" points="227.5,-796.5 227.5,-832.5 341.5,-832.5 341.5,-796.5 227.5,-796.5"/>
<text text-anchor="start" x="235.5" y="-810.8" font-family="Times,serif" font-size="14.00">if (v14 == 0):</text>
</g>
<!-- Node0x2d1b380&#45;&gt;Node0x2d909c0 -->
<g id="edge31" class="edge"><title>Node0x2d1b380&#45;&gt;Node0x2d909c0</title>
<path fill="none" stroke="black" d="M284.5,-908.312C284.5,-890.715 284.5,-863.107 284.5,-842.571"/>
<polygon fill="black" stroke="black" points="288,-842.567 284.5,-832.567 281,-842.567 288,-842.567"/>
</g>
<!-- Node0x2cbdc60 -->
<g id="node29" class="node"><title>Node0x2cbdc60</title>
<polygon fill="none" stroke="black" points="414.5,-699 414.5,-737 536.5,-737 536.5,-699 414.5,-699"/>
<text text-anchor="start" x="422.5" y="-721.8" font-family="Times,serif" font-size="14.00">if (v13 == v9):</text>
<text text-anchor="start" x="422.5" y="-706.8" font-family="Times,serif" font-size="14.00"> else:</text>
</g>
<!-- Node0x2da9a60&#45;&gt;Node0x2cbdc60 -->
<g id="edge32" class="edge"><title>Node0x2da9a60&#45;&gt;Node0x2cbdc60</title>
<path fill="none" stroke="black" d="M474.621,-851.346C474.793,-825.47 475.11,-777.744 475.312,-747.23"/>
<polygon fill="black" stroke="black" points="478.812,-747.241 475.379,-737.218 471.812,-747.195 478.812,-747.241"/>
</g>
<!-- Node0x2c3af30 -->
<g id="node30" class="node"><title>Node0x2c3af30</title>
<polygon fill="none" stroke="black" points="244,-699 244,-737 325,-737 325,-699 244,-699"/>
<text text-anchor="start" x="252" y="-721.8" font-family="Times,serif" font-size="14.00">v10 = v9</text>
<text text-anchor="start" x="252" y="-706.8" font-family="Times,serif" font-size="14.00"> break</text>
</g>
<!-- Node0x2d909c0&#45;&gt;Node0x2c3af30 -->
<g id="edge33" class="edge"><title>Node0x2d909c0&#45;&gt;Node0x2c3af30</title>
<path fill="none" stroke="black" d="M284.5,-796.167C284.5,-782.573 284.5,-763.367 284.5,-747.516"/>
<polygon fill="black" stroke="black" points="288,-747.189 284.5,-737.189 281,-747.189 288,-747.189"/>
<text text-anchor="middle" x="319" y="-766.8" font-family="Times,serif" font-size="14.00">v14 == 0</text>
</g>
<!-- Node0x2afdd90 -->
<g id="node31" class="node"><title>Node0x2afdd90</title>
<polygon fill="none" stroke="black" points="112.5,-691.5 112.5,-744.5 198.5,-744.5 198.5,-691.5 112.5,-691.5"/>
<text text-anchor="start" x="120.5" y="-729.3" font-family="Times,serif" font-size="14.00">v13 = v9</text>
<text text-anchor="start" x="120.5" y="-714.3" font-family="Times,serif" font-size="14.00"> v9 = v14</text>
<text text-anchor="start" x="120.5" y="-699.3" font-family="Times,serif" font-size="14.00"> continue</text>
</g>
<!-- Node0x2d909c0&#45;&gt;Node0x2afdd90 -->
<g id="edge34" class="edge"><title>Node0x2d909c0&#45;&gt;Node0x2afdd90</title>
<path fill="none" stroke="black" d="M247.955,-796.444C237.757,-791.078 226.902,-784.768 217.5,-778 206.843,-770.328 196.155,-760.922 186.727,-751.893"/>
<polygon fill="black" stroke="black" points="189.054,-749.273 179.462,-744.774 184.155,-754.272 189.054,-749.273"/>
<text text-anchor="middle" x="249" y="-766.8" font-family="Times,serif" font-size="14.00">v14 != 0</text>
</g>
<!-- Node0x2dfb0c0 -->
<g id="node32" class="node"><title>Node0x2dfb0c0</title>
<polygon fill="none" stroke="black" points="617.5,-499.5 617.5,-552.5 717.5,-552.5 717.5,-499.5 617.5,-499.5"/>
<text text-anchor="start" x="625.5" y="-537.3" font-family="Times,serif" font-size="14.00">0x8048bae:</text>
<text text-anchor="start" x="625.5" y="-522.3" font-family="Times,serif" font-size="14.00"> v7 = v13</text>
<text text-anchor="start" x="625.5" y="-507.3" font-family="Times,serif" font-size="14.00"> v6 = v4</text>
</g>
<!-- Node0x2cbdc60&#45;&gt;Node0x2dfb0c0 -->
<g id="edge35" class="edge"><title>Node0x2cbdc60&#45;&gt;Node0x2dfb0c0</title>
<path fill="none" stroke="black" d="M512.387,-698.895C525.138,-691.747 539.08,-682.873 550.5,-673 588.907,-639.795 624.03,-592.71 645.562,-561.073"/>
<polygon fill="black" stroke="black" points="648.594,-562.836 651.266,-552.584 642.784,-558.932 648.594,-562.836"/>
<text text-anchor="middle" x="605" y="-661.8" font-family="Times,serif" font-size="14.00">v13 == v9</text>
</g>
<!-- Node0x2c379e0 -->
<g id="node33" class="node"><title>Node0x2c379e0</title>
<polygon fill="none" stroke="black" points="430.5,-587.5 430.5,-623.5 520.5,-623.5 520.5,-587.5 430.5,-587.5"/>
<text text-anchor="start" x="438.5" y="-601.8" font-family="Times,serif" font-size="14.00">v12 = v13</text>
</g>
<!-- Node0x2cbdc60&#45;&gt;Node0x2c379e0 -->
<g id="edge36" class="edge"><title>Node0x2cbdc60&#45;&gt;Node0x2c379e0</title>
<path fill="none" stroke="black" d="M475.5,-698.753C475.5,-681.087 475.5,-654.078 475.5,-633.843"/>
<polygon fill="black" stroke="black" points="479,-633.682 475.5,-623.682 472,-633.682 479,-633.682"/>
<text text-anchor="middle" x="511" y="-661.8" font-family="Times,serif" font-size="14.00">v13 != v9</text>
</g>
<!-- Node0x2c3af30&#45;&gt;Node0x2b6f4c0 -->
<g id="edge37" class="edge"><title>Node0x2c3af30&#45;&gt;Node0x2b6f4c0</title>
<path fill="none" stroke="black" d="M284.5,-698.753C284.5,-685.453 284.5,-666.859 284.5,-649.845"/>
<polygon fill="black" stroke="black" points="288,-649.518 284.5,-639.518 281,-649.518 288,-649.518"/>
</g>
<!-- Node0x2afdd90&#45;&gt;Node0x2b6f430 -->
<g id="edge38" class="edge"><title>Node0x2afdd90&#45;&gt;Node0x2b6f430</title>
<path fill="none" stroke="black" d="M127.499,-744.71C111.464,-762.3 94.5,-787.138 94.5,-813.5 94.5,-1024 94.5,-1024 94.5,-1024 94.5,-1078.7 161.099,-1101.85 212.592,-1111.58"/>
<polygon fill="black" stroke="black" points="212.21,-1115.06 222.665,-1113.35 213.423,-1108.17 212.21,-1115.06"/>
</g>
<!-- Node0x2dfb0c0&#45;&gt;Node0x2bb6de0 -->
<g id="edge39" class="edge"><title>Node0x2dfb0c0&#45;&gt;Node0x2bb6de0</title>
<path fill="none" stroke="black" d="M665.516,-499.12C663.082,-472.991 658.046,-431.654 648.5,-397 645.943,-387.72 642.499,-378.022 638.877,-368.893"/>
<polygon fill="black" stroke="black" points="642.107,-367.545 635.068,-359.626 635.633,-370.206 642.107,-367.545"/>
</g>
<!-- Node0x2c379e0&#45;&gt;Node0x2db09b0 -->
<g id="edge40" class="edge"><title>Node0x2c379e0&#45;&gt;Node0x2db09b0</title>
<path fill="none" stroke="black" d="M475.5,-587.207C475.5,-564.579 475.5,-523.942 475.5,-491.089"/>
<polygon fill="black" stroke="black" points="479,-490.729 475.5,-480.729 472,-490.729 479,-490.729"/>
</g>
</g>
</svg>
