<?xml version="1.0" encoding="UTF-8" standalone="no"?>
<!DOCTYPE svg PUBLIC "-//W3C//DTD SVG 1.1//EN"
 "http://www.w3.org/Graphics/SVG/1.1/DTD/svg11.dtd">
<!-- Generated by graphviz version 2.38.0 (20140413.2041)
 -->
<!-- Title: Control&#45;flow graph for function &#39;phase_2()&#39;. Pages: 1 -->
<svg width="518pt" height="1012pt"
 viewBox="0.00 0.00 517.50 1012.00" xmlns="http://www.w3.org/2000/svg" xmlns:xlink="http://www.w3.org/1999/xlink">
<g id="graph0" class="graph" transform="scale(1 1) rotate(0) translate(4 1008)">
<title>Control&#45;flow graph for function &#39;phase_2()&#39;.</title>
<polygon fill="white" stroke="none" points="-4,4 -4,-1008 513.5,-1008 513.5,4 -4,4"/>
<text text-anchor="middle" x="254.75" y="-7.8" font-family="Times,serif" font-size="14.00">Control&#45;flow graph for function &#39;phase_2()&#39;.</text>
<!-- Node0x2d18060 -->
<g id="node1" class="node"><title>Node0x2d18060</title>
<polygon fill="none" stroke="black" points="330.5,-967.5 330.5,-1003.5 389.5,-1003.5 389.5,-967.5 330.5,-967.5"/>
<text text-anchor="start" x="338.5" y="-981.8" font-family="Times,serif" font-size="14.00">entry:</text>
</g>
<!-- Node0x2e14590 -->
<g id="node2" class="node"><title>Node0x2e14590</title>
<polygon fill="none" stroke="black" points="210.5,-801.5 210.5,-929.5 509.5,-929.5 509.5,-801.5 210.5,-801.5"/>
<text text-anchor="start" x="218.5" y="-914.3" font-family="Times,serif" font-size="14.00">v1 = g4</text>
<text text-anchor="start" x="218.5" y="-899.3" font-family="Times,serif" font-size="14.00"> v2 = g2</text>
<text text-anchor="start" x="218.5" y="-884.3" font-family="Times,serif" font-size="14.00"> read_six_numbers()</text>
<text text-anchor="start" x="218.5" y="-869.3" font-family="Times,serif" font-size="14.00"> v3</text>
<text text-anchor="start" x="218.5" y="-854.3" font-family="Times,serif" font-size="14.00"> v4 = PtrToIntCastExpr&lt;int32&gt;(&amp;(v3))</text>
<text text-anchor="start" x="218.5" y="-839.3" font-family="Times,serif" font-size="14.00"> g2 = v4</text>
<text text-anchor="start" x="218.5" y="-824.3" font-family="Times,serif" font-size="14.00"> v5 = &amp;(v2)</text>
<text text-anchor="start" x="218.5" y="-809.3" font-family="Times,serif" font-size="14.00"> g4 = v5</text>
</g>
<!-- Node0x2d18060&#45;&gt;Node0x2e14590 -->
<g id="edge1" class="edge"><title>Node0x2d18060&#45;&gt;Node0x2e14590</title>
<path fill="none" stroke="black" d="M360,-967.342C360,-959.719 360,-950.177 360,-940.023"/>
<polygon fill="black" stroke="black" points="363.5,-939.713 360,-929.713 356.5,-939.713 363.5,-939.713"/>
</g>
<!-- Node0x2dc8fc0 -->
<g id="node3" class="node"><title>Node0x2dc8fc0</title>
<polygon fill="none" stroke="black" points="311.5,-727.5 311.5,-763.5 408.5,-763.5 408.5,-727.5 311.5,-727.5"/>
<text text-anchor="start" x="319.5" y="-741.8" font-family="Times,serif" font-size="14.00">while True:</text>
</g>
<!-- Node0x2e14590&#45;&gt;Node0x2dc8fc0 -->
<g id="edge2" class="edge"><title>Node0x2e14590&#45;&gt;Node0x2dc8fc0</title>
<path fill="none" stroke="black" d="M360,-801.355C360,-791.753 360,-782.299 360,-774.016"/>
<polygon fill="black" stroke="black" points="363.5,-773.887 360,-763.888 356.5,-773.888 363.5,-773.887"/>
</g>
<!-- Node0x2c37e80 -->
<g id="node4" class="node"><title>Node0x2c37e80</title>
<polygon fill="none" stroke="black" points="260.5,-622.5 260.5,-675.5 337.5,-675.5 337.5,-622.5 260.5,-622.5"/>
<text text-anchor="start" x="268.5" y="-660.3" font-family="Times,serif" font-size="14.00">v6 = v5</text>
<text text-anchor="start" x="268.5" y="-645.3" font-family="Times,serif" font-size="14.00"> v7 = v4</text>
<text text-anchor="start" x="268.5" y="-630.3" font-family="Times,serif" font-size="14.00"> v8</text>
</g>
<!-- Node0x2dc8fc0&#45;&gt;Node0x2c37e80 -->
<g id="edge3" class="edge"><title>Node0x2dc8fc0&#45;&gt;Node0x2c37e80</title>
<path fill="none" stroke="black" d="M348.812,-727.167C341.121,-715.253 330.648,-699.028 321.289,-684.53"/>
<polygon fill="black" stroke="black" points="324.005,-682.283 315.641,-675.78 318.124,-686.079 324.005,-682.283"/>
<text text-anchor="middle" x="353" y="-697.8" font-family="Times,serif" font-size="14.00">True</text>
</g>
<!-- Node0x2dc90c0 -->
<g id="node5" class="node"><title>Node0x2dc90c0</title>
<polygon fill="none" stroke="black" points="103.5,-548.5 103.5,-584.5 306.5,-584.5 306.5,-548.5 103.5,-548.5"/>
<text text-anchor="start" x="111.5" y="-562.8" font-family="Times,serif" font-size="14.00">if (v3[v4] != (v8[v4] + 5)):</text>
</g>
<!-- Node0x2c37e80&#45;&gt;Node0x2dc90c0 -->
<g id="edge4" class="edge"><title>Node0x2c37e80&#45;&gt;Node0x2dc90c0</title>
<path fill="none" stroke="black" d="M268.999,-622.308C257.412,-612.385 244.232,-601.097 232.856,-591.356"/>
<polygon fill="black" stroke="black" points="234.812,-588.423 224.94,-584.577 230.259,-593.74 234.812,-588.423"/>
</g>
<!-- Node0x2cbaf30 -->
<g id="node6" class="node"><title>Node0x2cbaf30</title>
<polygon fill="none" stroke="black" points="0,-428.5 0,-496.5 134,-496.5 134,-428.5 0,-428.5"/>
<text text-anchor="start" x="8" y="-481.3" font-family="Times,serif" font-size="14.00">0x8048e25:</text>
<text text-anchor="start" x="8" y="-466.3" font-family="Times,serif" font-size="14.00"> explode_bomb()</text>
<text text-anchor="start" x="8" y="-451.3" font-family="Times,serif" font-size="14.00"> v6 = g4</text>
<text text-anchor="start" x="8" y="-436.3" font-family="Times,serif" font-size="14.00"> v7 = g2</text>
</g>
<!-- Node0x2dc90c0&#45;&gt;Node0x2cbaf30 -->
<g id="edge5" class="edge"><title>Node0x2dc90c0&#45;&gt;Node0x2cbaf30</title>
<path fill="none" stroke="black" d="M103.354,-555.425C71.8353,-550.061 42.7735,-541.997 33,-530 27.0457,-522.691 27.2157,-514.17 30.5116,-505.715"/>
<polygon fill="black" stroke="black" points="33.7235,-507.122 35.173,-496.627 27.4949,-503.927 33.7235,-507.122"/>
<text text-anchor="middle" x="112" y="-518.8" font-family="Times,serif" font-size="14.00">v3[v4] != (v8[v4] + 5)</text>
</g>
<!-- Node0x2b36ec0 -->
<g id="node7" class="node"><title>Node0x2b36ec0</title>
<polygon fill="none" stroke="black" points="148.5,-352.5 148.5,-390.5 261.5,-390.5 261.5,-352.5 148.5,-352.5"/>
<text text-anchor="start" x="156.5" y="-375.3" font-family="Times,serif" font-size="14.00">v9 = (v7 + 4)</text>
<text text-anchor="start" x="156.5" y="-360.3" font-family="Times,serif" font-size="14.00"> g2 = v9</text>
</g>
<!-- Node0x2dc90c0&#45;&gt;Node0x2b36ec0 -->
<g id="edge6" class="edge"><title>Node0x2dc90c0&#45;&gt;Node0x2b36ec0</title>
<path fill="none" stroke="black" d="M205,-548.373C205,-515.091 205,-441.393 205,-400.759"/>
<polygon fill="black" stroke="black" points="208.5,-400.71 205,-390.71 201.5,-400.71 208.5,-400.71"/>
<text text-anchor="middle" x="287" y="-458.8" font-family="Times,serif" font-size="14.00">v3[v4] == (v8[v4] + 5)</text>
</g>
<!-- Node0x2cbaf30&#45;&gt;Node0x2b36ec0 -->
<g id="edge7" class="edge"><title>Node0x2cbaf30&#45;&gt;Node0x2b36ec0</title>
<path fill="none" stroke="black" d="M118.386,-428.36C134.913,-417.701 152.886,-406.11 168.153,-396.264"/>
<polygon fill="black" stroke="black" points="170.291,-399.05 176.798,-390.688 166.497,-393.167 170.291,-399.05"/>
</g>
<!-- Node0x2b36fe0 -->
<g id="node8" class="node"><title>Node0x2b36fe0</title>
<polygon fill="none" stroke="black" points="163.5,-278.5 163.5,-314.5 276.5,-314.5 276.5,-278.5 163.5,-278.5"/>
<text text-anchor="start" x="171.5" y="-292.8" font-family="Times,serif" font-size="14.00">if (v9 == v6):</text>
</g>
<!-- Node0x2b36ec0&#45;&gt;Node0x2b36fe0 -->
<g id="edge8" class="edge"><title>Node0x2b36ec0&#45;&gt;Node0x2b36fe0</title>
<path fill="none" stroke="black" d="M208.708,-352.455C210.422,-344.111 212.496,-334.021 214.395,-324.776"/>
<polygon fill="black" stroke="black" points="217.854,-325.335 216.438,-314.835 210.997,-323.926 217.854,-325.335"/>
</g>
<!-- Node0x2b2e010 -->
<g id="node9" class="node"><title>Node0x2b2e010</title>
<polygon fill="none" stroke="black" points="136.5,-188.5 136.5,-226.5 303.5,-226.5 303.5,-188.5 136.5,-188.5"/>
<text text-anchor="start" x="144.5" y="-211.3" font-family="Times,serif" font-size="14.00">break &#45;&gt; 0x8048e31:</text>
<text text-anchor="start" x="144.5" y="-196.3" font-family="Times,serif" font-size="14.00"> break</text>
</g>
<!-- Node0x2b36fe0&#45;&gt;Node0x2b2e010 -->
<g id="edge9" class="edge"><title>Node0x2b36fe0&#45;&gt;Node0x2b2e010</title>
<path fill="none" stroke="black" d="M220,-278.312C220,-266.511 220,-250.572 220,-236.904"/>
<polygon fill="black" stroke="black" points="223.5,-236.551 220,-226.551 216.5,-236.551 223.5,-236.551"/>
<text text-anchor="middle" x="254" y="-248.8" font-family="Times,serif" font-size="14.00">v9 == v6</text>
</g>
<!-- Node0x2c4b690 -->
<g id="node10" class="node"><title>Node0x2c4b690</title>
<polygon fill="none" stroke="black" points="339.5,-188.5 339.5,-226.5 416.5,-226.5 416.5,-188.5 339.5,-188.5"/>
<text text-anchor="start" x="347.5" y="-211.3" font-family="Times,serif" font-size="14.00">v5 = v6</text>
<text text-anchor="start" x="347.5" y="-196.3" font-family="Times,serif" font-size="14.00"> v4 = v9</text>
</g>
<!-- Node0x2b36fe0&#45;&gt;Node0x2c4b690 -->
<g id="edge10" class="edge"><title>Node0x2b36fe0&#45;&gt;Node0x2c4b690</title>
<path fill="none" stroke="black" d="M256.186,-278.373C267.732,-272.718 280.496,-266.267 292,-260 307.946,-251.313 325.181,-241.152 340.004,-232.161"/>
<polygon fill="black" stroke="black" points="342.177,-234.936 348.889,-226.738 338.53,-228.961 342.177,-234.936"/>
<text text-anchor="middle" x="349" y="-248.8" font-family="Times,serif" font-size="14.00">v9 != v6</text>
</g>
<!-- Node0x2dc9040 -->
<g id="node11" class="node"><title>Node0x2dc9040</title>
<polygon fill="none" stroke="black" points="169.5,-97.5 169.5,-150.5 270.5,-150.5 270.5,-97.5 169.5,-97.5"/>
<text text-anchor="start" x="177.5" y="-135.3" font-family="Times,serif" font-size="14.00">0x8048e31:</text>
<text text-anchor="start" x="177.5" y="-120.3" font-family="Times,serif" font-size="14.00"> g2 = v2</text>
<text text-anchor="start" x="177.5" y="-105.3" font-family="Times,serif" font-size="14.00"> g4 = v1</text>
</g>
<!-- Node0x2b2e010&#45;&gt;Node0x2dc9040 -->
<g id="edge11" class="edge"><title>Node0x2b2e010&#45;&gt;Node0x2dc9040</title>
<path fill="none" stroke="black" d="M220,-188.413C220,-180.285 220,-170.394 220,-160.864"/>
<polygon fill="black" stroke="black" points="223.5,-160.766 220,-150.766 216.5,-160.766 223.5,-160.766"/>
</g>
<!-- Node0x2c4b690&#45;&gt;Node0x2dc8fc0 -->
<g id="edge12" class="edge"><title>Node0x2c4b690&#45;&gt;Node0x2dc8fc0</title>
<path fill="none" stroke="black" d="M384.327,-226.58C389.854,-244.005 397,-271.228 397,-295.5 397,-650 397,-650 397,-650 397,-674.306 386.256,-699.858 376.347,-718.255"/>
<polygon fill="black" stroke="black" points="373.176,-716.751 371.302,-727.178 379.27,-720.195 373.176,-716.751"/>
</g>
<!-- Node0x2c0d4b0 -->
<g id="node12" class="node"><title>Node0x2c0d4b0</title>
<polygon fill="none" stroke="black" points="193,-23.5 193,-59.5 247,-59.5 247,-23.5 193,-23.5"/>
<text text-anchor="start" x="201" y="-37.8" font-family="Times,serif" font-size="14.00">exit:</text>
</g>
<!-- Node0x2dc9040&#45;&gt;Node0x2c0d4b0 -->
<g id="edge13" class="edge"><title>Node0x2dc9040&#45;&gt;Node0x2c0d4b0</title>
<path fill="none" stroke="black" d="M220,-97.0862C220,-88.4596 220,-78.8224 220,-70.0748"/>
<polygon fill="black" stroke="black" points="223.5,-69.9735 220,-59.9735 216.5,-69.9735 223.5,-69.9735"/>
</g>
</g>
</svg>
