<?xml version="1.0" encoding="UTF-8" standalone="no"?>
<!DOCTYPE svg PUBLIC "-//W3C//DTD SVG 1.1//EN"
 "http://www.w3.org/Graphics/SVG/1.1/DTD/svg11.dtd">
<!-- Generated by graphviz version 2.38.0 (20140413.2041)
 -->
<!-- Title: Control&#45;flow graph for function &#39;read_six_numbers()&#39;. Pages: 1 -->
<svg width="712pt" height="502pt"
 viewBox="0.00 0.00 712.00 502.00" xmlns="http://www.w3.org/2000/svg" xmlns:xlink="http://www.w3.org/1999/xlink">
<g id="graph0" class="graph" transform="scale(1 1) rotate(0) translate(4 498)">
<title>Control&#45;flow graph for function &#39;read_six_numbers()&#39;.</title>
<polygon fill="white" stroke="none" points="-4,4 -4,-498 708,-498 708,4 -4,4"/>
<text text-anchor="middle" x="352" y="-7.8" font-family="Times,serif" font-size="14.00">Control&#45;flow graph for function &#39;read_six_numbers()&#39;.</text>
<!-- Node0x2e3d610 -->
<g id="node1" class="node"><title>Node0x2e3d610</title>
<polygon fill="none" stroke="black" points="322.5,-457.5 322.5,-493.5 381.5,-493.5 381.5,-457.5 322.5,-457.5"/>
<text text-anchor="start" x="330.5" y="-471.8" font-family="Times,serif" font-size="14.00">entry:</text>
</g>
<!-- Node0x2c2fd80 -->
<g id="node2" class="node"><title>Node0x2c2fd80</title>
<polygon fill="none" stroke="black" points="-5.68434e-14,-261.5 -5.68434e-14,-419.5 704,-419.5 704,-261.5 -5.68434e-14,-261.5"/>
<text text-anchor="start" x="8" y="-404.3" font-family="Times,serif" font-size="14.00">0x8049218:</text>
<text text-anchor="start" x="8" y="-389.3" font-family="Times,serif" font-size="14.00"> v1</text>
<text text-anchor="start" x="8" y="-374.3" font-family="Times,serif" font-size="14.00"> v2 = PtrToIntCastExpr&lt;int32&gt;(v1)</text>
<text text-anchor="start" x="8" y="-359.3" font-family="Times,serif" font-size="14.00"> v3 = IntToPtrCastExpr&lt;ptr&gt;((v2 + 20))</text>
<text text-anchor="start" x="8" y="-344.3" font-family="Times,serif" font-size="14.00"> v4 = IntToPtrCastExpr&lt;ptr&gt;((v2 + 16))</text>
<text text-anchor="start" x="8" y="-329.3" font-family="Times,serif" font-size="14.00"> v5 = IntToPtrCastExpr&lt;ptr&gt;((v2 + 12))</text>
<text text-anchor="start" x="8" y="-314.3" font-family="Times,serif" font-size="14.00"> v6 = IntToPtrCastExpr&lt;ptr&gt;((v2 + 8))</text>
<text text-anchor="start" x="8" y="-299.3" font-family="Times,serif" font-size="14.00"> v7 = IntToPtrCastExpr&lt;ptr&gt;((v2 + 4))</text>
<text text-anchor="start" x="8" y="-284.3" font-family="Times,serif" font-size="14.00"> str</text>
<text text-anchor="start" x="8" y="-269.3" font-family="Times,serif" font-size="14.00"> items_assigned = sscanf(str, &quot;%d %d %d %d %d %d&quot;, &amp;(v1), &amp;(v7), &amp;(v6), &amp;(v5), &amp;(v4), &amp;(v3))</text>
</g>
<!-- Node0x2e3d610&#45;&gt;Node0x2c2fd80 -->
<g id="edge1" class="edge"><title>Node0x2e3d610&#45;&gt;Node0x2c2fd80</title>
<path fill="none" stroke="black" d="M352,-457.385C352,-449.782 352,-440.206 352,-429.833"/>
<polygon fill="black" stroke="black" points="355.5,-429.682 352,-419.682 348.5,-429.682 355.5,-429.682"/>
</g>
<!-- Node0x2e4b6c0 -->
<g id="node3" class="node"><title>Node0x2e4b6c0</title>
<polygon fill="none" stroke="black" points="253,-187.5 253,-223.5 451,-223.5 451,-187.5 253,-187.5"/>
<text text-anchor="start" x="261" y="-201.8" font-family="Times,serif" font-size="14.00">if (items_assigned &lt;= 5):</text>
</g>
<!-- Node0x2c2fd80&#45;&gt;Node0x2e4b6c0 -->
<g id="edge2" class="edge"><title>Node0x2c2fd80&#45;&gt;Node0x2e4b6c0</title>
<path fill="none" stroke="black" d="M352,-261.364C352,-251.457 352,-241.905 352,-233.625"/>
<polygon fill="black" stroke="black" points="355.5,-233.552 352,-223.552 348.5,-233.552 355.5,-233.552"/>
</g>
<!-- Node0x2c2c250 -->
<g id="node4" class="node"><title>Node0x2c2c250</title>
<polygon fill="none" stroke="black" points="234,-97.5 234,-135.5 368,-135.5 368,-97.5 234,-97.5"/>
<text text-anchor="start" x="242" y="-120.3" font-family="Times,serif" font-size="14.00">0x8049260:</text>
<text text-anchor="start" x="242" y="-105.3" font-family="Times,serif" font-size="14.00"> explode_bomb()</text>
</g>
<!-- Node0x2e4b6c0&#45;&gt;Node0x2c2c250 -->
<g id="edge3" class="edge"><title>Node0x2e4b6c0&#45;&gt;Node0x2c2c250</title>
<path fill="none" stroke="black" d="M289.242,-187.498C281.247,-182.764 274.093,-176.718 269,-169 263.608,-160.829 266.357,-151.798 272.043,-143.611"/>
<polygon fill="black" stroke="black" points="274.85,-145.708 278.516,-135.767 269.451,-141.252 274.85,-145.708"/>
<text text-anchor="middle" x="345.5" y="-157.8" font-family="Times,serif" font-size="14.00">items_assigned &lt;= 5</text>
</g>
<!-- Node0x2d38e50 -->
<g id="node5" class="node"><title>Node0x2d38e50</title>
<polygon fill="none" stroke="black" points="369,-23.5 369,-59.5 423,-59.5 423,-23.5 369,-23.5"/>
<text text-anchor="start" x="377" y="-37.8" font-family="Times,serif" font-size="14.00">exit:</text>
</g>
<!-- Node0x2e4b6c0&#45;&gt;Node0x2d38e50 -->
<g id="edge4" class="edge"><title>Node0x2e4b6c0&#45;&gt;Node0x2d38e50</title>
<path fill="none" stroke="black" d="M403.013,-187.308C410.571,-182.551 417.365,-176.548 422,-169 440.997,-138.066 425.564,-95.6599 411.653,-68.6672"/>
<polygon fill="black" stroke="black" points="414.695,-66.9335 406.855,-59.8064 408.539,-70.2666 414.695,-66.9335"/>
<text text-anchor="middle" x="500.5" y="-112.8" font-family="Times,serif" font-size="14.00">items_assigned &gt; 5</text>
</g>
<!-- Node0x2c2c250&#45;&gt;Node0x2d38e50 -->
<g id="edge5" class="edge"><title>Node0x2c2c250&#45;&gt;Node0x2d38e50</title>
<path fill="none" stroke="black" d="M324.483,-97.4551C336.951,-87.8747 352.414,-75.9925 365.769,-65.7303"/>
<polygon fill="black" stroke="black" points="367.969,-68.4534 373.766,-59.585 363.704,-62.9028 367.969,-68.4534"/>
</g>
</g>
</svg>
