<?xml version="1.0" encoding="UTF-8" standalone="no"?>
<!DOCTYPE svg PUBLIC "-//W3C//DTD SVG 1.1//EN"
 "http://www.w3.org/Graphics/SVG/1.1/DTD/svg11.dtd">
<!-- Generated by graphviz version 2.38.0 (20140413.2041)
 -->
<!-- Title: Control&#45;flow graph for function &#39;blank_line()&#39;. Pages: 1 -->
<svg width="1259pt" height="1038pt"
 viewBox="0.00 0.00 1258.50 1038.00" xmlns="http://www.w3.org/2000/svg" xmlns:xlink="http://www.w3.org/1999/xlink">
<g id="graph0" class="graph" transform="scale(1 1) rotate(0) translate(4 1034)">
<title>Control&#45;flow graph for function &#39;blank_line()&#39;.</title>
<polygon fill="white" stroke="none" points="-4,4 -4,-1034 1254.5,-1034 1254.5,4 -4,4"/>
<text text-anchor="middle" x="625.25" y="-7.8" font-family="Times,serif" font-size="14.00">Control&#45;flow graph for function &#39;blank_line()&#39;.</text>
<!-- Node0x2d40bf0 -->
<g id="node1" class="node"><title>Node0x2d40bf0</title>
<polygon fill="none" stroke="black" points="128,-993.5 128,-1029.5 187,-1029.5 187,-993.5 128,-993.5"/>
<text text-anchor="start" x="136" y="-1007.8" font-family="Times,serif" font-size="14.00">entry:</text>
</g>
<!-- Node0x2c2c2b0 -->
<g id="node2" class="node"><title>Node0x2c2c2b0</title>
<polygon fill="none" stroke="black" points="28,-887.5 28,-955.5 287,-955.5 287,-887.5 28,-887.5"/>
<text text-anchor="start" x="36" y="-940.3" font-family="Times,serif" font-size="14.00">v1</text>
<text text-anchor="start" x="36" y="-925.3" font-family="Times,serif" font-size="14.00"> v2 = ExtCastExpr&lt;int32&gt;(*(v1))</text>
<text text-anchor="start" x="36" y="-910.3" font-family="Times,serif" font-size="14.00"> v3 = v2</text>
<text text-anchor="start" x="36" y="-895.3" font-family="Times,serif" font-size="14.00"> v4 = v1[v2]</text>
</g>
<!-- Node0x2d40bf0&#45;&gt;Node0x2c2c2b0 -->
<g id="edge1" class="edge"><title>Node0x2d40bf0&#45;&gt;Node0x2c2c2b0</title>
<path fill="none" stroke="black" d="M157.5,-993.114C157.5,-985.158 157.5,-975.343 157.5,-965.588"/>
<polygon fill="black" stroke="black" points="161,-965.524 157.5,-955.524 154,-965.524 161,-965.524"/>
</g>
<!-- Node0x2b6f1f0 -->
<g id="node3" class="node"><title>Node0x2b6f1f0</title>
<polygon fill="none" stroke="black" points="105,-813.5 105,-849.5 210,-849.5 210,-813.5 105,-813.5"/>
<text text-anchor="start" x="113" y="-827.8" font-family="Times,serif" font-size="14.00">if (v4 == 0):</text>
</g>
<!-- Node0x2c2c2b0&#45;&gt;Node0x2b6f1f0 -->
<g id="edge2" class="edge"><title>Node0x2c2c2b0&#45;&gt;Node0x2b6f1f0</title>
<path fill="none" stroke="black" d="M157.5,-887.482C157.5,-878.328 157.5,-868.497 157.5,-859.715"/>
<polygon fill="black" stroke="black" points="161,-859.64 157.5,-849.64 154,-859.64 161,-859.64"/>
</g>
<!-- Node0x2cbdb30 -->
<g id="node4" class="node"><title>Node0x2cbdb30</title>
<polygon fill="none" stroke="black" points="0,-668.5 0,-706.5 101,-706.5 101,-668.5 0,-668.5"/>
<text text-anchor="start" x="8" y="-691.3" font-family="Times,serif" font-size="14.00">0x8049298:</text>
<text text-anchor="start" x="8" y="-676.3" font-family="Times,serif" font-size="14.00"> return</text>
</g>
<!-- Node0x2b6f1f0&#45;&gt;Node0x2cbdb30 -->
<g id="edge3" class="edge"><title>Node0x2b6f1f0&#45;&gt;Node0x2cbdb30</title>
<path fill="none" stroke="black" d="M144.593,-813.371C126.077,-788.799 91.8249,-743.342 70.1508,-714.579"/>
<polygon fill="black" stroke="black" points="72.9405,-712.465 64.1272,-706.585 67.3499,-716.677 72.9405,-712.465"/>
<text text-anchor="middle" x="160.5" y="-783.8" font-family="Times,serif" font-size="14.00">v4 == 0</text>
</g>
<!-- Node0x2c45ff0 -->
<g id="node5" class="node"><title>Node0x2c45ff0</title>
<polygon fill="none" stroke="black" points="457.5,-725.5 457.5,-761.5 529.5,-761.5 529.5,-725.5 457.5,-725.5"/>
<text text-anchor="start" x="465.5" y="-739.8" font-family="Times,serif" font-size="14.00">v5 = v4</text>
</g>
<!-- Node0x2b6f1f0&#45;&gt;Node0x2c45ff0 -->
<g id="edge4" class="edge"><title>Node0x2b6f1f0&#45;&gt;Node0x2c45ff0</title>
<path fill="none" stroke="black" d="M210.37,-816.968C275.668,-800.255 385.679,-772.097 447.592,-756.25"/>
<polygon fill="black" stroke="black" points="448.649,-759.593 457.469,-753.722 446.914,-752.811 448.649,-759.593"/>
<text text-anchor="middle" x="373.5" y="-783.8" font-family="Times,serif" font-size="14.00">v4 != 0</text>
</g>
<!-- Node0x2c06300 -->
<g id="node6" class="node"><title>Node0x2c06300</title>
<polygon fill="none" stroke="black" points="73.5,-23.5 73.5,-59.5 127.5,-59.5 127.5,-23.5 73.5,-23.5"/>
<text text-anchor="start" x="81.5" y="-37.8" font-family="Times,serif" font-size="14.00">exit:</text>
</g>
<!-- Node0x2cbdb30&#45;&gt;Node0x2c06300 -->
<g id="edge5" class="edge"><title>Node0x2cbdb30&#45;&gt;Node0x2c06300</title>
<path fill="none" stroke="black" d="M45.6995,-668.222C40.9866,-648.647 34.5,-616.6 34.5,-588.5 34.5,-588.5 34.5,-588.5 34.5,-115.5 34.5,-94.6944 49.4338,-77.1647 65.094,-64.502"/>
<polygon fill="black" stroke="black" points="67.398,-67.1482 73.2742,-58.3323 63.1829,-61.5595 67.398,-67.1482"/>
</g>
<!-- Node0x2cbda90 -->
<g id="node7" class="node"><title>Node0x2cbda90</title>
<polygon fill="none" stroke="black" points="585,-613.5 585,-649.5 682,-649.5 682,-613.5 585,-613.5"/>
<text text-anchor="start" x="593" y="-627.8" font-family="Times,serif" font-size="14.00">while True:</text>
</g>
<!-- Node0x2c45ff0&#45;&gt;Node0x2cbda90 -->
<g id="edge6" class="edge"><title>Node0x2c45ff0&#45;&gt;Node0x2cbda90</title>
<path fill="none" stroke="black" d="M515.375,-725.312C539.108,-706.665 577.145,-676.779 603.621,-655.976"/>
<polygon fill="black" stroke="black" points="606.078,-658.497 611.779,-649.567 601.753,-652.993 606.078,-658.497"/>
</g>
<!-- Node0x2c3c6c0 -->
<g id="node8" class="node"><title>Node0x2c3c6c0</title>
<polygon fill="none" stroke="black" points="494,-493.5 494,-561.5 773,-561.5 773,-493.5 494,-493.5"/>
<text text-anchor="start" x="502" y="-546.3" font-family="Times,serif" font-size="14.00">0x8049271:</text>
<text text-anchor="start" x="502" y="-531.3" font-family="Times,serif" font-size="14.00"> __ctype_b_loc()</text>
<text text-anchor="start" x="502" y="-516.3" font-family="Times,serif" font-size="14.00"> v6 = *(IntToPtrCastExpr&lt;ptr&gt;(g1))</text>
<text text-anchor="start" x="502" y="-501.3" font-family="Times,serif" font-size="14.00"> g1 = v6</text>
</g>
<!-- Node0x2cbda90&#45;&gt;Node0x2c3c6c0 -->
<g id="edge7" class="edge"><title>Node0x2cbda90&#45;&gt;Node0x2c3c6c0</title>
<path fill="none" stroke="black" d="M633.5,-613.197C633.5,-601.854 633.5,-586.486 633.5,-571.954"/>
<polygon fill="black" stroke="black" points="637,-571.59 633.5,-561.59 630,-571.59 637,-571.59"/>
<text text-anchor="middle" x="650.5" y="-583.8" font-family="Times,serif" font-size="14.00">True</text>
</g>
<!-- Node0x29a8770 -->
<g id="node9" class="node"><title>Node0x29a8770</title>
<polygon fill="none" stroke="black" points="338,-419.5 338,-455.5 929,-455.5 929,-419.5 338,-419.5"/>
<text text-anchor="start" x="346" y="-433.8" font-family="Times,serif" font-size="14.00">if (*(IntToPtrCastExpr&lt;ptr&gt;(((v6 + 1) + ((16777216 * v5) / 8388608)))) == 32):</text>
</g>
<!-- Node0x2c3c6c0&#45;&gt;Node0x29a8770 -->
<g id="edge8" class="edge"><title>Node0x2c3c6c0&#45;&gt;Node0x29a8770</title>
<path fill="none" stroke="black" d="M633.5,-493.482C633.5,-484.328 633.5,-474.497 633.5,-465.715"/>
<polygon fill="black" stroke="black" points="637,-465.64 633.5,-455.64 630,-465.64 637,-465.64"/>
</g>
<!-- Node0x2b732b0 -->
<g id="node10" class="node"><title>Node0x2b732b0</title>
<polygon fill="none" stroke="black" points="50,-242.5 50,-280.5 151,-280.5 151,-242.5 50,-242.5"/>
<text text-anchor="start" x="58" y="-265.3" font-family="Times,serif" font-size="14.00">0x8049298:</text>
<text text-anchor="start" x="58" y="-250.3" font-family="Times,serif" font-size="14.00"> return</text>
</g>
<!-- Node0x29a8770&#45;&gt;Node0x2b732b0 -->
<g id="edge9" class="edge"><title>Node0x29a8770&#45;&gt;Node0x2b732b0</title>
<path fill="none" stroke="black" d="M337.814,-434.302C218.961,-430.274 105.331,-421.093 86.5,-401 58.7626,-371.404 73.4125,-321.084 86.7929,-289.935"/>
<polygon fill="black" stroke="black" points="90.1073,-291.1 91.0372,-280.546 83.7288,-288.217 90.1073,-291.1"/>
<text text-anchor="middle" x="359.5" y="-389.8" font-family="Times,serif" font-size="14.00">*(IntToPtrCastExpr&lt;ptr&gt;(((v6 + 1) + ((16777216 * v5) / 8388608)))) == 32</text>
</g>
<!-- Node0x2e28bd0 -->
<g id="node11" class="node"><title>Node0x2e28bd0</title>
<polygon fill="none" stroke="black" points="585,-299.5 585,-367.5 698,-367.5 698,-299.5 585,-299.5"/>
<text text-anchor="start" x="593" y="-352.3" font-family="Times,serif" font-size="14.00">v7 = (v3 + 1)</text>
<text text-anchor="start" x="593" y="-337.3" font-family="Times,serif" font-size="14.00"> v3 = v7</text>
<text text-anchor="start" x="593" y="-322.3" font-family="Times,serif" font-size="14.00"> v8 = v1[v7]</text>
<text text-anchor="start" x="593" y="-307.3" font-family="Times,serif" font-size="14.00"> v5 = v8</text>
</g>
<!-- Node0x29a8770&#45;&gt;Node0x2e28bd0 -->
<g id="edge10" class="edge"><title>Node0x29a8770&#45;&gt;Node0x2e28bd0</title>
<path fill="none" stroke="black" d="M634.857,-419.197C635.747,-407.854 636.952,-392.486 638.092,-377.954"/>
<polygon fill="black" stroke="black" points="641.612,-377.833 638.905,-367.59 634.633,-377.286 641.612,-377.833"/>
<text text-anchor="middle" x="907.5" y="-389.8" font-family="Times,serif" font-size="14.00">*(IntToPtrCastExpr&lt;ptr&gt;(((v6 + 1) + ((16777216 * v5) / 8388608)))) != 32</text>
</g>
<!-- Node0x2b732b0&#45;&gt;Node0x2c06300 -->
<g id="edge11" class="edge"><title>Node0x2b732b0&#45;&gt;Node0x2c06300</title>
<path fill="none" stroke="black" d="M100.5,-242.288C100.5,-204.001 100.5,-114.982 100.5,-69.8226"/>
<polygon fill="black" stroke="black" points="104,-69.5997 100.5,-59.5997 97.0001,-69.5997 104,-69.5997"/>
</g>
<!-- Node0x2dbfec0 -->
<g id="node12" class="node"><title>Node0x2dbfec0</title>
<polygon fill="none" stroke="black" points="589,-187.5 589,-223.5 694,-223.5 694,-187.5 589,-187.5"/>
<text text-anchor="start" x="597" y="-201.8" font-family="Times,serif" font-size="14.00">if (v8 == 0):</text>
</g>
<!-- Node0x2e28bd0&#45;&gt;Node0x2dbfec0 -->
<g id="edge12" class="edge"><title>Node0x2e28bd0&#45;&gt;Node0x2dbfec0</title>
<path fill="none" stroke="black" d="M641.5,-299.395C641.5,-278.942 641.5,-253.017 641.5,-233.755"/>
<polygon fill="black" stroke="black" points="645,-233.546 641.5,-223.546 638,-233.546 645,-233.546"/>
</g>
<!-- Node0x2dbfec0&#45;&gt;Node0x2cbda90 -->
<g id="edge14" class="edge"><title>Node0x2dbfec0&#45;&gt;Node0x2cbda90</title>
<path fill="none" stroke="black" d="M694.213,-207.329C832.751,-210.924 1196.5,-230.112 1196.5,-332.5 1196.5,-528.5 1196.5,-528.5 1196.5,-528.5 1196.5,-579.307 836.919,-614.052 692.496,-625.958"/>
<polygon fill="black" stroke="black" points="692.16,-622.474 682.478,-626.776 692.729,-629.451 692.16,-622.474"/>
<text text-anchor="middle" x="1223.5" y="-433.8" font-family="Times,serif" font-size="14.00">v8 != 0</text>
</g>
<!-- Node0x2b73380 -->
<g id="node13" class="node"><title>Node0x2b73380</title>
<polygon fill="none" stroke="black" points="235.5,-97.5 235.5,-135.5 403.5,-135.5 403.5,-97.5 235.5,-97.5"/>
<text text-anchor="start" x="243.5" y="-120.3" font-family="Times,serif" font-size="14.00">break &#45;&gt; 0x8049298:</text>
<text text-anchor="start" x="243.5" y="-105.3" font-family="Times,serif" font-size="14.00"> break</text>
</g>
<!-- Node0x2dbfec0&#45;&gt;Node0x2b73380 -->
<g id="edge13" class="edge"><title>Node0x2dbfec0&#45;&gt;Node0x2b73380</title>
<path fill="none" stroke="black" d="M588.689,-190.231C536.296,-176.075 455.453,-154.233 396.028,-138.177"/>
<polygon fill="black" stroke="black" points="396.879,-134.781 386.312,-135.552 395.053,-141.539 396.879,-134.781"/>
<text text-anchor="middle" x="539.5" y="-157.8" font-family="Times,serif" font-size="14.00">v8 == 0</text>
</g>
<!-- Node0x2b73380&#45;&gt;Node0x2c06300 -->
<g id="edge15" class="edge"><title>Node0x2b73380&#45;&gt;Node0x2c06300</title>
<path fill="none" stroke="black" d="M265.365,-97.4551C225.592,-84.1973 172.594,-66.5314 137.552,-54.8507"/>
<polygon fill="black" stroke="black" points="138.324,-51.4186 127.73,-51.5766 136.11,-58.0594 138.324,-51.4186"/>
</g>
</g>
</svg>
