<?xml version="1.0" encoding="UTF-8" standalone="no"?>
<!DOCTYPE svg PUBLIC "-//W3C//DTD SVG 1.1//EN"
 "http://www.w3.org/Graphics/SVG/1.1/DTD/svg11.dtd">
<!-- Generated by graphviz version 2.38.0 (20140413.2041)
 -->
<!-- Title: Control&#45;flow graph for function &#39;main(argc, **argv)&#39;. Pages: 1 -->
<svg width="1818pt" height="2228pt"
 viewBox="0.00 0.00 1818.00 2228.00" xmlns="http://www.w3.org/2000/svg" xmlns:xlink="http://www.w3.org/1999/xlink">
<g id="graph0" class="graph" transform="scale(1 1) rotate(0) translate(4 2224)">
<title>Control&#45;flow graph for function &#39;main(argc, **argv)&#39;.</title>
<polygon fill="white" stroke="none" points="-4,4 -4,-2224 1814,-2224 1814,4 -4,4"/>
<text text-anchor="middle" x="905" y="-7.8" font-family="Times,serif" font-size="14.00">Control&#45;flow graph for function &#39;main(argc, **argv)&#39;.</text>
<!-- Node0x2c50430 -->
<g id="node1" class="node"><title>Node0x2c50430</title>
<polygon fill="none" stroke="black" points="575.5,-2166.5 575.5,-2219.5 634.5,-2219.5 634.5,-2166.5 575.5,-2166.5"/>
<text text-anchor="start" x="583.5" y="-2204.3" font-family="Times,serif" font-size="14.00">entry:</text>
<text text-anchor="start" x="583.5" y="-2189.3" font-family="Times,serif" font-size="14.00"> argc</text>
<text text-anchor="start" x="583.5" y="-2174.3" font-family="Times,serif" font-size="14.00"> argv</text>
</g>
<!-- Node0x2ea3530 -->
<g id="node2" class="node"><title>Node0x2ea3530</title>
<polygon fill="none" stroke="black" points="461.5,-1985.5 461.5,-2128.5 748.5,-2128.5 748.5,-1985.5 461.5,-1985.5"/>
<text text-anchor="start" x="469.5" y="-2113.3" font-family="Times,serif" font-size="14.00">v1 = PtrToIntCastExpr&lt;int32&gt;(argv)</text>
<text text-anchor="start" x="469.5" y="-2098.3" font-family="Times,serif" font-size="14.00"> g4 = v1</text>
<text text-anchor="start" x="469.5" y="-2083.3" font-family="Times,serif" font-size="14.00"> puts_rc6</text>
<text text-anchor="start" x="469.5" y="-2068.3" font-family="Times,serif" font-size="14.00"> puts_rc</text>
<text text-anchor="start" x="469.5" y="-2053.3" font-family="Times,serif" font-size="14.00"> puts_rc2</text>
<text text-anchor="start" x="469.5" y="-2038.3" font-family="Times,serif" font-size="14.00"> puts_rc3</text>
<text text-anchor="start" x="469.5" y="-2023.3" font-family="Times,serif" font-size="14.00"> puts_rc4</text>
<text text-anchor="start" x="469.5" y="-2008.3" font-family="Times,serif" font-size="14.00"> puts_rc5</text>
<text text-anchor="start" x="469.5" y="-1993.3" font-family="Times,serif" font-size="14.00"> file_path</text>
</g>
<!-- Node0x2c50430&#45;&gt;Node0x2ea3530 -->
<g id="edge1" class="edge"><title>Node0x2c50430&#45;&gt;Node0x2ea3530</title>
<path fill="none" stroke="black" d="M605,-2166.48C605,-2158.28 605,-2148.71 605,-2138.72"/>
<polygon fill="black" stroke="black" points="608.5,-2138.62 605,-2128.62 601.5,-2138.62 608.5,-2138.62"/>
</g>
<!-- Node0x2ae7a60 -->
<g id="node3" class="node"><title>Node0x2ae7a60</title>
<polygon fill="none" stroke="black" points="361,-1911.5 361,-1947.5 849,-1947.5 849,-1911.5 361,-1911.5"/>
<text text-anchor="start" x="369" y="-1925.8" font-family="Times,serif" font-size="14.00">if (IntToPtrCastExpr&lt;ptr&gt;(argc) == IntToPtrCastExpr&lt;ptr&gt;(1)):</text>
</g>
<!-- Node0x2ea3530&#45;&gt;Node0x2ae7a60 -->
<g id="edge2" class="edge"><title>Node0x2ea3530&#45;&gt;Node0x2ae7a60</title>
<path fill="none" stroke="black" d="M605,-1985.18C605,-1975.44 605,-1965.96 605,-1957.71"/>
<polygon fill="black" stroke="black" points="608.5,-1957.64 605,-1947.64 601.5,-1957.64 608.5,-1957.64"/>
</g>
<!-- Node0x2da0bb0 -->
<g id="node4" class="node"><title>Node0x2da0bb0</title>
<polygon fill="none" stroke="black" points="0,-1164.5 0,-1802.5 746,-1802.5 746,-1164.5 0,-1164.5"/>
<text text-anchor="start" x="8" y="-1787.3" font-family="Times,serif" font-size="14.00">0x8048a0a:</text>
<text text-anchor="start" x="8" y="-1772.3" font-family="Times,serif" font-size="14.00"> infile = IntToPtrCastExpr&lt;ptr&gt;(g7)</text>
<text text-anchor="start" x="8" y="-1757.3" font-family="Times,serif" font-size="14.00"> initialize_bomb()</text>
<text text-anchor="start" x="8" y="-1742.3" font-family="Times,serif" font-size="14.00"> file_path = PtrToIntCastExpr&lt;int32&gt;(&quot;Welcome to my fiendish little bomb. You have 6 phases with&quot;)</text>
<text text-anchor="start" x="8" y="-1727.3" font-family="Times,serif" font-size="14.00"> puts(&quot;Welcome to my fiendish little bomb. You have 6 phases with&quot;)</text>
<text text-anchor="start" x="8" y="-1712.3" font-family="Times,serif" font-size="14.00"> file_path = PtrToIntCastExpr&lt;int32&gt;(&quot;which to blow yourself up. Have a nice day!&quot;)</text>
<text text-anchor="start" x="8" y="-1697.3" font-family="Times,serif" font-size="14.00"> puts_rc = puts(&quot;which to blow yourself up. Have a nice day!&quot;)</text>
<text text-anchor="start" x="8" y="-1682.3" font-family="Times,serif" font-size="14.00"> read_line()</text>
<text text-anchor="start" x="8" y="-1667.3" font-family="Times,serif" font-size="14.00"> file_path = puts_rc</text>
<text text-anchor="start" x="8" y="-1652.3" font-family="Times,serif" font-size="14.00"> phase_1()</text>
<text text-anchor="start" x="8" y="-1637.3" font-family="Times,serif" font-size="14.00"> phase_defused()</text>
<text text-anchor="start" x="8" y="-1622.3" font-family="Times,serif" font-size="14.00"> file_path = PtrToIntCastExpr&lt;int32&gt;(&quot;Phase 1 defused. How about the next one?&quot;)</text>
<text text-anchor="start" x="8" y="-1607.3" font-family="Times,serif" font-size="14.00"> puts_rc2 = puts(&quot;Phase 1 defused. How about the next one?&quot;)</text>
<text text-anchor="start" x="8" y="-1592.3" font-family="Times,serif" font-size="14.00"> read_line()</text>
<text text-anchor="start" x="8" y="-1577.3" font-family="Times,serif" font-size="14.00"> file_path = puts_rc2</text>
<text text-anchor="start" x="8" y="-1562.3" font-family="Times,serif" font-size="14.00"> phase_2()</text>
<text text-anchor="start" x="8" y="-1547.3" font-family="Times,serif" font-size="14.00"> phase_defused()</text>
<text text-anchor="start" x="8" y="-1532.3" font-family="Times,serif" font-size="14.00"> file_path = PtrToIntCastExpr&lt;int32&gt;(&quot;That&#39;s number 2. Keep going!&quot;)</text>
<text text-anchor="start" x="8" y="-1517.3" font-family="Times,serif" font-size="14.00"> puts_rc3 = puts(&quot;That&#39;s number 2. Keep going!&quot;)</text>
<text text-anchor="start" x="8" y="-1502.3" font-family="Times,serif" font-size="14.00"> read_line()</text>
<text text-anchor="start" x="8" y="-1487.3" font-family="Times,serif" font-size="14.00"> file_path = puts_rc3</text>
<text text-anchor="start" x="8" y="-1472.3" font-family="Times,serif" font-size="14.00"> phase_3()</text>
<text text-anchor="start" x="8" y="-1457.3" font-family="Times,serif" font-size="14.00"> phase_defused()</text>
<text text-anchor="start" x="8" y="-1442.3" font-family="Times,serif" font-size="14.00"> file_path = PtrToIntCastExpr&lt;int32&gt;(&quot;Halfway there!&quot;)</text>
<text text-anchor="start" x="8" y="-1427.3" font-family="Times,serif" font-size="14.00"> puts_rc4 = puts(&quot;Halfway there!&quot;)</text>
<text text-anchor="start" x="8" y="-1412.3" font-family="Times,serif" font-size="14.00"> read_line()</text>
<text text-anchor="start" x="8" y="-1397.3" font-family="Times,serif" font-size="14.00"> file_path = puts_rc4</text>
<text text-anchor="start" x="8" y="-1382.3" font-family="Times,serif" font-size="14.00"> phase_4()</text>
<text text-anchor="start" x="8" y="-1367.3" font-family="Times,serif" font-size="14.00"> phase_defused()</text>
<text text-anchor="start" x="8" y="-1352.3" font-family="Times,serif" font-size="14.00"> file_path = PtrToIntCastExpr&lt;int32&gt;(&quot;So you got that one. Try this one.&quot;)</text>
<text text-anchor="start" x="8" y="-1337.3" font-family="Times,serif" font-size="14.00"> puts_rc5 = puts(&quot;So you got that one. Try this one.&quot;)</text>
<text text-anchor="start" x="8" y="-1322.3" font-family="Times,serif" font-size="14.00"> read_line()</text>
<text text-anchor="start" x="8" y="-1307.3" font-family="Times,serif" font-size="14.00"> file_path = puts_rc5</text>
<text text-anchor="start" x="8" y="-1292.3" font-family="Times,serif" font-size="14.00"> phase_5()</text>
<text text-anchor="start" x="8" y="-1277.3" font-family="Times,serif" font-size="14.00"> phase_defused()</text>
<text text-anchor="start" x="8" y="-1262.3" font-family="Times,serif" font-size="14.00"> file_path = PtrToIntCastExpr&lt;int32&gt;(&quot;Good work! On to the next...&quot;)</text>
<text text-anchor="start" x="8" y="-1247.3" font-family="Times,serif" font-size="14.00"> puts_rc6 = puts(&quot;Good work! On to the next...&quot;)</text>
<text text-anchor="start" x="8" y="-1232.3" font-family="Times,serif" font-size="14.00"> read_line()</text>
<text text-anchor="start" x="8" y="-1217.3" font-family="Times,serif" font-size="14.00"> file_path = puts_rc6</text>
<text text-anchor="start" x="8" y="-1202.3" font-family="Times,serif" font-size="14.00"> phase_6()</text>
<text text-anchor="start" x="8" y="-1187.3" font-family="Times,serif" font-size="14.00"> phase_defused()</text>
<text text-anchor="start" x="8" y="-1172.3" font-family="Times,serif" font-size="14.00"> return 0</text>
</g>
<!-- Node0x2ae7a60&#45;&gt;Node0x2da0bb0 -->
<g id="edge3" class="edge"><title>Node0x2ae7a60&#45;&gt;Node0x2da0bb0</title>
<path fill="none" stroke="black" d="M405.464,-1911.44C389.271,-1906.69 376.593,-1900.66 370,-1893 349.742,-1869.45 336.503,-1842 328.476,-1812.68"/>
<polygon fill="black" stroke="black" points="331.79,-1811.51 325.95,-1802.67 325.002,-1813.22 331.79,-1811.51"/>
<text text-anchor="middle" x="591" y="-1881.8" font-family="Times,serif" font-size="14.00">IntToPtrCastExpr&lt;ptr&gt;(argc) == IntToPtrCastExpr&lt;ptr&gt;(1)</text>
</g>
<!-- Node0x2c39650 -->
<g id="node5" class="node"><title>Node0x2c39650</title>
<polygon fill="none" stroke="black" points="787.5,-1821.5 787.5,-1859.5 888.5,-1859.5 888.5,-1821.5 787.5,-1821.5"/>
<text text-anchor="start" x="795.5" y="-1844.3" font-family="Times,serif" font-size="14.00">0x8048a16:</text>
<text text-anchor="start" x="795.5" y="-1829.3" font-family="Times,serif" font-size="14.00"> v2</text>
</g>
<!-- Node0x2ae7a60&#45;&gt;Node0x2c39650 -->
<g id="edge4" class="edge"><title>Node0x2ae7a60&#45;&gt;Node0x2c39650</title>
<path fill="none" stroke="black" d="M764.985,-1911.45C787.536,-1906.66 806.331,-1900.61 816,-1893 823.493,-1887.1 828.474,-1878.16 831.768,-1869.38"/>
<polygon fill="black" stroke="black" points="835.151,-1870.29 834.814,-1859.7 828.474,-1868.19 835.151,-1870.29"/>
<text text-anchor="middle" x="1046" y="-1881.8" font-family="Times,serif" font-size="14.00">IntToPtrCastExpr&lt;ptr&gt;(argc) != IntToPtrCastExpr&lt;ptr&gt;(1)</text>
</g>
<!-- Node0x2c04360 -->
<g id="node6" class="node"><title>Node0x2c04360</title>
<polygon fill="none" stroke="black" points="537,-23.5 537,-59.5 591,-59.5 591,-23.5 537,-23.5"/>
<text text-anchor="start" x="545" y="-37.8" font-family="Times,serif" font-size="14.00">exit:</text>
</g>
<!-- Node0x2da0bb0&#45;&gt;Node0x2c04360 -->
<g id="edge5" class="edge"><title>Node0x2da0bb0&#45;&gt;Node0x2c04360</title>
<path fill="none" stroke="black" d="M373,-1164.25C373,-1137.27 373,-1110.41 373,-1084.5 373,-1084.5 373,-1084.5 373,-408 373,-268.141 333.068,-205.759 421,-97 446.85,-65.0276 493.702,-51.7944 526.719,-46.3281"/>
<polygon fill="black" stroke="black" points="527.532,-49.7457 536.909,-44.8123 526.502,-42.8219 527.532,-49.7457"/>
</g>
<!-- Node0x2db2bd0 -->
<g id="node7" class="node"><title>Node0x2db2bd0</title>
<polygon fill="none" stroke="black" points="781,-1109.5 781,-1145.5 895,-1145.5 895,-1109.5 781,-1109.5"/>
<text text-anchor="start" x="789" y="-1123.8" font-family="Times,serif" font-size="14.00">if (argc != 2):</text>
</g>
<!-- Node0x2c39650&#45;&gt;Node0x2db2bd0 -->
<g id="edge6" class="edge"><title>Node0x2c39650&#45;&gt;Node0x2db2bd0</title>
<path fill="none" stroke="black" d="M838,-1821.21C838,-1724.45 838,-1272.33 838,-1155.9"/>
<polygon fill="black" stroke="black" points="841.5,-1155.71 838,-1145.71 834.5,-1155.71 841.5,-1155.71"/>
</g>
<!-- Node0x2dae4e0 -->
<g id="node8" class="node"><title>Node0x2dae4e0</title>
<polygon fill="none" stroke="black" points="388,-827.5 388,-940.5 898,-940.5 898,-827.5 388,-827.5"/>
<text text-anchor="start" x="396" y="-925.3" font-family="Times,serif" font-size="14.00">0x8048a5d:</text>
<text text-anchor="start" x="396" y="-910.3" font-family="Times,serif" font-size="14.00"> v2 = *(BitCastExpr&lt;ptr&gt;(argv))</text>
<text text-anchor="start" x="396" y="-895.3" font-family="Times,serif" font-size="14.00"> file_path = PtrToIntCastExpr&lt;int32&gt;(&quot;Usage: %s [&lt;input_file&gt;]\n&quot;)</text>
<text text-anchor="start" x="396" y="-880.3" font-family="Times,serif" font-size="14.00"> printf(&quot;Usage: %s [&lt;input_file&gt;]\n&quot;, &amp;(v2))</text>
<text text-anchor="start" x="396" y="-865.3" font-family="Times,serif" font-size="14.00"> file_path = 8</text>
<text text-anchor="start" x="396" y="-850.3" font-family="Times,serif" font-size="14.00"> exit(8)</text>
<text text-anchor="start" x="396" y="-835.3" font-family="Times,serif" font-size="14.00"> # UNREACHABLE</text>
</g>
<!-- Node0x2db2bd0&#45;&gt;Node0x2dae4e0 -->
<g id="edge7" class="edge"><title>Node0x2db2bd0&#45;&gt;Node0x2dae4e0</title>
<path fill="none" stroke="black" d="M782.413,-1109.43C755.213,-1098.57 723.91,-1081.96 703,-1058 676.841,-1028.03 661.919,-986.014 653.499,-950.898"/>
<polygon fill="black" stroke="black" points="656.816,-949.697 651.191,-940.718 649.989,-951.245 656.816,-949.697"/>
<text text-anchor="middle" x="779.5" y="-1079.8" font-family="Times,serif" font-size="14.00">argc != 2</text>
</g>
<!-- Node0x2b258d0 -->
<g id="node9" class="node"><title>Node0x2b258d0</title>
<polygon fill="none" stroke="black" points="712.5,-959.5 712.5,-1057.5 1085.5,-1057.5 1085.5,-959.5 712.5,-959.5"/>
<text text-anchor="start" x="720.5" y="-1042.3" font-family="Times,serif" font-size="14.00">v3 = (v1 + 4)</text>
<text text-anchor="start" x="720.5" y="-1027.3" font-family="Times,serif" font-size="14.00"> g2 = v3</text>
<text text-anchor="start" x="720.5" y="-1012.3" font-family="Times,serif" font-size="14.00"> v2 = PtrToIntCastExpr&lt;int32&gt;(&quot;r&quot;)</text>
<text text-anchor="start" x="720.5" y="-997.3" font-family="Times,serif" font-size="14.00"> file_path = *(IntToPtrCastExpr&lt;ptr&gt;(v3))</text>
<text text-anchor="start" x="720.5" y="-982.3" font-family="Times,serif" font-size="14.00"> file = fopen(BitCastExpr&lt;ptr&gt;(&amp;(file_path)), &quot;r&quot;)</text>
<text text-anchor="start" x="720.5" y="-967.3" font-family="Times,serif" font-size="14.00"> infile = BitCastExpr&lt;ptr&gt;(file)</text>
</g>
<!-- Node0x2db2bd0&#45;&gt;Node0x2b258d0 -->
<g id="edge8" class="edge"><title>Node0x2db2bd0&#45;&gt;Node0x2b258d0</title>
<path fill="none" stroke="black" d="M846.87,-1109.49C852.809,-1098.1 861.002,-1082.38 869.134,-1066.78"/>
<polygon fill="black" stroke="black" points="872.379,-1068.13 873.898,-1057.65 866.172,-1064.89 872.379,-1068.13"/>
<text text-anchor="middle" x="901.5" y="-1079.8" font-family="Times,serif" font-size="14.00">argc == 2</text>
</g>
<!-- Node0x2dae4e0&#45;&gt;Node0x2c04360 -->
<g id="edge9" class="edge"><title>Node0x2dae4e0&#45;&gt;Node0x2c04360</title>
<path fill="none" stroke="black" d="M577.049,-827.267C548.458,-798.781 518.107,-761.585 503,-721 406.253,-461.089 389.71,-350.139 503,-97 508.594,-84.5014 518.627,-73.6863 528.963,-65.0597"/>
<polygon fill="black" stroke="black" points="531.128,-67.8101 536.857,-58.8979 526.82,-62.2921 531.128,-67.8101"/>
</g>
<!-- Node0x2c37e20 -->
<g id="node10" class="node"><title>Node0x2c37e20</title>
<polygon fill="none" stroke="black" points="841,-772.5 841,-808.5 985,-808.5 985,-772.5 841,-772.5"/>
<text text-anchor="start" x="849" y="-786.8" font-family="Times,serif" font-size="14.00">if (file == NULL):</text>
</g>
<!-- Node0x2b258d0&#45;&gt;Node0x2c37e20 -->
<g id="edge10" class="edge"><title>Node0x2b258d0&#45;&gt;Node0x2c37e20</title>
<path fill="none" stroke="black" d="M902.124,-959.294C904.929,-916.025 908.945,-854.058 911.231,-818.8"/>
<polygon fill="black" stroke="black" points="914.727,-818.971 911.881,-808.766 907.741,-818.518 914.727,-818.971"/>
</g>
<!-- Node0x2c930d0 -->
<g id="node11" class="node"><title>Node0x2c930d0</title>
<polygon fill="none" stroke="black" points="512.5,-352.5 512.5,-465.5 1045.5,-465.5 1045.5,-352.5 512.5,-352.5"/>
<text text-anchor="start" x="520.5" y="-450.3" font-family="Times,serif" font-size="14.00">v4 = *(IntToPtrCastExpr&lt;ptr&gt;(g2))</text>
<text text-anchor="start" x="520.5" y="-435.3" font-family="Times,serif" font-size="14.00"> v2 = *(IntToPtrCastExpr&lt;ptr&gt;(g4))</text>
<text text-anchor="start" x="520.5" y="-420.3" font-family="Times,serif" font-size="14.00"> file_path = PtrToIntCastExpr&lt;int32&gt;(&quot;%s: Error: Couldn&#39;t open %s\n&quot;)</text>
<text text-anchor="start" x="520.5" y="-405.3" font-family="Times,serif" font-size="14.00"> printf(&quot;%s: Error: Couldn&#39;t open %s\n&quot;, &amp;(v2), &amp;(v4))</text>
<text text-anchor="start" x="520.5" y="-390.3" font-family="Times,serif" font-size="14.00"> file_path = 8</text>
<text text-anchor="start" x="520.5" y="-375.3" font-family="Times,serif" font-size="14.00"> exit(8)</text>
<text text-anchor="start" x="520.5" y="-360.3" font-family="Times,serif" font-size="14.00"> # UNREACHABLE</text>
</g>
<!-- Node0x2c37e20&#45;&gt;Node0x2c930d0 -->
<g id="edge11" class="edge"><title>Node0x2c37e20&#45;&gt;Node0x2c930d0</title>
<path fill="none" stroke="black" d="M906.894,-772.208C888.616,-720.443 833.65,-564.774 802.043,-475.261"/>
<polygon fill="black" stroke="black" points="805.314,-474.012 798.684,-465.748 798.714,-476.343 805.314,-474.012"/>
<text text-anchor="middle" x="949.5" y="-742.8" font-family="Times,serif" font-size="14.00">file == NULL</text>
</g>
<!-- Node0x2cac3c0 -->
<g id="node12" class="node"><title>Node0x2cac3c0</title>
<polygon fill="none" stroke="black" points="1064,-97.5 1064,-720.5 1810,-720.5 1810,-97.5 1064,-97.5"/>
<text text-anchor="start" x="1072" y="-705.3" font-family="Times,serif" font-size="14.00">0x8048a7b:</text>
<text text-anchor="start" x="1072" y="-690.3" font-family="Times,serif" font-size="14.00"> initialize_bomb()</text>
<text text-anchor="start" x="1072" y="-675.3" font-family="Times,serif" font-size="14.00"> file_path = PtrToIntCastExpr&lt;int32&gt;(&quot;Welcome to my fiendish little bomb. You have 6 phases with&quot;)</text>
<text text-anchor="start" x="1072" y="-660.3" font-family="Times,serif" font-size="14.00"> puts(&quot;Welcome to my fiendish little bomb. You have 6 phases with&quot;)</text>
<text text-anchor="start" x="1072" y="-645.3" font-family="Times,serif" font-size="14.00"> file_path = PtrToIntCastExpr&lt;int32&gt;(&quot;which to blow yourself up. Have a nice day!&quot;)</text>
<text text-anchor="start" x="1072" y="-630.3" font-family="Times,serif" font-size="14.00"> puts_rc = puts(&quot;which to blow yourself up. Have a nice day!&quot;)</text>
<text text-anchor="start" x="1072" y="-615.3" font-family="Times,serif" font-size="14.00"> read_line()</text>
<text text-anchor="start" x="1072" y="-600.3" font-family="Times,serif" font-size="14.00"> file_path = puts_rc</text>
<text text-anchor="start" x="1072" y="-585.3" font-family="Times,serif" font-size="14.00"> phase_1()</text>
<text text-anchor="start" x="1072" y="-570.3" font-family="Times,serif" font-size="14.00"> phase_defused()</text>
<text text-anchor="start" x="1072" y="-555.3" font-family="Times,serif" font-size="14.00"> file_path = PtrToIntCastExpr&lt;int32&gt;(&quot;Phase 1 defused. How about the next one?&quot;)</text>
<text text-anchor="start" x="1072" y="-540.3" font-family="Times,serif" font-size="14.00"> puts_rc2 = puts(&quot;Phase 1 defused. How about the next one?&quot;)</text>
<text text-anchor="start" x="1072" y="-525.3" font-family="Times,serif" font-size="14.00"> read_line()</text>
<text text-anchor="start" x="1072" y="-510.3" font-family="Times,serif" font-size="14.00"> file_path = puts_rc2</text>
<text text-anchor="start" x="1072" y="-495.3" font-family="Times,serif" font-size="14.00"> phase_2()</text>
<text text-anchor="start" x="1072" y="-480.3" font-family="Times,serif" font-size="14.00"> phase_defused()</text>
<text text-anchor="start" x="1072" y="-465.3" font-family="Times,serif" font-size="14.00"> file_path = PtrToIntCastExpr&lt;int32&gt;(&quot;That&#39;s number 2. Keep going!&quot;)</text>
<text text-anchor="start" x="1072" y="-450.3" font-family="Times,serif" font-size="14.00"> puts_rc3 = puts(&quot;That&#39;s number 2. Keep going!&quot;)</text>
<text text-anchor="start" x="1072" y="-435.3" font-family="Times,serif" font-size="14.00"> read_line()</text>
<text text-anchor="start" x="1072" y="-420.3" font-family="Times,serif" font-size="14.00"> file_path = puts_rc3</text>
<text text-anchor="start" x="1072" y="-405.3" font-family="Times,serif" font-size="14.00"> phase_3()</text>
<text text-anchor="start" x="1072" y="-390.3" font-family="Times,serif" font-size="14.00"> phase_defused()</text>
<text text-anchor="start" x="1072" y="-375.3" font-family="Times,serif" font-size="14.00"> file_path = PtrToIntCastExpr&lt;int32&gt;(&quot;Halfway there!&quot;)</text>
<text text-anchor="start" x="1072" y="-360.3" font-family="Times,serif" font-size="14.00"> puts_rc4 = puts(&quot;Halfway there!&quot;)</text>
<text text-anchor="start" x="1072" y="-345.3" font-family="Times,serif" font-size="14.00"> read_line()</text>
<text text-anchor="start" x="1072" y="-330.3" font-family="Times,serif" font-size="14.00"> file_path = puts_rc4</text>
<text text-anchor="start" x="1072" y="-315.3" font-family="Times,serif" font-size="14.00"> phase_4()</text>
<text text-anchor="start" x="1072" y="-300.3" font-family="Times,serif" font-size="14.00"> phase_defused()</text>
<text text-anchor="start" x="1072" y="-285.3" font-family="Times,serif" font-size="14.00"> file_path = PtrToIntCastExpr&lt;int32&gt;(&quot;So you got that one. Try this one.&quot;)</text>
<text text-anchor="start" x="1072" y="-270.3" font-family="Times,serif" font-size="14.00"> puts_rc5 = puts(&quot;So you got that one. Try this one.&quot;)</text>
<text text-anchor="start" x="1072" y="-255.3" font-family="Times,serif" font-size="14.00"> read_line()</text>
<text text-anchor="start" x="1072" y="-240.3" font-family="Times,serif" font-size="14.00"> file_path = puts_rc5</text>
<text text-anchor="start" x="1072" y="-225.3" font-family="Times,serif" font-size="14.00"> phase_5()</text>
<text text-anchor="start" x="1072" y="-210.3" font-family="Times,serif" font-size="14.00"> phase_defused()</text>
<text text-anchor="start" x="1072" y="-195.3" font-family="Times,serif" font-size="14.00"> file_path = PtrToIntCastExpr&lt;int32&gt;(&quot;Good work! On to the next...&quot;)</text>
<text text-anchor="start" x="1072" y="-180.3" font-family="Times,serif" font-size="14.00"> puts_rc6 = puts(&quot;Good work! On to the next...&quot;)</text>
<text text-anchor="start" x="1072" y="-165.3" font-family="Times,serif" font-size="14.00"> read_line()</text>
<text text-anchor="start" x="1072" y="-150.3" font-family="Times,serif" font-size="14.00"> file_path = puts_rc6</text>
<text text-anchor="start" x="1072" y="-135.3" font-family="Times,serif" font-size="14.00"> phase_6()</text>
<text text-anchor="start" x="1072" y="-120.3" font-family="Times,serif" font-size="14.00"> phase_defused()</text>
<text text-anchor="start" x="1072" y="-105.3" font-family="Times,serif" font-size="14.00"> return 0</text>
</g>
<!-- Node0x2c37e20&#45;&gt;Node0x2cac3c0 -->
<g id="edge12" class="edge"><title>Node0x2c37e20&#45;&gt;Node0x2cac3c0</title>
<path fill="none" stroke="black" d="M961.386,-772.359C975.074,-766.991 989.826,-760.702 1003,-754 1027.4,-741.589 1032.79,-737.002 1055,-721 1055.18,-720.867 1055.37,-720.734 1055.55,-720.601"/>
<polygon fill="black" stroke="black" points="1057.82,-723.281 1063.87,-714.581 1053.72,-717.611 1057.82,-723.281"/>
<text text-anchor="middle" x="1074.5" y="-742.8" font-family="Times,serif" font-size="14.00">file != NULL</text>
</g>
<!-- Node0x2c930d0&#45;&gt;Node0x2c04360 -->
<g id="edge13" class="edge"><title>Node0x2c930d0&#45;&gt;Node0x2c04360</title>
<path fill="none" stroke="black" d="M746.346,-352.488C699.179,-272.304 613.848,-127.242 579.218,-68.3713"/>
<polygon fill="black" stroke="black" points="582.197,-66.531 574.11,-59.6862 576.163,-70.0801 582.197,-66.531"/>
</g>
<!-- Node0x2cac3c0&#45;&gt;Node0x2c04360 -->
<g id="edge14" class="edge"><title>Node0x2cac3c0&#45;&gt;Node0x2c04360</title>
<path fill="none" stroke="black" d="M1063.86,-100.809C1060.91,-99.5099 1057.96,-98.2398 1055,-97 972.958,-62.6105 701.478,-48.1683 601.44,-43.9268"/>
<polygon fill="black" stroke="black" points="601.341,-40.4198 591.205,-43.5033 601.052,-47.4138 601.341,-40.4198"/>
</g>
</g>
</svg>
