<?xml version="1.0" encoding="UTF-8" standalone="no"?>
<!DOCTYPE svg PUBLIC "-//W3C//DTD SVG 1.1//EN"
 "http://www.w3.org/Graphics/SVG/1.1/DTD/svg11.dtd">
<!-- Generated by graphviz version 2.38.0 (20140413.2041)
 -->
<!-- Title: Control&#45;flow graph for function &#39;initialize_bomb()&#39;. Pages: 1 -->
<svg width="1322pt" height="1346pt"
 viewBox="0.00 0.00 1322.00 1346.00" xmlns="http://www.w3.org/2000/svg" xmlns:xlink="http://www.w3.org/1999/xlink">
<g id="graph0" class="graph" transform="scale(1 1) rotate(0) translate(4 1342)">
<title>Control&#45;flow graph for function &#39;initialize_bomb()&#39;.</title>
<polygon fill="white" stroke="none" points="-4,4 -4,-1342 1318,-1342 1318,4 -4,4"/>
<text text-anchor="middle" x="657" y="-7.8" font-family="Times,serif" font-size="14.00">Control&#45;flow graph for function &#39;initialize_bomb()&#39;.</text>
<!-- Node0x2d29cc0 -->
<g id="node1" class="node"><title>Node0x2d29cc0</title>
<polygon fill="none" stroke="black" points="237.5,-1301.5 237.5,-1337.5 296.5,-1337.5 296.5,-1301.5 237.5,-1301.5"/>
<text text-anchor="start" x="245.5" y="-1315.8" font-family="Times,serif" font-size="14.00">entry:</text>
</g>
<!-- Node0x2d4d7d0 -->
<g id="node2" class="node"><title>Node0x2d4d7d0</title>
<polygon fill="none" stroke="black" points="62,-1165.5 62,-1263.5 472,-1263.5 472,-1165.5 62,-1165.5"/>
<text text-anchor="start" x="70" y="-1248.3" font-family="Times,serif" font-size="14.00">v1 = g3</text>
<text text-anchor="start" x="70" y="-1233.3" font-family="Times,serif" font-size="14.00"> v2 = g4</text>
<text text-anchor="start" x="70" y="-1218.3" font-family="Times,serif" font-size="14.00"> v3 = g2</text>
<text text-anchor="start" x="70" y="-1203.3" font-family="Times,serif" font-size="14.00"> signal((SIGINT &#45;&gt; 2), BitCastExpr&lt;ptr&gt;(sig_handler))</text>
<text text-anchor="start" x="70" y="-1188.3" font-family="Times,serif" font-size="14.00"> name</text>
<text text-anchor="start" x="70" y="-1173.3" font-family="Times,serif" font-size="14.00"> str2 = &amp;(name)</text>
</g>
<!-- Node0x2d29cc0&#45;&gt;Node0x2d4d7d0 -->
<g id="edge1" class="edge"><title>Node0x2d29cc0&#45;&gt;Node0x2d4d7d0</title>
<path fill="none" stroke="black" d="M267,-1301.49C267,-1293.69 267,-1283.94 267,-1273.83"/>
<polygon fill="black" stroke="black" points="270.5,-1273.66 267,-1263.66 263.5,-1273.66 270.5,-1273.66"/>
</g>
<!-- Node0x2ca1220 -->
<g id="node3" class="node"><title>Node0x2ca1220</title>
<polygon fill="none" stroke="black" points="71,-1091.5 71,-1127.5 463,-1127.5 463,-1091.5 71,-1091.5"/>
<text text-anchor="start" x="79" y="-1105.8" font-family="Times,serif" font-size="14.00">if (gethostname(BitCastExpr&lt;ptr&gt;(&amp;(name))) != 0):</text>
</g>
<!-- Node0x2d4d7d0&#45;&gt;Node0x2ca1220 -->
<g id="edge2" class="edge"><title>Node0x2d4d7d0&#45;&gt;Node0x2ca1220</title>
<path fill="none" stroke="black" d="M267,-1165.32C267,-1155.89 267,-1146.32 267,-1137.87"/>
<polygon fill="black" stroke="black" points="270.5,-1137.86 267,-1127.86 263.5,-1137.86 270.5,-1137.86"/>
</g>
<!-- Node0x2b4bc80 -->
<g id="node4" class="node"><title>Node0x2b4bc80</title>
<polygon fill="none" stroke="black" points="0,-884.5 0,-952.5 164,-952.5 164,-884.5 0,-884.5"/>
<text text-anchor="start" x="8" y="-937.3" font-family="Times,serif" font-size="14.00">0x804957d:</text>
<text text-anchor="start" x="8" y="-922.3" font-family="Times,serif" font-size="14.00"> puts(&quot;Bad host (4)&quot;)</text>
<text text-anchor="start" x="8" y="-907.3" font-family="Times,serif" font-size="14.00"> exit(8)</text>
<text text-anchor="start" x="8" y="-892.3" font-family="Times,serif" font-size="14.00"> # UNREACHABLE</text>
</g>
<!-- Node0x2ca1220&#45;&gt;Node0x2b4bc80 -->
<g id="edge3" class="edge"><title>Node0x2ca1220&#45;&gt;Node0x2b4bc80</title>
<path fill="none" stroke="black" d="M116.323,-1091.43C99.0642,-1086.7 85.3589,-1080.67 79,-1073 53.9512,-1042.78 58.7141,-996.531 67.2791,-962.697"/>
<polygon fill="black" stroke="black" points="70.7711,-963.195 70.0305,-952.626 64.0186,-961.35 70.7711,-963.195"/>
<text text-anchor="middle" x="252.5" y="-1061.8" font-family="Times,serif" font-size="14.00">gethostname(BitCastExpr&lt;ptr&gt;(&amp;(name))) != 0</text>
</g>
<!-- Node0x2d4cf50 -->
<g id="node5" class="node"><title>Node0x2d4cf50</title>
<polygon fill="none" stroke="black" points="381.5,-971.5 381.5,-1039.5 522.5,-1039.5 522.5,-971.5 381.5,-971.5"/>
<text text-anchor="start" x="389.5" y="-1024.3" font-family="Times,serif" font-size="14.00">v4 = g6[0]</text>
<text text-anchor="start" x="389.5" y="-1009.3" font-family="Times,serif" font-size="14.00"> g2 = 0</text>
<text text-anchor="start" x="389.5" y="-994.3" font-family="Times,serif" font-size="14.00"> g4 = str2</text>
<text text-anchor="start" x="389.5" y="-979.3" font-family="Times,serif" font-size="14.00"> g3 = 134522592</text>
</g>
<!-- Node0x2ca1220&#45;&gt;Node0x2d4cf50 -->
<g id="edge4" class="edge"><title>Node0x2ca1220&#45;&gt;Node0x2d4cf50</title>
<path fill="none" stroke="black" d="M383.3,-1091.45C404.131,-1086.48 421.82,-1080.36 430,-1073 436.969,-1066.73 441.736,-1058.2 444.995,-1049.34"/>
<polygon fill="black" stroke="black" points="448.367,-1050.29 447.973,-1039.7 441.679,-1048.22 448.367,-1050.29"/>
<text text-anchor="middle" x="618.5" y="-1061.8" font-family="Times,serif" font-size="14.00">gethostname(BitCastExpr&lt;ptr&gt;(&amp;(name))) == 0</text>
</g>
<!-- Node0x2d4d770 -->
<g id="node6" class="node"><title>Node0x2d4d770</title>
<polygon fill="none" stroke="black" points="122,-23.5 122,-59.5 176,-59.5 176,-23.5 122,-23.5"/>
<text text-anchor="start" x="130" y="-37.8" font-family="Times,serif" font-size="14.00">exit:</text>
</g>
<!-- Node0x2b4bc80&#45;&gt;Node0x2d4d770 -->
<g id="edge5" class="edge"><title>Node0x2b4bc80&#45;&gt;Node0x2d4d770</title>
<path fill="none" stroke="black" d="M82,-884.372C82,-861.849 82,-831.377 82,-804.5 82,-804.5 82,-804.5 82,-130.5 82,-105.023 99.9972,-82.3164 117.336,-66.352"/>
<polygon fill="black" stroke="black" points="119.952,-68.7152 125.19,-59.5057 115.352,-63.4387 119.952,-68.7152"/>
</g>
<!-- Node0x2d4d6f0 -->
<g id="node7" class="node"><title>Node0x2d4d6f0</title>
<polygon fill="none" stroke="black" points="382,-829.5 382,-865.5 522,-865.5 522,-829.5 382,-829.5"/>
<text text-anchor="start" x="390" y="-843.8" font-family="Times,serif" font-size="14.00">if (v4 == NULL):</text>
</g>
<!-- Node0x2d4cf50&#45;&gt;Node0x2d4d6f0 -->
<g id="edge6" class="edge"><title>Node0x2d4cf50&#45;&gt;Node0x2d4d6f0</title>
<path fill="none" stroke="black" d="M452,-971.416C452,-942.96 452,-902.405 452,-875.777"/>
<polygon fill="black" stroke="black" points="455.5,-875.632 452,-865.632 448.5,-875.632 455.5,-875.632"/>
</g>
<!-- Node0x2cb61e0 -->
<g id="node8" class="node"><title>Node0x2cb61e0</title>
<polygon fill="none" stroke="black" points="165,-654.5 165,-722.5 333,-722.5 333,-654.5 165,-654.5"/>
<text text-anchor="start" x="173" y="-707.3" font-family="Times,serif" font-size="14.00">0x80495d5:</text>
<text text-anchor="start" x="173" y="-692.3" font-family="Times,serif" font-size="14.00"> puts(&quot;Bad host (5).&quot;)</text>
<text text-anchor="start" x="173" y="-677.3" font-family="Times,serif" font-size="14.00"> exit(8)</text>
<text text-anchor="start" x="173" y="-662.3" font-family="Times,serif" font-size="14.00"> # UNREACHABLE</text>
</g>
<!-- Node0x2d4d6f0&#45;&gt;Node0x2cb61e0 -->
<g id="edge7" class="edge"><title>Node0x2d4d6f0&#45;&gt;Node0x2cb61e0</title>
<path fill="none" stroke="black" d="M429.889,-829.399C398.965,-805.483 341.901,-761.35 300.109,-729.028"/>
<polygon fill="black" stroke="black" points="302.018,-726.08 291.967,-722.73 297.736,-731.617 302.018,-726.08"/>
<text text-anchor="middle" x="452" y="-799.8" font-family="Times,serif" font-size="14.00">v4 == NULL</text>
</g>
<!-- Node0x2b4b920 -->
<g id="node9" class="node"><title>Node0x2b4b920</title>
<polygon fill="none" stroke="black" points="478.5,-741.5 478.5,-777.5 753.5,-777.5 753.5,-741.5 478.5,-741.5"/>
<text text-anchor="start" x="486.5" y="-755.8" font-family="Times,serif" font-size="14.00">str = PtrToIntCastExpr&lt;int32&gt;(v4)</text>
</g>
<!-- Node0x2d4d6f0&#45;&gt;Node0x2b4b920 -->
<g id="edge8" class="edge"><title>Node0x2d4d6f0&#45;&gt;Node0x2b4b920</title>
<path fill="none" stroke="black" d="M484.794,-829.303C510.576,-815.783 546.657,-796.863 574.459,-782.284"/>
<polygon fill="black" stroke="black" points="576.312,-785.264 583.543,-777.52 573.061,-779.065 576.312,-785.264"/>
<text text-anchor="middle" x="588" y="-799.8" font-family="Times,serif" font-size="14.00">v4 != NULL</text>
</g>
<!-- Node0x2cb61e0&#45;&gt;Node0x2d4d770 -->
<g id="edge9" class="edge"><title>Node0x2cb61e0&#45;&gt;Node0x2d4d770</title>
<path fill="none" stroke="black" d="M175.831,-654.305C146.715,-635.704 120,-609.186 120,-574.5 120,-574.5 120,-574.5 120,-130.5 120,-109.119 127.817,-86.2187 135.335,-69.1396"/>
<polygon fill="black" stroke="black" points="138.629,-70.3561 139.665,-59.812 132.279,-67.4086 138.629,-70.3561"/>
</g>
<!-- Node0x2b4bc00 -->
<g id="node10" class="node"><title>Node0x2b4bc00</title>
<polygon fill="none" stroke="black" points="676.5,-599.5 676.5,-635.5 773.5,-635.5 773.5,-599.5 676.5,-599.5"/>
<text text-anchor="start" x="684.5" y="-613.8" font-family="Times,serif" font-size="14.00">while True:</text>
</g>
<!-- Node0x2b4b920&#45;&gt;Node0x2b4bc00 -->
<g id="edge10" class="edge"><title>Node0x2b4b920&#45;&gt;Node0x2b4bc00</title>
<path fill="none" stroke="black" d="M629.366,-741.333C648.324,-716.983 683.161,-672.239 705.146,-644"/>
<polygon fill="black" stroke="black" points="708.143,-645.848 711.525,-635.807 702.62,-641.547 708.143,-645.848"/>
</g>
<!-- Node0x2b4bab0 -->
<g id="node11" class="node"><title>Node0x2b4bab0</title>
<polygon fill="none" stroke="black" points="419,-509.5 419,-547.5 1031,-547.5 1031,-509.5 419,-509.5"/>
<text text-anchor="start" x="427" y="-532.3" font-family="Times,serif" font-size="14.00">0x8049595:</text>
<text text-anchor="start" x="427" y="-517.3" font-family="Times,serif" font-size="14.00"> if (strcasecmp(IntToPtrCastExpr&lt;ptr&gt;(str), IntToPtrCastExpr&lt;ptr&gt;(str2)) == 0):</text>
</g>
<!-- Node0x2b4bc00&#45;&gt;Node0x2b4bab0 -->
<g id="edge11" class="edge"><title>Node0x2b4bc00&#45;&gt;Node0x2b4bab0</title>
<path fill="none" stroke="black" d="M725,-599.312C725,-587.511 725,-571.572 725,-557.904"/>
<polygon fill="black" stroke="black" points="728.5,-557.551 725,-547.551 721.5,-557.551 728.5,-557.551"/>
<text text-anchor="middle" x="742" y="-569.8" font-family="Times,serif" font-size="14.00">True</text>
</g>
<!-- Node0x2e314e0 -->
<g id="node12" class="node"><title>Node0x2e314e0</title>
<polygon fill="none" stroke="black" points="135,-272.5 135,-385.5 263,-385.5 263,-272.5 135,-272.5"/>
<text text-anchor="start" x="143" y="-370.3" font-family="Times,serif" font-size="14.00">0x80495b1:</text>
<text text-anchor="start" x="143" y="-355.3" font-family="Times,serif" font-size="14.00"> open_clientfd()</text>
<text text-anchor="start" x="143" y="-340.3" font-family="Times,serif" font-size="14.00"> close(0)</text>
<text text-anchor="start" x="143" y="-325.3" font-family="Times,serif" font-size="14.00"> g2 = v3</text>
<text text-anchor="start" x="143" y="-310.3" font-family="Times,serif" font-size="14.00"> g4 = v2</text>
<text text-anchor="start" x="143" y="-295.3" font-family="Times,serif" font-size="14.00"> g3 = v1</text>
<text text-anchor="start" x="143" y="-280.3" font-family="Times,serif" font-size="14.00"> return</text>
</g>
<!-- Node0x2b4bab0&#45;&gt;Node0x2e314e0 -->
<g id="edge12" class="edge"><title>Node0x2b4bab0&#45;&gt;Node0x2e314e0</title>
<path fill="none" stroke="black" d="M418.653,-524.935C299.132,-520.681 185.957,-511.237 167,-491 143.239,-465.634 149.381,-427.896 162.327,-395.331"/>
<polygon fill="black" stroke="black" points="165.662,-396.429 166.337,-385.855 159.216,-393.7 165.662,-396.429"/>
<text text-anchor="middle" x="448" y="-479.8" font-family="Times,serif" font-size="14.00">strcasecmp(IntToPtrCastExpr&lt;ptr&gt;(str), IntToPtrCastExpr&lt;ptr&gt;(str2)) == 0</text>
</g>
<!-- Node0x2b4bb30 -->
<g id="node13" class="node"><title>Node0x2b4bb30</title>
<polygon fill="none" stroke="black" points="683.5,-404.5 683.5,-457.5 802.5,-457.5 802.5,-404.5 683.5,-404.5"/>
<text text-anchor="start" x="691.5" y="-442.3" font-family="Times,serif" font-size="14.00">0x80495a5:</text>
<text text-anchor="start" x="691.5" y="-427.3" font-family="Times,serif" font-size="14.00"> g2 = (g2 + 1)</text>
<text text-anchor="start" x="691.5" y="-412.3" font-family="Times,serif" font-size="14.00"> v5 = g6[0]</text>
</g>
<!-- Node0x2b4bab0&#45;&gt;Node0x2b4bb30 -->
<g id="edge13" class="edge"><title>Node0x2b4bab0&#45;&gt;Node0x2b4bb30</title>
<path fill="none" stroke="black" d="M728.471,-509.087C730.69,-497.311 733.642,-481.648 736.306,-467.517"/>
<polygon fill="black" stroke="black" points="739.766,-468.052 738.179,-457.577 732.888,-466.755 739.766,-468.052"/>
<text text-anchor="middle" x="1013" y="-479.8" font-family="Times,serif" font-size="14.00">strcasecmp(IntToPtrCastExpr&lt;ptr&gt;(str), IntToPtrCastExpr&lt;ptr&gt;(str2)) != 0</text>
</g>
<!-- Node0x2e314e0&#45;&gt;Node0x2d4d770 -->
<g id="edge14" class="edge"><title>Node0x2e314e0&#45;&gt;Node0x2d4d770</title>
<path fill="none" stroke="black" d="M189.241,-272.275C178.563,-211.302 161.886,-116.077 153.765,-69.7075"/>
<polygon fill="black" stroke="black" points="157.203,-69.0466 152.03,-59.8003 150.307,-70.2542 157.203,-69.0466"/>
</g>
<!-- Node0x2e0d940 -->
<g id="node14" class="node"><title>Node0x2e0d940</title>
<polygon fill="none" stroke="black" points="673,-217.5 673,-253.5 813,-253.5 813,-217.5 673,-217.5"/>
<text text-anchor="start" x="681" y="-231.8" font-family="Times,serif" font-size="14.00">if (v5 == NULL):</text>
</g>
<!-- Node0x2b4bb30&#45;&gt;Node0x2e0d940 -->
<g id="edge15" class="edge"><title>Node0x2b4bb30&#45;&gt;Node0x2e0d940</title>
<path fill="none" stroke="black" d="M743,-404.305C743,-367.813 743,-301.266 743,-263.876"/>
<polygon fill="black" stroke="black" points="746.5,-263.713 743,-253.713 739.5,-263.713 746.5,-263.713"/>
</g>
<!-- Node0x2e31650 -->
<g id="node15" class="node"><title>Node0x2e31650</title>
<polygon fill="none" stroke="black" points="508,-97.5 508,-165.5 676,-165.5 676,-97.5 508,-97.5"/>
<text text-anchor="start" x="516" y="-150.3" font-family="Times,serif" font-size="14.00">0x80495d5:</text>
<text text-anchor="start" x="516" y="-135.3" font-family="Times,serif" font-size="14.00"> puts(&quot;Bad host (5).&quot;)</text>
<text text-anchor="start" x="516" y="-120.3" font-family="Times,serif" font-size="14.00"> exit(8)</text>
<text text-anchor="start" x="516" y="-105.3" font-family="Times,serif" font-size="14.00"> # UNREACHABLE</text>
</g>
<!-- Node0x2e0d940&#45;&gt;Node0x2e31650 -->
<g id="edge16" class="edge"><title>Node0x2e0d940&#45;&gt;Node0x2e31650</title>
<path fill="none" stroke="black" d="M717.726,-217.427C699.107,-204.851 673.03,-187.236 649.449,-171.307"/>
<polygon fill="black" stroke="black" points="651.138,-168.224 640.893,-165.527 647.22,-174.025 651.138,-168.224"/>
<text text-anchor="middle" x="737" y="-187.8" font-family="Times,serif" font-size="14.00">v5 == NULL</text>
</g>
<!-- Node0x2e31450 -->
<g id="node16" class="node"><title>Node0x2e31450</title>
<polygon fill="none" stroke="black" points="912.5,-105 912.5,-158 1191.5,-158 1191.5,-105 912.5,-105"/>
<text text-anchor="start" x="920.5" y="-142.8" font-family="Times,serif" font-size="14.00">0x80495a5:</text>
<text text-anchor="start" x="920.5" y="-127.8" font-family="Times,serif" font-size="14.00"> str2 = g4</text>
<text text-anchor="start" x="920.5" y="-112.8" font-family="Times,serif" font-size="14.00"> str = PtrToIntCastExpr&lt;int32&gt;(v5)</text>
</g>
<!-- Node0x2e0d940&#45;&gt;Node0x2e31450 -->
<g id="edge17" class="edge"><title>Node0x2e0d940&#45;&gt;Node0x2e31450</title>
<path fill="none" stroke="black" d="M794.72,-217.427C841.073,-202.126 910.016,-179.368 964.87,-161.261"/>
<polygon fill="black" stroke="black" points="966.191,-164.511 974.59,-158.053 963.997,-157.864 966.191,-164.511"/>
<text text-anchor="middle" x="933" y="-187.8" font-family="Times,serif" font-size="14.00">v5 != NULL</text>
</g>
<!-- Node0x2e31650&#45;&gt;Node0x2d4d770 -->
<g id="edge18" class="edge"><title>Node0x2e31650&#45;&gt;Node0x2d4d770</title>
<path fill="none" stroke="black" d="M507.893,-113.793C411.225,-94.5898 256.854,-63.9248 186.334,-49.9163"/>
<polygon fill="black" stroke="black" points="186.646,-46.41 176.156,-47.8944 185.282,-53.2758 186.646,-46.41"/>
</g>
<!-- Node0x2e31450&#45;&gt;Node0x2b4bc00 -->
<g id="edge19" class="edge"><title>Node0x2e31450&#45;&gt;Node0x2b4bc00</title>
<path fill="none" stroke="black" d="M1175.33,-158.033C1243.28,-175.777 1314,-202.04 1314,-234.5 1314,-529.5 1314,-529.5 1314,-529.5 1314,-582.685 933.311,-606.585 784.041,-613.912"/>
<polygon fill="black" stroke="black" points="783.521,-610.433 773.701,-614.411 783.859,-617.425 783.521,-610.433"/>
</g>
</g>
</svg>
