<?xml version="1.0" encoding="UTF-8" standalone="no"?>
<!DOCTYPE svg PUBLIC "-//W3C//DTD SVG 1.1//EN"
 "http://www.w3.org/Graphics/SVG/1.1/DTD/svg11.dtd">
<!-- Generated by graphviz version 2.38.0 (20140413.2041)
 -->
<!-- Title: Control&#45;flow graph for function &#39;sig_handler(a1)&#39;. Pages: 1 -->
<svg width="484pt" height="383pt"
 viewBox="0.00 0.00 484.00 383.00" xmlns="http://www.w3.org/2000/svg" xmlns:xlink="http://www.w3.org/1999/xlink">
<g id="graph0" class="graph" transform="scale(1 1) rotate(0) translate(4 379)">
<title>Control&#45;flow graph for function &#39;sig_handler(a1)&#39;.</title>
<polygon fill="white" stroke="none" points="-4,4 -4,-379 480,-379 480,4 -4,4"/>
<text text-anchor="middle" x="238" y="-7.8" font-family="Times,serif" font-size="14.00">Control&#45;flow graph for function &#39;sig_handler(a1)&#39;.</text>
<!-- Node0x2e375f0 -->
<g id="node1" class="node"><title>Node0x2e375f0</title>
<polygon fill="none" stroke="black" points="208.5,-336.5 208.5,-374.5 267.5,-374.5 267.5,-336.5 208.5,-336.5"/>
<text text-anchor="start" x="216.5" y="-359.3" font-family="Times,serif" font-size="14.00">entry:</text>
<text text-anchor="start" x="216.5" y="-344.3" font-family="Times,serif" font-size="14.00"> a1</text>
</g>
<!-- Node0x2c0e040 -->
<g id="node2" class="node"><title>Node0x2c0e040</title>
<polygon fill="none" stroke="black" points="0,-96.5 0,-299.5 476,-299.5 476,-96.5 0,-96.5"/>
<text text-anchor="start" x="8" y="-284.3" font-family="Times,serif" font-size="14.00">0x80493e9:</text>
<text text-anchor="start" x="8" y="-269.3" font-family="Times,serif" font-size="14.00"> puts(&quot;So you think you can stop the bomb with ctrl&#45;c, do you?&quot;)</text>
<text text-anchor="start" x="8" y="-254.3" font-family="Times,serif" font-size="14.00"> sleep(3)</text>
<text text-anchor="start" x="8" y="-239.3" font-family="Times,serif" font-size="14.00"> printf(&quot;Well...&quot;)</text>
<text text-anchor="start" x="8" y="-224.3" font-family="Times,serif" font-size="14.00"> stream = g8</text>
<text text-anchor="start" x="8" y="-209.3" font-family="Times,serif" font-size="14.00"> fflush(BitCastExpr&lt;ptr&gt;(&amp;(stream)))</text>
<text text-anchor="start" x="8" y="-194.3" font-family="Times,serif" font-size="14.00"> stream = 1</text>
<text text-anchor="start" x="8" y="-179.3" font-family="Times,serif" font-size="14.00"> sleep(1)</text>
<text text-anchor="start" x="8" y="-164.3" font-family="Times,serif" font-size="14.00"> stream = 134519437</text>
<text text-anchor="start" x="8" y="-149.3" font-family="Times,serif" font-size="14.00"> puts(&quot;OK. :&#45;)&quot;)</text>
<text text-anchor="start" x="8" y="-134.3" font-family="Times,serif" font-size="14.00"> stream = 16</text>
<text text-anchor="start" x="8" y="-119.3" font-family="Times,serif" font-size="14.00"> exit(16)</text>
<text text-anchor="start" x="8" y="-104.3" font-family="Times,serif" font-size="14.00"> # UNREACHABLE</text>
</g>
<!-- Node0x2e375f0&#45;&gt;Node0x2c0e040 -->
<g id="edge1" class="edge"><title>Node0x2e375f0&#45;&gt;Node0x2c0e040</title>
<path fill="none" stroke="black" d="M238,-336.358C238,-329.027 238,-319.93 238,-309.931"/>
<polygon fill="black" stroke="black" points="241.5,-309.665 238,-299.665 234.5,-309.665 241.5,-309.665"/>
</g>
<!-- Node0x2c0dfe0 -->
<g id="node3" class="node"><title>Node0x2c0dfe0</title>
<polygon fill="none" stroke="black" points="211,-23.5 211,-59.5 265,-59.5 265,-23.5 211,-23.5"/>
<text text-anchor="start" x="219" y="-37.8" font-family="Times,serif" font-size="14.00">exit:</text>
</g>
<!-- Node0x2c0e040&#45;&gt;Node0x2c0dfe0 -->
<g id="edge2" class="edge"><title>Node0x2c0e040&#45;&gt;Node0x2c0dfe0</title>
<path fill="none" stroke="black" d="M238,-96.103C238,-86.6073 238,-77.6391 238,-69.853"/>
<polygon fill="black" stroke="black" points="241.5,-69.7012 238,-59.7012 234.5,-69.7013 241.5,-69.7012"/>
</g>
</g>
</svg>
