<?xml version="1.0" encoding="UTF-8" standalone="no"?>
<!DOCTYPE svg PUBLIC "-//W3C//DTD SVG 1.1//EN"
 "http://www.w3.org/Graphics/SVG/1.1/DTD/svg11.dtd">
<!-- Generated by graphviz version 2.38.0 (20140413.2041)
 -->
<!-- Title: Control&#45;flow graph for function &#39;phase_defused()&#39;. Pages: 1 -->
<svg width="1275pt" height="935pt"
 viewBox="0.00 0.00 1275.02 935.00" xmlns="http://www.w3.org/2000/svg" xmlns:xlink="http://www.w3.org/1999/xlink">
<g id="graph0" class="graph" transform="scale(1 1) rotate(0) translate(4 931)">
<title>Control&#45;flow graph for function &#39;phase_defused()&#39;.</title>
<polygon fill="white" stroke="none" points="-4,4 -4,-931 1271.02,-931 1271.02,4 -4,4"/>
<text text-anchor="middle" x="633.509" y="-7.8" font-family="Times,serif" font-size="14.00">Control&#45;flow graph for function &#39;phase_defused()&#39;.</text>
<!-- Node0x2abecc0 -->
<g id="node1" class="node"><title>Node0x2abecc0</title>
<polygon fill="none" stroke="black" points="1114.52,-890.5 1114.52,-926.5 1173.52,-926.5 1173.52,-890.5 1114.52,-890.5"/>
<text text-anchor="start" x="1122.52" y="-904.8" font-family="Times,serif" font-size="14.00">entry:</text>
</g>
<!-- Node0x2e42160 -->
<g id="node2" class="node"><title>Node0x2e42160</title>
<polygon fill="none" stroke="black" points="1092.52,-814.5 1092.52,-852.5 1195.52,-852.5 1195.52,-814.5 1092.52,-814.5"/>
<text text-anchor="start" x="1100.52" y="-837.3" font-family="Times,serif" font-size="14.00">str = 1</text>
<text text-anchor="start" x="1100.52" y="-822.3" font-family="Times,serif" font-size="14.00"> send_msg()</text>
</g>
<!-- Node0x2abecc0&#45;&gt;Node0x2e42160 -->
<g id="edge1" class="edge"><title>Node0x2abecc0&#45;&gt;Node0x2e42160</title>
<path fill="none" stroke="black" d="M1144.02,-890.2C1144.02,-881.99 1144.02,-871.969 1144.02,-862.701"/>
<polygon fill="black" stroke="black" points="1147.52,-862.694 1144.02,-852.694 1140.52,-862.695 1147.52,-862.694"/>
</g>
<!-- Node0x2d8e1c0 -->
<g id="node3" class="node"><title>Node0x2d8e1c0</title>
<polygon fill="none" stroke="black" points="1091.02,-740.5 1091.02,-776.5 1197.02,-776.5 1197.02,-740.5 1091.02,-740.5"/>
<text text-anchor="start" x="1099.02" y="-754.8" font-family="Times,serif" font-size="14.00">if (g9 == 6):</text>
</g>
<!-- Node0x2e42160&#45;&gt;Node0x2d8e1c0 -->
<g id="edge2" class="edge"><title>Node0x2e42160&#45;&gt;Node0x2d8e1c0</title>
<path fill="none" stroke="black" d="M1144.02,-814.455C1144.02,-806.201 1144.02,-796.238 1144.02,-787.074"/>
<polygon fill="black" stroke="black" points="1147.52,-786.835 1144.02,-776.835 1140.52,-786.835 1147.52,-786.835"/>
</g>
<!-- Node0x2d57640 -->
<g id="node4" class="node"><title>Node0x2d57640</title>
<polygon fill="none" stroke="black" points="945.517,-620.5 945.517,-688.5 1088.52,-688.5 1088.52,-620.5 945.517,-620.5"/>
<text text-anchor="start" x="953.517" y="-673.3" font-family="Times,serif" font-size="14.00">0x8049161:</text>
<text text-anchor="start" x="953.517" y="-658.3" font-family="Times,serif" font-size="14.00"> str = 134523216</text>
<text text-anchor="start" x="953.517" y="-643.3" font-family="Times,serif" font-size="14.00"> v1</text>
<text text-anchor="start" x="953.517" y="-628.3" font-family="Times,serif" font-size="14.00"> v2</text>
</g>
<!-- Node0x2d8e1c0&#45;&gt;Node0x2d57640 -->
<g id="edge3" class="edge"><title>Node0x2d8e1c0&#45;&gt;Node0x2d57640</title>
<path fill="none" stroke="black" d="M1122.76,-740.427C1107.31,-728.016 1085.74,-710.698 1066.12,-694.936"/>
<polygon fill="black" stroke="black" points="1068.13,-692.06 1058.14,-688.527 1063.74,-697.518 1068.13,-692.06"/>
<text text-anchor="middle" x="1129.52" y="-710.8" font-family="Times,serif" font-size="14.00">g9 == 6</text>
</g>
<!-- Node0x2d8a240 -->
<g id="node5" class="node"><title>Node0x2d8a240</title>
<polygon fill="none" stroke="black" points="1014.02,-23.5 1014.02,-59.5 1068.02,-59.5 1068.02,-23.5 1014.02,-23.5"/>
<text text-anchor="start" x="1022.02" y="-37.8" font-family="Times,serif" font-size="14.00">exit:</text>
</g>
<!-- Node0x2d8e1c0&#45;&gt;Node0x2d8a240 -->
<g id="edge4" class="edge"><title>Node0x2d8e1c0&#45;&gt;Node0x2d8a240</title>
<path fill="none" stroke="black" d="M1164.79,-740.288C1184.79,-721.666 1212.02,-689.978 1212.02,-655.5 1212.02,-655.5 1212.02,-655.5 1212.02,-138 1212.02,-77.2074 1128.62,-54.7489 1078.3,-46.7316"/>
<polygon fill="black" stroke="black" points="1078.52,-43.225 1068.11,-45.2314 1077.5,-50.1504 1078.52,-43.225"/>
<text text-anchor="middle" x="1239.52" y="-426.8" font-family="Times,serif" font-size="14.00">g9 != 6</text>
</g>
<!-- Node0x2d56e60 -->
<g id="node6" class="node"><title>Node0x2d56e60</title>
<polygon fill="none" stroke="black" points="482.017,-546.5 482.017,-582.5 984.017,-582.5 984.017,-546.5 482.017,-546.5"/>
<text text-anchor="start" x="490.017" y="-560.8" font-family="Times,serif" font-size="14.00">if (sscanf(BitCastExpr&lt;ptr&gt;(&amp;(str)), &quot;%d %s&quot;, &amp;(v2), &amp;(v1)) == 2):</text>
</g>
<!-- Node0x2d57640&#45;&gt;Node0x2d56e60 -->
<g id="edge5" class="edge"><title>Node0x2d57640&#45;&gt;Node0x2d56e60</title>
<path fill="none" stroke="black" d="M945.352,-631.294C899.98,-617.235 841.791,-599.205 797.805,-585.575"/>
<polygon fill="black" stroke="black" points="798.668,-582.178 788.08,-582.562 796.596,-588.865 798.668,-582.178"/>
</g>
<!-- Node0x2c4c4b0 -->
<g id="node7" class="node"><title>Node0x2c4c4b0</title>
<polygon fill="none" stroke="black" points="181.517,-456.5 181.517,-494.5 340.517,-494.5 340.517,-456.5 181.517,-456.5"/>
<text text-anchor="start" x="189.517" y="-479.3" font-family="Times,serif" font-size="14.00">0x8049188:</text>
<text text-anchor="start" x="189.517" y="-464.3" font-family="Times,serif" font-size="14.00"> strings_not_equal()</text>
</g>
<!-- Node0x2d56e60&#45;&gt;Node0x2c4c4b0 -->
<g id="edge6" class="edge"><title>Node0x2d56e60&#45;&gt;Node0x2c4c4b0</title>
<path fill="none" stroke="black" d="M481.811,-558.881C378.295,-554.34 278.498,-545.427 262.017,-528 256.164,-521.81 254.528,-513.095 254.782,-504.592"/>
<polygon fill="black" stroke="black" points="258.277,-504.827 255.872,-494.509 251.317,-504.075 258.277,-504.827"/>
<text text-anchor="middle" x="490.517" y="-516.8" font-family="Times,serif" font-size="14.00">sscanf(BitCastExpr&lt;ptr&gt;(&amp;(str)), &quot;%d %s&quot;, &amp;(v2), &amp;(v1)) == 2</text>
</g>
<!-- Node0x2c7efb0 -->
<g id="node8" class="node"><title>Node0x2c7efb0</title>
<polygon fill="none" stroke="black" points="282.017,-97.5 282.017,-180.5 1002.02,-180.5 1002.02,-97.5 282.017,-97.5"/>
<text text-anchor="start" x="290.017" y="-165.3" font-family="Times,serif" font-size="14.00">0x80491bc:</text>
<text text-anchor="start" x="290.017" y="-150.3" font-family="Times,serif" font-size="14.00"> str = PtrToIntCastExpr&lt;int32&gt;(&quot;Congratulations! You&#39;ve defused the bomb!&quot;)</text>
<text text-anchor="start" x="290.017" y="-135.3" font-family="Times,serif" font-size="14.00"> puts(&quot;Congratulations! You&#39;ve defused the bomb!&quot;)</text>
<text text-anchor="start" x="290.017" y="-120.3" font-family="Times,serif" font-size="14.00"> str = PtrToIntCastExpr&lt;int32&gt;(&quot;Your instructor has been notified and will verify your solution.&quot;)</text>
<text text-anchor="start" x="290.017" y="-105.3" font-family="Times,serif" font-size="14.00"> puts(&quot;Your instructor has been notified and will verify your solution.&quot;)</text>
</g>
<!-- Node0x2d56e60&#45;&gt;Node0x2c7efb0 -->
<g id="edge7" class="edge"><title>Node0x2d56e60&#45;&gt;Node0x2c7efb0</title>
<path fill="none" stroke="black" d="M733.017,-546.496C733.017,-528.959 733.017,-500.818 733.017,-476.5 733.017,-476.5 733.017,-476.5 733.017,-266.5 733.017,-236.975 716.48,-209.634 697.504,-187.981"/>
<polygon fill="black" stroke="black" points="700.048,-185.576 690.714,-180.565 694.886,-190.304 700.048,-185.576"/>
<text text-anchor="middle" x="958.517" y="-382.8" font-family="Times,serif" font-size="14.00">sscanf(BitCastExpr&lt;ptr&gt;(&amp;(str)), &quot;%d %s&quot;, &amp;(v2), &amp;(v1)) != 2</text>
</g>
<!-- Node0x2c31c60 -->
<g id="node9" class="node"><title>Node0x2c31c60</title>
<polygon fill="none" stroke="black" points="208.017,-368.5 208.017,-404.5 314.017,-404.5 314.017,-368.5 208.017,-368.5"/>
<text text-anchor="start" x="216.017" y="-382.8" font-family="Times,serif" font-size="14.00">if (g1 == 0):</text>
</g>
<!-- Node0x2c4c4b0&#45;&gt;Node0x2c31c60 -->
<g id="edge8" class="edge"><title>Node0x2c4c4b0&#45;&gt;Node0x2c31c60</title>
<path fill="none" stroke="black" d="M261.017,-456.474C261.017,-444.456 261.017,-428.434 261.017,-414.857"/>
<polygon fill="black" stroke="black" points="264.517,-414.615 261.017,-404.615 257.517,-414.615 264.517,-414.615"/>
</g>
<!-- Node0x2c7efb0&#45;&gt;Node0x2d8a240 -->
<g id="edge9" class="edge"><title>Node0x2c7efb0&#45;&gt;Node0x2d8a240</title>
<path fill="none" stroke="black" d="M811.229,-97.4994C882.804,-80.3681 959.704,-61.9623 1003.91,-51.3807"/>
<polygon fill="black" stroke="black" points="1004.99,-54.723 1013.9,-48.9914 1003.36,-47.9153 1004.99,-54.723"/>
</g>
<!-- Node0x2c31c60&#45;&gt;Node0x2c7efb0 -->
<g id="edge11" class="edge"><title>Node0x2c31c60&#45;&gt;Node0x2c7efb0</title>
<path fill="none" stroke="black" d="M207.982,-377.868C144.379,-367.503 43.4942,-346.79 21.0171,-317 -5.48433,-281.876 -8.0924,-250.994 21.0171,-218 40.0488,-196.428 149.599,-179.356 271.523,-166.753"/>
<polygon fill="black" stroke="black" points="272.24,-170.198 281.833,-165.7 271.53,-163.234 272.24,-170.198"/>
<text text-anchor="middle" x="48.5171" y="-263.8" font-family="Times,serif" font-size="14.00">g1 != 0</text>
</g>
<!-- Node0x2cb42b0 -->
<g id="node10" class="node"><title>Node0x2cb42b0</title>
<polygon fill="none" stroke="black" points="85.0171,-218.5 85.0171,-316.5 705.017,-316.5 705.017,-218.5 85.0171,-218.5"/>
<text text-anchor="start" x="93.0171" y="-301.3" font-family="Times,serif" font-size="14.00">0x804919f:</text>
<text text-anchor="start" x="93.0171" y="-286.3" font-family="Times,serif" font-size="14.00"> str = PtrToIntCastExpr&lt;int32&gt;(&quot;Curses, you&#39;ve found the secret phase!&quot;)</text>
<text text-anchor="start" x="93.0171" y="-271.3" font-family="Times,serif" font-size="14.00"> puts(&quot;Curses, you&#39;ve found the secret phase!&quot;)</text>
<text text-anchor="start" x="93.0171" y="-256.3" font-family="Times,serif" font-size="14.00"> str = PtrToIntCastExpr&lt;int32&gt;(&quot;But finding it and solving it are quite different...&quot;)</text>
<text text-anchor="start" x="93.0171" y="-241.3" font-family="Times,serif" font-size="14.00"> puts(&quot;But finding it and solving it are quite different...&quot;)</text>
<text text-anchor="start" x="93.0171" y="-226.3" font-family="Times,serif" font-size="14.00"> secret_phase()</text>
</g>
<!-- Node0x2c31c60&#45;&gt;Node0x2cb42b0 -->
<g id="edge10" class="edge"><title>Node0x2c31c60&#45;&gt;Node0x2cb42b0</title>
<path fill="none" stroke="black" d="M280.502,-368.487C294.157,-356.564 313.238,-339.904 331.914,-323.598"/>
<polygon fill="black" stroke="black" points="334.645,-325.859 339.876,-316.646 330.041,-320.586 334.645,-325.859"/>
<text text-anchor="middle" x="346.517" y="-338.8" font-family="Times,serif" font-size="14.00">g1 == 0</text>
</g>
<!-- Node0x2cb42b0&#45;&gt;Node0x2c7efb0 -->
<g id="edge12" class="edge"><title>Node0x2cb42b0&#45;&gt;Node0x2c7efb0</title>
<path fill="none" stroke="black" d="M488.749,-218.495C510.125,-207.548 532.765,-195.953 553.896,-185.131"/>
<polygon fill="black" stroke="black" points="555.546,-188.218 562.852,-180.544 552.355,-181.988 555.546,-188.218"/>
</g>
</g>
</svg>
