<?xml version="1.0" encoding="UTF-8" standalone="no"?>
<!DOCTYPE svg PUBLIC "-//W3C//DTD SVG 1.1//EN"
 "http://www.w3.org/Graphics/SVG/1.1/DTD/svg11.dtd">
<!-- Generated by graphviz version 2.38.0 (20140413.2041)
 -->
<!-- Title: Control&#45;flow graph for function &#39;send_msg()&#39;. Pages: 1 -->
<svg width="2142pt" height="2522pt"
 viewBox="0.00 0.00 2142.00 2522.00" xmlns="http://www.w3.org/2000/svg" xmlns:xlink="http://www.w3.org/1999/xlink">
<g id="graph0" class="graph" transform="scale(1 1) rotate(0) translate(4 2518)">
<title>Control&#45;flow graph for function &#39;send_msg()&#39;.</title>
<polygon fill="white" stroke="none" points="-4,4 -4,-2518 2138,-2518 2138,4 -4,4"/>
<text text-anchor="middle" x="1067" y="-7.8" font-family="Times,serif" font-size="14.00">Control&#45;flow graph for function &#39;send_msg()&#39;.</text>
<!-- Node0x2c1beb0 -->
<g id="node1" class="node"><title>Node0x2c1beb0</title>
<polygon fill="none" stroke="black" points="152,-2477.5 152,-2513.5 211,-2513.5 211,-2477.5 152,-2477.5"/>
<text text-anchor="start" x="160" y="-2491.8" font-family="Times,serif" font-size="14.00">entry:</text>
</g>
<!-- Node0x2b10b60 -->
<g id="node2" class="node"><title>Node0x2b10b60</title>
<polygon fill="none" stroke="black" points="130,-2371.5 130,-2439.5 233,-2439.5 233,-2371.5 130,-2371.5"/>
<text text-anchor="start" x="138" y="-2424.3" font-family="Times,serif" font-size="14.00">v1 = g3</text>
<text text-anchor="start" x="138" y="-2409.3" font-family="Times,serif" font-size="14.00"> v2 = g4</text>
<text text-anchor="start" x="138" y="-2394.3" font-family="Times,serif" font-size="14.00"> v3 = g2</text>
<text text-anchor="start" x="138" y="-2379.3" font-family="Times,serif" font-size="14.00"> fd = dup(0)</text>
</g>
<!-- Node0x2c1beb0&#45;&gt;Node0x2b10b60 -->
<g id="edge1" class="edge"><title>Node0x2c1beb0&#45;&gt;Node0x2b10b60</title>
<path fill="none" stroke="black" d="M181.5,-2477.11C181.5,-2469.16 181.5,-2459.34 181.5,-2449.59"/>
<polygon fill="black" stroke="black" points="185,-2449.52 181.5,-2439.52 178,-2449.52 185,-2449.52"/>
</g>
<!-- Node0x2e22460 -->
<g id="node3" class="node"><title>Node0x2e22460</title>
<polygon fill="none" stroke="black" points="128,-2297.5 128,-2333.5 235,-2333.5 235,-2297.5 128,-2297.5"/>
<text text-anchor="start" x="136" y="-2311.8" font-family="Times,serif" font-size="14.00">if (fd == &#45;1):</text>
</g>
<!-- Node0x2b10b60&#45;&gt;Node0x2e22460 -->
<g id="edge2" class="edge"><title>Node0x2b10b60&#45;&gt;Node0x2e22460</title>
<path fill="none" stroke="black" d="M181.5,-2371.48C181.5,-2362.33 181.5,-2352.5 181.5,-2343.72"/>
<polygon fill="black" stroke="black" points="185,-2343.64 181.5,-2333.64 178,-2343.64 185,-2343.64"/>
</g>
<!-- Node0x2d79870 -->
<g id="node4" class="node"><title>Node0x2d79870</title>
<polygon fill="none" stroke="black" points="0,-2120.5 0,-2188.5 227,-2188.5 227,-2120.5 0,-2120.5"/>
<text text-anchor="start" x="8" y="-2173.3" font-family="Times,serif" font-size="14.00">0x8048f0d:</text>
<text text-anchor="start" x="8" y="-2158.3" font-family="Times,serif" font-size="14.00"> puts(&quot;ERROR: dup(0) error&quot;)</text>
<text text-anchor="start" x="8" y="-2143.3" font-family="Times,serif" font-size="14.00"> exit(8)</text>
<text text-anchor="start" x="8" y="-2128.3" font-family="Times,serif" font-size="14.00"> # UNREACHABLE</text>
</g>
<!-- Node0x2e22460&#45;&gt;Node0x2d79870 -->
<g id="edge3" class="edge"><title>Node0x2e22460&#45;&gt;Node0x2d79870</title>
<path fill="none" stroke="black" d="M160.322,-2297.35C154.817,-2291.98 149.358,-2285.69 145.5,-2279 131.32,-2254.4 123.317,-2223.47 118.861,-2198.72"/>
<polygon fill="black" stroke="black" points="122.258,-2197.81 117.16,-2188.53 115.353,-2198.97 122.258,-2197.81"/>
<text text-anchor="middle" x="176" y="-2267.8" font-family="Times,serif" font-size="14.00">fd == &#45;1</text>
</g>
<!-- Node0x2c7a6b0 -->
<g id="node5" class="node"><title>Node0x2c7a6b0</title>
<polygon fill="none" stroke="black" points="174,-2207.5 174,-2245.5 327,-2245.5 327,-2207.5 174,-2207.5"/>
<text text-anchor="start" x="182" y="-2230.3" font-family="Times,serif" font-size="14.00">0x8048f25:</text>
<text text-anchor="start" x="182" y="-2215.3" font-family="Times,serif" font-size="14.00"> if (close(0) == &#45;1):</text>
</g>
<!-- Node0x2e22460&#45;&gt;Node0x2c7a6b0 -->
<g id="edge4" class="edge"><title>Node0x2e22460&#45;&gt;Node0x2c7a6b0</title>
<path fill="none" stroke="black" d="M195.132,-2297.31C205.047,-2284.81 218.646,-2267.66 229.885,-2253.49"/>
<polygon fill="black" stroke="black" points="232.712,-2255.56 236.184,-2245.55 227.227,-2251.21 232.712,-2255.56"/>
<text text-anchor="middle" x="248" y="-2267.8" font-family="Times,serif" font-size="14.00">fd != &#45;1</text>
</g>
<!-- Node0x2db47c0 -->
<g id="node6" class="node"><title>Node0x2db47c0</title>
<polygon fill="none" stroke="black" points="706.5,-23.5 706.5,-59.5 760.5,-59.5 760.5,-23.5 706.5,-23.5"/>
<text text-anchor="start" x="714.5" y="-37.8" font-family="Times,serif" font-size="14.00">exit:</text>
</g>
<!-- Node0x2d79870&#45;&gt;Node0x2db47c0 -->
<g id="edge5" class="edge"><title>Node0x2d79870&#45;&gt;Node0x2db47c0</title>
<path fill="none" stroke="black" d="M114.978,-2120.41C116.118,-2092.05 117.5,-2050.09 117.5,-2013.5 117.5,-2013.5 117.5,-2013.5 117.5,-138 117.5,-102.709 152.451,-109.378 185.5,-97 279.623,-61.7479 588.773,-47.6391 696.266,-43.7221"/>
<polygon fill="black" stroke="black" points="696.45,-47.2179 706.319,-43.3643 696.201,-40.2223 696.45,-47.2179"/>
</g>
<!-- Node0x2c368e0 -->
<g id="node7" class="node"><title>Node0x2c368e0</title>
<polygon fill="none" stroke="black" points="136,-1978.5 136,-2046.5 353,-2046.5 353,-1978.5 136,-1978.5"/>
<text text-anchor="start" x="144" y="-2031.3" font-family="Times,serif" font-size="14.00">0x8048f36:</text>
<text text-anchor="start" x="144" y="-2016.3" font-family="Times,serif" font-size="14.00"> puts(&quot;ERROR: close error&quot;)</text>
<text text-anchor="start" x="144" y="-2001.3" font-family="Times,serif" font-size="14.00"> exit(8)</text>
<text text-anchor="start" x="144" y="-1986.3" font-family="Times,serif" font-size="14.00"> # UNREACHABLE</text>
</g>
<!-- Node0x2c7a6b0&#45;&gt;Node0x2c368e0 -->
<g id="edge6" class="edge"><title>Node0x2c7a6b0&#45;&gt;Node0x2c368e0</title>
<path fill="none" stroke="black" d="M248.772,-2207.32C248.279,-2201.48 247.796,-2194.97 247.5,-2189 245.261,-2143.85 244.609,-2092.09 244.457,-2056.54"/>
<polygon fill="black" stroke="black" points="247.957,-2056.5 244.426,-2046.51 240.958,-2056.53 247.957,-2056.5"/>
<text text-anchor="middle" x="299" y="-2150.8" font-family="Times,serif" font-size="14.00">close(0) == &#45;1</text>
</g>
<!-- Node0x2d31f90 -->
<g id="node8" class="node"><title>Node0x2d31f90</title>
<polygon fill="none" stroke="black" points="298.5,-2065.5 298.5,-2101.5 454.5,-2101.5 454.5,-2065.5 298.5,-2065.5"/>
<text text-anchor="start" x="306.5" y="-2079.8" font-family="Times,serif" font-size="14.00">tmp_file = tmpfile()</text>
</g>
<!-- Node0x2c7a6b0&#45;&gt;Node0x2d31f90 -->
<g id="edge7" class="edge"><title>Node0x2c7a6b0&#45;&gt;Node0x2d31f90</title>
<path fill="none" stroke="black" d="M327.243,-2209C337.514,-2204 347.052,-2197.48 354.5,-2189 373.082,-2167.83 377.357,-2134.98 377.761,-2111.77"/>
<polygon fill="black" stroke="black" points="381.26,-2111.53 377.704,-2101.55 374.26,-2111.57 381.26,-2111.53"/>
<text text-anchor="middle" x="426" y="-2150.8" font-family="Times,serif" font-size="14.00">close(0) != &#45;1</text>
</g>
<!-- Node0x2c368e0&#45;&gt;Node0x2db47c0 -->
<g id="edge8" class="edge"><title>Node0x2c368e0&#45;&gt;Node0x2db47c0</title>
<path fill="none" stroke="black" d="M223.581,-1978.25C211.829,-1956.43 199.5,-1926.8 199.5,-1898.5 199.5,-1898.5 199.5,-1898.5 199.5,-138 199.5,-84.637 250.8,-86.3845 303.5,-78 447.338,-55.1157 620.735,-46.5147 695.814,-43.7013"/>
<polygon fill="black" stroke="black" points="696.295,-47.1863 706.162,-43.3272 696.042,-40.1909 696.295,-47.1863"/>
</g>
<!-- Node0x2d32080 -->
<g id="node9" class="node"><title>Node0x2d32080</title>
<polygon fill="none" stroke="black" points="286.5,-1923.5 286.5,-1959.5 466.5,-1959.5 466.5,-1923.5 286.5,-1923.5"/>
<text text-anchor="start" x="294.5" y="-1937.8" font-family="Times,serif" font-size="14.00">if (tmp_file == NULL):</text>
</g>
<!-- Node0x2d31f90&#45;&gt;Node0x2d32080 -->
<g id="edge9" class="edge"><title>Node0x2d31f90&#45;&gt;Node0x2d32080</title>
<path fill="none" stroke="black" d="M376.5,-2065.33C376.5,-2041.51 376.5,-1998.16 376.5,-1969.85"/>
<polygon fill="black" stroke="black" points="380,-1969.81 376.5,-1959.81 373,-1969.81 380,-1969.81"/>
</g>
<!-- Node0x2c2fd00 -->
<g id="node10" class="node"><title>Node0x2c2fd00</title>
<polygon fill="none" stroke="black" points="214.5,-1701.5 214.5,-1769.5 444.5,-1769.5 444.5,-1701.5 214.5,-1701.5"/>
<text text-anchor="start" x="222.5" y="-1754.3" font-family="Times,serif" font-size="14.00">0x8048f59:</text>
<text text-anchor="start" x="222.5" y="-1739.3" font-family="Times,serif" font-size="14.00"> puts(&quot;ERROR: tmpfile error&quot;)</text>
<text text-anchor="start" x="222.5" y="-1724.3" font-family="Times,serif" font-size="14.00"> exit(8)</text>
<text text-anchor="start" x="222.5" y="-1709.3" font-family="Times,serif" font-size="14.00"> # UNREACHABLE</text>
</g>
<!-- Node0x2d32080&#45;&gt;Node0x2c2fd00 -->
<g id="edge10" class="edge"><title>Node0x2d32080&#45;&gt;Node0x2c2fd00</title>
<path fill="none" stroke="black" d="M345.087,-1923.23C338.807,-1918.22 333.055,-1912.14 329.5,-1905 310.039,-1865.91 313.272,-1815.12 319.351,-1779.56"/>
<polygon fill="black" stroke="black" points="322.834,-1779.97 321.215,-1769.5 315.951,-1778.7 322.834,-1779.97"/>
<text text-anchor="middle" x="397" y="-1893.8" font-family="Times,serif" font-size="14.00">tmp_file == NULL</text>
</g>
<!-- Node0x2b8f5a0 -->
<g id="node11" class="node"><title>Node0x2b8f5a0</title>
<polygon fill="none" stroke="black" points="358,-1788.5 358,-1871.5 761,-1871.5 761,-1788.5 358,-1788.5"/>
<text text-anchor="start" x="366" y="-1856.3" font-family="Times,serif" font-size="14.00">0x8048f71:</text>
<text text-anchor="start" x="366" y="-1841.3" font-family="Times,serif" font-size="14.00"> fwrite(&quot;Subject: Bomb notification\n&quot;, 1, 27, tmp_file)</text>
<text text-anchor="start" x="366" y="-1826.3" font-family="Times,serif" font-size="14.00"> fputc(10, tmp_file)</text>
<text text-anchor="start" x="366" y="-1811.3" font-family="Times,serif" font-size="14.00"> str2 = cuserid(NULL)</text>
<text text-anchor="start" x="366" y="-1796.3" font-family="Times,serif" font-size="14.00"> str</text>
</g>
<!-- Node0x2d32080&#45;&gt;Node0x2b8f5a0 -->
<g id="edge11" class="edge"><title>Node0x2d32080&#45;&gt;Node0x2b8f5a0</title>
<path fill="none" stroke="black" d="M429.398,-1923.35C442.552,-1918.22 456.356,-1912.04 468.5,-1905 481.794,-1897.29 495.159,-1887.7 507.397,-1878"/>
<polygon fill="black" stroke="black" points="509.694,-1880.64 515.264,-1871.63 505.289,-1875.2 509.694,-1880.64"/>
<text text-anchor="middle" x="555" y="-1893.8" font-family="Times,serif" font-size="14.00">tmp_file != NULL</text>
</g>
<!-- Node0x2c2fd00&#45;&gt;Node0x2db47c0 -->
<g id="edge12" class="edge"><title>Node0x2c2fd00&#45;&gt;Node0x2db47c0</title>
<path fill="none" stroke="black" d="M283.23,-1701.3C260.321,-1680.75 237.5,-1652.1 237.5,-1619.5 237.5,-1619.5 237.5,-1619.5 237.5,-138 237.5,-44.5645 581.183,-40.5098 696.378,-41.7749"/>
<polygon fill="black" stroke="black" points="696.436,-45.2759 706.481,-41.9064 696.527,-38.2765 696.436,-45.2759"/>
</g>
<!-- Node0x2db4740 -->
<g id="node12" class="node"><title>Node0x2db4740</title>
<polygon fill="none" stroke="black" points="483.5,-1644.5 483.5,-1682.5 635.5,-1682.5 635.5,-1644.5 483.5,-1644.5"/>
<text text-anchor="start" x="491.5" y="-1667.3" font-family="Times,serif" font-size="14.00">if (str2 == NULL):</text>
<text text-anchor="start" x="491.5" y="-1652.3" font-family="Times,serif" font-size="14.00"> else:</text>
</g>
<!-- Node0x2b8f5a0&#45;&gt;Node0x2db4740 -->
<g id="edge13" class="edge"><title>Node0x2b8f5a0&#45;&gt;Node0x2db4740</title>
<path fill="none" stroke="black" d="M559.5,-1788.34C559.5,-1758.57 559.5,-1718.94 559.5,-1692.61"/>
<polygon fill="black" stroke="black" points="563,-1692.55 559.5,-1682.55 556,-1692.55 563,-1692.55"/>
</g>
<!-- Node0x2c2fe60 -->
<g id="node13" class="node"><title>Node0x2c2fe60</title>
<polygon fill="none" stroke="black" points="465.5,-1554.5 465.5,-1592.5 617.5,-1592.5 617.5,-1554.5 465.5,-1554.5"/>
<text text-anchor="start" x="473.5" y="-1577.3" font-family="Times,serif" font-size="14.00">0x8048fb1:</text>
<text text-anchor="start" x="473.5" y="-1562.3" font-family="Times,serif" font-size="14.00"> str = 1868722030</text>
</g>
<!-- Node0x2db4740&#45;&gt;Node0x2c2fe60 -->
<g id="edge14" class="edge"><title>Node0x2db4740&#45;&gt;Node0x2c2fe60</title>
<path fill="none" stroke="black" d="M555.77,-1644.27C553.309,-1632.23 550.035,-1616.22 547.244,-1602.58"/>
<polygon fill="black" stroke="black" points="550.658,-1601.81 545.225,-1592.71 543.8,-1603.21 550.658,-1601.81"/>
<text text-anchor="middle" x="605.5" y="-1614.8" font-family="Times,serif" font-size="14.00">str2 == NULL</text>
</g>
<!-- Node0x2d40ab0 -->
<g id="node14" class="node"><title>Node0x2d40ab0</title>
<polygon fill="none" stroke="black" points="635.5,-1554.5 635.5,-1592.5 939.5,-1592.5 939.5,-1554.5 635.5,-1554.5"/>
<text text-anchor="start" x="643.5" y="-1577.3" font-family="Times,serif" font-size="14.00">0x8048fc6:</text>
<text text-anchor="start" x="643.5" y="-1562.3" font-family="Times,serif" font-size="14.00"> strcpy(BitCastExpr&lt;ptr&gt;(&amp;(str)), str2)</text>
</g>
<!-- Node0x2db4740&#45;&gt;Node0x2d40ab0 -->
<g id="edge15" class="edge"><title>Node0x2db4740&#45;&gt;Node0x2d40ab0</title>
<path fill="none" stroke="black" d="M612.085,-1644.44C628.313,-1638.71 646.2,-1632.24 662.5,-1626 686.762,-1616.71 713.412,-1605.83 735.849,-1596.46"/>
<polygon fill="black" stroke="black" points="737.315,-1599.64 745.187,-1592.55 734.612,-1593.19 737.315,-1599.64"/>
<text text-anchor="middle" x="747.5" y="-1614.8" font-family="Times,serif" font-size="14.00">str2 != NULL</text>
</g>
<!-- Node0x2d57cf0 -->
<g id="node15" class="node"><title>Node0x2d57cf0</title>
<polygon fill="none" stroke="black" points="540.5,-1478.5 540.5,-1516.5 638.5,-1516.5 638.5,-1478.5 540.5,-1478.5"/>
<text text-anchor="start" x="548.5" y="-1501.3" font-family="Times,serif" font-size="14.00">0x8048fd5:</text>
<text text-anchor="start" x="548.5" y="-1486.3" font-family="Times,serif" font-size="14.00"> v4</text>
</g>
<!-- Node0x2c2fe60&#45;&gt;Node0x2d57cf0 -->
<g id="edge16" class="edge"><title>Node0x2c2fe60&#45;&gt;Node0x2d57cf0</title>
<path fill="none" stroke="black" d="M553.365,-1554.21C559.062,-1545.43 565.996,-1534.74 572.261,-1525.08"/>
<polygon fill="black" stroke="black" points="575.266,-1526.88 577.771,-1516.58 569.393,-1523.07 575.266,-1526.88"/>
</g>
<!-- Node0x2d40ab0&#45;&gt;Node0x2d57cf0 -->
<g id="edge17" class="edge"><title>Node0x2d40ab0&#45;&gt;Node0x2d57cf0</title>
<path fill="none" stroke="black" d="M739.317,-1554.49C711.652,-1544.15 676.723,-1531.1 647.552,-1520.2"/>
<polygon fill="black" stroke="black" points="648.492,-1516.81 637.899,-1516.59 646.041,-1523.37 648.492,-1516.81"/>
</g>
<!-- Node0x2d40560 -->
<g id="node16" class="node"><title>Node0x2d40560</title>
<polygon fill="none" stroke="black" points="522.5,-1404.5 522.5,-1440.5 656.5,-1440.5 656.5,-1404.5 522.5,-1404.5"/>
<text text-anchor="start" x="530.5" y="-1418.8" font-family="Times,serif" font-size="14.00">if (v4 != NULL):</text>
</g>
<!-- Node0x2d57cf0&#45;&gt;Node0x2d40560 -->
<g id="edge18" class="edge"><title>Node0x2d57cf0&#45;&gt;Node0x2d40560</title>
<path fill="none" stroke="black" d="M589.5,-1478.46C589.5,-1470.2 589.5,-1460.24 589.5,-1451.07"/>
<polygon fill="black" stroke="black" points="593,-1450.83 589.5,-1440.83 586,-1450.83 593,-1450.83"/>
</g>
<!-- Node0x2c49770 -->
<g id="node17" class="node"><title>Node0x2c49770</title>
<polygon fill="none" stroke="black" points="322,-1314.5 322,-1352.5 1009,-1352.5 1009,-1314.5 322,-1314.5"/>
<text text-anchor="start" x="330" y="-1337.3" font-family="Times,serif" font-size="14.00">v5 = g9</text>
<text text-anchor="start" x="330" y="-1322.3" font-family="Times,serif" font-size="14.00"> fprintf(tmp_file, &quot;bomb&#45;header:%s:%d:%s:%s:%d\n&quot;, &quot;Fall15bomb&quot;, g5, &amp;(str), &quot;defused&quot;, g9)</text>
</g>
<!-- Node0x2d40560&#45;&gt;Node0x2c49770 -->
<g id="edge19" class="edge"><title>Node0x2d40560&#45;&gt;Node0x2c49770</title>
<path fill="none" stroke="black" d="M571.44,-1404.46C562.939,-1394.34 556.119,-1381.48 563.5,-1371 566.817,-1366.29 570.799,-1362.19 575.241,-1358.61"/>
<polygon fill="black" stroke="black" points="577.486,-1361.31 583.689,-1352.72 573.483,-1355.57 577.486,-1361.31"/>
<text text-anchor="middle" x="610.5" y="-1374.8" font-family="Times,serif" font-size="14.00">v4 == NULL</text>
</g>
<!-- Node0x2d40560&#45;&gt;Node0x2c49770 -->
<g id="edge20" class="edge"><title>Node0x2d40560&#45;&gt;Node0x2c49770</title>
<path fill="none" stroke="black" d="M636.774,-1404.3C644.739,-1399.49 652.147,-1393.47 657.5,-1386 662.265,-1379.35 664.662,-1370.98 665.77,-1362.93"/>
<polygon fill="black" stroke="black" points="669.279,-1362.94 666.574,-1352.7 662.301,-1362.39 669.279,-1362.94"/>
<text text-anchor="middle" x="708.5" y="-1374.8" font-family="Times,serif" font-size="14.00">v4 != NULL</text>
</g>
<!-- Node0x2b0f5a0 -->
<g id="node18" class="node"><title>Node0x2b0f5a0</title>
<polygon fill="none" stroke="black" points="618.5,-1240.5 618.5,-1276.5 712.5,-1276.5 712.5,-1240.5 618.5,-1240.5"/>
<text text-anchor="start" x="626.5" y="-1254.8" font-family="Times,serif" font-size="14.00">if (g9 &lt; 1):</text>
</g>
<!-- Node0x2c49770&#45;&gt;Node0x2b0f5a0 -->
<g id="edge21" class="edge"><title>Node0x2c49770&#45;&gt;Node0x2b0f5a0</title>
<path fill="none" stroke="black" d="M665.5,-1314.46C665.5,-1306.2 665.5,-1296.24 665.5,-1287.07"/>
<polygon fill="black" stroke="black" points="669,-1286.83 665.5,-1276.83 662,-1286.83 669,-1286.83"/>
</g>
<!-- Node0x2d40b70 -->
<g id="node19" class="node"><title>Node0x2d40b70</title>
<polygon fill="none" stroke="black" points="253,-973.5 253,-1026.5 1050,-1026.5 1050,-973.5 253,-973.5"/>
<text text-anchor="start" x="261" y="-1011.3" font-family="Times,serif" font-size="14.00">0x804906d:</text>
<text text-anchor="start" x="261" y="-996.3" font-family="Times,serif" font-size="14.00"> rewind(tmp_file)</text>
<text text-anchor="start" x="261" y="-981.3" font-family="Times,serif" font-size="14.00"> sprintf(IntToPtrCastExpr&lt;ptr&gt;(134524576), &quot;%s %s@%s&quot;, &quot;/usr/sbin/sendmail &#45;bm&quot;, &quot;bomb&quot;, &quot;cs.uml.edu&quot;)</text>
</g>
<!-- Node0x2b0f5a0&#45;&gt;Node0x2d40b70 -->
<g id="edge22" class="edge"><title>Node0x2b0f5a0&#45;&gt;Node0x2d40b70</title>
<path fill="none" stroke="black" d="M664.56,-1240.27C662.296,-1198.8 656.506,-1092.72 653.453,-1036.78"/>
<polygon fill="black" stroke="black" points="656.938,-1036.41 652.898,-1026.61 649.948,-1036.79 656.938,-1036.41"/>
<text text-anchor="middle" x="688" y="-1210.8" font-family="Times,serif" font-size="14.00">g9 &lt; 1</text>
</g>
<!-- Node0x2b20bb0 -->
<g id="node20" class="node"><title>Node0x2b20bb0</title>
<polygon fill="none" stroke="black" points="716.5,-1045.5 716.5,-1188.5 1366.5,-1188.5 1366.5,-1045.5 716.5,-1045.5"/>
<text text-anchor="start" x="724.5" y="-1173.3" font-family="Times,serif" font-size="14.00">0x8049025:</text>
<text text-anchor="start" x="724.5" y="-1158.3" font-family="Times,serif" font-size="14.00"> g4 = 134522976</text>
<text text-anchor="start" x="724.5" y="-1143.3" font-family="Times,serif" font-size="14.00"> v6 = 1</text>
<text text-anchor="start" x="724.5" y="-1128.3" font-family="Times,serif" font-size="14.00"> g2 = v6</text>
<text text-anchor="start" x="724.5" y="-1113.3" font-family="Times,serif" font-size="14.00"> v5 = 134522976</text>
<text text-anchor="start" x="724.5" y="-1098.3" font-family="Times,serif" font-size="14.00"> fprintf(tmp_file, &quot;bomb&#45;string:%s:%d:%s:%d:%s\n&quot;, &quot;Fall15bomb&quot;, g5, &amp;(str), v6, &amp;(v5))</text>
<text text-anchor="start" x="724.5" y="-1083.3" font-family="Times,serif" font-size="14.00"> v7 = (g4 + 80)</text>
<text text-anchor="start" x="724.5" y="-1068.3" font-family="Times,serif" font-size="14.00"> g4 = v7</text>
<text text-anchor="start" x="724.5" y="-1053.3" font-family="Times,serif" font-size="14.00"> v8 = g2</text>
</g>
<!-- Node0x2b0f5a0&#45;&gt;Node0x2b20bb0 -->
<g id="edge23" class="edge"><title>Node0x2b0f5a0&#45;&gt;Node0x2b20bb0</title>
<path fill="none" stroke="black" d="M711.605,-1240.39C745.042,-1227.99 792.796,-1210.27 841.623,-1192.16"/>
<polygon fill="black" stroke="black" points="842.915,-1195.41 851.073,-1188.65 840.48,-1188.85 842.915,-1195.41"/>
<text text-anchor="middle" x="829" y="-1210.8" font-family="Times,serif" font-size="14.00">g9 &gt;= 1</text>
</g>
<!-- Node0x2d7a9b0 -->
<g id="node21" class="node"><title>Node0x2d7a9b0</title>
<polygon fill="none" stroke="black" points="436.5,-664.5 436.5,-700.5 844.5,-700.5 844.5,-664.5 436.5,-664.5"/>
<text text-anchor="start" x="444.5" y="-678.8" font-family="Times,serif" font-size="14.00">if (system(IntToPtrCastExpr&lt;ptr&gt;(134524576)) != 0):</text>
</g>
<!-- Node0x2d40b70&#45;&gt;Node0x2d7a9b0 -->
<g id="edge24" class="edge"><title>Node0x2d40b70&#45;&gt;Node0x2d7a9b0</title>
<path fill="none" stroke="black" d="M650.609,-973.449C648.568,-914.893 643.565,-771.413 641.459,-711.012"/>
<polygon fill="black" stroke="black" points="644.947,-710.611 641.101,-700.739 637.952,-710.855 644.947,-710.611"/>
</g>
<!-- Node0x2c35490 -->
<g id="node22" class="node"><title>Node0x2c35490</title>
<polygon fill="none" stroke="black" points="1000,-918.5 1000,-954.5 1131,-954.5 1131,-918.5 1000,-918.5"/>
<text text-anchor="start" x="1008" y="-932.8" font-family="Times,serif" font-size="14.00">while (g9 &gt; v8):</text>
</g>
<!-- Node0x2b20bb0&#45;&gt;Node0x2c35490 -->
<g id="edge25" class="edge"><title>Node0x2b20bb0&#45;&gt;Node0x2c35490</title>
<path fill="none" stroke="black" d="M1050.99,-1045.45C1054.8,-1017.11 1058.96,-986.129 1061.85,-964.657"/>
<polygon fill="black" stroke="black" points="1065.33,-965.023 1063.19,-954.646 1058.39,-964.09 1065.33,-965.023"/>
</g>
<!-- Node0x2ca7440 -->
<g id="node23" class="node"><title>Node0x2ca7440</title>
<polygon fill="none" stroke="black" points="253,-487.5 253,-555.5 514,-555.5 514,-487.5 253,-487.5"/>
<text text-anchor="start" x="261" y="-540.3" font-family="Times,serif" font-size="14.00">0x80490b1:</text>
<text text-anchor="start" x="261" y="-525.3" font-family="Times,serif" font-size="14.00"> puts(&quot;ERROR: notification error&quot;)</text>
<text text-anchor="start" x="261" y="-510.3" font-family="Times,serif" font-size="14.00"> exit(8)</text>
<text text-anchor="start" x="261" y="-495.3" font-family="Times,serif" font-size="14.00"> # UNREACHABLE</text>
</g>
<!-- Node0x2d7a9b0&#45;&gt;Node0x2ca7440 -->
<g id="edge26" class="edge"><title>Node0x2d7a9b0&#45;&gt;Node0x2ca7440</title>
<path fill="none" stroke="black" d="M436.415,-671.535C368.042,-666.083 306.265,-657.93 295.5,-646 271.861,-619.804 297.093,-587.188 326.504,-562.053"/>
<polygon fill="black" stroke="black" points="328.962,-564.563 334.457,-555.504 324.512,-559.159 328.962,-564.563"/>
<text text-anchor="middle" x="477" y="-634.8" font-family="Times,serif" font-size="14.00">system(IntToPtrCastExpr&lt;ptr&gt;(134524576)) != 0</text>
</g>
<!-- Node0x2d6e980 -->
<g id="node24" class="node"><title>Node0x2d6e980</title>
<polygon fill="none" stroke="black" points="586,-574.5 586,-612.5 783,-612.5 783,-574.5 586,-574.5"/>
<text text-anchor="start" x="594" y="-597.3" font-family="Times,serif" font-size="14.00">0x80490c9:</text>
<text text-anchor="start" x="594" y="-582.3" font-family="Times,serif" font-size="14.00"> if (fclose(tmp_file) != 0):</text>
</g>
<!-- Node0x2d7a9b0&#45;&gt;Node0x2d6e980 -->
<g id="edge27" class="edge"><title>Node0x2d7a9b0&#45;&gt;Node0x2d6e980</title>
<path fill="none" stroke="black" d="M651.778,-664.471C655.394,-658.713 659.29,-652.176 662.5,-646 666.409,-638.478 670.207,-630.106 673.516,-622.336"/>
<polygon fill="black" stroke="black" points="676.822,-623.502 677.419,-612.924 670.356,-620.821 676.822,-623.502"/>
<text text-anchor="middle" x="854" y="-634.8" font-family="Times,serif" font-size="14.00">system(IntToPtrCastExpr&lt;ptr&gt;(134524576)) == 0</text>
</g>
<!-- Node0x2d22540 -->
<g id="node25" class="node"><title>Node0x2d22540</title>
<polygon fill="none" stroke="black" points="668.5,-738.5 668.5,-866.5 1318.5,-866.5 1318.5,-738.5 668.5,-738.5"/>
<text text-anchor="start" x="676.5" y="-851.3" font-family="Times,serif" font-size="14.00">0x804902f:</text>
<text text-anchor="start" x="676.5" y="-836.3" font-family="Times,serif" font-size="14.00"> v6 = (v8 + 1)</text>
<text text-anchor="start" x="676.5" y="-821.3" font-family="Times,serif" font-size="14.00"> g2 = v6</text>
<text text-anchor="start" x="676.5" y="-806.3" font-family="Times,serif" font-size="14.00"> v5 = v7</text>
<text text-anchor="start" x="676.5" y="-791.3" font-family="Times,serif" font-size="14.00"> fprintf(tmp_file, &quot;bomb&#45;string:%s:%d:%s:%d:%s\n&quot;, &quot;Fall15bomb&quot;, g5, &amp;(str), v6, &amp;(v5))</text>
<text text-anchor="start" x="676.5" y="-776.3" font-family="Times,serif" font-size="14.00"> v7 = (g4 + 80)</text>
<text text-anchor="start" x="676.5" y="-761.3" font-family="Times,serif" font-size="14.00"> g4 = v7</text>
<text text-anchor="start" x="676.5" y="-746.3" font-family="Times,serif" font-size="14.00"> v8 = g2</text>
</g>
<!-- Node0x2c35490&#45;&gt;Node0x2d22540 -->
<g id="edge28" class="edge"><title>Node0x2c35490&#45;&gt;Node0x2d22540</title>
<path fill="none" stroke="black" d="M1013.84,-918.388C1006.16,-913.623 999.249,-907.596 994.5,-900 990.08,-892.93 987.34,-884.962 985.795,-876.713"/>
<polygon fill="black" stroke="black" points="989.234,-876.015 984.47,-866.552 982.293,-876.92 989.234,-876.015"/>
<text text-anchor="middle" x="1023" y="-888.8" font-family="Times,serif" font-size="14.00">g9 &gt; v8</text>
</g>
<!-- Node0x2c3c350 -->
<g id="node26" class="node"><title>Node0x2c3c350</title>
<polygon fill="none" stroke="black" points="1337,-776 1337,-829 2134,-829 2134,-776 1337,-776"/>
<text text-anchor="start" x="1345" y="-813.8" font-family="Times,serif" font-size="14.00">0x804906d:</text>
<text text-anchor="start" x="1345" y="-798.8" font-family="Times,serif" font-size="14.00"> rewind(tmp_file)</text>
<text text-anchor="start" x="1345" y="-783.8" font-family="Times,serif" font-size="14.00"> sprintf(IntToPtrCastExpr&lt;ptr&gt;(134524576), &quot;%s %s@%s&quot;, &quot;/usr/sbin/sendmail &#45;bm&quot;, &quot;bomb&quot;, &quot;cs.uml.edu&quot;)</text>
</g>
<!-- Node0x2c35490&#45;&gt;Node0x2c3c350 -->
<g id="edge29" class="edge"><title>Node0x2c35490&#45;&gt;Node0x2c3c350</title>
<path fill="none" stroke="black" d="M1131.27,-922.543C1238.49,-901.419 1453.26,-859.105 1595.71,-831.041"/>
<polygon fill="black" stroke="black" points="1596.7,-834.412 1605.84,-829.045 1595.35,-827.544 1596.7,-834.412"/>
<text text-anchor="middle" x="1355" y="-888.8" font-family="Times,serif" font-size="14.00">g9 &lt;= v8</text>
</g>
<!-- Node0x2ca7440&#45;&gt;Node0x2db47c0 -->
<g id="edge30" class="edge"><title>Node0x2ca7440&#45;&gt;Node0x2db47c0</title>
<path fill="none" stroke="black" d="M383.5,-487.218C383.5,-458.441 383.5,-415.726 383.5,-378.5 383.5,-378.5 383.5,-378.5 383.5,-138 383.5,-73.7027 606.116,-51.2204 696.264,-44.7521"/>
<polygon fill="black" stroke="black" points="696.592,-48.2379 706.327,-44.0575 696.11,-41.2546 696.592,-48.2379"/>
</g>
<!-- Node0x2c06230 -->
<g id="node27" class="node"><title>Node0x2c06230</title>
<polygon fill="none" stroke="black" points="399,-343.5 399,-411.5 660,-411.5 660,-343.5 399,-343.5"/>
<text text-anchor="start" x="407" y="-396.3" font-family="Times,serif" font-size="14.00">0x80490d5:</text>
<text text-anchor="start" x="407" y="-381.3" font-family="Times,serif" font-size="14.00"> puts(&quot;ERROR: fclose(tmp) error&quot;)</text>
<text text-anchor="start" x="407" y="-366.3" font-family="Times,serif" font-size="14.00"> exit(8)</text>
<text text-anchor="start" x="407" y="-351.3" font-family="Times,serif" font-size="14.00"> # UNREACHABLE</text>
</g>
<!-- Node0x2d6e980&#45;&gt;Node0x2c06230 -->
<g id="edge31" class="edge"><title>Node0x2d6e980&#45;&gt;Node0x2c06230</title>
<path fill="none" stroke="black" d="M585.827,-576.407C565.082,-571.054 547.372,-564.289 540.5,-556 509.773,-518.938 512.396,-461.174 519.142,-421.676"/>
<polygon fill="black" stroke="black" points="522.591,-422.273 520.978,-411.802 515.709,-420.993 522.591,-422.273"/>
<text text-anchor="middle" x="614" y="-517.8" font-family="Times,serif" font-size="14.00">fclose(tmp_file) != 0</text>
</g>
<!-- Node0x2bc08b0 -->
<g id="node28" class="node"><title>Node0x2bc08b0</title>
<polygon fill="none" stroke="black" points="638.5,-430.5 638.5,-468.5 776.5,-468.5 776.5,-430.5 638.5,-430.5"/>
<text text-anchor="start" x="646.5" y="-453.3" font-family="Times,serif" font-size="14.00">0x80490ed:</text>
<text text-anchor="start" x="646.5" y="-438.3" font-family="Times,serif" font-size="14.00"> if (dup(fd) != 0):</text>
</g>
<!-- Node0x2d6e980&#45;&gt;Node0x2bc08b0 -->
<g id="edge32" class="edge"><title>Node0x2d6e980&#45;&gt;Node0x2bc08b0</title>
<path fill="none" stroke="black" d="M687.46,-574.227C691.376,-550.05 698.319,-507.185 702.916,-478.803"/>
<polygon fill="black" stroke="black" points="706.408,-479.134 704.552,-468.703 699.498,-478.015 706.408,-479.134"/>
<text text-anchor="middle" x="778" y="-517.8" font-family="Times,serif" font-size="14.00">fclose(tmp_file) == 0</text>
</g>
<!-- Node0x2d22540&#45;&gt;Node0x2c35490 -->
<g id="edge33" class="edge"><title>Node0x2d22540&#45;&gt;Node0x2c35490</title>
<path fill="none" stroke="black" d="M1041.59,-866.721C1045.22,-872.742 1048.59,-878.885 1051.5,-885 1054.98,-892.311 1057.73,-900.642 1059.84,-908.4"/>
<polygon fill="black" stroke="black" points="1056.45,-909.27 1062.26,-918.135 1063.25,-907.587 1056.45,-909.27"/>
</g>
<!-- Node0x2d17e30 -->
<g id="node29" class="node"><title>Node0x2d17e30</title>
<polygon fill="none" stroke="black" points="1258.5,-664.5 1258.5,-700.5 1666.5,-700.5 1666.5,-664.5 1258.5,-664.5"/>
<text text-anchor="start" x="1266.5" y="-678.8" font-family="Times,serif" font-size="14.00">if (system(IntToPtrCastExpr&lt;ptr&gt;(134524576)) != 0):</text>
</g>
<!-- Node0x2c3c350&#45;&gt;Node0x2d17e30 -->
<g id="edge34" class="edge"><title>Node0x2c3c350&#45;&gt;Node0x2d17e30</title>
<path fill="none" stroke="black" d="M1676.26,-775.896C1626.97,-754.589 1557.63,-724.617 1511.44,-704.652"/>
<polygon fill="black" stroke="black" points="1512.8,-701.429 1502.23,-700.674 1510.02,-707.854 1512.8,-701.429"/>
</g>
<!-- Node0x2c06230&#45;&gt;Node0x2db47c0 -->
<g id="edge35" class="edge"><title>Node0x2c06230&#45;&gt;Node0x2db47c0</title>
<path fill="none" stroke="black" d="M500.353,-343.273C472.46,-307.219 437.741,-248.215 460.5,-199 503.834,-105.293 631.958,-64.6518 696.074,-49.7949"/>
<polygon fill="black" stroke="black" points="697.161,-53.1387 706.161,-47.5487 695.64,-46.306 697.161,-53.1387"/>
</g>
<!-- Node0x2e3d590 -->
<g id="node30" class="node"><title>Node0x2e3d590</title>
<polygon fill="none" stroke="black" points="461.5,-199.5 461.5,-267.5 743.5,-267.5 743.5,-199.5 461.5,-199.5"/>
<text text-anchor="start" x="469.5" y="-252.3" font-family="Times,serif" font-size="14.00">0x80490fc:</text>
<text text-anchor="start" x="469.5" y="-237.3" font-family="Times,serif" font-size="14.00"> puts(&quot;ERROR: dup(tmpstdin) error&quot;)</text>
<text text-anchor="start" x="469.5" y="-222.3" font-family="Times,serif" font-size="14.00"> exit(8)</text>
<text text-anchor="start" x="469.5" y="-207.3" font-family="Times,serif" font-size="14.00"> # UNREACHABLE</text>
</g>
<!-- Node0x2bc08b0&#45;&gt;Node0x2e3d590 -->
<g id="edge36" class="edge"><title>Node0x2bc08b0&#45;&gt;Node0x2e3d590</title>
<path fill="none" stroke="black" d="M692.08,-430.408C687.862,-424.784 683.603,-418.379 680.5,-412 666.584,-383.397 673.398,-372.499 661.5,-343 652.319,-320.238 639.552,-296.138 628.242,-276.448"/>
<polygon fill="black" stroke="black" points="631.223,-274.613 623.166,-267.733 625.174,-278.136 631.223,-274.613"/>
<text text-anchor="middle" x="724.5" y="-373.8" font-family="Times,serif" font-size="14.00">dup(fd) != 0</text>
</g>
<!-- Node0x2b30e30 -->
<g id="node31" class="node"><title>Node0x2b30e30</title>
<polygon fill="none" stroke="black" points="720.5,-286.5 720.5,-324.5 868.5,-324.5 868.5,-286.5 720.5,-286.5"/>
<text text-anchor="start" x="728.5" y="-309.3" font-family="Times,serif" font-size="14.00">0x8049114:</text>
<text text-anchor="start" x="728.5" y="-294.3" font-family="Times,serif" font-size="14.00"> if (close(fd) != 0):</text>
</g>
<!-- Node0x2bc08b0&#45;&gt;Node0x2b30e30 -->
<g id="edge37" class="edge"><title>Node0x2bc08b0&#45;&gt;Node0x2b30e30</title>
<path fill="none" stroke="black" d="M751.765,-430.478C759.651,-425.52 767.069,-419.412 772.5,-412 788.92,-389.591 793.694,-357.685 794.807,-334.837"/>
<polygon fill="black" stroke="black" points="798.308,-334.832 795.092,-324.738 791.311,-334.635 798.308,-334.832"/>
<text text-anchor="middle" x="841.5" y="-373.8" font-family="Times,serif" font-size="14.00">dup(fd) == 0</text>
</g>
<!-- Node0x2e4b840 -->
<g id="node32" class="node"><title>Node0x2e4b840</title>
<polygon fill="none" stroke="black" points="902,-487.5 902,-555.5 1163,-555.5 1163,-487.5 902,-487.5"/>
<text text-anchor="start" x="910" y="-540.3" font-family="Times,serif" font-size="14.00">0x80490b1:</text>
<text text-anchor="start" x="910" y="-525.3" font-family="Times,serif" font-size="14.00"> puts(&quot;ERROR: notification error&quot;)</text>
<text text-anchor="start" x="910" y="-510.3" font-family="Times,serif" font-size="14.00"> exit(8)</text>
<text text-anchor="start" x="910" y="-495.3" font-family="Times,serif" font-size="14.00"> # UNREACHABLE</text>
</g>
<!-- Node0x2d17e30&#45;&gt;Node0x2e4b840 -->
<g id="edge38" class="edge"><title>Node0x2d17e30&#45;&gt;Node0x2e4b840</title>
<path fill="none" stroke="black" d="M1258.37,-672.477C1172.69,-666.911 1089.14,-658.407 1073.5,-646 1049.41,-626.89 1039.35,-593.188 1035.2,-565.814"/>
<polygon fill="black" stroke="black" points="1038.65,-565.143 1033.89,-555.676 1031.7,-566.043 1038.65,-565.143"/>
<text text-anchor="middle" x="1255" y="-634.8" font-family="Times,serif" font-size="14.00">system(IntToPtrCastExpr&lt;ptr&gt;(134524576)) != 0</text>
</g>
<!-- Node0x2dbbb30 -->
<g id="node33" class="node"><title>Node0x2dbbb30</title>
<polygon fill="none" stroke="black" points="1285,-574.5 1285,-612.5 1482,-612.5 1482,-574.5 1285,-574.5"/>
<text text-anchor="start" x="1293" y="-597.3" font-family="Times,serif" font-size="14.00">0x80490c9:</text>
<text text-anchor="start" x="1293" y="-582.3" font-family="Times,serif" font-size="14.00"> if (fclose(tmp_file) != 0):</text>
</g>
<!-- Node0x2d17e30&#45;&gt;Node0x2dbbb30 -->
<g id="edge39" class="edge"><title>Node0x2d17e30&#45;&gt;Node0x2dbbb30</title>
<path fill="none" stroke="black" d="M1457.78,-664.194C1454.28,-653.732 1448.69,-640.606 1440.5,-631 1436.64,-626.475 1432.08,-622.312 1427.25,-618.546"/>
<polygon fill="black" stroke="black" points="1429.1,-615.565 1418.93,-612.587 1425.02,-621.256 1429.1,-615.565"/>
<text text-anchor="middle" x="1634" y="-634.8" font-family="Times,serif" font-size="14.00">system(IntToPtrCastExpr&lt;ptr&gt;(134524576)) == 0</text>
</g>
<!-- Node0x2e3d590&#45;&gt;Node0x2db47c0 -->
<g id="edge40" class="edge"><title>Node0x2e3d590&#45;&gt;Node0x2db47c0</title>
<path fill="none" stroke="black" d="M591.447,-199.417C583.794,-169.976 578.229,-127.044 598.5,-97 620.249,-64.7651 664.615,-51.5911 696.558,-46.2101"/>
<polygon fill="black" stroke="black" points="697.08,-49.671 706.449,-44.7225 696.039,-42.7489 697.08,-49.671"/>
</g>
<!-- Node0x2e3d6c0 -->
<g id="node34" class="node"><title>Node0x2e3d6c0</title>
<polygon fill="none" stroke="black" points="608,-105 608,-173 859,-173 859,-105 608,-105"/>
<text text-anchor="start" x="616" y="-157.8" font-family="Times,serif" font-size="14.00">0x8049123:</text>
<text text-anchor="start" x="616" y="-142.8" font-family="Times,serif" font-size="14.00"> puts(&quot;ERROR: close(tmpstdin)&quot;)</text>
<text text-anchor="start" x="616" y="-127.8" font-family="Times,serif" font-size="14.00"> exit(8)</text>
<text text-anchor="start" x="616" y="-112.8" font-family="Times,serif" font-size="14.00"> # UNREACHABLE</text>
</g>
<!-- Node0x2b30e30&#45;&gt;Node0x2e3d6c0 -->
<g id="edge41" class="edge"><title>Node0x2b30e30&#45;&gt;Node0x2e3d6c0</title>
<path fill="none" stroke="black" d="M779.043,-286.426C774.824,-280.802 770.574,-274.393 767.5,-268 760.284,-252.995 750.351,-214.002 743.085,-182.964"/>
<polygon fill="black" stroke="black" points="746.491,-182.159 740.826,-173.206 739.671,-183.738 746.491,-182.159"/>
<text text-anchor="middle" x="816.5" y="-229.8" font-family="Times,serif" font-size="14.00">close(fd) != 0</text>
</g>
<!-- Node0x2dc38e0 -->
<g id="node35" class="node"><title>Node0x2dc38e0</title>
<polygon fill="none" stroke="black" points="877,-97.5 877,-180.5 978,-180.5 978,-97.5 877,-97.5"/>
<text text-anchor="start" x="885" y="-165.3" font-family="Times,serif" font-size="14.00">0x804913b:</text>
<text text-anchor="start" x="885" y="-150.3" font-family="Times,serif" font-size="14.00"> g2 = v3</text>
<text text-anchor="start" x="885" y="-135.3" font-family="Times,serif" font-size="14.00"> g4 = v2</text>
<text text-anchor="start" x="885" y="-120.3" font-family="Times,serif" font-size="14.00"> g3 = v1</text>
<text text-anchor="start" x="885" y="-105.3" font-family="Times,serif" font-size="14.00"> return</text>
</g>
<!-- Node0x2b30e30&#45;&gt;Node0x2dc38e0 -->
<g id="edge42" class="edge"><title>Node0x2b30e30&#45;&gt;Node0x2dc38e0</title>
<path fill="none" stroke="black" d="M842.476,-286.358C851.014,-281.431 859.184,-275.365 865.5,-268 886.543,-243.461 874.355,-228.066 888.5,-199 890.024,-195.869 891.689,-192.708 893.444,-189.561"/>
<polygon fill="black" stroke="black" points="896.559,-191.168 898.592,-180.77 890.519,-187.631 896.559,-191.168"/>
<text text-anchor="middle" x="940.5" y="-229.8" font-family="Times,serif" font-size="14.00">close(fd) == 0</text>
</g>
<!-- Node0x2e4b840&#45;&gt;Node0x2db47c0 -->
<g id="edge43" class="edge"><title>Node0x2e4b840&#45;&gt;Node0x2db47c0</title>
<path fill="none" stroke="black" d="M1022.89,-487.246C1015.49,-458.666 1006.5,-416.219 1006.5,-378.5 1006.5,-378.5 1006.5,-378.5 1006.5,-138 1006.5,-117.725 1002.46,-109.504 986.5,-97 953.316,-71.0021 832.85,-53.8353 770.883,-46.5212"/>
<polygon fill="black" stroke="black" points="771.08,-43.0208 760.744,-45.351 770.277,-49.9746 771.08,-43.0208"/>
</g>
<!-- Node0x2d3cb30 -->
<g id="node36" class="node"><title>Node0x2d3cb30</title>
<polygon fill="none" stroke="black" points="1022,-343.5 1022,-411.5 1283,-411.5 1283,-343.5 1022,-343.5"/>
<text text-anchor="start" x="1030" y="-396.3" font-family="Times,serif" font-size="14.00">0x80490d5:</text>
<text text-anchor="start" x="1030" y="-381.3" font-family="Times,serif" font-size="14.00"> puts(&quot;ERROR: fclose(tmp) error&quot;)</text>
<text text-anchor="start" x="1030" y="-366.3" font-family="Times,serif" font-size="14.00"> exit(8)</text>
<text text-anchor="start" x="1030" y="-351.3" font-family="Times,serif" font-size="14.00"> # UNREACHABLE</text>
</g>
<!-- Node0x2dbbb30&#45;&gt;Node0x2d3cb30 -->
<g id="edge44" class="edge"><title>Node0x2dbbb30&#45;&gt;Node0x2d3cb30</title>
<path fill="none" stroke="black" d="M1284.78,-582.247C1265.93,-576.704 1247.45,-568.395 1232.5,-556 1191.36,-521.89 1170.52,-462.211 1160.6,-421.555"/>
<polygon fill="black" stroke="black" points="1163.97,-420.608 1158.31,-411.656 1157.16,-422.188 1163.97,-420.608"/>
<text text-anchor="middle" x="1306" y="-517.8" font-family="Times,serif" font-size="14.00">fclose(tmp_file) != 0</text>
</g>
<!-- Node0x2d56f70 -->
<g id="node37" class="node"><title>Node0x2d56f70</title>
<polygon fill="none" stroke="black" points="1314.5,-430.5 1314.5,-468.5 1452.5,-468.5 1452.5,-430.5 1314.5,-430.5"/>
<text text-anchor="start" x="1322.5" y="-453.3" font-family="Times,serif" font-size="14.00">0x80490ed:</text>
<text text-anchor="start" x="1322.5" y="-438.3" font-family="Times,serif" font-size="14.00"> if (dup(fd) != 0):</text>
</g>
<!-- Node0x2dbbb30&#45;&gt;Node0x2d56f70 -->
<g id="edge45" class="edge"><title>Node0x2dbbb30&#45;&gt;Node0x2d56f70</title>
<path fill="none" stroke="black" d="M1383.5,-574.227C1383.5,-550.05 1383.5,-507.185 1383.5,-478.803"/>
<polygon fill="black" stroke="black" points="1387,-478.703 1383.5,-468.703 1380,-478.703 1387,-478.703"/>
<text text-anchor="middle" x="1460" y="-517.8" font-family="Times,serif" font-size="14.00">fclose(tmp_file) == 0</text>
</g>
<!-- Node0x2e3d6c0&#45;&gt;Node0x2db47c0 -->
<g id="edge46" class="edge"><title>Node0x2e3d6c0&#45;&gt;Node0x2db47c0</title>
<path fill="none" stroke="black" d="M733.5,-104.867C733.5,-93.4727 733.5,-80.8499 733.5,-69.9577"/>
<polygon fill="black" stroke="black" points="737,-69.7519 733.5,-59.752 730,-69.752 737,-69.7519"/>
</g>
<!-- Node0x2dc38e0&#45;&gt;Node0x2db47c0 -->
<g id="edge47" class="edge"><title>Node0x2dc38e0&#45;&gt;Node0x2db47c0</title>
<path fill="none" stroke="black" d="M876.902,-102.342C873.761,-100.468 870.612,-98.6715 867.5,-97 835.873,-80.0138 797.786,-65.0047 770.314,-55.0608"/>
<polygon fill="black" stroke="black" points="771.3,-51.6963 760.705,-51.6321 768.947,-58.2892 771.3,-51.6963"/>
</g>
<!-- Node0x2d3cb30&#45;&gt;Node0x2db47c0 -->
<g id="edge48" class="edge"><title>Node0x2d3cb30&#45;&gt;Node0x2db47c0</title>
<path fill="none" stroke="black" d="M1115.56,-343.266C1095.67,-323.348 1072.43,-296.423 1058.5,-268 1020.6,-190.669 1083.61,-136.589 1020.5,-78 984.976,-45.023 839.768,-41.5961 770.543,-41.9034"/>
<polygon fill="black" stroke="black" points="770.482,-38.4036 760.508,-41.9767 770.534,-45.4034 770.482,-38.4036"/>
</g>
<!-- Node0x2e38c00 -->
<g id="node38" class="node"><title>Node0x2e38c00</title>
<polygon fill="none" stroke="black" points="1059.5,-199.5 1059.5,-267.5 1341.5,-267.5 1341.5,-199.5 1059.5,-199.5"/>
<text text-anchor="start" x="1067.5" y="-252.3" font-family="Times,serif" font-size="14.00">0x80490fc:</text>
<text text-anchor="start" x="1067.5" y="-237.3" font-family="Times,serif" font-size="14.00"> puts(&quot;ERROR: dup(tmpstdin) error&quot;)</text>
<text text-anchor="start" x="1067.5" y="-222.3" font-family="Times,serif" font-size="14.00"> exit(8)</text>
<text text-anchor="start" x="1067.5" y="-207.3" font-family="Times,serif" font-size="14.00"> # UNREACHABLE</text>
</g>
<!-- Node0x2d56f70&#45;&gt;Node0x2e38c00 -->
<g id="edge49" class="edge"><title>Node0x2d56f70&#45;&gt;Node0x2e38c00</title>
<path fill="none" stroke="black" d="M1327.1,-430.477C1318.26,-425.623 1309.94,-419.553 1303.5,-412 1282.87,-387.79 1298.73,-371.448 1284.5,-343 1272.42,-318.843 1254.56,-294.802 1238.42,-275.512"/>
<polygon fill="black" stroke="black" points="1241.01,-273.16 1231.86,-267.821 1235.68,-277.702 1241.01,-273.16"/>
<text text-anchor="middle" x="1347.5" y="-373.8" font-family="Times,serif" font-size="14.00">dup(fd) != 0</text>
</g>
<!-- Node0x2ca3740 -->
<g id="node39" class="node"><title>Node0x2ca3740</title>
<polygon fill="none" stroke="black" points="1343.5,-286.5 1343.5,-324.5 1491.5,-324.5 1491.5,-286.5 1343.5,-286.5"/>
<text text-anchor="start" x="1351.5" y="-309.3" font-family="Times,serif" font-size="14.00">0x8049114:</text>
<text text-anchor="start" x="1351.5" y="-294.3" font-family="Times,serif" font-size="14.00"> if (close(fd) != 0):</text>
</g>
<!-- Node0x2d56f70&#45;&gt;Node0x2ca3740 -->
<g id="edge50" class="edge"><title>Node0x2d56f70&#45;&gt;Node0x2ca3740</title>
<path fill="none" stroke="black" d="M1389.89,-430.426C1391.83,-424.587 1393.88,-418.057 1395.5,-412 1402.45,-386.025 1408.53,-355.964 1412.53,-334.592"/>
<polygon fill="black" stroke="black" points="1416.01,-335.032 1414.37,-324.565 1409.12,-333.768 1416.01,-335.032"/>
<text text-anchor="middle" x="1457.5" y="-373.8" font-family="Times,serif" font-size="14.00">dup(fd) == 0</text>
</g>
<!-- Node0x2e38c00&#45;&gt;Node0x2db47c0 -->
<g id="edge51" class="edge"><title>Node0x2e38c00&#45;&gt;Node0x2db47c0</title>
<path fill="none" stroke="black" d="M1162.36,-199.457C1155.91,-193.473 1149.4,-187.169 1143.5,-181 1102.48,-138.102 1110.73,-106.185 1058.5,-78 1009.64,-51.6354 845.667,-44.8344 771.046,-43.093"/>
<polygon fill="black" stroke="black" points="770.782,-39.5866 760.71,-42.871 770.632,-46.585 770.782,-39.5866"/>
</g>
<!-- Node0x2ca7310 -->
<g id="node40" class="node"><title>Node0x2ca7310</title>
<polygon fill="none" stroke="black" points="1152,-105 1152,-173 1403,-173 1403,-105 1152,-105"/>
<text text-anchor="start" x="1160" y="-157.8" font-family="Times,serif" font-size="14.00">0x8049123:</text>
<text text-anchor="start" x="1160" y="-142.8" font-family="Times,serif" font-size="14.00"> puts(&quot;ERROR: close(tmpstdin)&quot;)</text>
<text text-anchor="start" x="1160" y="-127.8" font-family="Times,serif" font-size="14.00"> exit(8)</text>
<text text-anchor="start" x="1160" y="-112.8" font-family="Times,serif" font-size="14.00"> # UNREACHABLE</text>
</g>
<!-- Node0x2ca3740&#45;&gt;Node0x2ca7310 -->
<g id="edge52" class="edge"><title>Node0x2ca3740&#45;&gt;Node0x2ca7310</title>
<path fill="none" stroke="black" d="M1381.09,-286.303C1373.75,-281.232 1366.7,-275.122 1361.5,-268 1342.74,-242.316 1359.16,-226.097 1342.5,-199 1338.46,-192.427 1333.47,-186.147 1328.08,-180.3"/>
<polygon fill="black" stroke="black" points="1330.56,-177.832 1321.06,-173.137 1325.56,-182.73 1330.56,-177.832"/>
<text text-anchor="middle" x="1410.5" y="-229.8" font-family="Times,serif" font-size="14.00">close(fd) != 0</text>
</g>
<!-- Node0x29a8710 -->
<g id="node41" class="node"><title>Node0x29a8710</title>
<polygon fill="none" stroke="black" points="1428,-105 1428,-173 1529,-173 1529,-105 1428,-105"/>
<text text-anchor="start" x="1436" y="-157.8" font-family="Times,serif" font-size="14.00">0x804913b:</text>
<text text-anchor="start" x="1436" y="-142.8" font-family="Times,serif" font-size="14.00"> g2 = v3</text>
<text text-anchor="start" x="1436" y="-127.8" font-family="Times,serif" font-size="14.00"> g4 = v2</text>
<text text-anchor="start" x="1436" y="-112.8" font-family="Times,serif" font-size="14.00"> g3 = v1</text>
</g>
<!-- Node0x2ca3740&#45;&gt;Node0x29a8710 -->
<g id="edge53" class="edge"><title>Node0x2ca3740&#45;&gt;Node0x29a8710</title>
<path fill="none" stroke="black" d="M1447.68,-286.175C1453.85,-281.048 1459.63,-274.946 1463.5,-268 1477.76,-242.404 1481.36,-209.5 1481.47,-183.463"/>
<polygon fill="black" stroke="black" points="1484.96,-183.082 1481.33,-173.129 1477.96,-183.173 1484.96,-183.082"/>
<text text-anchor="middle" x="1532.5" y="-229.8" font-family="Times,serif" font-size="14.00">close(fd) == 0</text>
</g>
<!-- Node0x2ca7310&#45;&gt;Node0x2db47c0 -->
<g id="edge54" class="edge"><title>Node0x2ca7310&#45;&gt;Node0x2db47c0</title>
<path fill="none" stroke="black" d="M1204.82,-104.851C1179.56,-94.6396 1150.73,-84.4092 1123.5,-78 996.659,-48.1475 841.142,-43.0964 770.984,-42.4431"/>
<polygon fill="black" stroke="black" points="770.893,-38.9425 760.87,-42.3744 770.846,-45.9423 770.893,-38.9425"/>
</g>
<!-- Node0x29a8710&#45;&gt;Node0x2db47c0 -->
<g id="edge55" class="edge"><title>Node0x29a8710&#45;&gt;Node0x2db47c0</title>
<path fill="none" stroke="black" d="M1431.14,-104.985C1425.07,-101.844 1418.78,-99.0665 1412.5,-97 1291.75,-57.2555 894.954,-45.8292 770.906,-43.188"/>
<polygon fill="black" stroke="black" points="770.838,-39.686 760.768,-42.979 770.693,-46.6845 770.838,-39.686"/>
</g>
</g>
</svg>
