<?xml version="1.0" encoding="UTF-8" standalone="no"?>
<!DOCTYPE svg PUBLIC "-//W3C//DTD SVG 1.1//EN"
 "http://www.w3.org/Graphics/SVG/1.1/DTD/svg11.dtd">
<!-- Generated by graphviz version 2.38.0 (20140413.2041)
 -->
<!-- Title: Control&#45;flow graph for function &#39;string_length()&#39;. Pages: 1 -->
<svg width="1127pt" height="525pt"
 viewBox="0.00 0.00 1126.86 525.00" xmlns="http://www.w3.org/2000/svg" xmlns:xlink="http://www.w3.org/1999/xlink">
<g id="graph0" class="graph" transform="scale(1 1) rotate(0) translate(4 521)">
<title>Control&#45;flow graph for function &#39;string_length()&#39;.</title>
<polygon fill="white" stroke="none" points="-4,4 -4,-521 1122.86,-521 1122.86,4 -4,4"/>
<text text-anchor="middle" x="559.43" y="-7.8" font-family="Times,serif" font-size="14.00">Control&#45;flow graph for function &#39;string_length()&#39;.</text>
<!-- Node0x2bf7120 -->
<g id="node1" class="node"><title>Node0x2bf7120</title>
<polygon fill="none" stroke="black" points="128,-480.5 128,-516.5 187,-516.5 187,-480.5 128,-480.5"/>
<text text-anchor="start" x="136" y="-494.8" font-family="Times,serif" font-size="14.00">entry:</text>
</g>
<!-- Node0x2e4dc00 -->
<g id="node2" class="node"><title>Node0x2e4dc00</title>
<polygon fill="none" stroke="black" points="125,-404.5 125,-442.5 190,-442.5 190,-404.5 125,-404.5"/>
<text text-anchor="start" x="133" y="-427.3" font-family="Times,serif" font-size="14.00">g1 = 0</text>
<text text-anchor="start" x="133" y="-412.3" font-family="Times,serif" font-size="14.00"> v1</text>
</g>
<!-- Node0x2bf7120&#45;&gt;Node0x2e4dc00 -->
<g id="edge1" class="edge"><title>Node0x2bf7120&#45;&gt;Node0x2e4dc00</title>
<path fill="none" stroke="black" d="M157.5,-480.2C157.5,-471.99 157.5,-461.969 157.5,-452.701"/>
<polygon fill="black" stroke="black" points="161,-452.694 157.5,-442.694 154,-452.695 161,-452.694"/>
</g>
<!-- Node0x2d81500 -->
<g id="node3" class="node"><title>Node0x2d81500</title>
<polygon fill="none" stroke="black" points="91.5,-330.5 91.5,-366.5 223.5,-366.5 223.5,-330.5 91.5,-330.5"/>
<text text-anchor="start" x="99.5" y="-344.8" font-family="Times,serif" font-size="14.00">if (v1[&#39;0&#39;] == 0):</text>
</g>
<!-- Node0x2e4dc00&#45;&gt;Node0x2d81500 -->
<g id="edge2" class="edge"><title>Node0x2e4dc00&#45;&gt;Node0x2d81500</title>
<path fill="none" stroke="black" d="M157.5,-404.455C157.5,-396.201 157.5,-386.238 157.5,-377.074"/>
<polygon fill="black" stroke="black" points="161,-376.835 157.5,-366.835 154,-376.835 161,-376.835"/>
</g>
<!-- Node0x2bf51a0 -->
<g id="node4" class="node"><title>Node0x2bf51a0</title>
<polygon fill="none" stroke="black" points="0,-183.5 0,-221.5 101,-221.5 101,-183.5 0,-183.5"/>
<text text-anchor="start" x="8" y="-206.3" font-family="Times,serif" font-size="14.00">0x8048e89:</text>
<text text-anchor="start" x="8" y="-191.3" font-family="Times,serif" font-size="14.00"> return</text>
</g>
<!-- Node0x2d81500&#45;&gt;Node0x2bf51a0 -->
<g id="edge3" class="edge"><title>Node0x2d81500&#45;&gt;Node0x2bf51a0</title>
<path fill="none" stroke="black" d="M144.806,-330.416C126.365,-305.599 91.9999,-259.35 70.2379,-230.063"/>
<polygon fill="black" stroke="black" points="72.9629,-227.862 64.1892,-221.923 67.3442,-232.037 72.9629,-227.862"/>
<text text-anchor="middle" x="174" y="-300.8" font-family="Times,serif" font-size="14.00">v1[&#39;0&#39;] == 0</text>
</g>
<!-- Node0x2e869c0 -->
<g id="node5" class="node"><title>Node0x2e869c0</title>
<polygon fill="none" stroke="black" points="303,-240.5 303,-278.5 380,-278.5 380,-240.5 303,-240.5"/>
<text text-anchor="start" x="311" y="-263.3" font-family="Times,serif" font-size="14.00">v2 = 1</text>
<text text-anchor="start" x="311" y="-248.3" font-family="Times,serif" font-size="14.00"> g1 = v2</text>
</g>
<!-- Node0x2d81500&#45;&gt;Node0x2e869c0 -->
<g id="edge4" class="edge"><title>Node0x2d81500&#45;&gt;Node0x2e869c0</title>
<path fill="none" stroke="black" d="M193.852,-330.312C222.517,-316.758 262.725,-297.747 293.945,-282.985"/>
<polygon fill="black" stroke="black" points="295.778,-285.99 303.323,-278.551 292.786,-279.662 295.778,-285.99"/>
<text text-anchor="middle" x="302" y="-300.8" font-family="Times,serif" font-size="14.00">v1[&#39;0&#39;] != 0</text>
</g>
<!-- Node0x2e1a460 -->
<g id="node6" class="node"><title>Node0x2e1a460</title>
<polygon fill="none" stroke="black" points="34.5,-32 34.5,-68 88.5,-68 88.5,-32 34.5,-32"/>
<text text-anchor="start" x="42.5" y="-46.3" font-family="Times,serif" font-size="14.00">exit:</text>
</g>
<!-- Node0x2bf51a0&#45;&gt;Node0x2e1a460 -->
<g id="edge5" class="edge"><title>Node0x2bf51a0&#45;&gt;Node0x2e1a460</title>
<path fill="none" stroke="black" d="M51.8269,-183.346C53.7302,-157.305 57.2511,-109.132 59.4794,-78.6461"/>
<polygon fill="black" stroke="black" points="62.998,-78.5169 60.2364,-68.2884 56.0167,-78.0066 62.998,-78.5169"/>
</g>
<!-- Node0x2dbd640 -->
<g id="node7" class="node"><title>Node0x2dbd640</title>
<polygon fill="none" stroke="black" points="196.5,-128.5 196.5,-164.5 774.5,-164.5 774.5,-128.5 196.5,-128.5"/>
<text text-anchor="start" x="204.5" y="-142.8" font-family="Times,serif" font-size="14.00">while (*(IntToPtrCastExpr&lt;ptr&gt;((v2 + PtrToIntCastExpr&lt;int32&gt;(v1)))) != 0):</text>
</g>
<!-- Node0x2e869c0&#45;&gt;Node0x2dbd640 -->
<g id="edge6" class="edge"><title>Node0x2e869c0&#45;&gt;Node0x2dbd640</title>
<path fill="none" stroke="black" d="M364.957,-240.419C389.513,-221.49 428.17,-191.692 455.063,-170.962"/>
<polygon fill="black" stroke="black" points="457.219,-173.719 463.002,-164.842 452.946,-168.175 457.219,-173.719"/>
</g>
<!-- Node0x2dbd640&#45;&gt;Node0x2e1a460 -->
<g id="edge8" class="edge"><title>Node0x2dbd640&#45;&gt;Node0x2e1a460</title>
<path fill="none" stroke="black" d="M196.46,-132.645C135.53,-127.385 85.992,-120.08 74.5,-110 65.5651,-102.163 61.9929,-89.7043 60.7866,-78.251"/>
<polygon fill="black" stroke="black" points="64.2772,-77.9795 60.2579,-68.1767 57.2868,-78.3464 64.2772,-77.9795"/>
<text text-anchor="middle" x="329.5" y="-98.8" font-family="Times,serif" font-size="14.00">*(IntToPtrCastExpr&lt;ptr&gt;((v2 + PtrToIntCastExpr&lt;int32&gt;(v1)))) == 0</text>
</g>
<!-- Node0x2b8e870 -->
<g id="node8" class="node"><title>Node0x2b8e870</title>
<polygon fill="none" stroke="black" points="811,-23.5 811,-76.5 928,-76.5 928,-23.5 811,-23.5"/>
<text text-anchor="start" x="819" y="-61.3" font-family="Times,serif" font-size="14.00">0x8048e80:</text>
<text text-anchor="start" x="819" y="-46.3" font-family="Times,serif" font-size="14.00"> v2 = (v2 + 1)</text>
<text text-anchor="start" x="819" y="-31.3" font-family="Times,serif" font-size="14.00"> g1 = v2</text>
</g>
<!-- Node0x2dbd640&#45;&gt;Node0x2b8e870 -->
<g id="edge7" class="edge"><title>Node0x2dbd640&#45;&gt;Node0x2b8e870</title>
<path fill="none" stroke="black" d="M543.181,-128.412C558.232,-123.203 574.228,-116.981 588.5,-110 599.463,-104.638 600.137,-99.4519 611.5,-95 672.907,-70.9413 747.618,-60.0197 800.808,-55.0723"/>
<polygon fill="black" stroke="black" points="801.161,-58.5548 810.814,-54.1883 800.545,-51.582 801.161,-58.5548"/>
<text text-anchor="middle" x="863.5" y="-98.8" font-family="Times,serif" font-size="14.00">*(IntToPtrCastExpr&lt;ptr&gt;((v2 + PtrToIntCastExpr&lt;int32&gt;(v1)))) != 0</text>
</g>
<!-- Node0x2b8e870&#45;&gt;Node0x2dbd640 -->
<g id="edge9" class="edge"><title>Node0x2b8e870&#45;&gt;Node0x2dbd640</title>
<path fill="none" stroke="black" d="M928.138,-53.0997C993.181,-56.807 1092.07,-67.0117 1115.5,-95 1119.78,-100.112 1120.08,-105.155 1115.5,-110 1103.29,-122.915 941.562,-131.858 785.043,-137.538"/>
<polygon fill="black" stroke="black" points="784.61,-134.052 774.742,-137.908 784.861,-141.047 784.61,-134.052"/>
</g>
</g>
</svg>
