<?xml version="1.0" encoding="UTF-8" standalone="no"?>
<!DOCTYPE svg PUBLIC "-//W3C//DTD SVG 1.1//EN"
 "http://www.w3.org/Graphics/SVG/1.1/DTD/svg11.dtd">
<!-- Generated by graphviz version 2.38.0 (20140413.2041)
 -->
<!-- Title: Control&#45;flow graph for function &#39;phase_1()&#39;. Pages: 1 -->
<svg width="333pt" height="382pt"
 viewBox="0.00 0.00 333.00 382.00" xmlns="http://www.w3.org/2000/svg" xmlns:xlink="http://www.w3.org/1999/xlink">
<g id="graph0" class="graph" transform="scale(1 1) rotate(0) translate(4 378)">
<title>Control&#45;flow graph for function &#39;phase_1()&#39;.</title>
<polygon fill="white" stroke="none" points="-4,4 -4,-378 329,-378 329,4 -4,4"/>
<text text-anchor="middle" x="162.5" y="-7.8" font-family="Times,serif" font-size="14.00">Control&#45;flow graph for function &#39;phase_1()&#39;.</text>
<!-- Node0x2b37fb0 -->
<g id="node1" class="node"><title>Node0x2b37fb0</title>
<polygon fill="none" stroke="black" points="156.5,-337.5 156.5,-373.5 215.5,-373.5 215.5,-337.5 156.5,-337.5"/>
<text text-anchor="start" x="164.5" y="-351.8" font-family="Times,serif" font-size="14.00">entry:</text>
</g>
<!-- Node0x2da3270 -->
<g id="node2" class="node"><title>Node0x2da3270</title>
<polygon fill="none" stroke="black" points="106.5,-261.5 106.5,-299.5 265.5,-299.5 265.5,-261.5 106.5,-261.5"/>
<text text-anchor="start" x="114.5" y="-284.3" font-family="Times,serif" font-size="14.00">0x8048e38:</text>
<text text-anchor="start" x="114.5" y="-269.3" font-family="Times,serif" font-size="14.00"> strings_not_equal()</text>
</g>
<!-- Node0x2b37fb0&#45;&gt;Node0x2da3270 -->
<g id="edge1" class="edge"><title>Node0x2b37fb0&#45;&gt;Node0x2da3270</title>
<path fill="none" stroke="black" d="M186,-337.2C186,-328.99 186,-318.969 186,-309.701"/>
<polygon fill="black" stroke="black" points="189.5,-309.694 186,-299.694 182.5,-309.695 189.5,-309.694"/>
</g>
<!-- Node0x2d84f70 -->
<g id="node3" class="node"><title>Node0x2d84f70</title>
<polygon fill="none" stroke="black" points="136,-187.5 136,-223.5 236,-223.5 236,-187.5 136,-187.5"/>
<text text-anchor="start" x="144" y="-201.8" font-family="Times,serif" font-size="14.00">if (g1 != 0):</text>
</g>
<!-- Node0x2da3270&#45;&gt;Node0x2d84f70 -->
<g id="edge2" class="edge"><title>Node0x2da3270&#45;&gt;Node0x2d84f70</title>
<path fill="none" stroke="black" d="M186,-261.455C186,-253.201 186,-243.238 186,-234.074"/>
<polygon fill="black" stroke="black" points="189.5,-233.835 186,-223.835 182.5,-233.835 189.5,-233.835"/>
</g>
<!-- Node0x2bf7210 -->
<g id="node4" class="node"><title>Node0x2bf7210</title>
<polygon fill="none" stroke="black" points="52,-97.5 52,-135.5 186,-135.5 186,-97.5 52,-97.5"/>
<text text-anchor="start" x="60" y="-120.3" font-family="Times,serif" font-size="14.00">0x8048e55:</text>
<text text-anchor="start" x="60" y="-105.3" font-family="Times,serif" font-size="14.00"> explode_bomb()</text>
</g>
<!-- Node0x2d84f70&#45;&gt;Node0x2bf7210 -->
<g id="edge3" class="edge"><title>Node0x2d84f70&#45;&gt;Node0x2bf7210</title>
<path fill="none" stroke="black" d="M168.953,-187.315C163.636,-181.657 157.888,-175.218 153,-169 146.873,-161.206 140.734,-152.318 135.391,-144.145"/>
<polygon fill="black" stroke="black" points="138.286,-142.176 129.944,-135.643 132.391,-145.952 138.286,-142.176"/>
<text text-anchor="middle" x="180.5" y="-157.8" font-family="Times,serif" font-size="14.00">g1 != 0</text>
</g>
<!-- Node0x2da31f0 -->
<g id="node5" class="node"><title>Node0x2da31f0</title>
<polygon fill="none" stroke="black" points="163,-23.5 163,-59.5 217,-59.5 217,-23.5 163,-23.5"/>
<text text-anchor="start" x="171" y="-37.8" font-family="Times,serif" font-size="14.00">exit:</text>
</g>
<!-- Node0x2d84f70&#45;&gt;Node0x2da31f0 -->
<g id="edge4" class="edge"><title>Node0x2d84f70&#45;&gt;Node0x2da31f0</title>
<path fill="none" stroke="black" d="M199.269,-187.358C202.818,-181.805 206.173,-175.416 208,-169 217.6,-135.286 208.489,-94.9929 200.11,-69.0895"/>
<polygon fill="black" stroke="black" points="203.406,-67.9118 196.857,-59.5836 196.783,-70.1782 203.406,-67.9118"/>
<text text-anchor="middle" x="242.5" y="-112.8" font-family="Times,serif" font-size="14.00">g1 == 0</text>
</g>
<!-- Node0x2bf7210&#45;&gt;Node0x2da31f0 -->
<g id="edge5" class="edge"><title>Node0x2bf7210&#45;&gt;Node0x2da31f0</title>
<path fill="none" stroke="black" d="M136.551,-97.4551C145.451,-88.3035 156.395,-77.0516 166.057,-67.1177"/>
<polygon fill="black" stroke="black" points="168.677,-69.4436 173.14,-59.8347 163.659,-64.563 168.677,-69.4436"/>
</g>
</g>
</svg>
