<?xml version="1.0" encoding="UTF-8" standalone="no"?>
<!DOCTYPE svg PUBLIC "-//W3C//DTD SVG 1.1//EN"
 "http://www.w3.org/Graphics/SVG/1.1/DTD/svg11.dtd">
<!-- Generated by graphviz version 2.38.0 (20140413.2041)
 -->
<!-- Title: Control&#45;flow graph for function &#39;fun7()&#39;. Pages: 1 -->
<svg width="365pt" height="967pt"
 viewBox="0.00 0.00 364.50 967.00" xmlns="http://www.w3.org/2000/svg" xmlns:xlink="http://www.w3.org/1999/xlink">
<g id="graph0" class="graph" transform="scale(1 1) rotate(0) translate(4 963)">
<title>Control&#45;flow graph for function &#39;fun7()&#39;.</title>
<polygon fill="white" stroke="none" points="-4,4 -4,-963 360.5,-963 360.5,4 -4,4"/>
<text text-anchor="middle" x="178.25" y="-7.8" font-family="Times,serif" font-size="14.00">Control&#45;flow graph for function &#39;fun7()&#39;.</text>
<!-- Node0x2b380c0 -->
<g id="node1" class="node"><title>Node0x2b380c0</title>
<polygon fill="none" stroke="black" points="79,-922.5 79,-958.5 138,-958.5 138,-922.5 79,-922.5"/>
<text text-anchor="start" x="87" y="-936.8" font-family="Times,serif" font-size="14.00">entry:</text>
</g>
<!-- Node0x2e69790 -->
<g id="node2" class="node"><title>Node0x2e69790</title>
<polygon fill="none" stroke="black" points="71.5,-831.5 71.5,-884.5 145.5,-884.5 145.5,-831.5 71.5,-831.5"/>
<text text-anchor="start" x="79.5" y="-869.3" font-family="Times,serif" font-size="14.00">v1 = g2</text>
<text text-anchor="start" x="79.5" y="-854.3" font-family="Times,serif" font-size="14.00"> g1 = &#45;1</text>
<text text-anchor="start" x="79.5" y="-839.3" font-family="Times,serif" font-size="14.00"> v2</text>
</g>
<!-- Node0x2b380c0&#45;&gt;Node0x2e69790 -->
<g id="edge1" class="edge"><title>Node0x2b380c0&#45;&gt;Node0x2e69790</title>
<path fill="none" stroke="black" d="M108.5,-922.428C108.5,-914.361 108.5,-904.411 108.5,-894.802"/>
<polygon fill="black" stroke="black" points="112,-894.616 108.5,-884.616 105,-894.616 112,-894.616"/>
</g>
<!-- Node0x2b43a60 -->
<g id="node3" class="node"><title>Node0x2b43a60</title>
<polygon fill="none" stroke="black" points="38.5,-757.5 38.5,-793.5 178.5,-793.5 178.5,-757.5 38.5,-757.5"/>
<text text-anchor="start" x="46.5" y="-771.8" font-family="Times,serif" font-size="14.00">if (v2 == NULL):</text>
</g>
<!-- Node0x2e69790&#45;&gt;Node0x2b43a60 -->
<g id="edge2" class="edge"><title>Node0x2e69790&#45;&gt;Node0x2b43a60</title>
<path fill="none" stroke="black" d="M108.5,-831.086C108.5,-822.46 108.5,-812.822 108.5,-804.075"/>
<polygon fill="black" stroke="black" points="112,-803.973 108.5,-793.974 105,-803.974 112,-803.973"/>
</g>
<!-- Node0x2b659d0 -->
<g id="node4" class="node"><title>Node0x2b659d0</title>
<polygon fill="none" stroke="black" points="0,-580.5 0,-633.5 101,-633.5 101,-580.5 0,-580.5"/>
<text text-anchor="start" x="8" y="-618.3" font-family="Times,serif" font-size="14.00">0x8048c21:</text>
<text text-anchor="start" x="8" y="-603.3" font-family="Times,serif" font-size="14.00"> g2 = v1</text>
<text text-anchor="start" x="8" y="-588.3" font-family="Times,serif" font-size="14.00"> return</text>
</g>
<!-- Node0x2b43a60&#45;&gt;Node0x2b659d0 -->
<g id="edge3" class="edge"><title>Node0x2b43a60&#45;&gt;Node0x2b659d0</title>
<path fill="none" stroke="black" d="M65.7681,-757.493C58.4602,-752.631 51.8368,-746.542 47.5,-739 30.9079,-710.147 34.2611,-671.485 40.1809,-643.65"/>
<polygon fill="black" stroke="black" points="43.6724,-644.09 42.5391,-633.556 36.8559,-642.497 43.6724,-644.09"/>
<text text-anchor="middle" x="94.5" y="-727.8" font-family="Times,serif" font-size="14.00">v2 == NULL</text>
</g>
<!-- Node0x2d72d50 -->
<g id="node5" class="node"><title>Node0x2d72d50</title>
<polygon fill="none" stroke="black" points="118,-652.5 118,-705.5 217,-705.5 217,-652.5 118,-652.5"/>
<text text-anchor="start" x="126" y="-690.3" font-family="Times,serif" font-size="14.00">v3 = v2[&#39;0&#39;]</text>
<text text-anchor="start" x="126" y="-675.3" font-family="Times,serif" font-size="14.00"> g2 = v3</text>
<text text-anchor="start" x="126" y="-660.3" font-family="Times,serif" font-size="14.00"> v4</text>
</g>
<!-- Node0x2b43a60&#45;&gt;Node0x2d72d50 -->
<g id="edge4" class="edge"><title>Node0x2b43a60&#45;&gt;Node0x2d72d50</title>
<path fill="none" stroke="black" d="M129.83,-757.158C135.48,-751.787 141.197,-745.546 145.5,-739 150.291,-731.712 154.232,-723.236 157.388,-715.021"/>
<polygon fill="black" stroke="black" points="160.691,-716.178 160.736,-705.583 154.094,-713.837 160.691,-716.178"/>
<text text-anchor="middle" x="197.5" y="-727.8" font-family="Times,serif" font-size="14.00">v2 != NULL</text>
</g>
<!-- Node0x2d40c90 -->
<g id="node6" class="node"><title>Node0x2d40c90</title>
<polygon fill="none" stroke="black" points="66.5,-23.5 66.5,-59.5 120.5,-59.5 120.5,-23.5 66.5,-23.5"/>
<text text-anchor="start" x="74.5" y="-37.8" font-family="Times,serif" font-size="14.00">exit:</text>
</g>
<!-- Node0x2b659d0&#45;&gt;Node0x2d40c90 -->
<g id="edge5" class="edge"><title>Node0x2b659d0&#45;&gt;Node0x2d40c90</title>
<path fill="none" stroke="black" d="M50.5,-580.418C50.5,-559.053 50.5,-527.791 50.5,-500.5 50.5,-500.5 50.5,-500.5 50.5,-115.5 50.5,-98.0045 59.7829,-81.0075 69.7224,-67.8228"/>
<polygon fill="black" stroke="black" points="72.6908,-69.7184 76.258,-59.7421 67.2481,-65.3164 72.6908,-69.7184"/>
</g>
<!-- Node0x2d3b1a0 -->
<g id="node7" class="node"><title>Node0x2d3b1a0</title>
<polygon fill="none" stroke="black" points="117,-525.5 117,-561.5 218,-561.5 218,-525.5 117,-525.5"/>
<text text-anchor="start" x="125" y="-539.8" font-family="Times,serif" font-size="14.00">if (v3 &gt; v4):</text>
</g>
<!-- Node0x2d72d50&#45;&gt;Node0x2d3b1a0 -->
<g id="edge6" class="edge"><title>Node0x2d72d50&#45;&gt;Node0x2d3b1a0</title>
<path fill="none" stroke="black" d="M167.5,-652.26C167.5,-629.131 167.5,-595.278 167.5,-571.709"/>
<polygon fill="black" stroke="black" points="171,-571.679 167.5,-561.679 164,-571.68 171,-571.679"/>
</g>
<!-- Node0x2e78180 -->
<g id="node8" class="node"><title>Node0x2e78180</title>
<polygon fill="none" stroke="black" points="65.5,-333.5 65.5,-416.5 179.5,-416.5 179.5,-333.5 65.5,-333.5"/>
<text text-anchor="start" x="73.5" y="-401.3" font-family="Times,serif" font-size="14.00">0x8048bf2:</text>
<text text-anchor="start" x="73.5" y="-386.3" font-family="Times,serif" font-size="14.00"> fun7()</text>
<text text-anchor="start" x="73.5" y="-371.3" font-family="Times,serif" font-size="14.00"> g1 = (2 * g1)</text>
<text text-anchor="start" x="73.5" y="-356.3" font-family="Times,serif" font-size="14.00"> g2 = v1</text>
<text text-anchor="start" x="73.5" y="-341.3" font-family="Times,serif" font-size="14.00"> return</text>
</g>
<!-- Node0x2d3b1a0&#45;&gt;Node0x2e78180 -->
<g id="edge7" class="edge"><title>Node0x2d3b1a0&#45;&gt;Node0x2e78180</title>
<path fill="none" stroke="black" d="M136.742,-525.121C130.596,-520.116 124.97,-514.062 121.5,-507 109.466,-482.511 108.93,-452.205 111.759,-426.912"/>
<polygon fill="black" stroke="black" points="115.259,-427.144 113.099,-416.771 108.319,-426.227 115.259,-427.144"/>
<text text-anchor="middle" x="149.5" y="-495.8" font-family="Times,serif" font-size="14.00">v3 &gt; v4</text>
</g>
<!-- Node0x2b43b40 -->
<g id="node9" class="node"><title>Node0x2b43b40</title>
<polygon fill="none" stroke="black" points="151,-435.5 151,-473.5 252,-473.5 252,-435.5 151,-435.5"/>
<text text-anchor="start" x="159" y="-458.3" font-family="Times,serif" font-size="14.00">0x8048c05:</text>
<text text-anchor="start" x="159" y="-443.3" font-family="Times,serif" font-size="14.00"> g1 = 0</text>
</g>
<!-- Node0x2d3b1a0&#45;&gt;Node0x2b43b40 -->
<g id="edge8" class="edge"><title>Node0x2d3b1a0&#45;&gt;Node0x2b43b40</title>
<path fill="none" stroke="black" d="M174.217,-525.312C178.92,-513.277 185.305,-496.94 190.716,-483.095"/>
<polygon fill="black" stroke="black" points="194.065,-484.139 194.446,-473.551 187.546,-481.591 194.065,-484.139"/>
<text text-anchor="middle" x="221.5" y="-495.8" font-family="Times,serif" font-size="14.00">v3 &lt;= v4</text>
</g>
<!-- Node0x2e78180&#45;&gt;Node0x2d40c90 -->
<g id="edge9" class="edge"><title>Node0x2e78180&#45;&gt;Node0x2d40c90</title>
<path fill="none" stroke="black" d="M107.66,-333.312C100.525,-310.227 93.5,-280.612 93.5,-253.5 93.5,-253.5 93.5,-253.5 93.5,-115.5 93.5,-100.4 93.5,-83.5422 93.5,-69.8343"/>
<polygon fill="black" stroke="black" points="97.0001,-69.6097 93.5,-59.6098 90.0001,-69.6098 97.0001,-69.6097"/>
</g>
<!-- Node0x2b37130 -->
<g id="node10" class="node"><title>Node0x2b37130</title>
<polygon fill="none" stroke="black" points="148,-278.5 148,-314.5 255,-314.5 255,-278.5 148,-278.5"/>
<text text-anchor="start" x="156" y="-292.8" font-family="Times,serif" font-size="14.00">if (v3 != v4):</text>
</g>
<!-- Node0x2b43b40&#45;&gt;Node0x2b37130 -->
<g id="edge10" class="edge"><title>Node0x2b43b40&#45;&gt;Node0x2b37130</title>
<path fill="none" stroke="black" d="M201.5,-435.3C201.5,-408.123 201.5,-356.741 201.5,-324.978"/>
<polygon fill="black" stroke="black" points="205,-324.633 201.5,-314.633 198,-324.633 205,-324.633"/>
</g>
<!-- Node0x2c7e0c0 -->
<g id="node11" class="node"><title>Node0x2c7e0c0</title>
<polygon fill="none" stroke="black" points="122,-173.5 122,-226.5 269,-226.5 269,-173.5 122,-173.5"/>
<text text-anchor="start" x="130" y="-211.3" font-family="Times,serif" font-size="14.00">0x8048c0e:</text>
<text text-anchor="start" x="130" y="-196.3" font-family="Times,serif" font-size="14.00"> fun7()</text>
<text text-anchor="start" x="130" y="-181.3" font-family="Times,serif" font-size="14.00"> g1 = ((2 * g1) | 1)</text>
</g>
<!-- Node0x2b37130&#45;&gt;Node0x2c7e0c0 -->
<g id="edge11" class="edge"><title>Node0x2b37130&#45;&gt;Node0x2c7e0c0</title>
<path fill="none" stroke="black" d="M200.4,-278.167C199.664,-266.59 198.671,-250.943 197.771,-236.765"/>
<polygon fill="black" stroke="black" points="201.264,-236.538 197.137,-226.78 194.278,-236.981 201.264,-236.538"/>
<text text-anchor="middle" x="230.5" y="-248.8" font-family="Times,serif" font-size="14.00">v3 != v4</text>
</g>
<!-- Node0x2c7dfd0 -->
<g id="node12" class="node"><title>Node0x2c7dfd0</title>
<polygon fill="none" stroke="black" points="145,-97.5 145,-135.5 246,-135.5 246,-97.5 145,-97.5"/>
<text text-anchor="start" x="153" y="-120.3" font-family="Times,serif" font-size="14.00">0x8048c21:</text>
<text text-anchor="start" x="153" y="-105.3" font-family="Times,serif" font-size="14.00"> g2 = v1</text>
</g>
<!-- Node0x2b37130&#45;&gt;Node0x2c7dfd0 -->
<g id="edge12" class="edge"><title>Node0x2b37130&#45;&gt;Node0x2c7dfd0</title>
<path fill="none" stroke="black" d="M242.153,-278.493C250.69,-273.499 259.05,-267.357 265.5,-260 291.274,-230.603 296.924,-207.483 278.5,-173 271.465,-159.832 259.769,-149.243 247.345,-140.987"/>
<polygon fill="black" stroke="black" points="249.024,-137.911 238.675,-135.642 245.35,-143.87 249.024,-137.911"/>
<text text-anchor="middle" x="322.5" y="-196.3" font-family="Times,serif" font-size="14.00">v3 == v4</text>
</g>
<!-- Node0x2c7e0c0&#45;&gt;Node0x2c7dfd0 -->
<g id="edge13" class="edge"><title>Node0x2c7e0c0&#45;&gt;Node0x2c7dfd0</title>
<path fill="none" stroke="black" d="M195.5,-173.213C195.5,-164.526 195.5,-154.787 195.5,-145.91"/>
<polygon fill="black" stroke="black" points="199,-145.638 195.5,-135.638 192,-145.638 199,-145.638"/>
</g>
<!-- Node0x2c7dfd0&#45;&gt;Node0x2d40c90 -->
<g id="edge14" class="edge"><title>Node0x2c7dfd0&#45;&gt;Node0x2d40c90</title>
<path fill="none" stroke="black" d="M170.287,-97.4551C156.774,-87.7844 139.984,-75.7681 125.554,-65.4403"/>
<polygon fill="black" stroke="black" points="127.541,-62.5588 117.372,-59.585 123.467,-68.2512 127.541,-62.5588"/>
</g>
</g>
</svg>
