<?xml version="1.0" encoding="UTF-8" standalone="no"?>
<!DOCTYPE svg PUBLIC "-//W3C//DTD SVG 1.1//EN"
 "http://www.w3.org/Graphics/SVG/1.1/DTD/svg11.dtd">
<!-- Generated by graphviz version 2.38.0 (20140413.2041)
 -->
<!-- Title: Control&#45;flow graph for function &#39;strings_not_equal()&#39;. Pages: 1 -->
<svg width="1390pt" height="1147pt"
 viewBox="0.00 0.00 1389.50 1147.00" xmlns="http://www.w3.org/2000/svg" xmlns:xlink="http://www.w3.org/1999/xlink">
<g id="graph0" class="graph" transform="scale(1 1) rotate(0) translate(4 1143)">
<title>Control&#45;flow graph for function &#39;strings_not_equal()&#39;.</title>
<polygon fill="white" stroke="none" points="-4,4 -4,-1143 1385.5,-1143 1385.5,4 -4,4"/>
<text text-anchor="middle" x="690.75" y="-7.8" font-family="Times,serif" font-size="14.00">Control&#45;flow graph for function &#39;strings_not_equal()&#39;.</text>
<!-- Node0x2cbc6f0 -->
<g id="node1" class="node"><title>Node0x2cbc6f0</title>
<polygon fill="none" stroke="black" points="1039,-1102.5 1039,-1138.5 1098,-1138.5 1098,-1102.5 1039,-1102.5"/>
<text text-anchor="start" x="1047" y="-1116.8" font-family="Times,serif" font-size="14.00">entry:</text>
</g>
<!-- Node0x2c008e0 -->
<g id="node2" class="node"><title>Node0x2c008e0</title>
<polygon fill="none" stroke="black" points="929.5,-921.5 929.5,-1064.5 1207.5,-1064.5 1207.5,-921.5 929.5,-921.5"/>
<text text-anchor="start" x="937.5" y="-1049.3" font-family="Times,serif" font-size="14.00">0x8048e8b:</text>
<text text-anchor="start" x="937.5" y="-1034.3" font-family="Times,serif" font-size="14.00"> v1</text>
<text text-anchor="start" x="937.5" y="-1019.3" font-family="Times,serif" font-size="14.00"> v2 = PtrToIntCastExpr&lt;int32&gt;(v1)</text>
<text text-anchor="start" x="937.5" y="-1004.3" font-family="Times,serif" font-size="14.00"> v3</text>
<text text-anchor="start" x="937.5" y="-989.3" font-family="Times,serif" font-size="14.00"> v4 = PtrToIntCastExpr&lt;int32&gt;(v3)</text>
<text text-anchor="start" x="937.5" y="-974.3" font-family="Times,serif" font-size="14.00"> string_length()</text>
<text text-anchor="start" x="937.5" y="-959.3" font-family="Times,serif" font-size="14.00"> string_length()</text>
<text text-anchor="start" x="937.5" y="-944.3" font-family="Times,serif" font-size="14.00"> v5 = *(IntToPtrCastExpr&lt;ptr&gt;(v2))</text>
<text text-anchor="start" x="937.5" y="-929.3" font-family="Times,serif" font-size="14.00"> v6</text>
</g>
<!-- Node0x2cbc6f0&#45;&gt;Node0x2c008e0 -->
<g id="edge1" class="edge"><title>Node0x2cbc6f0&#45;&gt;Node0x2c008e0</title>
<path fill="none" stroke="black" d="M1068.5,-1102.31C1068.5,-1094.68 1068.5,-1085.1 1068.5,-1074.81"/>
<polygon fill="black" stroke="black" points="1072,-1074.77 1068.5,-1064.77 1065,-1074.77 1072,-1074.77"/>
</g>
<!-- Node0x2c89400 -->
<g id="node3" class="node"><title>Node0x2c89400</title>
<polygon fill="none" stroke="black" points="1019,-845.5 1019,-883.5 1118,-883.5 1118,-845.5 1019,-845.5"/>
<text text-anchor="start" x="1027" y="-868.3" font-family="Times,serif" font-size="14.00">if (v5 != 0):</text>
<text text-anchor="start" x="1027" y="-853.3" font-family="Times,serif" font-size="14.00"> else:</text>
</g>
<!-- Node0x2c008e0&#45;&gt;Node0x2c89400 -->
<g id="edge2" class="edge"><title>Node0x2c008e0&#45;&gt;Node0x2c89400</title>
<path fill="none" stroke="black" d="M1068.5,-921.353C1068.5,-911.594 1068.5,-902.073 1068.5,-893.737"/>
<polygon fill="black" stroke="black" points="1072,-893.54 1068.5,-883.54 1065,-893.54 1072,-893.54"/>
</g>
<!-- Node0x2b831f0 -->
<g id="node4" class="node"><title>Node0x2b831f0</title>
<polygon fill="none" stroke="black" points="396.5,-755.5 396.5,-793.5 1044.5,-793.5 1044.5,-755.5 396.5,-755.5"/>
<text text-anchor="start" x="404.5" y="-778.3" font-family="Times,serif" font-size="14.00">0x8048eb7:</text>
<text text-anchor="start" x="404.5" y="-763.3" font-family="Times,serif" font-size="14.00"> if (ExtCastExpr&lt;int32&gt;(v5) == ExtCastExpr&lt;int32&gt;(*(IntToPtrCastExpr&lt;ptr&gt;(v4)))):</text>
</g>
<!-- Node0x2c89400&#45;&gt;Node0x2b831f0 -->
<g id="edge3" class="edge"><title>Node0x2c89400&#45;&gt;Node0x2b831f0</title>
<path fill="none" stroke="black" d="M1018.64,-850.892C961.945,-836.555 868.561,-812.941 801.403,-795.958"/>
<polygon fill="black" stroke="black" points="802.245,-792.561 791.692,-793.503 800.529,-799.347 802.245,-792.561"/>
<text text-anchor="middle" x="941.5" y="-815.8" font-family="Times,serif" font-size="14.00">v5 != 0</text>
</g>
<!-- Node0x2d24830 -->
<g id="node5" class="node"><title>Node0x2d24830</title>
<polygon fill="none" stroke="black" points="1317.5,-700.5 1317.5,-736.5 1381.5,-736.5 1381.5,-700.5 1317.5,-700.5"/>
<text text-anchor="start" x="1325.5" y="-714.8" font-family="Times,serif" font-size="14.00">v6 = 0</text>
</g>
<!-- Node0x2c89400&#45;&gt;Node0x2d24830 -->
<g id="edge4" class="edge"><title>Node0x2c89400&#45;&gt;Node0x2d24830</title>
<path fill="none" stroke="black" d="M1103.8,-845.408C1155.78,-818.773 1252.69,-769.109 1308,-740.767"/>
<polygon fill="black" stroke="black" points="1309.86,-743.747 1317.16,-736.071 1306.67,-737.517 1309.86,-743.747"/>
<text text-anchor="middle" x="1196.5" y="-815.8" font-family="Times,serif" font-size="14.00">v5 == 0</text>
</g>
<!-- Node0x2d24900 -->
<g id="node6" class="node"><title>Node0x2d24900</title>
<polygon fill="none" stroke="black" points="67.5,-645.5 67.5,-681.5 131.5,-681.5 131.5,-645.5 67.5,-645.5"/>
<text text-anchor="start" x="75.5" y="-659.8" font-family="Times,serif" font-size="14.00">v7 = 0</text>
</g>
<!-- Node0x2b831f0&#45;&gt;Node0x2d24900 -->
<g id="edge5" class="edge"><title>Node0x2b831f0&#45;&gt;Node0x2d24900</title>
<path fill="none" stroke="black" d="M396.434,-762.929C255.354,-756.782 119.126,-748.054 107.5,-737 95.5697,-725.657 93.6931,-707.138 94.736,-691.657"/>
<polygon fill="black" stroke="black" points="98.2334,-691.87 95.8367,-681.55 91.2745,-691.112 98.2334,-691.87"/>
<text text-anchor="middle" x="406.5" y="-714.8" font-family="Times,serif" font-size="14.00">ExtCastExpr&lt;int32&gt;(v5) == ExtCastExpr&lt;int32&gt;(*(IntToPtrCastExpr&lt;ptr&gt;(v4)))</text>
</g>
<!-- Node0x2c83ff0 -->
<g id="node7" class="node"><title>Node0x2c83ff0</title>
<polygon fill="none" stroke="black" points="747.5,-645.5 747.5,-681.5 811.5,-681.5 811.5,-645.5 747.5,-645.5"/>
<text text-anchor="start" x="755.5" y="-659.8" font-family="Times,serif" font-size="14.00">v6 = 1</text>
</g>
<!-- Node0x2b831f0&#45;&gt;Node0x2c83ff0 -->
<g id="edge6" class="edge"><title>Node0x2b831f0&#45;&gt;Node0x2c83ff0</title>
<path fill="none" stroke="black" d="M714.204,-755.268C709.948,-739.538 706.7,-716.771 716.5,-700 721.53,-691.392 729.502,-684.708 738.106,-679.583"/>
<polygon fill="black" stroke="black" points="739.988,-682.548 747.205,-674.792 736.726,-676.355 739.988,-682.548"/>
<text text-anchor="middle" x="1012.5" y="-714.8" font-family="Times,serif" font-size="14.00">ExtCastExpr&lt;int32&gt;(v5) != ExtCastExpr&lt;int32&gt;(*(IntToPtrCastExpr&lt;ptr&gt;(v4)))</text>
</g>
<!-- Node0x2c41210 -->
<g id="node8" class="node"><title>Node0x2c41210</title>
<polygon fill="none" stroke="black" points="877.5,-569.5 877.5,-607.5 977.5,-607.5 977.5,-569.5 877.5,-569.5"/>
<text text-anchor="start" x="885.5" y="-592.3" font-family="Times,serif" font-size="14.00">0x8048ee5:</text>
<text text-anchor="start" x="885.5" y="-577.3" font-family="Times,serif" font-size="14.00"> g1 = v6</text>
</g>
<!-- Node0x2d24830&#45;&gt;Node0x2c41210 -->
<g id="edge7" class="edge"><title>Node0x2d24830&#45;&gt;Node0x2c41210</title>
<path fill="none" stroke="black" d="M1317.35,-701.915C1315.72,-701.245 1314.1,-700.602 1312.5,-700 1200.1,-657.611 1064.09,-622.114 987.511,-603.51"/>
<polygon fill="black" stroke="black" points="988.106,-600.053 977.563,-601.107 986.462,-606.857 988.106,-600.053"/>
</g>
<!-- Node0x2d23ca0 -->
<g id="node9" class="node"><title>Node0x2d23ca0</title>
<polygon fill="none" stroke="black" points="51,-570.5 51,-606.5 148,-606.5 148,-570.5 51,-570.5"/>
<text text-anchor="start" x="59" y="-584.8" font-family="Times,serif" font-size="14.00">while True:</text>
</g>
<!-- Node0x2d24900&#45;&gt;Node0x2d23ca0 -->
<g id="edge8" class="edge"><title>Node0x2d24900&#45;&gt;Node0x2d23ca0</title>
<path fill="none" stroke="black" d="M99.5,-645.2C99.5,-636.745 99.5,-626.369 99.5,-616.873"/>
<polygon fill="black" stroke="black" points="103,-616.676 99.5,-606.676 96.0001,-616.676 103,-616.676"/>
</g>
<!-- Node0x2c83ff0&#45;&gt;Node0x2c41210 -->
<g id="edge9" class="edge"><title>Node0x2c83ff0&#45;&gt;Node0x2c41210</title>
<path fill="none" stroke="black" d="M811.614,-646.66C832.087,-636.562 858.939,-623.317 881.639,-612.12"/>
<polygon fill="black" stroke="black" points="883.338,-615.185 890.758,-607.623 880.242,-608.907 883.338,-615.185"/>
</g>
<!-- Node0x2bf50d0 -->
<g id="node10" class="node"><title>Node0x2bf50d0</title>
<polygon fill="none" stroke="black" points="835.5,-23.5 835.5,-59.5 889.5,-59.5 889.5,-23.5 835.5,-23.5"/>
<text text-anchor="start" x="843.5" y="-37.8" font-family="Times,serif" font-size="14.00">exit:</text>
</g>
<!-- Node0x2c41210&#45;&gt;Node0x2bf50d0 -->
<g id="edge10" class="edge"><title>Node0x2c41210&#45;&gt;Node0x2bf50d0</title>
<path fill="none" stroke="black" d="M927.5,-569.169C927.5,-551.563 927.5,-524.214 927.5,-500.5 927.5,-500.5 927.5,-500.5 927.5,-123 927.5,-100.462 911.886,-80.6796 895.964,-66.3653"/>
<polygon fill="black" stroke="black" points="898.085,-63.5753 888.19,-59.7894 893.564,-68.9198 898.085,-63.5753"/>
</g>
<!-- Node0x2df5370 -->
<g id="node11" class="node"><title>Node0x2df5370</title>
<polygon fill="none" stroke="black" points="93,-481.5 93,-517.5 456,-517.5 456,-481.5 93,-481.5"/>
<text text-anchor="start" x="101" y="-495.8" font-family="Times,serif" font-size="14.00">v8 = *(IntToPtrCastExpr&lt;ptr&gt;(((v2 + 1) + v7)))</text>
</g>
<!-- Node0x2d23ca0&#45;&gt;Node0x2df5370 -->
<g id="edge11" class="edge"><title>Node0x2d23ca0&#45;&gt;Node0x2df5370</title>
<path fill="none" stroke="black" d="M134.074,-570.312C161.968,-556.444 201.357,-536.863 231.322,-521.966"/>
<polygon fill="black" stroke="black" points="232.899,-525.09 240.296,-517.504 229.783,-518.822 232.899,-525.09"/>
<text text-anchor="middle" x="220.5" y="-539.8" font-family="Times,serif" font-size="14.00">True</text>
</g>
<!-- Node0x2e281f0 -->
<g id="node12" class="node"><title>Node0x2e281f0</title>
<polygon fill="none" stroke="black" points="379,-407.5 379,-443.5 478,-443.5 478,-407.5 379,-407.5"/>
<text text-anchor="start" x="387" y="-421.8" font-family="Times,serif" font-size="14.00">if (v8 != 0):</text>
</g>
<!-- Node0x2df5370&#45;&gt;Node0x2e281f0 -->
<g id="edge12" class="edge"><title>Node0x2df5370&#45;&gt;Node0x2e281f0</title>
<path fill="none" stroke="black" d="M310.996,-481.437C332.494,-471.386 359.88,-458.582 382.805,-447.864"/>
<polygon fill="black" stroke="black" points="384.423,-450.971 392,-443.565 381.458,-444.63 384.423,-450.971"/>
</g>
<!-- Node0x2b13790 -->
<g id="node13" class="node"><title>Node0x2b13790</title>
<polygon fill="none" stroke="black" points="227,-317.5 227,-355.5 630,-355.5 630,-317.5 227,-317.5"/>
<text text-anchor="start" x="235" y="-340.3" font-family="Times,serif" font-size="14.00">0x8048ec2:</text>
<text text-anchor="start" x="235" y="-325.3" font-family="Times,serif" font-size="14.00"> if (v8 != *(IntToPtrCastExpr&lt;ptr&gt;(((v4 + 1) + v7)))):</text>
</g>
<!-- Node0x2e281f0&#45;&gt;Node0x2b13790 -->
<g id="edge13" class="edge"><title>Node0x2e281f0&#45;&gt;Node0x2b13790</title>
<path fill="none" stroke="black" d="M428.5,-407.312C428.5,-395.511 428.5,-379.572 428.5,-365.904"/>
<polygon fill="black" stroke="black" points="432,-365.551 428.5,-355.551 425,-365.551 432,-365.551"/>
<text text-anchor="middle" x="455.5" y="-377.8" font-family="Times,serif" font-size="14.00">v8 != 0</text>
</g>
<!-- Node0x2bad5d0 -->
<g id="node14" class="node"><title>Node0x2bad5d0</title>
<polygon fill="none" stroke="black" points="812.5,-245.5 812.5,-298.5 912.5,-298.5 912.5,-245.5 812.5,-245.5"/>
<text text-anchor="start" x="820.5" y="-283.3" font-family="Times,serif" font-size="14.00">0x8048ee5:</text>
<text text-anchor="start" x="820.5" y="-268.3" font-family="Times,serif" font-size="14.00"> g1 = 0</text>
<text text-anchor="start" x="820.5" y="-253.3" font-family="Times,serif" font-size="14.00"> return</text>
</g>
<!-- Node0x2e281f0&#45;&gt;Node0x2bad5d0 -->
<g id="edge14" class="edge"><title>Node0x2e281f0&#45;&gt;Node0x2bad5d0</title>
<path fill="none" stroke="black" d="M478.295,-410.253C549.526,-389.386 684.484,-348.034 802.684,-300.881"/>
<polygon fill="black" stroke="black" points="804.275,-304.014 812.248,-297.037 801.664,-297.518 804.275,-304.014"/>
<text text-anchor="middle" x="625.5" y="-377.8" font-family="Times,serif" font-size="14.00">v8 == 0</text>
</g>
<!-- Node0x2c79930 -->
<g id="node15" class="node"><title>Node0x2c79930</title>
<polygon fill="none" stroke="black" points="519,-188.5 519,-226.5 686,-226.5 686,-188.5 519,-188.5"/>
<text text-anchor="start" x="527" y="-211.3" font-family="Times,serif" font-size="14.00">break &#45;&gt; 0x8048ee5:</text>
<text text-anchor="start" x="527" y="-196.3" font-family="Times,serif" font-size="14.00"> break</text>
</g>
<!-- Node0x2b13790&#45;&gt;Node0x2c79930 -->
<g id="edge15" class="edge"><title>Node0x2b13790&#45;&gt;Node0x2c79930</title>
<path fill="none" stroke="black" d="M430.651,-317.454C433.804,-294.055 440.424,-255.047 450.5,-245 459.659,-235.867 483.072,-228.474 508.853,-222.793"/>
<polygon fill="black" stroke="black" points="509.758,-226.179 518.825,-220.699 508.319,-219.329 509.758,-226.179"/>
<text text-anchor="middle" x="627" y="-268.3" font-family="Times,serif" font-size="14.00">v8 != *(IntToPtrCastExpr&lt;ptr&gt;(((v4 + 1) + v7)))</text>
</g>
<!-- Node0x2dcfac0 -->
<g id="node16" class="node"><title>Node0x2dcfac0</title>
<polygon fill="none" stroke="black" points="0,-188.5 0,-226.5 113,-226.5 113,-188.5 0,-188.5"/>
<text text-anchor="start" x="8" y="-211.3" font-family="Times,serif" font-size="14.00">v7 = (v7 + 1)</text>
<text text-anchor="start" x="8" y="-196.3" font-family="Times,serif" font-size="14.00"> continue</text>
</g>
<!-- Node0x2b13790&#45;&gt;Node0x2dcfac0 -->
<g id="edge16" class="edge"><title>Node0x2b13790&#45;&gt;Node0x2dcfac0</title>
<path fill="none" stroke="black" d="M226.776,-325.029C152.891,-319.272 84.1003,-310.838 71.5,-299 54.9707,-283.471 52.1895,-257.214 52.9757,-236.97"/>
<polygon fill="black" stroke="black" points="56.4852,-236.954 53.6862,-226.735 49.502,-236.469 56.4852,-236.954"/>
<text text-anchor="middle" x="251" y="-268.3" font-family="Times,serif" font-size="14.00">v8 == *(IntToPtrCastExpr&lt;ptr&gt;(((v4 + 1) + v7)))</text>
</g>
<!-- Node0x2bad5d0&#45;&gt;Node0x2bf50d0 -->
<g id="edge17" class="edge"><title>Node0x2bad5d0&#45;&gt;Node0x2bf50d0</title>
<path fill="none" stroke="black" d="M862.5,-245.232C862.5,-201.779 862.5,-114.325 862.5,-69.8367"/>
<polygon fill="black" stroke="black" points="866,-69.7573 862.5,-59.7573 859,-69.7574 866,-69.7573"/>
</g>
<!-- Node0x2df5260 -->
<g id="node17" class="node"><title>Node0x2df5260</title>
<polygon fill="none" stroke="black" points="689.5,-97.5 689.5,-150.5 789.5,-150.5 789.5,-97.5 689.5,-97.5"/>
<text text-anchor="start" x="697.5" y="-135.3" font-family="Times,serif" font-size="14.00">0x8048ee5:</text>
<text text-anchor="start" x="697.5" y="-120.3" font-family="Times,serif" font-size="14.00"> g1 = 1</text>
<text text-anchor="start" x="697.5" y="-105.3" font-family="Times,serif" font-size="14.00"> return</text>
</g>
<!-- Node0x2c79930&#45;&gt;Node0x2df5260 -->
<g id="edge18" class="edge"><title>Node0x2c79930&#45;&gt;Node0x2df5260</title>
<path fill="none" stroke="black" d="M632.905,-188.413C649.033,-178.818 669.293,-166.765 687.807,-155.751"/>
<polygon fill="black" stroke="black" points="689.644,-158.731 696.449,-150.611 686.065,-152.715 689.644,-158.731"/>
</g>
<!-- Node0x2dcfac0&#45;&gt;Node0x2d23ca0 -->
<g id="edge19" class="edge"><title>Node0x2dcfac0&#45;&gt;Node0x2d23ca0</title>
<path fill="none" stroke="black" d="M52.4712,-226.905C47.4441,-251.518 39.5,-296.571 39.5,-335.5 39.5,-500.5 39.5,-500.5 39.5,-500.5 39.5,-524.625 55.3278,-546.918 70.7247,-562.898"/>
<polygon fill="black" stroke="black" points="68.5897,-565.706 78.1773,-570.215 73.494,-560.712 68.5897,-565.706"/>
</g>
<!-- Node0x2df5260&#45;&gt;Node0x2bf50d0 -->
<g id="edge20" class="edge"><title>Node0x2df5260&#45;&gt;Node0x2bf50d0</title>
<path fill="none" stroke="black" d="M778.756,-97.308C794.507,-86.9995 812.507,-75.2187 827.773,-65.2277"/>
<polygon fill="black" stroke="black" points="829.957,-67.9814 836.408,-59.5766 826.124,-62.1242 829.957,-67.9814"/>
</g>
</g>
</svg>
