<?xml version="1.0" encoding="UTF-8" standalone="no"?>
<!DOCTYPE svg PUBLIC "-//W3C//DTD SVG 1.1//EN"
 "http://www.w3.org/Graphics/SVG/1.1/DTD/svg11.dtd">
<!-- Generated by graphviz version 2.38.0 (20140413.2041)
 -->
<!-- Title: Control&#45;flow graph for function &#39;phase_6()&#39;. Pages: 1 -->
<svg width="714pt" height="533pt"
 viewBox="0.00 0.00 713.50 533.00" xmlns="http://www.w3.org/2000/svg" xmlns:xlink="http://www.w3.org/1999/xlink">
<g id="graph0" class="graph" transform="scale(1 1) rotate(0) translate(4 529)">
<title>Control&#45;flow graph for function &#39;phase_6()&#39;.</title>
<polygon fill="white" stroke="none" points="-4,4 -4,-529 709.5,-529 709.5,4 -4,4"/>
<text text-anchor="middle" x="352.75" y="-7.8" font-family="Times,serif" font-size="14.00">Control&#45;flow graph for function &#39;phase_6()&#39;.</text>
<!-- Node0x2e67c90 -->
<g id="node1" class="node"><title>Node0x2e67c90</title>
<polygon fill="none" stroke="black" points="270,-488.5 270,-524.5 329,-524.5 329,-488.5 270,-488.5"/>
<text text-anchor="start" x="278" y="-502.8" font-family="Times,serif" font-size="14.00">entry:</text>
</g>
<!-- Node0x2cbcd70 -->
<g id="node2" class="node"><title>Node0x2cbcd70</title>
<polygon fill="none" stroke="black" points="0,-337.5 0,-450.5 599,-450.5 599,-337.5 0,-337.5"/>
<text text-anchor="start" x="8" y="-435.3" font-family="Times,serif" font-size="14.00">v1 = g2</text>
<text text-anchor="start" x="8" y="-420.3" font-family="Times,serif" font-size="14.00"> endptr = NULL</text>
<text text-anchor="start" x="8" y="-405.3" font-family="Times,serif" font-size="14.00"> str</text>
<text text-anchor="start" x="8" y="-390.3" font-family="Times,serif" font-size="14.00"> str_as_l = strtol(str, &amp;(endptr), 10)</text>
<text text-anchor="start" x="8" y="-375.3" font-family="Times,serif" font-size="14.00"> g2 = str_as_l</text>
<text text-anchor="start" x="8" y="-360.3" font-family="Times,serif" font-size="14.00"> fun6()</text>
<text text-anchor="start" x="8" y="-345.3" font-family="Times,serif" font-size="14.00"> v2 = *(IntToPtrCastExpr&lt;ptr&gt;((*(IntToPtrCastExpr&lt;ptr&gt;((str_as_l + 8))) + 8)))</text>
</g>
<!-- Node0x2e67c90&#45;&gt;Node0x2cbcd70 -->
<g id="edge1" class="edge"><title>Node0x2e67c90&#45;&gt;Node0x2cbcd70</title>
<path fill="none" stroke="black" d="M299.5,-488.234C299.5,-480.586 299.5,-471.056 299.5,-461.033"/>
<polygon fill="black" stroke="black" points="303,-460.897 299.5,-450.897 296,-460.897 303,-460.897"/>
</g>
<!-- Node0x2c36310 -->
<g id="node3" class="node"><title>Node0x2c36310</title>
<polygon fill="none" stroke="black" points="144.5,-263.5 144.5,-299.5 454.5,-299.5 454.5,-263.5 144.5,-263.5"/>
<text text-anchor="start" x="152.5" y="-277.8" font-family="Times,serif" font-size="14.00">if (*(IntToPtrCastExpr&lt;ptr&gt;(v2)) != g2):</text>
</g>
<!-- Node0x2cbcd70&#45;&gt;Node0x2c36310 -->
<g id="edge2" class="edge"><title>Node0x2cbcd70&#45;&gt;Node0x2c36310</title>
<path fill="none" stroke="black" d="M299.5,-337.426C299.5,-327.86 299.5,-318.307 299.5,-309.913"/>
<polygon fill="black" stroke="black" points="303,-309.644 299.5,-299.644 296,-309.644 303,-309.644"/>
</g>
<!-- Node0x2bbc070 -->
<g id="node4" class="node"><title>Node0x2bbc070</title>
<polygon fill="none" stroke="black" points="181.5,-173.5 181.5,-211.5 315.5,-211.5 315.5,-173.5 181.5,-173.5"/>
<text text-anchor="start" x="189.5" y="-196.3" font-family="Times,serif" font-size="14.00">0x8048cc7:</text>
<text text-anchor="start" x="189.5" y="-181.3" font-family="Times,serif" font-size="14.00"> explode_bomb()</text>
</g>
<!-- Node0x2c36310&#45;&gt;Node0x2bbc070 -->
<g id="edge3" class="edge"><title>Node0x2c36310&#45;&gt;Node0x2bbc070</title>
<path fill="none" stroke="black" d="M197.893,-263.418C180.532,-258.478 166.229,-252.376 160.5,-245 150.968,-232.728 158.32,-222.817 172.098,-215.09"/>
<polygon fill="black" stroke="black" points="173.951,-218.081 181.413,-210.56 170.889,-211.786 173.951,-218.081"/>
<text text-anchor="middle" x="293" y="-233.8" font-family="Times,serif" font-size="14.00">*(IntToPtrCastExpr&lt;ptr&gt;(v2)) != g2</text>
</g>
<!-- Node0x2e69fc0 -->
<g id="node5" class="node"><title>Node0x2e69fc0</title>
<polygon fill="none" stroke="black" points="336,-97.5 336,-135.5 435,-135.5 435,-97.5 336,-97.5"/>
<text text-anchor="start" x="344" y="-120.3" font-family="Times,serif" font-size="14.00">0x8048ccc:</text>
<text text-anchor="start" x="344" y="-105.3" font-family="Times,serif" font-size="14.00"> g2 = v1</text>
</g>
<!-- Node0x2c36310&#45;&gt;Node0x2e69fc0 -->
<g id="edge4" class="edge"><title>Node0x2c36310&#45;&gt;Node0x2e69fc0</title>
<path fill="none" stroke="black" d="M388.816,-263.415C405.829,-258.355 420.047,-252.202 425.5,-245 448.246,-214.96 426.028,-171.714 406.745,-144.112"/>
<polygon fill="black" stroke="black" points="409.363,-141.762 400.648,-135.737 403.704,-145.882 409.363,-141.762"/>
<text text-anchor="middle" x="570" y="-188.8" font-family="Times,serif" font-size="14.00">*(IntToPtrCastExpr&lt;ptr&gt;(v2)) == g2</text>
</g>
<!-- Node0x2bbc070&#45;&gt;Node0x2e69fc0 -->
<g id="edge5" class="edge"><title>Node0x2bbc070&#45;&gt;Node0x2e69fc0</title>
<path fill="none" stroke="black" d="M282.014,-173.398C300.341,-163.498 323.236,-151.132 342.828,-140.549"/>
<polygon fill="black" stroke="black" points="344.722,-143.504 351.857,-135.672 341.395,-137.345 344.722,-143.504"/>
</g>
<!-- Node0x2e69600 -->
<g id="node6" class="node"><title>Node0x2e69600</title>
<polygon fill="none" stroke="black" points="358.5,-23.5 358.5,-59.5 412.5,-59.5 412.5,-23.5 358.5,-23.5"/>
<text text-anchor="start" x="366.5" y="-37.8" font-family="Times,serif" font-size="14.00">exit:</text>
</g>
<!-- Node0x2e69fc0&#45;&gt;Node0x2e69600 -->
<g id="edge6" class="edge"><title>Node0x2e69fc0&#45;&gt;Node0x2e69600</title>
<path fill="none" stroke="black" d="M385.5,-97.4551C385.5,-89.2008 385.5,-79.2377 385.5,-70.0742"/>
<polygon fill="black" stroke="black" points="389,-69.8347 385.5,-59.8347 382,-69.8347 389,-69.8347"/>
</g>
</g>
</svg>
