<?xml version="1.0" encoding="UTF-8" standalone="no"?>
<!DOCTYPE svg PUBLIC "-//W3C//DTD SVG 1.1//EN"
 "http://www.w3.org/Graphics/SVG/1.1/DTD/svg11.dtd">
<!-- Generated by graphviz version 2.38.0 (20140413.2041)
 -->
<!-- Title: Control&#45;flow graph for function &#39;phase_5()&#39;. Pages: 1 -->
<svg width="650pt" height="864pt"
 viewBox="0.00 0.00 650.00 864.00" xmlns="http://www.w3.org/2000/svg" xmlns:xlink="http://www.w3.org/1999/xlink">
<g id="graph0" class="graph" transform="scale(1 1) rotate(0) translate(4 860)">
<title>Control&#45;flow graph for function &#39;phase_5()&#39;.</title>
<polygon fill="white" stroke="none" points="-4,4 -4,-860 646,-860 646,4 -4,4"/>
<text text-anchor="middle" x="321" y="-7.8" font-family="Times,serif" font-size="14.00">Control&#45;flow graph for function &#39;phase_5()&#39;.</text>
<!-- Node0x2e695a0 -->
<g id="node1" class="node"><title>Node0x2e695a0</title>
<polygon fill="none" stroke="black" points="200.5,-819.5 200.5,-855.5 259.5,-855.5 259.5,-819.5 200.5,-819.5"/>
<text text-anchor="start" x="208.5" y="-833.8" font-family="Times,serif" font-size="14.00">entry:</text>
</g>
<!-- Node0x2e69500 -->
<g id="node2" class="node"><title>Node0x2e69500</title>
<polygon fill="none" stroke="black" points="100,-698.5 100,-781.5 360,-781.5 360,-698.5 100,-698.5"/>
<text text-anchor="start" x="108" y="-766.3" font-family="Times,serif" font-size="14.00">v1 = g4</text>
<text text-anchor="start" x="108" y="-751.3" font-family="Times,serif" font-size="14.00"> v2 = g2</text>
<text text-anchor="start" x="108" y="-736.3" font-family="Times,serif" font-size="14.00"> v3</text>
<text text-anchor="start" x="108" y="-721.3" font-family="Times,serif" font-size="14.00"> g2 = ExtCastExpr&lt;int32&gt;(*(v3))</text>
<text text-anchor="start" x="108" y="-706.3" font-family="Times,serif" font-size="14.00"> string_length()</text>
</g>
<!-- Node0x2e695a0&#45;&gt;Node0x2e69500 -->
<g id="edge1" class="edge"><title>Node0x2e695a0&#45;&gt;Node0x2e69500</title>
<path fill="none" stroke="black" d="M230,-819.427C230,-811.622 230,-801.921 230,-792.032"/>
<polygon fill="black" stroke="black" points="233.5,-791.73 230,-781.73 226.5,-791.73 233.5,-791.73"/>
</g>
<!-- Node0x2b39850 -->
<g id="node3" class="node"><title>Node0x2b39850</title>
<polygon fill="none" stroke="black" points="180,-624.5 180,-660.5 280,-660.5 280,-624.5 180,-624.5"/>
<text text-anchor="start" x="188" y="-638.8" font-family="Times,serif" font-size="14.00">if (g1 != 6):</text>
</g>
<!-- Node0x2e69500&#45;&gt;Node0x2b39850 -->
<g id="edge2" class="edge"><title>Node0x2e69500&#45;&gt;Node0x2b39850</title>
<path fill="none" stroke="black" d="M230,-698.499C230,-689.206 230,-679.537 230,-670.946"/>
<polygon fill="black" stroke="black" points="233.5,-670.749 230,-660.749 226.5,-670.749 233.5,-670.749"/>
</g>
<!-- Node0x2b1f900 -->
<g id="node4" class="node"><title>Node0x2b1f900</title>
<polygon fill="none" stroke="black" points="96,-534.5 96,-572.5 230,-572.5 230,-534.5 96,-534.5"/>
<text text-anchor="start" x="104" y="-557.3" font-family="Times,serif" font-size="14.00">0x8048ceb:</text>
<text text-anchor="start" x="104" y="-542.3" font-family="Times,serif" font-size="14.00"> explode_bomb()</text>
</g>
<!-- Node0x2b39850&#45;&gt;Node0x2b1f900 -->
<g id="edge3" class="edge"><title>Node0x2b39850&#45;&gt;Node0x2b1f900</title>
<path fill="none" stroke="black" d="M212.953,-624.315C207.636,-618.657 201.888,-612.218 197,-606 190.873,-598.206 184.734,-589.318 179.391,-581.145"/>
<polygon fill="black" stroke="black" points="182.286,-579.176 173.944,-572.643 176.391,-582.952 182.286,-579.176"/>
<text text-anchor="middle" x="224.5" y="-594.8" font-family="Times,serif" font-size="14.00">g1 != 6</text>
</g>
<!-- Node0x2b39970 -->
<g id="node5" class="node"><title>Node0x2b39970</title>
<polygon fill="none" stroke="black" points="202,-458.5 202,-496.5 266,-496.5 266,-458.5 202,-458.5"/>
<text text-anchor="start" x="210" y="-481.3" font-family="Times,serif" font-size="14.00">v4 = 0</text>
<text text-anchor="start" x="210" y="-466.3" font-family="Times,serif" font-size="14.00"> v5</text>
</g>
<!-- Node0x2b39850&#45;&gt;Node0x2b39970 -->
<g id="edge4" class="edge"><title>Node0x2b39850&#45;&gt;Node0x2b39970</title>
<path fill="none" stroke="black" d="M243.269,-624.358C246.818,-618.805 250.173,-612.416 252,-606 261.566,-572.404 252.748,-532.319 244.425,-506.183"/>
<polygon fill="black" stroke="black" points="247.692,-504.917 241.18,-496.56 241.058,-507.154 247.692,-504.917"/>
<text text-anchor="middle" x="287.5" y="-549.8" font-family="Times,serif" font-size="14.00">g1 == 6</text>
</g>
<!-- Node0x2b1f900&#45;&gt;Node0x2b39970 -->
<g id="edge5" class="edge"><title>Node0x2b1f900&#45;&gt;Node0x2b39970</title>
<path fill="none" stroke="black" d="M180.551,-534.208C189.32,-525.067 200.074,-513.86 209.63,-503.9"/>
<polygon fill="black" stroke="black" points="212.254,-506.221 216.651,-496.582 207.202,-501.374 212.254,-506.221"/>
</g>
<!-- Node0x2bfa590 -->
<g id="node6" class="node"><title>Node0x2bfa590</title>
<polygon fill="none" stroke="black" points="158,-384.5 158,-420.5 310,-420.5 310,-384.5 158,-384.5"/>
<text text-anchor="start" x="166" y="-398.8" font-family="Times,serif" font-size="14.00">for i in range(0, 6):</text>
</g>
<!-- Node0x2b39970&#45;&gt;Node0x2bfa590 -->
<g id="edge6" class="edge"><title>Node0x2b39970&#45;&gt;Node0x2bfa590</title>
<path fill="none" stroke="black" d="M234,-458.455C234,-450.201 234,-440.238 234,-431.074"/>
<polygon fill="black" stroke="black" points="237.5,-430.835 234,-420.835 230.5,-430.835 237.5,-430.835"/>
</g>
<!-- Node0x2c2f760 -->
<g id="node7" class="node"><title>Node0x2c2f760</title>
<polygon fill="none" stroke="black" points="0,-278.5 0,-346.5 468,-346.5 468,-278.5 0,-278.5"/>
<text text-anchor="start" x="8" y="-331.3" font-family="Times,serif" font-size="14.00">v6 = (v3[i] % 16)</text>
<text text-anchor="start" x="8" y="-316.3" font-family="Times,serif" font-size="14.00"> g4 = v6</text>
<text text-anchor="start" x="8" y="-301.3" font-family="Times,serif" font-size="14.00"> v5 = (*(IntToPtrCastExpr&lt;ptr&gt;(((4 * v6) | 134518912))) + v4)</text>
<text text-anchor="start" x="8" y="-286.3" font-family="Times,serif" font-size="14.00"> v4 = v5</text>
</g>
<!-- Node0x2bfa590&#45;&gt;Node0x2c2f760 -->
<g id="edge7" class="edge"><title>Node0x2bfa590&#45;&gt;Node0x2c2f760</title>
<path fill="none" stroke="black" d="M228.496,-384.114C227.639,-376.158 227.224,-366.343 227.251,-356.588"/>
<polygon fill="black" stroke="black" points="230.752,-356.588 227.44,-346.524 223.753,-356.457 230.752,-356.588"/>
</g>
<!-- Node0x2bfc200 -->
<g id="node8" class="node"><title>Node0x2bfc200</title>
<polygon fill="none" stroke="black" points="486.5,-293.5 486.5,-331.5 599.5,-331.5 599.5,-293.5 486.5,-293.5"/>
<text text-anchor="start" x="494.5" y="-316.3" font-family="Times,serif" font-size="14.00">0x8048d11:</text>
<text text-anchor="start" x="494.5" y="-301.3" font-family="Times,serif" font-size="14.00"> if (v5 != 45):</text>
</g>
<!-- Node0x2bfa590&#45;&gt;Node0x2bfc200 -->
<g id="edge8" class="edge"><title>Node0x2bfa590&#45;&gt;Node0x2bfc200</title>
<path fill="none" stroke="black" d="M310.09,-389.47C358.697,-380.563 422.583,-366.566 477,-347 485.434,-343.967 494.172,-340.101 502.422,-336.079"/>
<polygon fill="black" stroke="black" points="504.132,-339.136 511.486,-331.509 500.981,-332.886 504.132,-339.136"/>
</g>
<!-- Node0x2c2f760&#45;&gt;Node0x2bfa590 -->
<g id="edge9" class="edge"><title>Node0x2c2f760&#45;&gt;Node0x2bfa590</title>
<path fill="none" stroke="black" d="M240.56,-346.524C240.881,-355.607 240.796,-365.357 240.304,-374.086"/>
<polygon fill="black" stroke="black" points="236.811,-373.867 239.504,-384.114 243.789,-374.424 236.811,-373.867"/>
</g>
<!-- Node0x2c32b20 -->
<g id="node9" class="node"><title>Node0x2c32b20</title>
<polygon fill="none" stroke="black" points="413,-188.5 413,-226.5 547,-226.5 547,-188.5 413,-188.5"/>
<text text-anchor="start" x="421" y="-211.3" font-family="Times,serif" font-size="14.00">0x8048d16:</text>
<text text-anchor="start" x="421" y="-196.3" font-family="Times,serif" font-size="14.00"> explode_bomb()</text>
</g>
<!-- Node0x2bfc200&#45;&gt;Node0x2c32b20 -->
<g id="edge10" class="edge"><title>Node0x2bfc200&#45;&gt;Node0x2c32b20</title>
<path fill="none" stroke="black" d="M528.926,-293.38C521.696,-283.718 512.966,-271.484 506,-260 501.296,-252.245 496.666,-243.531 492.647,-235.509"/>
<polygon fill="black" stroke="black" points="495.781,-233.95 488.241,-226.506 489.493,-237.027 495.781,-233.95"/>
<text text-anchor="middle" x="537.5" y="-248.8" font-family="Times,serif" font-size="14.00">v5 != 45</text>
</g>
<!-- Node0x2c34f10 -->
<g id="node10" class="node"><title>Node0x2c34f10</title>
<polygon fill="none" stroke="black" points="500.5,-97.5 500.5,-150.5 601.5,-150.5 601.5,-97.5 500.5,-97.5"/>
<text text-anchor="start" x="508.5" y="-135.3" font-family="Times,serif" font-size="14.00">0x8048d1b:</text>
<text text-anchor="start" x="508.5" y="-120.3" font-family="Times,serif" font-size="14.00"> g2 = v2</text>
<text text-anchor="start" x="508.5" y="-105.3" font-family="Times,serif" font-size="14.00"> g4 = v1</text>
</g>
<!-- Node0x2bfc200&#45;&gt;Node0x2c34f10 -->
<g id="edge11" class="edge"><title>Node0x2bfc200&#45;&gt;Node0x2c34f10</title>
<path fill="none" stroke="black" d="M554.86,-293.239C560.329,-283.739 566.216,-271.692 569,-260 576.916,-226.754 570.156,-188.016 562.768,-160.585"/>
<polygon fill="black" stroke="black" points="566.046,-159.315 559.935,-150.66 559.314,-161.237 566.046,-159.315"/>
<text text-anchor="middle" x="607.5" y="-203.8" font-family="Times,serif" font-size="14.00">v5 == 45</text>
</g>
<!-- Node0x2c32b20&#45;&gt;Node0x2c34f10 -->
<g id="edge12" class="edge"><title>Node0x2c32b20&#45;&gt;Node0x2c34f10</title>
<path fill="none" stroke="black" d="M495.757,-188.413C503.44,-179.593 512.932,-168.697 521.868,-158.44"/>
<polygon fill="black" stroke="black" points="524.624,-160.605 528.553,-150.766 519.346,-156.007 524.624,-160.605"/>
</g>
<!-- Node0x2bbbfc0 -->
<g id="node11" class="node"><title>Node0x2bbbfc0</title>
<polygon fill="none" stroke="black" points="524,-23.5 524,-59.5 578,-59.5 578,-23.5 524,-23.5"/>
<text text-anchor="start" x="532" y="-37.8" font-family="Times,serif" font-size="14.00">exit:</text>
</g>
<!-- Node0x2c34f10&#45;&gt;Node0x2bbbfc0 -->
<g id="edge13" class="edge"><title>Node0x2c34f10&#45;&gt;Node0x2bbbfc0</title>
<path fill="none" stroke="black" d="M551,-97.0862C551,-88.4596 551,-78.8224 551,-70.0748"/>
<polygon fill="black" stroke="black" points="554.5,-69.9735 551,-59.9735 547.5,-69.9735 554.5,-69.9735"/>
</g>
</g>
</svg>
