<?xml version="1.0" encoding="UTF-8" standalone="no"?>
<!DOCTYPE svg PUBLIC "-//W3C//DTD SVG 1.1//EN"
 "http://www.w3.org/Graphics/SVG/1.1/DTD/svg11.dtd">
<!-- Generated by graphviz version 2.38.0 (20140413.2041)
 -->
<!-- Title: Control&#45;flow graph for function &#39;phase_4()&#39;. Pages: 1 -->
<svg width="543pt" height="743pt"
 viewBox="0.00 0.00 543.00 743.00" xmlns="http://www.w3.org/2000/svg" xmlns:xlink="http://www.w3.org/1999/xlink">
<g id="graph0" class="graph" transform="scale(1 1) rotate(0) translate(4 739)">
<title>Control&#45;flow graph for function &#39;phase_4()&#39;.</title>
<polygon fill="white" stroke="none" points="-4,4 -4,-739 539,-739 539,4 -4,4"/>
<text text-anchor="middle" x="267.5" y="-7.8" font-family="Times,serif" font-size="14.00">Control&#45;flow graph for function &#39;phase_4()&#39;.</text>
<!-- Node0x2bfc180 -->
<g id="node1" class="node"><title>Node0x2bfc180</title>
<polygon fill="none" stroke="black" points="191.5,-698.5 191.5,-734.5 250.5,-734.5 250.5,-698.5 191.5,-698.5"/>
<text text-anchor="start" x="199.5" y="-712.8" font-family="Times,serif" font-size="14.00">entry:</text>
</g>
<!-- Node0x2c33bd0 -->
<g id="node2" class="node"><title>Node0x2c33bd0</title>
<polygon fill="none" stroke="black" points="194,-622.5 194,-660.5 248,-660.5 248,-622.5 194,-622.5"/>
<text text-anchor="start" x="202" y="-645.3" font-family="Times,serif" font-size="14.00">str</text>
<text text-anchor="start" x="202" y="-630.3" font-family="Times,serif" font-size="14.00"> v1</text>
</g>
<!-- Node0x2bfc180&#45;&gt;Node0x2c33bd0 -->
<g id="edge1" class="edge"><title>Node0x2bfc180&#45;&gt;Node0x2c33bd0</title>
<path fill="none" stroke="black" d="M221,-698.2C221,-689.99 221,-679.969 221,-670.701"/>
<polygon fill="black" stroke="black" points="224.5,-670.694 221,-660.694 217.5,-670.695 224.5,-670.694"/>
</g>
<!-- Node0x2c33c30 -->
<g id="node3" class="node"><title>Node0x2c33c30</title>
<polygon fill="none" stroke="black" points="95.5,-548.5 95.5,-584.5 346.5,-584.5 346.5,-548.5 95.5,-548.5"/>
<text text-anchor="start" x="103.5" y="-562.8" font-family="Times,serif" font-size="14.00">if (sscanf(str, &quot;%d&quot;, &amp;(v1)) != 1):</text>
</g>
<!-- Node0x2c33bd0&#45;&gt;Node0x2c33c30 -->
<g id="edge2" class="edge"><title>Node0x2c33bd0&#45;&gt;Node0x2c33c30</title>
<path fill="none" stroke="black" d="M221,-622.455C221,-614.201 221,-604.238 221,-595.074"/>
<polygon fill="black" stroke="black" points="224.5,-594.835 221,-584.835 217.5,-594.835 224.5,-594.835"/>
</g>
<!-- Node0x2dfa550 -->
<g id="node4" class="node"><title>Node0x2dfa550</title>
<polygon fill="none" stroke="black" points="40,-443.5 40,-496.5 174,-496.5 174,-443.5 40,-443.5"/>
<text text-anchor="start" x="48" y="-481.3" font-family="Times,serif" font-size="14.00">0x8048d4e:</text>
<text text-anchor="start" x="48" y="-466.3" font-family="Times,serif" font-size="14.00"> explode_bomb()</text>
<text text-anchor="start" x="48" y="-451.3" font-family="Times,serif" font-size="14.00"> func4()</text>
</g>
<!-- Node0x2c33c30&#45;&gt;Node0x2dfa550 -->
<g id="edge3" class="edge"><title>Node0x2c33c30&#45;&gt;Node0x2dfa550</title>
<path fill="none" stroke="black" d="M129.329,-548.478C121.096,-543.709 113.723,-537.66 108,-530 103.03,-523.349 101.107,-514.995 100.8,-506.684"/>
<polygon fill="black" stroke="black" points="104.298,-506.795 101.13,-496.685 97.3016,-506.564 104.298,-506.795"/>
<text text-anchor="middle" x="211" y="-518.8" font-family="Times,serif" font-size="14.00">sscanf(str, &quot;%d&quot;, &amp;(v1)) != 1</text>
</g>
<!-- Node0x2df8170 -->
<g id="node5" class="node"><title>Node0x2df8170</title>
<polygon fill="none" stroke="black" points="264,-451 264,-489 408,-489 408,-451 264,-451"/>
<text text-anchor="start" x="272" y="-473.8" font-family="Times,serif" font-size="14.00">0x8048d48:</text>
<text text-anchor="start" x="272" y="-458.8" font-family="Times,serif" font-size="14.00"> if (v1 &lt;= NULL):</text>
</g>
<!-- Node0x2c33c30&#45;&gt;Node0x2df8170 -->
<g id="edge4" class="edge"><title>Node0x2c33c30&#45;&gt;Node0x2df8170</title>
<path fill="none" stroke="black" d="M287.275,-548.342C297.106,-543.61 306.453,-537.606 314,-530 322.286,-521.65 327.493,-509.894 330.746,-499.072"/>
<polygon fill="black" stroke="black" points="334.203,-499.681 333.302,-489.124 327.424,-497.938 334.203,-499.681"/>
<text text-anchor="middle" x="429" y="-518.8" font-family="Times,serif" font-size="14.00">sscanf(str, &quot;%d&quot;, &amp;(v1)) == 1</text>
</g>
<!-- Node0x2b3b1a0 -->
<g id="node6" class="node"><title>Node0x2b3b1a0</title>
<polygon fill="none" stroke="black" points="34.5,-354.5 34.5,-390.5 179.5,-390.5 179.5,-354.5 34.5,-354.5"/>
<text text-anchor="start" x="42.5" y="-368.8" font-family="Times,serif" font-size="14.00">if (g1 != 117649):</text>
</g>
<!-- Node0x2dfa550&#45;&gt;Node0x2b3b1a0 -->
<g id="edge5" class="edge"><title>Node0x2dfa550&#45;&gt;Node0x2b3b1a0</title>
<path fill="none" stroke="black" d="M107,-443.408C107,-430.242 107,-414.188 107,-400.786"/>
<polygon fill="black" stroke="black" points="110.5,-400.713 107,-390.713 103.5,-400.713 110.5,-400.713"/>
</g>
<!-- Node0x2cb3490 -->
<g id="node7" class="node"><title>Node0x2cb3490</title>
<polygon fill="none" stroke="black" points="236,-353.5 236,-391.5 370,-391.5 370,-353.5 236,-353.5"/>
<text text-anchor="start" x="244" y="-376.3" font-family="Times,serif" font-size="14.00">0x8048d4e:</text>
<text text-anchor="start" x="244" y="-361.3" font-family="Times,serif" font-size="14.00"> explode_bomb()</text>
</g>
<!-- Node0x2df8170&#45;&gt;Node0x2cb3490 -->
<g id="edge6" class="edge"><title>Node0x2df8170&#45;&gt;Node0x2cb3490</title>
<path fill="none" stroke="black" d="M316.805,-450.593C310.506,-443.294 304.282,-434.399 301,-425 298.445,-417.682 297.848,-409.42 298.176,-401.691"/>
<polygon fill="black" stroke="black" points="301.672,-401.897 299.101,-391.619 294.701,-401.257 301.672,-401.897"/>
<text text-anchor="middle" x="348" y="-413.8" font-family="Times,serif" font-size="14.00">v1 &lt;= NULL</text>
</g>
<!-- Node0x2dfb980 -->
<g id="node8" class="node"><title>Node0x2dfb980</title>
<polygon fill="none" stroke="black" points="331.5,-263.5 331.5,-301.5 432.5,-301.5 432.5,-263.5 331.5,-263.5"/>
<text text-anchor="start" x="339.5" y="-286.3" font-family="Times,serif" font-size="14.00">0x8048d53:</text>
<text text-anchor="start" x="339.5" y="-271.3" font-family="Times,serif" font-size="14.00"> func4()</text>
</g>
<!-- Node0x2df8170&#45;&gt;Node0x2dfb980 -->
<g id="edge7" class="edge"><title>Node0x2df8170&#45;&gt;Node0x2dfb980</title>
<path fill="none" stroke="black" d="M371.127,-450.9C380.626,-444.145 389.728,-435.507 395,-425 413.109,-388.904 402.743,-341.113 392.914,-311.342"/>
<polygon fill="black" stroke="black" points="396.115,-309.894 389.507,-301.612 389.508,-312.207 396.115,-309.894"/>
<text text-anchor="middle" x="445" y="-368.8" font-family="Times,serif" font-size="14.00">v1 &gt; NULL</text>
</g>
<!-- Node0x2bcc730 -->
<g id="node9" class="node"><title>Node0x2bcc730</title>
<polygon fill="none" stroke="black" points="0,-263.5 0,-301.5 134,-301.5 134,-263.5 0,-263.5"/>
<text text-anchor="start" x="8" y="-286.3" font-family="Times,serif" font-size="14.00">0x8048d65:</text>
<text text-anchor="start" x="8" y="-271.3" font-family="Times,serif" font-size="14.00"> explode_bomb()</text>
</g>
<!-- Node0x2b3b1a0&#45;&gt;Node0x2bcc730 -->
<g id="edge8" class="edge"><title>Node0x2b3b1a0&#45;&gt;Node0x2bcc730</title>
<path fill="none" stroke="black" d="M77.8107,-354.156C71.4403,-348.868 65.5482,-342.447 62,-335 58.6147,-327.895 58.1321,-319.622 58.9619,-311.812"/>
<polygon fill="black" stroke="black" points="62.412,-312.4 60.6749,-301.949 55.5152,-311.202 62.412,-312.4"/>
<text text-anchor="middle" x="112" y="-323.8" font-family="Times,serif" font-size="14.00">g1 != 117649</text>
</g>
<!-- Node0x2d4c880 -->
<g id="node10" class="node"><title>Node0x2d4c880</title>
<polygon fill="none" stroke="black" points="110.5,-187.5 110.5,-225.5 211.5,-225.5 211.5,-187.5 110.5,-187.5"/>
<text text-anchor="start" x="118.5" y="-210.3" font-family="Times,serif" font-size="14.00">0x8048d6a:</text>
<text text-anchor="start" x="118.5" y="-195.3" font-family="Times,serif" font-size="14.00"> return</text>
</g>
<!-- Node0x2b3b1a0&#45;&gt;Node0x2d4c880 -->
<g id="edge9" class="edge"><title>Node0x2b3b1a0&#45;&gt;Node0x2d4c880</title>
<path fill="none" stroke="black" d="M143.947,-354.325C151.19,-349.176 157.828,-342.776 162,-335 178.538,-304.176 174.278,-262.824 168.595,-235.687"/>
<polygon fill="black" stroke="black" points="171.949,-234.654 166.301,-225.689 165.126,-236.219 171.949,-234.654"/>
<text text-anchor="middle" x="227" y="-278.8" font-family="Times,serif" font-size="14.00">g1 == 117649</text>
</g>
<!-- Node0x2cb3490&#45;&gt;Node0x2dfb980 -->
<g id="edge10" class="edge"><title>Node0x2cb3490&#45;&gt;Node0x2dfb980</title>
<path fill="none" stroke="black" d="M319.369,-353.266C330.809,-340.523 346.245,-323.328 358.931,-309.198"/>
<polygon fill="black" stroke="black" points="361.576,-311.49 365.652,-301.71 356.367,-306.814 361.576,-311.49"/>
</g>
<!-- Node0x2ea3c60 -->
<g id="node11" class="node"><title>Node0x2ea3c60</title>
<polygon fill="none" stroke="black" points="309.5,-188.5 309.5,-224.5 454.5,-224.5 454.5,-188.5 309.5,-188.5"/>
<text text-anchor="start" x="317.5" y="-202.8" font-family="Times,serif" font-size="14.00">if (g1 != 117649):</text>
</g>
<!-- Node0x2dfb980&#45;&gt;Node0x2ea3c60 -->
<g id="edge11" class="edge"><title>Node0x2dfb980&#45;&gt;Node0x2ea3c60</title>
<path fill="none" stroke="black" d="M382,-263.208C382,-254.625 382,-244.22 382,-234.736"/>
<polygon fill="black" stroke="black" points="385.5,-234.567 382,-224.567 378.5,-234.567 385.5,-234.567"/>
</g>
<!-- Node0x2bcc730&#45;&gt;Node0x2d4c880 -->
<g id="edge12" class="edge"><title>Node0x2bcc730&#45;&gt;Node0x2d4c880</title>
<path fill="none" stroke="black" d="M90.236,-263.208C102.188,-253.799 116.923,-242.199 129.847,-232.025"/>
<polygon fill="black" stroke="black" points="132.339,-234.517 138.031,-225.582 128.009,-229.017 132.339,-234.517"/>
</g>
<!-- Node0x2b1fc10 -->
<g id="node12" class="node"><title>Node0x2b1fc10</title>
<polygon fill="none" stroke="black" points="180,-23.5 180,-59.5 234,-59.5 234,-23.5 180,-23.5"/>
<text text-anchor="start" x="188" y="-37.8" font-family="Times,serif" font-size="14.00">exit:</text>
</g>
<!-- Node0x2d4c880&#45;&gt;Node0x2b1fc10 -->
<g id="edge13" class="edge"><title>Node0x2d4c880&#45;&gt;Node0x2b1fc10</title>
<path fill="none" stroke="black" d="M164.086,-187.214C167.977,-165.451 175.344,-128.141 185,-97 187.854,-87.7947 191.597,-77.9631 195.185,-69.2204"/>
<polygon fill="black" stroke="black" points="198.453,-70.4781 199.113,-59.9038 192.003,-67.7584 198.453,-70.4781"/>
</g>
<!-- Node0x2ea3c60&#45;&gt;Node0x2b1fc10 -->
<g id="edge15" class="edge"><title>Node0x2ea3c60&#45;&gt;Node0x2b1fc10</title>
<path fill="none" stroke="black" d="M309.212,-192.806C275.478,-183.051 238.058,-165.929 216,-136 202.058,-117.083 200.96,-89.8368 202.664,-69.6324"/>
<polygon fill="black" stroke="black" points="206.163,-69.8374 203.796,-59.5104 199.206,-69.0594 206.163,-69.8374"/>
<text text-anchor="middle" x="269" y="-112.8" font-family="Times,serif" font-size="14.00">g1 == 117649</text>
</g>
<!-- Node0x2ba1ca0 -->
<g id="node13" class="node"><title>Node0x2ba1ca0</title>
<polygon fill="none" stroke="black" points="331,-97.5 331,-135.5 465,-135.5 465,-97.5 331,-97.5"/>
<text text-anchor="start" x="339" y="-120.3" font-family="Times,serif" font-size="14.00">0x8048d65:</text>
<text text-anchor="start" x="339" y="-105.3" font-family="Times,serif" font-size="14.00"> explode_bomb()</text>
</g>
<!-- Node0x2ea3c60&#45;&gt;Node0x2ba1ca0 -->
<g id="edge14" class="edge"><title>Node0x2ea3c60&#45;&gt;Node0x2ba1ca0</title>
<path fill="none" stroke="black" d="M385.161,-188.114C387.353,-176.06 390.321,-159.736 392.851,-145.82"/>
<polygon fill="black" stroke="black" points="396.335,-146.224 394.68,-135.759 389.448,-144.971 396.335,-146.224"/>
<text text-anchor="middle" x="440" y="-157.8" font-family="Times,serif" font-size="14.00">g1 != 117649</text>
</g>
<!-- Node0x2ba1ca0&#45;&gt;Node0x2b1fc10 -->
<g id="edge16" class="edge"><title>Node0x2ba1ca0&#45;&gt;Node0x2b1fc10</title>
<path fill="none" stroke="black" d="M350.787,-97.4551C317.692,-84.8064 274.099,-68.1453 243.624,-56.4975"/>
<polygon fill="black" stroke="black" points="244.81,-53.2042 234.22,-52.9034 242.311,-59.7429 244.81,-53.2042"/>
</g>
</g>
</svg>
