<?xml version="1.0" encoding="UTF-8" standalone="no"?>
<!DOCTYPE svg PUBLIC "-//W3C//DTD SVG 1.1//EN"
 "http://www.w3.org/Graphics/SVG/1.1/DTD/svg11.dtd">
<!-- Generated by graphviz version 2.38.0 (20140413.2041)
 -->
<!-- Title: Control&#45;flow graph for function &#39;explode_bomb()&#39;. Pages: 1 -->
<svg width="377pt" height="291pt"
 viewBox="0.00 0.00 377.00 291.00" xmlns="http://www.w3.org/2000/svg" xmlns:xlink="http://www.w3.org/1999/xlink">
<g id="graph0" class="graph" transform="scale(1 1) rotate(0) translate(4 287)">
<title>Control&#45;flow graph for function &#39;explode_bomb()&#39;.</title>
<polygon fill="white" stroke="none" points="-4,4 -4,-287 373,-287 373,4 -4,4"/>
<text text-anchor="middle" x="184.5" y="-7.8" font-family="Times,serif" font-size="14.00">Control&#45;flow graph for function &#39;explode_bomb()&#39;.</text>
<!-- Node0x2e4b7b0 -->
<g id="node1" class="node"><title>Node0x2e4b7b0</title>
<polygon fill="none" stroke="black" points="155,-246.5 155,-282.5 214,-282.5 214,-246.5 155,-246.5"/>
<text text-anchor="start" x="163" y="-260.8" font-family="Times,serif" font-size="14.00">entry:</text>
</g>
<!-- Node0x2ca7390 -->
<g id="node2" class="node"><title>Node0x2ca7390</title>
<polygon fill="none" stroke="black" points="26,-96.5 26,-209.5 343,-209.5 343,-96.5 26,-96.5"/>
<text text-anchor="start" x="34" y="-194.3" font-family="Times,serif" font-size="14.00">0x80491d6:</text>
<text text-anchor="start" x="34" y="-179.3" font-family="Times,serif" font-size="14.00"> puts(&quot;\nBOOM!!!&quot;)</text>
<text text-anchor="start" x="34" y="-164.3" font-family="Times,serif" font-size="14.00"> puts(&quot;The bomb has blown up.&quot;)</text>
<text text-anchor="start" x="34" y="-149.3" font-family="Times,serif" font-size="14.00"> send_msg()</text>
<text text-anchor="start" x="34" y="-134.3" font-family="Times,serif" font-size="14.00"> puts(&quot;Your instructor has been notified.&quot;)</text>
<text text-anchor="start" x="34" y="-119.3" font-family="Times,serif" font-size="14.00"> exit(8)</text>
<text text-anchor="start" x="34" y="-104.3" font-family="Times,serif" font-size="14.00"> # UNREACHABLE</text>
</g>
<!-- Node0x2e4b7b0&#45;&gt;Node0x2ca7390 -->
<g id="edge1" class="edge"><title>Node0x2e4b7b0&#45;&gt;Node0x2ca7390</title>
<path fill="none" stroke="black" d="M184.5,-246.391C184.5,-238.98 184.5,-229.786 184.5,-220.096"/>
<polygon fill="black" stroke="black" points="188,-219.873 184.5,-209.873 181,-219.873 188,-219.873"/>
</g>
<!-- Node0x2c06180 -->
<g id="node3" class="node"><title>Node0x2c06180</title>
<polygon fill="none" stroke="black" points="157.5,-23.5 157.5,-59.5 211.5,-59.5 211.5,-23.5 157.5,-23.5"/>
<text text-anchor="start" x="165.5" y="-37.8" font-family="Times,serif" font-size="14.00">exit:</text>
</g>
<!-- Node0x2ca7390&#45;&gt;Node0x2c06180 -->
<g id="edge2" class="edge"><title>Node0x2ca7390&#45;&gt;Node0x2c06180</title>
<path fill="none" stroke="black" d="M184.5,-96.2876C184.5,-87.1343 184.5,-78.0169 184.5,-69.9591"/>
<polygon fill="black" stroke="black" points="188,-69.7241 184.5,-59.7242 181,-69.7242 188,-69.7241"/>
</g>
</g>
</svg>
