<?xml version="1.0" encoding="UTF-8" standalone="no"?>
<!DOCTYPE svg PUBLIC "-//W3C//DTD SVG 1.1//EN"
 "http://www.w3.org/Graphics/SVG/1.1/DTD/svg11.dtd">
<!-- Generated by graphviz version 2.38.0 (20140413.2041)
 -->
<!-- Title: Control&#45;flow graph for function &#39;phase_3()&#39;. Pages: 1 -->
<svg width="1598pt" height="955pt"
 viewBox="0.00 0.00 1597.71 955.00" xmlns="http://www.w3.org/2000/svg" xmlns:xlink="http://www.w3.org/1999/xlink">
<g id="graph0" class="graph" transform="scale(1 1) rotate(0) translate(4 951)">
<title>Control&#45;flow graph for function &#39;phase_3()&#39;.</title>
<polygon fill="white" stroke="none" points="-4,4 -4,-951 1593.71,-951 1593.71,4 -4,4"/>
<text text-anchor="middle" x="794.855" y="-7.8" font-family="Times,serif" font-size="14.00">Control&#45;flow graph for function &#39;phase_3()&#39;.</text>
<!-- Node0x2df8050 -->
<g id="node1" class="node"><title>Node0x2df8050</title>
<polygon fill="none" stroke="black" points="974.711,-910.5 974.711,-946.5 1033.71,-946.5 1033.71,-910.5 974.711,-910.5"/>
<text text-anchor="start" x="982.711" y="-924.8" font-family="Times,serif" font-size="14.00">entry:</text>
</g>
<!-- Node0x2ea2e90 -->
<g id="node2" class="node"><title>Node0x2ea2e90</title>
<polygon fill="none" stroke="black" points="977.211,-819.5 977.211,-872.5 1031.21,-872.5 1031.21,-819.5 977.211,-819.5"/>
<text text-anchor="start" x="985.211" y="-857.3" font-family="Times,serif" font-size="14.00">str</text>
<text text-anchor="start" x="985.211" y="-842.3" font-family="Times,serif" font-size="14.00"> v1</text>
<text text-anchor="start" x="985.211" y="-827.3" font-family="Times,serif" font-size="14.00"> v2</text>
</g>
<!-- Node0x2df8050&#45;&gt;Node0x2ea2e90 -->
<g id="edge1" class="edge"><title>Node0x2df8050&#45;&gt;Node0x2ea2e90</title>
<path fill="none" stroke="black" d="M1004.21,-910.428C1004.21,-902.361 1004.21,-892.411 1004.21,-882.802"/>
<polygon fill="black" stroke="black" points="1007.71,-882.616 1004.21,-872.616 1000.71,-882.616 1007.71,-882.616"/>
</g>
<!-- Node0x2daa420 -->
<g id="node3" class="node"><title>Node0x2daa420</title>
<polygon fill="none" stroke="black" points="837.211,-745.5 837.211,-781.5 1171.21,-781.5 1171.21,-745.5 837.211,-745.5"/>
<text text-anchor="start" x="845.211" y="-759.8" font-family="Times,serif" font-size="14.00">if (sscanf(str, &quot;%d %d&quot;, &amp;(v1), &amp;(v2)) &lt;= 1):</text>
</g>
<!-- Node0x2ea2e90&#45;&gt;Node0x2daa420 -->
<g id="edge2" class="edge"><title>Node0x2ea2e90&#45;&gt;Node0x2daa420</title>
<path fill="none" stroke="black" d="M1004.21,-819.086C1004.21,-810.46 1004.21,-800.822 1004.21,-792.075"/>
<polygon fill="black" stroke="black" points="1007.71,-791.973 1004.21,-781.974 1000.71,-791.974 1007.71,-791.973"/>
</g>
<!-- Node0x2cb9a50 -->
<g id="node4" class="node"><title>Node0x2cb9a50</title>
<polygon fill="none" stroke="black" points="886.211,-655.5 886.211,-693.5 1020.21,-693.5 1020.21,-655.5 886.211,-655.5"/>
<text text-anchor="start" x="894.211" y="-678.3" font-family="Times,serif" font-size="14.00">0x8048d98:</text>
<text text-anchor="start" x="894.211" y="-663.3" font-family="Times,serif" font-size="14.00"> explode_bomb()</text>
</g>
<!-- Node0x2daa420&#45;&gt;Node0x2cb9a50 -->
<g id="edge3" class="edge"><title>Node0x2daa420&#45;&gt;Node0x2cb9a50</title>
<path fill="none" stroke="black" d="M890.913,-745.418C873.405,-740.562 859.147,-734.494 853.211,-727 840.478,-710.927 855.013,-699.376 876.59,-691.34"/>
<polygon fill="black" stroke="black" points="877.844,-694.611 886.209,-688.109 875.615,-687.975 877.844,-694.611"/>
<text text-anchor="middle" x="997.711" y="-715.8" font-family="Times,serif" font-size="14.00">sscanf(str, &quot;%d %d&quot;, &amp;(v1), &amp;(v2)) &lt;= 1</text>
</g>
<!-- Node0x2ca1fd0 -->
<g id="node5" class="node"><title>Node0x2ca1fd0</title>
<polygon fill="none" stroke="black" points="1048.71,-579.5 1048.71,-617.5 1149.71,-617.5 1149.71,-579.5 1048.71,-579.5"/>
<text text-anchor="start" x="1056.71" y="-602.3" font-family="Times,serif" font-size="14.00">0x8048d9d:</text>
<text text-anchor="start" x="1056.71" y="-587.3" font-family="Times,serif" font-size="14.00"> v3</text>
</g>
<!-- Node0x2daa420&#45;&gt;Node0x2ca1fd0 -->
<g id="edge4" class="edge"><title>Node0x2daa420&#45;&gt;Node0x2ca1fd0</title>
<path fill="none" stroke="black" d="M1104.75,-745.449C1122.14,-740.495 1136.49,-734.38 1142.21,-727 1165.56,-696.885 1141.69,-653.379 1121.3,-625.777"/>
<polygon fill="black" stroke="black" points="1124.01,-623.553 1115.14,-617.753 1118.46,-627.816 1124.01,-623.553"/>
<text text-anchor="middle" x="1290.71" y="-670.8" font-family="Times,serif" font-size="14.00">sscanf(str, &quot;%d %d&quot;, &amp;(v1), &amp;(v2)) &gt; 1</text>
</g>
<!-- Node0x2cb9a50&#45;&gt;Node0x2ca1fd0 -->
<g id="edge5" class="edge"><title>Node0x2cb9a50&#45;&gt;Node0x2ca1fd0</title>
<path fill="none" stroke="black" d="M988.926,-655.398C1008.71,-645.371 1033.48,-632.814 1054.54,-622.143"/>
<polygon fill="black" stroke="black" points="1056.27,-625.187 1063.61,-617.544 1053.11,-618.943 1056.27,-625.187"/>
</g>
<!-- Node0x2db4110 -->
<g id="node6" class="node"><title>Node0x2db4110</title>
<polygon fill="none" stroke="black" points="1054.21,-383.5 1054.21,-541.5 1144.21,-541.5 1144.21,-383.5 1054.21,-383.5"/>
<text text-anchor="start" x="1062.21" y="-526.3" font-family="Times,serif" font-size="14.00">switch v1:</text>
<text text-anchor="start" x="1062.21" y="-511.3" font-family="Times,serif" font-size="14.00"> default:</text>
<text text-anchor="start" x="1062.21" y="-496.3" font-family="Times,serif" font-size="14.00"> case 0:</text>
<text text-anchor="start" x="1062.21" y="-481.3" font-family="Times,serif" font-size="14.00"> case 1:</text>
<text text-anchor="start" x="1062.21" y="-466.3" font-family="Times,serif" font-size="14.00"> case 2:</text>
<text text-anchor="start" x="1062.21" y="-451.3" font-family="Times,serif" font-size="14.00"> case 3:</text>
<text text-anchor="start" x="1062.21" y="-436.3" font-family="Times,serif" font-size="14.00"> case 4:</text>
<text text-anchor="start" x="1062.21" y="-421.3" font-family="Times,serif" font-size="14.00"> case 5:</text>
<text text-anchor="start" x="1062.21" y="-406.3" font-family="Times,serif" font-size="14.00"> case 6:</text>
<text text-anchor="start" x="1062.21" y="-391.3" font-family="Times,serif" font-size="14.00"> case 7:</text>
</g>
<!-- Node0x2ca1fd0&#45;&gt;Node0x2db4110 -->
<g id="edge6" class="edge"><title>Node0x2ca1fd0&#45;&gt;Node0x2db4110</title>
<path fill="none" stroke="black" d="M1099.21,-579.428C1099.21,-571.741 1099.21,-562.164 1099.21,-551.831"/>
<polygon fill="black" stroke="black" points="1102.71,-551.73 1099.21,-541.73 1095.71,-551.73 1102.71,-551.73"/>
</g>
<!-- Node0x2d739b0 -->
<g id="node7" class="node"><title>Node0x2d739b0</title>
<polygon fill="none" stroke="black" points="222.211,-263.5 222.211,-331.5 356.211,-331.5 356.211,-263.5 222.211,-263.5"/>
<text text-anchor="start" x="230.211" y="-316.3" font-family="Times,serif" font-size="14.00">0x8048de5:</text>
<text text-anchor="start" x="230.211" y="-301.3" font-family="Times,serif" font-size="14.00"> explode_bomb()</text>
<text text-anchor="start" x="230.211" y="-286.3" font-family="Times,serif" font-size="14.00"> v3 = 0</text>
<text text-anchor="start" x="230.211" y="-271.3" font-family="Times,serif" font-size="14.00"> break</text>
</g>
<!-- Node0x2db4110&#45;&gt;Node0x2d739b0 -->
<g id="edge7" class="edge"><title>Node0x2db4110&#45;&gt;Node0x2d739b0</title>
<path fill="none" stroke="black" d="M1053.9,-461.027C856.243,-458.504 76.1851,-443.597 4.2105,-365 -25.7516,-332.281 117.793,-313.256 212.064,-304.467"/>
<polygon fill="black" stroke="black" points="212.521,-307.94 222.162,-303.547 211.886,-300.969 212.521,-307.94"/>
<text text-anchor="middle" x="414.211" y="-353.8" font-family="Times,serif" font-size="14.00">(((((((v1 != 0) and (v1 != 1)) and (v1 != 2)) and (v1 != 3)) and (v1 != 4)) and (v1 != 5)) and (v1 != 6)) and (v1 != 7)</text>
</g>
<!-- Node0x2c0d550 -->
<g id="node8" class="node"><title>Node0x2c0d550</title>
<polygon fill="none" stroke="black" points="655.711,-271 655.711,-324 756.711,-324 756.711,-271 655.711,-271"/>
<text text-anchor="start" x="663.711" y="-308.8" font-family="Times,serif" font-size="14.00">0x8048db4:</text>
<text text-anchor="start" x="663.711" y="-293.8" font-family="Times,serif" font-size="14.00"> v3 = 680</text>
<text text-anchor="start" x="663.711" y="-278.8" font-family="Times,serif" font-size="14.00"> break</text>
</g>
<!-- Node0x2db4110&#45;&gt;Node0x2c0d550 -->
<g id="edge8" class="edge"><title>Node0x2db4110&#45;&gt;Node0x2c0d550</title>
<path fill="none" stroke="black" d="M1054.14,-448.782C1002.26,-433.129 915.425,-403.786 847.211,-365 837.858,-359.682 837.787,-354.904 828.211,-350 802.291,-336.726 792.062,-343.269 765.211,-332 762.701,-330.947 760.163,-329.81 757.623,-328.615"/>
<polygon fill="black" stroke="black" points="758.976,-325.379 748.463,-324.069 755.864,-331.649 758.976,-325.379"/>
<text text-anchor="middle" x="877.211" y="-353.8" font-family="Times,serif" font-size="14.00">v1 == 0</text>
</g>
<!-- Node0x2d8b850 -->
<g id="node9" class="node"><title>Node0x2d8b850</title>
<polygon fill="none" stroke="black" points="774.711,-271 774.711,-324 875.711,-324 875.711,-271 774.711,-271"/>
<text text-anchor="start" x="782.711" y="-308.8" font-family="Times,serif" font-size="14.00">0x8048dad:</text>
<text text-anchor="start" x="782.711" y="-293.8" font-family="Times,serif" font-size="14.00"> v3 = 214</text>
<text text-anchor="start" x="782.711" y="-278.8" font-family="Times,serif" font-size="14.00"> break</text>
</g>
<!-- Node0x2db4110&#45;&gt;Node0x2d8b850 -->
<g id="edge9" class="edge"><title>Node0x2db4110&#45;&gt;Node0x2d8b850</title>
<path fill="none" stroke="black" d="M1053.99,-438.068C1019.31,-419.532 970.681,-392.307 930.211,-365 921.292,-358.982 920.066,-356.11 911.211,-350 901.139,-343.051 890.112,-336.034 879.414,-329.511"/>
<polygon fill="black" stroke="black" points="880.906,-326.324 870.534,-324.16 877.293,-332.319 880.906,-326.324"/>
<text text-anchor="middle" x="960.211" y="-353.8" font-family="Times,serif" font-size="14.00">v1 == 1</text>
</g>
<!-- Node0x2e1a400 -->
<g id="node10" class="node"><title>Node0x2e1a400</title>
<polygon fill="none" stroke="black" points="893.711,-271 893.711,-324 994.711,-324 994.711,-271 893.711,-271"/>
<text text-anchor="start" x="901.711" y="-308.8" font-family="Times,serif" font-size="14.00">0x8048dbb:</text>
<text text-anchor="start" x="901.711" y="-293.8" font-family="Times,serif" font-size="14.00"> v3 = 760</text>
<text text-anchor="start" x="901.711" y="-278.8" font-family="Times,serif" font-size="14.00"> break</text>
</g>
<!-- Node0x2db4110&#45;&gt;Node0x2e1a400 -->
<g id="edge10" class="edge"><title>Node0x2db4110&#45;&gt;Node0x2e1a400</title>
<path fill="none" stroke="black" d="M1054.15,-413.327C1035.64,-393.63 1013.96,-370.66 994.211,-350 988.518,-344.047 982.433,-337.735 976.536,-331.646"/>
<polygon fill="black" stroke="black" points="978.687,-328.837 969.212,-324.097 973.663,-333.712 978.687,-328.837"/>
<text text-anchor="middle" x="1036.21" y="-353.8" font-family="Times,serif" font-size="14.00">v1 == 2</text>
</g>
<!-- Node0x2e1a520 -->
<g id="node11" class="node"><title>Node0x2e1a520</title>
<polygon fill="none" stroke="black" points="1012.71,-271 1012.71,-324 1113.71,-324 1113.71,-271 1012.71,-271"/>
<text text-anchor="start" x="1020.71" y="-308.8" font-family="Times,serif" font-size="14.00">0x8048dc2:</text>
<text text-anchor="start" x="1020.71" y="-293.8" font-family="Times,serif" font-size="14.00"> v3 = 873</text>
<text text-anchor="start" x="1020.71" y="-278.8" font-family="Times,serif" font-size="14.00"> break</text>
</g>
<!-- Node0x2db4110&#45;&gt;Node0x2e1a520 -->
<g id="edge11" class="edge"><title>Node0x2db4110&#45;&gt;Node0x2e1a520</title>
<path fill="none" stroke="black" d="M1084.52,-383.371C1082.2,-372.145 1079.73,-360.758 1077.21,-350 1076,-344.833 1074.63,-339.399 1073.23,-334.078"/>
<polygon fill="black" stroke="black" points="1076.52,-332.83 1070.55,-324.081 1069.76,-334.647 1076.52,-332.83"/>
<text text-anchor="middle" x="1110.21" y="-353.8" font-family="Times,serif" font-size="14.00">v1 == 3</text>
</g>
<!-- Node0x2cbc780 -->
<g id="node12" class="node"><title>Node0x2cbc780</title>
<polygon fill="none" stroke="black" points="1131.71,-271 1131.71,-324 1232.71,-324 1232.71,-271 1131.71,-271"/>
<text text-anchor="start" x="1139.71" y="-308.8" font-family="Times,serif" font-size="14.00">0x8048dc9:</text>
<text text-anchor="start" x="1139.71" y="-293.8" font-family="Times,serif" font-size="14.00"> v3 = 809</text>
<text text-anchor="start" x="1139.71" y="-278.8" font-family="Times,serif" font-size="14.00"> break</text>
</g>
<!-- Node0x2db4110&#45;&gt;Node0x2cbc780 -->
<g id="edge12" class="edge"><title>Node0x2db4110&#45;&gt;Node0x2cbc780</title>
<path fill="none" stroke="black" d="M1139.01,-383.342C1147.95,-365.782 1157,-348.014 1164.49,-333.308"/>
<polygon fill="black" stroke="black" points="1167.75,-334.618 1169.17,-324.119 1161.51,-331.442 1167.75,-334.618"/>
<text text-anchor="middle" x="1186.21" y="-353.8" font-family="Times,serif" font-size="14.00">v1 == 4</text>
</g>
<!-- Node0x2b1e3a0 -->
<g id="node13" class="node"><title>Node0x2b1e3a0</title>
<polygon fill="none" stroke="black" points="1250.71,-271 1250.71,-324 1351.71,-324 1351.71,-271 1250.71,-271"/>
<text text-anchor="start" x="1258.71" y="-308.8" font-family="Times,serif" font-size="14.00">0x8048dd0:</text>
<text text-anchor="start" x="1258.71" y="-293.8" font-family="Times,serif" font-size="14.00"> v3 = 874</text>
<text text-anchor="start" x="1258.71" y="-278.8" font-family="Times,serif" font-size="14.00"> break</text>
</g>
<!-- Node0x2db4110&#45;&gt;Node0x2b1e3a0 -->
<g id="edge13" class="edge"><title>Node0x2db4110&#45;&gt;Node0x2b1e3a0</title>
<path fill="none" stroke="black" d="M1144.44,-425.678C1167.23,-407.566 1195.25,-385.198 1220.21,-365 1233.91,-353.911 1248.85,-341.69 1262.12,-330.782"/>
<polygon fill="black" stroke="black" points="1264.64,-333.239 1270.14,-324.182 1260.19,-327.833 1264.64,-333.239"/>
<text text-anchor="middle" x="1268.21" y="-353.8" font-family="Times,serif" font-size="14.00">v1 == 5</text>
</g>
<!-- Node0x2e77950 -->
<g id="node14" class="node"><title>Node0x2e77950</title>
<polygon fill="none" stroke="black" points="1369.71,-271 1369.71,-324 1470.71,-324 1470.71,-271 1369.71,-271"/>
<text text-anchor="start" x="1377.71" y="-308.8" font-family="Times,serif" font-size="14.00">0x8048dd7:</text>
<text text-anchor="start" x="1377.71" y="-293.8" font-family="Times,serif" font-size="14.00"> v3 = 86</text>
<text text-anchor="start" x="1377.71" y="-278.8" font-family="Times,serif" font-size="14.00"> break</text>
</g>
<!-- Node0x2db4110&#45;&gt;Node0x2e77950 -->
<g id="edge14" class="edge"><title>Node0x2db4110&#45;&gt;Node0x2e77950</title>
<path fill="none" stroke="black" d="M1144.4,-441.111C1185.83,-422.16 1248.69,-392.759 1302.21,-365 1323.94,-353.73 1347.51,-340.629 1367.83,-329.051"/>
<polygon fill="black" stroke="black" points="1369.68,-332.026 1376.62,-324.022 1366.2,-325.95 1369.68,-332.026"/>
<text text-anchor="middle" x="1359.21" y="-353.8" font-family="Times,serif" font-size="14.00">v1 == 6</text>
</g>
<!-- Node0x2bb6430 -->
<g id="node15" class="node"><title>Node0x2bb6430</title>
<polygon fill="none" stroke="black" points="1488.71,-271 1488.71,-324 1589.71,-324 1589.71,-271 1488.71,-271"/>
<text text-anchor="start" x="1496.71" y="-308.8" font-family="Times,serif" font-size="14.00">0x8048dde:</text>
<text text-anchor="start" x="1496.71" y="-293.8" font-family="Times,serif" font-size="14.00"> v3 = 934</text>
<text text-anchor="start" x="1496.71" y="-278.8" font-family="Times,serif" font-size="14.00"> break</text>
</g>
<!-- Node0x2db4110&#45;&gt;Node0x2bb6430 -->
<g id="edge15" class="edge"><title>Node0x2db4110&#45;&gt;Node0x2bb6430</title>
<path fill="none" stroke="black" d="M1144.33,-449.595C1216.78,-429.717 1362.75,-386.517 1479.21,-332 1481.48,-330.938 1483.78,-329.825 1486.09,-328.676"/>
<polygon fill="black" stroke="black" points="1487.72,-331.776 1495.02,-324.1 1484.52,-325.546 1487.72,-331.776"/>
<text text-anchor="middle" x="1460.21" y="-353.8" font-family="Times,serif" font-size="14.00">v1 == 7</text>
</g>
<!-- Node0x2e3a420 -->
<g id="node16" class="node"><title>Node0x2e3a420</title>
<polygon fill="none" stroke="black" points="1007.21,-187.5 1007.21,-225.5 1119.21,-225.5 1119.21,-187.5 1007.21,-187.5"/>
<text text-anchor="start" x="1015.21" y="-210.3" font-family="Times,serif" font-size="14.00">0x8048def:</text>
<text text-anchor="start" x="1015.21" y="-195.3" font-family="Times,serif" font-size="14.00"> if (v3 != v2):</text>
</g>
<!-- Node0x2d739b0&#45;&gt;Node0x2e3a420 -->
<g id="edge16" class="edge"><title>Node0x2d739b0&#45;&gt;Node0x2e3a420</title>
<path fill="none" stroke="black" d="M356.544,-288.758C503.445,-271.866 851.202,-231.878 997.038,-215.109"/>
<polygon fill="black" stroke="black" points="997.649,-218.562 1007.18,-213.942 996.849,-211.608 997.649,-218.562"/>
</g>
<!-- Node0x2c0d550&#45;&gt;Node0x2e3a420 -->
<g id="edge17" class="edge"><title>Node0x2c0d550&#45;&gt;Node0x2e3a420</title>
<path fill="none" stroke="black" d="M747.283,-270.92C753.157,-267.935 759.236,-265.183 765.211,-263 842.118,-234.903 935.618,-220.458 997.133,-213.449"/>
<polygon fill="black" stroke="black" points="997.546,-216.925 1007.1,-212.347 996.776,-209.968 997.546,-216.925"/>
</g>
<!-- Node0x2d8b850&#45;&gt;Node0x2e3a420 -->
<g id="edge18" class="edge"><title>Node0x2d8b850&#45;&gt;Node0x2e3a420</title>
<path fill="none" stroke="black" d="M867.838,-270.88C873.261,-268.043 878.806,-265.34 884.211,-263 920.49,-247.295 962.655,-233.995 996.946,-224.356"/>
<polygon fill="black" stroke="black" points="998.155,-227.653 1006.86,-221.609 996.286,-220.907 998.155,-227.653"/>
</g>
<!-- Node0x2e1a400&#45;&gt;Node0x2e3a420 -->
<g id="edge19" class="edge"><title>Node0x2e1a400&#45;&gt;Node0x2e3a420</title>
<path fill="none" stroke="black" d="M978.311,-270.996C994.804,-258.661 1014.5,-243.929 1030.77,-231.762"/>
<polygon fill="black" stroke="black" points="1033.02,-234.451 1038.93,-225.659 1028.83,-228.845 1033.02,-234.451"/>
</g>
<!-- Node0x2e1a520&#45;&gt;Node0x2e3a420 -->
<g id="edge20" class="edge"><title>Node0x2e1a520&#45;&gt;Node0x2e3a420</title>
<path fill="none" stroke="black" d="M1063.21,-270.758C1063.21,-259.786 1063.21,-246.953 1063.21,-235.724"/>
<polygon fill="black" stroke="black" points="1066.71,-235.562 1063.21,-225.562 1059.71,-235.562 1066.71,-235.562"/>
</g>
<!-- Node0x2cbc780&#45;&gt;Node0x2e3a420 -->
<g id="edge21" class="edge"><title>Node0x2cbc780&#45;&gt;Node0x2e3a420</title>
<path fill="none" stroke="black" d="M1148.11,-270.996C1131.62,-258.661 1111.92,-243.929 1095.65,-231.762"/>
<polygon fill="black" stroke="black" points="1097.59,-228.845 1087.49,-225.659 1093.4,-234.451 1097.59,-228.845"/>
</g>
<!-- Node0x2b1e3a0&#45;&gt;Node0x2e3a420 -->
<g id="edge22" class="edge"><title>Node0x2b1e3a0&#45;&gt;Node0x2e3a420</title>
<path fill="none" stroke="black" d="M1257.83,-270.908C1252.32,-268.067 1246.69,-265.354 1241.21,-263 1205.21,-247.534 1163.45,-234.285 1129.44,-224.615"/>
<polygon fill="black" stroke="black" points="1130.18,-221.187 1119.6,-221.857 1128.29,-227.927 1130.18,-221.187"/>
</g>
<!-- Node0x2e77950&#45;&gt;Node0x2e3a420 -->
<g id="edge23" class="edge"><title>Node0x2e77950&#45;&gt;Node0x2e3a420</title>
<path fill="none" stroke="black" d="M1378.41,-270.935C1372.44,-267.948 1366.27,-265.191 1360.21,-263 1283.74,-235.346 1190.96,-220.832 1129.68,-213.685"/>
<polygon fill="black" stroke="black" points="1129.7,-210.165 1119.37,-212.517 1128.91,-217.12 1129.7,-210.165"/>
</g>
<!-- Node0x2bb6430&#45;&gt;Node0x2e3a420 -->
<g id="edge24" class="edge"><title>Node0x2bb6430&#45;&gt;Node0x2e3a420</title>
<path fill="none" stroke="black" d="M1498.18,-270.967C1491.99,-267.896 1485.55,-265.107 1479.21,-263 1360.24,-223.451 1213.25,-211.994 1129.67,-208.732"/>
<polygon fill="black" stroke="black" points="1129.66,-205.23 1119.54,-208.365 1129.41,-212.225 1129.66,-205.23"/>
</g>
<!-- Node0x2cbab10 -->
<g id="node17" class="node"><title>Node0x2cbab10</title>
<polygon fill="none" stroke="black" points="932.211,-97.5 932.211,-135.5 1066.21,-135.5 1066.21,-97.5 932.211,-97.5"/>
<text text-anchor="start" x="940.211" y="-120.3" font-family="Times,serif" font-size="14.00">0x8048df4:</text>
<text text-anchor="start" x="940.211" y="-105.3" font-family="Times,serif" font-size="14.00"> explode_bomb()</text>
</g>
<!-- Node0x2e3a420&#45;&gt;Node0x2cbab10 -->
<g id="edge25" class="edge"><title>Node0x2e3a420&#45;&gt;Node0x2cbab10</title>
<path fill="none" stroke="black" d="M1042.43,-187.217C1036.79,-181.688 1030.94,-175.381 1026.21,-169 1020.77,-161.653 1015.8,-153.06 1011.65,-145.021"/>
<polygon fill="black" stroke="black" points="1014.73,-143.366 1007.17,-135.946 1008.46,-146.463 1014.73,-143.366"/>
<text text-anchor="middle" x="1057.21" y="-157.8" font-family="Times,serif" font-size="14.00">v3 != v2</text>
</g>
<!-- Node0x2e4bd30 -->
<g id="node18" class="node"><title>Node0x2e4bd30</title>
<polygon fill="none" stroke="black" points="1043.21,-23.5 1043.21,-59.5 1097.21,-59.5 1097.21,-23.5 1043.21,-23.5"/>
<text text-anchor="start" x="1051.21" y="-37.8" font-family="Times,serif" font-size="14.00">exit:</text>
</g>
<!-- Node0x2e3a420&#45;&gt;Node0x2e4bd30 -->
<g id="edge26" class="edge"><title>Node0x2e3a420&#45;&gt;Node0x2e4bd30</title>
<path fill="none" stroke="black" d="M1078.8,-187.316C1082.63,-181.787 1086.21,-175.457 1088.21,-169 1098.58,-135.514 1089.29,-95.1677 1080.66,-69.1898"/>
<polygon fill="black" stroke="black" points="1083.92,-67.9259 1077.3,-59.6538 1077.32,-70.2487 1083.92,-67.9259"/>
<text text-anchor="middle" x="1127.21" y="-112.8" font-family="Times,serif" font-size="14.00">v3 == v2</text>
</g>
<!-- Node0x2cbab10&#45;&gt;Node0x2e4bd30 -->
<g id="edge27" class="edge"><title>Node0x2cbab10&#45;&gt;Node0x2e4bd30</title>
<path fill="none" stroke="black" d="M1016.76,-97.4551C1025.66,-88.3035 1036.61,-77.0516 1046.27,-67.1177"/>
<polygon fill="black" stroke="black" points="1048.89,-69.4436 1053.35,-59.8347 1043.87,-64.563 1048.89,-69.4436"/>
</g>
</g>
</svg>
