<?xml version="1.0" encoding="UTF-8" standalone="no"?>
<!DOCTYPE svg PUBLIC "-//W3C//DTD SVG 1.1//EN"
 "http://www.w3.org/Graphics/SVG/1.1/DTD/svg11.dtd">
<!-- Generated by graphviz version 2.38.0 (20140413.2041)
 -->
<!-- Title: Control&#45;flow graph for function &#39;skip()&#39;. Pages: 1 -->
<svg width="1219pt" height="553pt"
 viewBox="0.00 0.00 1218.63 553.00" xmlns="http://www.w3.org/2000/svg" xmlns:xlink="http://www.w3.org/1999/xlink">
<g id="graph0" class="graph" transform="scale(1 1) rotate(0) translate(4 549)">
<title>Control&#45;flow graph for function &#39;skip()&#39;.</title>
<polygon fill="white" stroke="none" points="-4,4 -4,-549 1214.63,-549 1214.63,4 -4,4"/>
<text text-anchor="middle" x="605.315" y="-7.8" font-family="Times,serif" font-size="14.00">Control&#45;flow graph for function &#39;skip()&#39;.</text>
<!-- Node0x2b731e0 -->
<g id="node1" class="node"><title>Node0x2b731e0</title>
<polygon fill="none" stroke="black" points="310,-508.5 310,-544.5 369,-544.5 369,-508.5 310,-508.5"/>
<text text-anchor="start" x="318" y="-522.8" font-family="Times,serif" font-size="14.00">entry:</text>
</g>
<!-- Node0x2c45f50 -->
<g id="node2" class="node"><title>Node0x2c45f50</title>
<polygon fill="none" stroke="black" points="223,-434.5 223,-470.5 456,-470.5 456,-434.5 223,-434.5"/>
<text text-anchor="start" x="231" y="-448.8" font-family="Times,serif" font-size="14.00">str = ((80 * g9) + 134522976)</text>
</g>
<!-- Node0x2b731e0&#45;&gt;Node0x2c45f50 -->
<g id="edge1" class="edge"><title>Node0x2b731e0&#45;&gt;Node0x2c45f50</title>
<path fill="none" stroke="black" d="M339.5,-508.437C339.5,-500.307 339.5,-490.376 339.5,-481.205"/>
<polygon fill="black" stroke="black" points="343,-480.941 339.5,-470.941 336,-480.941 343,-480.941"/>
</g>
<!-- Node0x2c3c7b0 -->
<g id="node3" class="node"><title>Node0x2c3c7b0</title>
<polygon fill="none" stroke="black" points="45,-360.5 45,-396.5 634,-396.5 634,-360.5 45,-360.5"/>
<text text-anchor="start" x="53" y="-374.8" font-family="Times,serif" font-size="14.00">if (fgets(IntToPtrCastExpr&lt;ptr&gt;(str), 80, BitCastExpr&lt;ptr&gt;(infile)) == NULL):</text>
</g>
<!-- Node0x2c45f50&#45;&gt;Node0x2c3c7b0 -->
<g id="edge2" class="edge"><title>Node0x2c45f50&#45;&gt;Node0x2c3c7b0</title>
<path fill="none" stroke="black" d="M339.5,-434.437C339.5,-426.307 339.5,-416.376 339.5,-407.205"/>
<polygon fill="black" stroke="black" points="343,-406.941 339.5,-396.941 336,-406.941 343,-406.941"/>
</g>
<!-- Node0x2c8a3b0 -->
<g id="node4" class="node"><title>Node0x2c8a3b0</title>
<polygon fill="none" stroke="black" points="0,-198.5 0,-236.5 101,-236.5 101,-198.5 0,-198.5"/>
<text text-anchor="start" x="8" y="-221.3" font-family="Times,serif" font-size="14.00">0x80492de:</text>
<text text-anchor="start" x="8" y="-206.3" font-family="Times,serif" font-size="14.00"> return</text>
</g>
<!-- Node0x2c3c7b0&#45;&gt;Node0x2c8a3b0 -->
<g id="edge3" class="edge"><title>Node0x2c3c7b0&#45;&gt;Node0x2c8a3b0</title>
<path fill="none" stroke="black" d="M127.189,-360.465C89.5311,-355.432 60.0904,-349.279 53.5,-342 30.3967,-316.483 35.0829,-274.419 41.7948,-246.586"/>
<polygon fill="black" stroke="black" points="45.2416,-247.242 44.4127,-236.679 38.4739,-245.453 45.2416,-247.242"/>
<text text-anchor="middle" x="325.5" y="-330.8" font-family="Times,serif" font-size="14.00">fgets(IntToPtrCastExpr&lt;ptr&gt;(str), 80, BitCastExpr&lt;ptr&gt;(infile)) == NULL</text>
</g>
<!-- Node0x2e2a700 -->
<g id="node5" class="node"><title>Node0x2e2a700</title>
<polygon fill="none" stroke="black" points="523,-255.5 523,-308.5 770,-308.5 770,-255.5 523,-255.5"/>
<text text-anchor="start" x="531" y="-293.3" font-family="Times,serif" font-size="14.00">g1 = str</text>
<text text-anchor="start" x="531" y="-278.3" font-family="Times,serif" font-size="14.00"> blank_line()</text>
<text text-anchor="start" x="531" y="-263.3" font-family="Times,serif" font-size="14.00"> str2 = ((80 * g9) + 134522976)</text>
</g>
<!-- Node0x2c3c7b0&#45;&gt;Node0x2e2a700 -->
<g id="edge4" class="edge"><title>Node0x2c3c7b0&#45;&gt;Node0x2e2a700</title>
<path fill="none" stroke="black" d="M536.6,-360.45C564.651,-355.667 588.407,-349.618 601.5,-342 611.835,-335.987 620.59,-326.579 627.554,-317.028"/>
<polygon fill="black" stroke="black" points="630.498,-318.923 633.207,-308.68 624.702,-314.998 630.498,-318.923"/>
<text text-anchor="middle" x="888.5" y="-330.8" font-family="Times,serif" font-size="14.00">fgets(IntToPtrCastExpr&lt;ptr&gt;(str), 80, BitCastExpr&lt;ptr&gt;(infile)) != NULL</text>
</g>
<!-- Node0x2b90b20 -->
<g id="node6" class="node"><title>Node0x2b90b20</title>
<polygon fill="none" stroke="black" points="39.5,-39.5 39.5,-75.5 93.5,-75.5 93.5,-39.5 39.5,-39.5"/>
<text text-anchor="start" x="47.5" y="-53.8" font-family="Times,serif" font-size="14.00">exit:</text>
</g>
<!-- Node0x2c8a3b0&#45;&gt;Node0x2b90b20 -->
<g id="edge5" class="edge"><title>Node0x2c8a3b0&#45;&gt;Node0x2b90b20</title>
<path fill="none" stroke="black" d="M52.3354,-198.375C55.123,-170.847 60.4445,-118.298 63.712,-86.0312"/>
<polygon fill="black" stroke="black" points="67.2094,-86.2336 64.7348,-75.9318 60.245,-85.5282 67.2094,-86.2336"/>
</g>
<!-- Node0x2dfe1a0 -->
<g id="node7" class="node"><title>Node0x2dfe1a0</title>
<polygon fill="none" stroke="black" points="347.5,-143.5 347.5,-179.5 967.5,-179.5 967.5,-143.5 347.5,-143.5"/>
<text text-anchor="start" x="355.5" y="-157.8" font-family="Times,serif" font-size="14.00">while (fgets(IntToPtrCastExpr&lt;ptr&gt;(str2), 80, BitCastExpr&lt;ptr&gt;(infile)) != NULL):</text>
</g>
<!-- Node0x2e2a700&#45;&gt;Node0x2dfe1a0 -->
<g id="edge6" class="edge"><title>Node0x2e2a700&#45;&gt;Node0x2dfe1a0</title>
<path fill="none" stroke="black" d="M648.887,-255.287C650.678,-235.989 653.127,-209.614 654.955,-189.916"/>
<polygon fill="black" stroke="black" points="658.46,-190.027 655.899,-179.747 651.49,-189.38 658.46,-190.027"/>
</g>
<!-- Node0x2dfe1a0&#45;&gt;Node0x2b90b20 -->
<g id="edge8" class="edge"><title>Node0x2dfe1a0&#45;&gt;Node0x2b90b20</title>
<path fill="none" stroke="black" d="M347.187,-154.243C229.901,-149.34 119.049,-140.596 96.5,-125 83.3399,-115.898 75.8626,-99.5839 71.6641,-85.3931"/>
<polygon fill="black" stroke="black" points="75.0203,-84.3899 69.1521,-75.5686 68.2385,-86.124 75.0203,-84.3899"/>
<text text-anchor="middle" x="373" y="-113.8" font-family="Times,serif" font-size="14.00">fgets(IntToPtrCastExpr&lt;ptr&gt;(str2), 80, BitCastExpr&lt;ptr&gt;(infile)) == NULL</text>
</g>
<!-- Node0x2e3e430 -->
<g id="node8" class="node"><title>Node0x2e3e430</title>
<polygon fill="none" stroke="black" points="816,-23.5 816,-91.5 1063,-91.5 1063,-23.5 816,-23.5"/>
<text text-anchor="start" x="824" y="-76.3" font-family="Times,serif" font-size="14.00">0x80492d2:</text>
<text text-anchor="start" x="824" y="-61.3" font-family="Times,serif" font-size="14.00"> g1 = str2</text>
<text text-anchor="start" x="824" y="-46.3" font-family="Times,serif" font-size="14.00"> blank_line()</text>
<text text-anchor="start" x="824" y="-31.3" font-family="Times,serif" font-size="14.00"> str2 = ((80 * g9) + 134522976)</text>
</g>
<!-- Node0x2dfe1a0&#45;&gt;Node0x2e3e430 -->
<g id="edge7" class="edge"><title>Node0x2dfe1a0&#45;&gt;Node0x2e3e430</title>
<path fill="none" stroke="black" d="M653.182,-143.077C651.611,-132.304 651.798,-118.884 659.5,-110 679.246,-87.2236 743.74,-74.46 805.858,-67.3384"/>
<polygon fill="black" stroke="black" points="806.244,-70.8173 815.8,-66.2432 805.477,-63.8593 806.244,-70.8173"/>
<text text-anchor="middle" x="933" y="-113.8" font-family="Times,serif" font-size="14.00">fgets(IntToPtrCastExpr&lt;ptr&gt;(str2), 80, BitCastExpr&lt;ptr&gt;(infile)) != NULL</text>
</g>
<!-- Node0x2e3e430&#45;&gt;Node0x2dfe1a0 -->
<g id="edge9" class="edge"><title>Node0x2e3e430&#45;&gt;Node0x2dfe1a0</title>
<path fill="none" stroke="black" d="M1063.29,-71.3665C1143.81,-82.2516 1229.86,-100.081 1206.5,-125 1188.84,-143.834 1088.19,-153.091 977.785,-157.502"/>
<polygon fill="black" stroke="black" points="977.622,-154.006 967.764,-157.888 977.891,-161 977.622,-154.006"/>
</g>
</g>
</svg>
