<?xml version="1.0" encoding="UTF-8" standalone="no"?>
<!DOCTYPE svg PUBLIC "-//W3C//DTD SVG 1.1//EN"
 "http://www.w3.org/Graphics/SVG/1.1/DTD/svg11.dtd">
<!-- Generated by graphviz version 2.38.0 (20140413.2041)
 -->
<!-- Title: Control&#45;flow graph for function &#39;func4()&#39;. Pages: 1 -->
<svg width="315pt" height="412pt"
 viewBox="0.00 0.00 315.00 412.00" xmlns="http://www.w3.org/2000/svg" xmlns:xlink="http://www.w3.org/1999/xlink">
<g id="graph0" class="graph" transform="scale(1 1) rotate(0) translate(4 408)">
<title>Control&#45;flow graph for function &#39;func4()&#39;.</title>
<polygon fill="white" stroke="none" points="-4,4 -4,-408 311,-408 311,4 -4,4"/>
<text text-anchor="middle" x="153.5" y="-7.8" font-family="Times,serif" font-size="14.00">Control&#45;flow graph for function &#39;func4()&#39;.</text>
<!-- Node0x2bbc7d0 -->
<g id="node1" class="node"><title>Node0x2bbc7d0</title>
<polygon fill="none" stroke="black" points="141.5,-367.5 141.5,-403.5 200.5,-403.5 200.5,-367.5 141.5,-367.5"/>
<text text-anchor="start" x="149.5" y="-381.8" font-family="Times,serif" font-size="14.00">entry:</text>
</g>
<!-- Node0x2e58440 -->
<g id="node2" class="node"><title>Node0x2e58440</title>
<polygon fill="none" stroke="black" points="120.5,-276.5 120.5,-329.5 221.5,-329.5 221.5,-276.5 120.5,-276.5"/>
<text text-anchor="start" x="128.5" y="-314.3" font-family="Times,serif" font-size="14.00">0x8048b50:</text>
<text text-anchor="start" x="128.5" y="-299.3" font-family="Times,serif" font-size="14.00"> g1 = 1</text>
<text text-anchor="start" x="128.5" y="-284.3" font-family="Times,serif" font-size="14.00"> v1</text>
</g>
<!-- Node0x2bbc7d0&#45;&gt;Node0x2e58440 -->
<g id="edge1" class="edge"><title>Node0x2bbc7d0&#45;&gt;Node0x2e58440</title>
<path fill="none" stroke="black" d="M171,-367.428C171,-359.361 171,-349.411 171,-339.802"/>
<polygon fill="black" stroke="black" points="174.5,-339.616 171,-329.616 167.5,-339.616 174.5,-339.616"/>
</g>
<!-- Node0x2d81110 -->
<g id="node3" class="node"><title>Node0x2d81110</title>
<polygon fill="none" stroke="black" points="118.5,-202.5 118.5,-238.5 223.5,-238.5 223.5,-202.5 118.5,-202.5"/>
<text text-anchor="start" x="126.5" y="-216.8" font-family="Times,serif" font-size="14.00">if (v1 &gt;= 1):</text>
</g>
<!-- Node0x2e58440&#45;&gt;Node0x2d81110 -->
<g id="edge2" class="edge"><title>Node0x2e58440&#45;&gt;Node0x2d81110</title>
<path fill="none" stroke="black" d="M171,-276.086C171,-267.46 171,-257.822 171,-249.075"/>
<polygon fill="black" stroke="black" points="174.5,-248.973 171,-238.974 167.5,-248.974 174.5,-248.973"/>
</g>
<!-- Node0x2be4250 -->
<g id="node4" class="node"><title>Node0x2be4250</title>
<polygon fill="none" stroke="black" points="59,-97.5 59,-150.5 173,-150.5 173,-97.5 59,-97.5"/>
<text text-anchor="start" x="67" y="-135.3" font-family="Times,serif" font-size="14.00">0x8048b62:</text>
<text text-anchor="start" x="67" y="-120.3" font-family="Times,serif" font-size="14.00"> func4()</text>
<text text-anchor="start" x="67" y="-105.3" font-family="Times,serif" font-size="14.00"> g1 = (7 * g1)</text>
</g>
<!-- Node0x2d81110&#45;&gt;Node0x2be4250 -->
<g id="edge3" class="edge"><title>Node0x2d81110&#45;&gt;Node0x2be4250</title>
<path fill="none" stroke="black" d="M150.07,-202.198C144.57,-196.827 139.05,-190.577 135,-184 130.547,-176.769 127.034,-168.39 124.305,-160.257"/>
<polygon fill="black" stroke="black" points="127.612,-159.102 121.353,-150.553 120.915,-161.139 127.612,-159.102"/>
<text text-anchor="middle" x="165" y="-172.8" font-family="Times,serif" font-size="14.00">v1 &gt;= 1</text>
</g>
<!-- Node0x2bbc830 -->
<g id="node5" class="node"><title>Node0x2bbc830</title>
<polygon fill="none" stroke="black" points="152,-23.5 152,-59.5 206,-59.5 206,-23.5 152,-23.5"/>
<text text-anchor="start" x="160" y="-37.8" font-family="Times,serif" font-size="14.00">exit:</text>
</g>
<!-- Node0x2d81110&#45;&gt;Node0x2bbc830 -->
<g id="edge4" class="edge"><title>Node0x2d81110&#45;&gt;Node0x2bbc830</title>
<path fill="none" stroke="black" d="M185.713,-202.153C189.491,-196.69 193.039,-190.402 195,-184 206.801,-145.473 197.09,-98.6484 188.476,-69.708"/>
<polygon fill="black" stroke="black" points="191.731,-68.3933 185.393,-59.9033 185.054,-70.4927 191.731,-68.3933"/>
<text text-anchor="middle" x="224" y="-120.3" font-family="Times,serif" font-size="14.00">v1 &lt; 1</text>
</g>
<!-- Node0x2be4250&#45;&gt;Node0x2bbc830 -->
<g id="edge5" class="edge"><title>Node0x2be4250&#45;&gt;Node0x2bbc830</title>
<path fill="none" stroke="black" d="M136.28,-97.0862C143.551,-87.7961 151.739,-77.3338 158.987,-68.0728"/>
<polygon fill="black" stroke="black" points="161.918,-70.0057 165.325,-59.9735 156.406,-65.6915 161.918,-70.0057"/>
</g>
</g>
</svg>
