<?xml version="1.0" encoding="UTF-8" standalone="no"?>
<!DOCTYPE svg PUBLIC "-//W3C//DTD SVG 1.1//EN"
 "http://www.w3.org/Graphics/SVG/1.1/DTD/svg11.dtd">
<!-- Generated by graphviz version 2.38.0 (20140413.2041)
 -->
<!-- Title: Control&#45;flow graph for function &#39;read_line()&#39;. Pages: 1 -->
<svg width="1319pt" height="1726pt"
 viewBox="0.00 0.00 1318.50 1726.00" xmlns="http://www.w3.org/2000/svg" xmlns:xlink="http://www.w3.org/1999/xlink">
<g id="graph0" class="graph" transform="scale(1 1) rotate(0) translate(4 1722)">
<title>Control&#45;flow graph for function &#39;read_line()&#39;.</title>
<polygon fill="white" stroke="none" points="-4,4 -4,-1722 1314.5,-1722 1314.5,4 -4,4"/>
<text text-anchor="middle" x="655.25" y="-7.8" font-family="Times,serif" font-size="14.00">Control&#45;flow graph for function &#39;read_line()&#39;.</text>
<!-- Node0x2b9c0c0 -->
<g id="node1" class="node"><title>Node0x2b9c0c0</title>
<polygon fill="none" stroke="black" points="494,-1681.5 494,-1717.5 553,-1717.5 553,-1681.5 494,-1681.5"/>
<text text-anchor="start" x="502" y="-1695.8" font-family="Times,serif" font-size="14.00">entry:</text>
</g>
<!-- Node0x2d73560 -->
<g id="node2" class="node"><title>Node0x2d73560</title>
<polygon fill="none" stroke="black" points="485,-1530.5 485,-1643.5 562,-1643.5 562,-1530.5 485,-1530.5"/>
<text text-anchor="start" x="493" y="-1628.3" font-family="Times,serif" font-size="14.00">v1 = g3</text>
<text text-anchor="start" x="493" y="-1613.3" font-family="Times,serif" font-size="14.00"> v2 = g2</text>
<text text-anchor="start" x="493" y="-1598.3" font-family="Times,serif" font-size="14.00"> skip()</text>
<text text-anchor="start" x="493" y="-1583.3" font-family="Times,serif" font-size="14.00"> len</text>
<text text-anchor="start" x="493" y="-1568.3" font-family="Times,serif" font-size="14.00"> v3</text>
<text text-anchor="start" x="493" y="-1553.3" font-family="Times,serif" font-size="14.00"> v4</text>
<text text-anchor="start" x="493" y="-1538.3" font-family="Times,serif" font-size="14.00"> v5</text>
</g>
<!-- Node0x2b9c0c0&#45;&gt;Node0x2d73560 -->
<g id="edge1" class="edge"><title>Node0x2b9c0c0&#45;&gt;Node0x2d73560</title>
<path fill="none" stroke="black" d="M523.5,-1681.23C523.5,-1673.59 523.5,-1664.06 523.5,-1654.03"/>
<polygon fill="black" stroke="black" points="527,-1653.9 523.5,-1643.9 520,-1653.9 527,-1653.9"/>
</g>
<!-- Node0x2b63e50 -->
<g id="node3" class="node"><title>Node0x2b63e50</title>
<polygon fill="none" stroke="black" points="473.5,-1456.5 473.5,-1492.5 573.5,-1492.5 573.5,-1456.5 473.5,-1456.5"/>
<text text-anchor="start" x="481.5" y="-1470.8" font-family="Times,serif" font-size="14.00">if (g1 != 0):</text>
</g>
<!-- Node0x2d73560&#45;&gt;Node0x2b63e50 -->
<g id="edge2" class="edge"><title>Node0x2d73560&#45;&gt;Node0x2b63e50</title>
<path fill="none" stroke="black" d="M523.5,-1530.43C523.5,-1520.86 523.5,-1511.31 523.5,-1502.91"/>
<polygon fill="black" stroke="black" points="527,-1502.64 523.5,-1492.64 520,-1502.64 527,-1502.64"/>
</g>
<!-- Node0x2abe9c0 -->
<g id="node4" class="node"><title>Node0x2abe9c0</title>
<polygon fill="none" stroke="black" points="45.5,-1336.5 45.5,-1404.5 521.5,-1404.5 521.5,-1336.5 45.5,-1336.5"/>
<text text-anchor="start" x="53.5" y="-1389.3" font-family="Times,serif" font-size="14.00">0x8049357:</text>
<text text-anchor="start" x="53.5" y="-1374.3" font-family="Times,serif" font-size="14.00"> len = strlen(IntToPtrCastExpr&lt;ptr&gt;(((80 * g9) + 134522976)))</text>
<text text-anchor="start" x="53.5" y="-1359.3" font-family="Times,serif" font-size="14.00"> g2 = len</text>
<text text-anchor="start" x="53.5" y="-1344.3" font-family="Times,serif" font-size="14.00"> v4 = len</text>
</g>
<!-- Node0x2b63e50&#45;&gt;Node0x2abe9c0 -->
<g id="edge3" class="edge"><title>Node0x2b63e50&#45;&gt;Node0x2abe9c0</title>
<path fill="none" stroke="black" d="M483.329,-1456.43C452.698,-1443.41 409.367,-1424.99 370.88,-1408.64"/>
<polygon fill="black" stroke="black" points="371.782,-1405.22 361.21,-1404.53 369.044,-1411.66 371.782,-1405.22"/>
<text text-anchor="middle" x="467" y="-1426.8" font-family="Times,serif" font-size="14.00">g1 != 0</text>
</g>
<!-- Node0x2c9ff20 -->
<g id="node5" class="node"><title>Node0x2c9ff20</title>
<polygon fill="none" stroke="black" points="539.5,-1351.5 539.5,-1389.5 829.5,-1389.5 829.5,-1351.5 539.5,-1351.5"/>
<text text-anchor="start" x="547.5" y="-1374.3" font-family="Times,serif" font-size="14.00">v6 = PtrToIntCastExpr&lt;int32&gt;(infile)</text>
<text text-anchor="start" x="547.5" y="-1359.3" font-family="Times,serif" font-size="14.00"> g1 = v6</text>
</g>
<!-- Node0x2b63e50&#45;&gt;Node0x2c9ff20 -->
<g id="edge4" class="edge"><title>Node0x2b63e50&#45;&gt;Node0x2c9ff20</title>
<path fill="none" stroke="black" d="M550.448,-1456.43C576.894,-1439.67 617.454,-1413.98 647.034,-1395.24"/>
<polygon fill="black" stroke="black" points="649.26,-1397.97 655.834,-1389.66 645.513,-1392.06 649.26,-1397.97"/>
<text text-anchor="middle" x="629" y="-1426.8" font-family="Times,serif" font-size="14.00">g1 == 0</text>
</g>
<!-- Node0x2cbc340 -->
<g id="node6" class="node"><title>Node0x2cbc340</title>
<polygon fill="none" stroke="black" points="224,-1262.5 224,-1298.5 343,-1298.5 343,-1262.5 224,-1262.5"/>
<text text-anchor="start" x="232" y="-1276.8" font-family="Times,serif" font-size="14.00">if (len == 79):</text>
</g>
<!-- Node0x2abe9c0&#45;&gt;Node0x2cbc340 -->
<g id="edge5" class="edge"><title>Node0x2abe9c0&#45;&gt;Node0x2cbc340</title>
<path fill="none" stroke="black" d="M283.5,-1336.48C283.5,-1327.33 283.5,-1317.5 283.5,-1308.72"/>
<polygon fill="black" stroke="black" points="287,-1308.64 283.5,-1298.64 280,-1308.64 287,-1308.64"/>
</g>
<!-- Node0x2ca0090 -->
<g id="node7" class="node"><title>Node0x2ca0090</title>
<polygon fill="none" stroke="black" points="627.5,-1262.5 627.5,-1298.5 741.5,-1298.5 741.5,-1262.5 627.5,-1262.5"/>
<text text-anchor="start" x="635.5" y="-1276.8" font-family="Times,serif" font-size="14.00">if (v6 == g7):</text>
</g>
<!-- Node0x2c9ff20&#45;&gt;Node0x2ca0090 -->
<g id="edge6" class="edge"><title>Node0x2c9ff20&#45;&gt;Node0x2ca0090</title>
<path fill="none" stroke="black" d="M684.5,-1351.27C684.5,-1339.03 684.5,-1322.69 684.5,-1308.9"/>
<polygon fill="black" stroke="black" points="688,-1308.52 684.5,-1298.52 681,-1308.52 688,-1308.52"/>
</g>
<!-- Node0x2c7b5a0 -->
<g id="node8" class="node"><title>Node0x2c7b5a0</title>
<polygon fill="none" stroke="black" points="0,-1127.5 0,-1195.5 257,-1195.5 257,-1127.5 0,-1127.5"/>
<text text-anchor="start" x="8" y="-1180.3" font-family="Times,serif" font-size="14.00">0x804937e:</text>
<text text-anchor="start" x="8" y="-1165.3" font-family="Times,serif" font-size="14.00"> puts(&quot;Error: Input line too long&quot;)</text>
<text text-anchor="start" x="8" y="-1150.3" font-family="Times,serif" font-size="14.00"> explode_bomb()</text>
<text text-anchor="start" x="8" y="-1135.3" font-family="Times,serif" font-size="14.00"> v4 = g2</text>
</g>
<!-- Node0x2cbc340&#45;&gt;Node0x2c7b5a0 -->
<g id="edge7" class="edge"><title>Node0x2cbc340&#45;&gt;Node0x2c7b5a0</title>
<path fill="none" stroke="black" d="M239.161,-1262.5C228.037,-1257.32 216.446,-1251.1 206.5,-1244 190.357,-1232.48 174.782,-1217.33 161.851,-1203.21"/>
<polygon fill="black" stroke="black" points="164.231,-1200.62 154.952,-1195.51 159.016,-1205.29 164.231,-1200.62"/>
<text text-anchor="middle" x="243" y="-1232.8" font-family="Times,serif" font-size="14.00">len == 79</text>
</g>
<!-- Node0x2b52ec0 -->
<g id="node9" class="node"><title>Node0x2b52ec0</title>
<polygon fill="none" stroke="black" points="8.5,-917.5 8.5,-1060.5 484.5,-1060.5 484.5,-917.5 8.5,-917.5"/>
<text text-anchor="start" x="16.5" y="-1045.3" font-family="Times,serif" font-size="14.00">0x804938f:</text>
<text text-anchor="start" x="16.5" y="-1030.3" font-family="Times,serif" font-size="14.00"> v3 = g9</text>
<text text-anchor="start" x="16.5" y="-1015.3" font-family="Times,serif" font-size="14.00"> *(IntToPtrCastExpr&lt;ptr&gt;(((v4 + 134522975) + (80 * v3)))) = 0</text>
<text text-anchor="start" x="16.5" y="-1000.3" font-family="Times,serif" font-size="14.00"> v5 = v3</text>
<text text-anchor="start" x="16.5" y="-985.3" font-family="Times,serif" font-size="14.00"> g9 = (v5 + 1)</text>
<text text-anchor="start" x="16.5" y="-970.3" font-family="Times,serif" font-size="14.00"> g1 = ((16 * ((4 * v3) + v5)) + 134522976)</text>
<text text-anchor="start" x="16.5" y="-955.3" font-family="Times,serif" font-size="14.00"> g2 = v2</text>
<text text-anchor="start" x="16.5" y="-940.3" font-family="Times,serif" font-size="14.00"> g3 = v1</text>
<text text-anchor="start" x="16.5" y="-925.3" font-family="Times,serif" font-size="14.00"> return</text>
</g>
<!-- Node0x2cbc340&#45;&gt;Node0x2b52ec0 -->
<g id="edge8" class="edge"><title>Node0x2cbc340&#45;&gt;Node0x2b52ec0</title>
<path fill="none" stroke="black" d="M282.301,-1262.19C281.582,-1252.43 280.596,-1240.03 279.5,-1229 274.32,-1176.89 272.642,-1163.88 265.5,-1112 263.653,-1098.59 261.561,-1084.36 259.457,-1070.55"/>
<polygon fill="black" stroke="black" points="262.904,-1069.93 257.927,-1060.58 255.985,-1070.99 262.904,-1069.93"/>
<text text-anchor="middle" x="312" y="-1157.8" font-family="Times,serif" font-size="14.00">len != 79</text>
</g>
<!-- Node0x2b53230 -->
<g id="node10" class="node"><title>Node0x2b53230</title>
<polygon fill="none" stroke="black" points="388.5,-1112.5 388.5,-1210.5 864.5,-1210.5 864.5,-1112.5 388.5,-1112.5"/>
<text text-anchor="start" x="396.5" y="-1195.3" font-family="Times,serif" font-size="14.00">0x8049304:</text>
<text text-anchor="start" x="396.5" y="-1180.3" font-family="Times,serif" font-size="14.00"> puts(&quot;Error: Premature EOF on stdin&quot;)</text>
<text text-anchor="start" x="396.5" y="-1165.3" font-family="Times,serif" font-size="14.00"> explode_bomb()</text>
<text text-anchor="start" x="396.5" y="-1150.3" font-family="Times,serif" font-size="14.00"> len = strlen(IntToPtrCastExpr&lt;ptr&gt;(((80 * g9) + 134522976)))</text>
<text text-anchor="start" x="396.5" y="-1135.3" font-family="Times,serif" font-size="14.00"> g2 = len</text>
<text text-anchor="start" x="396.5" y="-1120.3" font-family="Times,serif" font-size="14.00"> v4 = len</text>
</g>
<!-- Node0x2ca0090&#45;&gt;Node0x2b53230 -->
<g id="edge9" class="edge"><title>Node0x2ca0090&#45;&gt;Node0x2b53230</title>
<path fill="none" stroke="black" d="M676.066,-1262.49C670.42,-1251.1 662.63,-1235.38 654.897,-1219.78"/>
<polygon fill="black" stroke="black" points="657.944,-1218.05 650.367,-1210.65 651.673,-1221.16 657.944,-1218.05"/>
<text text-anchor="middle" x="700" y="-1232.8" font-family="Times,serif" font-size="14.00">v6 == g7</text>
</g>
<!-- Node0x2cad100 -->
<g id="node11" class="node"><title>Node0x2cad100</title>
<polygon fill="none" stroke="black" points="882.5,-1142.5 882.5,-1180.5 1184.5,-1180.5 1184.5,-1142.5 882.5,-1142.5"/>
<text text-anchor="start" x="890.5" y="-1165.3" font-family="Times,serif" font-size="14.00">0x8049317:</text>
<text text-anchor="start" x="890.5" y="-1150.3" font-family="Times,serif" font-size="14.00"> if (getenv(&quot;GRADE_BOMB&quot;) != NULL):</text>
</g>
<!-- Node0x2ca0090&#45;&gt;Node0x2cad100 -->
<g id="edge10" class="edge"><title>Node0x2ca0090&#45;&gt;Node0x2cad100</title>
<path fill="none" stroke="black" d="M735.248,-1262.49C797.323,-1241.68 902.444,-1206.44 969.87,-1183.83"/>
<polygon fill="black" stroke="black" points="971.166,-1187.09 979.535,-1180.59 968.941,-1180.45 971.166,-1187.09"/>
<text text-anchor="middle" x="859" y="-1232.8" font-family="Times,serif" font-size="14.00">v6 != g7</text>
</g>
<!-- Node0x2c7b5a0&#45;&gt;Node0x2b52ec0 -->
<g id="edge11" class="edge"><title>Node0x2c7b5a0&#45;&gt;Node0x2b52ec0</title>
<path fill="none" stroke="black" d="M151.532,-1127.22C163.086,-1110.53 177.616,-1089.53 191.811,-1069.02"/>
<polygon fill="black" stroke="black" points="194.838,-1070.8 197.65,-1060.58 189.082,-1066.81 194.838,-1070.8"/>
</g>
<!-- Node0x2c8a2e0 -->
<g id="node12" class="node"><title>Node0x2c8a2e0</title>
<polygon fill="none" stroke="black" points="675.5,-23.5 675.5,-59.5 729.5,-59.5 729.5,-23.5 675.5,-23.5"/>
<text text-anchor="start" x="683.5" y="-37.8" font-family="Times,serif" font-size="14.00">exit:</text>
</g>
<!-- Node0x2b52ec0&#45;&gt;Node0x2c8a2e0 -->
<g id="edge12" class="edge"><title>Node0x2b52ec0&#45;&gt;Node0x2c8a2e0</title>
<path fill="none" stroke="black" d="M246.5,-917.324C246.5,-880.423 246.5,-834.527 246.5,-793.5 246.5,-793.5 246.5,-793.5 246.5,-160.5 246.5,-74.2385 556.203,-50.0141 665.144,-44.1614"/>
<polygon fill="black" stroke="black" points="665.534,-47.646 675.341,-43.6362 665.174,-40.6553 665.534,-47.646"/>
</g>
<!-- Node0x2b53560 -->
<g id="node13" class="node"><title>Node0x2b53560</title>
<polygon fill="none" stroke="black" points="567,-971 567,-1007 686,-1007 686,-971 567,-971"/>
<text text-anchor="start" x="575" y="-985.3" font-family="Times,serif" font-size="14.00">if (len == 79):</text>
</g>
<!-- Node0x2b53230&#45;&gt;Node0x2b53560 -->
<g id="edge13" class="edge"><title>Node0x2b53230&#45;&gt;Node0x2b53560</title>
<path fill="none" stroke="black" d="M626.5,-1112.1C626.5,-1081.43 626.5,-1042.88 626.5,-1017.4"/>
<polygon fill="black" stroke="black" points="630,-1017.34 626.5,-1007.34 623,-1017.34 630,-1017.34"/>
</g>
<!-- Node0x2d2a120 -->
<g id="node14" class="node"><title>Node0x2d2a120</title>
<polygon fill="none" stroke="black" points="699.5,-845.5 699.5,-898.5 857.5,-898.5 857.5,-845.5 699.5,-845.5"/>
<text text-anchor="start" x="707.5" y="-883.3" font-family="Times,serif" font-size="14.00">0x8049327:</text>
<text text-anchor="start" x="707.5" y="-868.3" font-family="Times,serif" font-size="14.00"> exit(0)</text>
<text text-anchor="start" x="707.5" y="-853.3" font-family="Times,serif" font-size="14.00"> # UNREACHABLE</text>
</g>
<!-- Node0x2cad100&#45;&gt;Node0x2d2a120 -->
<g id="edge14" class="edge"><title>Node0x2cad100&#45;&gt;Node0x2d2a120</title>
<path fill="none" stroke="black" d="M978.693,-1142.48C947.965,-1132.73 908.823,-1120.9 873.5,-1112 834.368,-1102.14 810.473,-1124.89 784.5,-1094 740.797,-1042.03 754.633,-956.343 767.352,-908.362"/>
<polygon fill="black" stroke="black" points="770.726,-909.293 770.028,-898.721 763.981,-907.421 770.726,-909.293"/>
<text text-anchor="middle" x="911" y="-1082.8" font-family="Times,serif" font-size="14.00">getenv(&quot;GRADE_BOMB&quot;) != NULL</text>
</g>
<!-- Node0x2dd2680 -->
<g id="node15" class="node"><title>Node0x2dd2680</title>
<polygon fill="none" stroke="black" points="915,-962.5 915,-1015.5 1194,-1015.5 1194,-962.5 915,-962.5"/>
<text text-anchor="start" x="923" y="-1000.3" font-family="Times,serif" font-size="14.00">0x8049333:</text>
<text text-anchor="start" x="923" y="-985.3" font-family="Times,serif" font-size="14.00"> infile = IntToPtrCastExpr&lt;ptr&gt;(g7)</text>
<text text-anchor="start" x="923" y="-970.3" font-family="Times,serif" font-size="14.00"> skip()</text>
</g>
<!-- Node0x2cad100&#45;&gt;Node0x2dd2680 -->
<g id="edge15" class="edge"><title>Node0x2cad100&#45;&gt;Node0x2dd2680</title>
<path fill="none" stroke="black" d="M1035.75,-1142.25C1039.17,-1114.5 1045.74,-1061.14 1050.12,-1025.55"/>
<polygon fill="black" stroke="black" points="1053.6,-1025.92 1051.35,-1015.57 1046.65,-1025.06 1053.6,-1025.92"/>
<text text-anchor="middle" x="1172" y="-1082.8" font-family="Times,serif" font-size="14.00">getenv(&quot;GRADE_BOMB&quot;) == NULL</text>
</g>
<!-- Node0x2c7b6e0 -->
<g id="node16" class="node"><title>Node0x2c7b6e0</title>
<polygon fill="none" stroke="black" points="346,-758.5 346,-826.5 603,-826.5 603,-758.5 346,-758.5"/>
<text text-anchor="start" x="354" y="-811.3" font-family="Times,serif" font-size="14.00">0x804937e:</text>
<text text-anchor="start" x="354" y="-796.3" font-family="Times,serif" font-size="14.00"> puts(&quot;Error: Input line too long&quot;)</text>
<text text-anchor="start" x="354" y="-781.3" font-family="Times,serif" font-size="14.00"> explode_bomb()</text>
<text text-anchor="start" x="354" y="-766.3" font-family="Times,serif" font-size="14.00"> v4 = g2</text>
</g>
<!-- Node0x2b53560&#45;&gt;Node0x2c7b6e0 -->
<g id="edge16" class="edge"><title>Node0x2b53560&#45;&gt;Node0x2c7b6e0</title>
<path fill="none" stroke="black" d="M611.741,-970.844C596.588,-953.095 572.467,-924.456 552.5,-899 536.14,-878.142 518.535,-854.446 504.198,-834.803"/>
<polygon fill="black" stroke="black" points="506.981,-832.679 498.267,-826.652 501.321,-836.797 506.981,-832.679"/>
<text text-anchor="middle" x="589" y="-868.3" font-family="Times,serif" font-size="14.00">len == 79</text>
</g>
<!-- Node0x2d29af0 -->
<g id="node17" class="node"><title>Node0x2d29af0</title>
<polygon fill="none" stroke="black" points="274.5,-563.5 274.5,-706.5 750.5,-706.5 750.5,-563.5 274.5,-563.5"/>
<text text-anchor="start" x="282.5" y="-691.3" font-family="Times,serif" font-size="14.00">0x804938f:</text>
<text text-anchor="start" x="282.5" y="-676.3" font-family="Times,serif" font-size="14.00"> v3 = g9</text>
<text text-anchor="start" x="282.5" y="-661.3" font-family="Times,serif" font-size="14.00"> *(IntToPtrCastExpr&lt;ptr&gt;(((v4 + 134522975) + (80 * v3)))) = 0</text>
<text text-anchor="start" x="282.5" y="-646.3" font-family="Times,serif" font-size="14.00"> v5 = v3</text>
<text text-anchor="start" x="282.5" y="-631.3" font-family="Times,serif" font-size="14.00"> g9 = (v5 + 1)</text>
<text text-anchor="start" x="282.5" y="-616.3" font-family="Times,serif" font-size="14.00"> g1 = ((16 * ((4 * v3) + v5)) + 134522976)</text>
<text text-anchor="start" x="282.5" y="-601.3" font-family="Times,serif" font-size="14.00"> g2 = v2</text>
<text text-anchor="start" x="282.5" y="-586.3" font-family="Times,serif" font-size="14.00"> g3 = v1</text>
<text text-anchor="start" x="282.5" y="-571.3" font-family="Times,serif" font-size="14.00"> return</text>
</g>
<!-- Node0x2b53560&#45;&gt;Node0x2d29af0 -->
<g id="edge17" class="edge"><title>Node0x2b53560&#45;&gt;Node0x2d29af0</title>
<path fill="none" stroke="black" d="M629.354,-970.891C635.139,-931.372 645.102,-831.503 612.5,-758 605.879,-743.073 596.918,-728.481 587.065,-714.878"/>
<polygon fill="black" stroke="black" points="589.622,-712.453 580.829,-706.542 584.017,-716.646 589.622,-712.453"/>
<text text-anchor="middle" x="664" y="-788.8" font-family="Times,serif" font-size="14.00">len != 79</text>
</g>
<!-- Node0x2d2a120&#45;&gt;Node0x2c8a2e0 -->
<g id="edge18" class="edge"><title>Node0x2d2a120&#45;&gt;Node0x2c8a2e0</title>
<path fill="none" stroke="black" d="M778.5,-845.405C778.5,-817.792 778.5,-772.53 778.5,-733.5 778.5,-733.5 778.5,-733.5 778.5,-160.5 778.5,-123.662 751.997,-89.1825 730.292,-67.122"/>
<polygon fill="black" stroke="black" points="732.461,-64.3473 722.867,-59.8534 727.565,-69.3497 732.461,-64.3473"/>
</g>
<!-- Node0x2d6e0c0 -->
<g id="node18" class="node"><title>Node0x2d6e0c0</title>
<polygon fill="none" stroke="black" points="1001.5,-774.5 1001.5,-810.5 1107.5,-810.5 1107.5,-774.5 1001.5,-774.5"/>
<text text-anchor="start" x="1009.5" y="-788.8" font-family="Times,serif" font-size="14.00">if (g1 == 0):</text>
</g>
<!-- Node0x2dd2680&#45;&gt;Node0x2d6e0c0 -->
<g id="edge19" class="edge"><title>Node0x2dd2680&#45;&gt;Node0x2d6e0c0</title>
<path fill="none" stroke="black" d="M1054.5,-962.172C1054.5,-925.398 1054.5,-858.257 1054.5,-820.729"/>
<polygon fill="black" stroke="black" points="1058,-820.539 1054.5,-810.539 1051,-820.539 1058,-820.539"/>
</g>
<!-- Node0x2c7b6e0&#45;&gt;Node0x2d29af0 -->
<g id="edge20" class="edge"><title>Node0x2c7b6e0&#45;&gt;Node0x2d29af0</title>
<path fill="none" stroke="black" d="M482.652,-758.141C485.646,-745.888 489.182,-731.421 492.752,-716.811"/>
<polygon fill="black" stroke="black" points="496.249,-717.243 495.223,-706.698 489.449,-715.582 496.249,-717.243"/>
</g>
<!-- Node0x2d29af0&#45;&gt;Node0x2c8a2e0 -->
<g id="edge21" class="edge"><title>Node0x2d29af0&#45;&gt;Node0x2c8a2e0</title>
<path fill="none" stroke="black" d="M598.32,-563.35C614.517,-542.763 626.5,-518.684 626.5,-492.5 626.5,-492.5 626.5,-492.5 626.5,-160.5 626.5,-123.662 653.003,-89.1825 674.708,-67.122"/>
<polygon fill="black" stroke="black" points="677.435,-69.3497 682.133,-59.8534 672.539,-64.3473 677.435,-69.3497"/>
</g>
<!-- Node0x2d2a230 -->
<g id="node19" class="node"><title>Node0x2d2a230</title>
<polygon fill="none" stroke="black" points="831,-608.5 831,-661.5 1130,-661.5 1130,-608.5 831,-608.5"/>
<text text-anchor="start" x="839" y="-646.3" font-family="Times,serif" font-size="14.00">0x8049346:</text>
<text text-anchor="start" x="839" y="-631.3" font-family="Times,serif" font-size="14.00"> puts(&quot;Error: Premature EOF on stdin&quot;)</text>
<text text-anchor="start" x="839" y="-616.3" font-family="Times,serif" font-size="14.00"> explode_bomb()</text>
</g>
<!-- Node0x2d6e0c0&#45;&gt;Node0x2d2a230 -->
<g id="edge22" class="edge"><title>Node0x2d6e0c0&#45;&gt;Node0x2d2a230</title>
<path fill="none" stroke="black" d="M1046.3,-774.265C1034.45,-749.363 1012.28,-702.787 996.975,-670.62"/>
<polygon fill="black" stroke="black" points="1000.12,-669.075 992.659,-661.55 993.795,-672.083 1000.12,-669.075"/>
<text text-anchor="middle" x="1058" y="-728.8" font-family="Times,serif" font-size="14.00">g1 == 0</text>
</g>
<!-- Node0x2cbbe00 -->
<g id="node20" class="node"><title>Node0x2cbbe00</title>
<polygon fill="none" stroke="black" points="834.5,-457.5 834.5,-525.5 1310.5,-525.5 1310.5,-457.5 834.5,-457.5"/>
<text text-anchor="start" x="842.5" y="-510.3" font-family="Times,serif" font-size="14.00">0x8049357:</text>
<text text-anchor="start" x="842.5" y="-495.3" font-family="Times,serif" font-size="14.00"> len = strlen(IntToPtrCastExpr&lt;ptr&gt;(((80 * g9) + 134522976)))</text>
<text text-anchor="start" x="842.5" y="-480.3" font-family="Times,serif" font-size="14.00"> g2 = len</text>
<text text-anchor="start" x="842.5" y="-465.3" font-family="Times,serif" font-size="14.00"> v4 = len</text>
</g>
<!-- Node0x2d6e0c0&#45;&gt;Node0x2cbbe00 -->
<g id="edge23" class="edge"><title>Node0x2d6e0c0&#45;&gt;Node0x2cbbe00</title>
<path fill="none" stroke="black" d="M1080.81,-774.254C1101.11,-759.234 1127.67,-735.434 1139.5,-707 1164.08,-647.908 1163.24,-622.435 1139.5,-563 1135.19,-552.206 1128.35,-542.119 1120.66,-533.14"/>
<polygon fill="black" stroke="black" points="1123.05,-530.567 1113.72,-525.545 1117.88,-535.289 1123.05,-530.567"/>
<text text-anchor="middle" x="1185" y="-631.3" font-family="Times,serif" font-size="14.00">g1 != 0</text>
</g>
<!-- Node0x2d2a230&#45;&gt;Node0x2cbbe00 -->
<g id="edge24" class="edge"><title>Node0x2d2a230&#45;&gt;Node0x2cbbe00</title>
<path fill="none" stroke="black" d="M997.161,-608.375C1010.58,-587.735 1029.72,-558.299 1045.35,-534.262"/>
<polygon fill="black" stroke="black" points="1048.41,-535.968 1050.93,-525.676 1042.54,-532.152 1048.41,-535.968"/>
</g>
<!-- Node0x2cbbf10 -->
<g id="node21" class="node"><title>Node0x2cbbf10</title>
<polygon fill="none" stroke="black" points="1013,-383.5 1013,-419.5 1132,-419.5 1132,-383.5 1013,-383.5"/>
<text text-anchor="start" x="1021" y="-397.8" font-family="Times,serif" font-size="14.00">if (len == 79):</text>
</g>
<!-- Node0x2cbbe00&#45;&gt;Node0x2cbbf10 -->
<g id="edge25" class="edge"><title>Node0x2cbbe00&#45;&gt;Node0x2cbbf10</title>
<path fill="none" stroke="black" d="M1072.5,-457.482C1072.5,-448.328 1072.5,-438.497 1072.5,-429.715"/>
<polygon fill="black" stroke="black" points="1076,-429.64 1072.5,-419.64 1069,-429.64 1076,-429.64"/>
</g>
<!-- Node0x2cbc550 -->
<g id="node22" class="node"><title>Node0x2cbc550</title>
<polygon fill="none" stroke="black" points="856,-263.5 856,-331.5 1113,-331.5 1113,-263.5 856,-263.5"/>
<text text-anchor="start" x="864" y="-316.3" font-family="Times,serif" font-size="14.00">0x804937e:</text>
<text text-anchor="start" x="864" y="-301.3" font-family="Times,serif" font-size="14.00"> puts(&quot;Error: Input line too long&quot;)</text>
<text text-anchor="start" x="864" y="-286.3" font-family="Times,serif" font-size="14.00"> explode_bomb()</text>
<text text-anchor="start" x="864" y="-271.3" font-family="Times,serif" font-size="14.00"> v4 = g2</text>
</g>
<!-- Node0x2cbbf10&#45;&gt;Node0x2cbc550 -->
<g id="edge26" class="edge"><title>Node0x2cbbf10&#45;&gt;Node0x2cbc550</title>
<path fill="none" stroke="black" d="M1057.57,-383.197C1047.22,-371.194 1032.97,-354.682 1019.81,-339.424"/>
<polygon fill="black" stroke="black" points="1022.23,-336.875 1013.05,-331.59 1016.93,-341.448 1022.23,-336.875"/>
<text text-anchor="middle" x="1078" y="-353.8" font-family="Times,serif" font-size="14.00">len == 79</text>
</g>
<!-- Node0x2cbc150 -->
<g id="node23" class="node"><title>Node0x2cbc150</title>
<polygon fill="none" stroke="black" points="806.5,-97.5 806.5,-225.5 1282.5,-225.5 1282.5,-97.5 806.5,-97.5"/>
<text text-anchor="start" x="814.5" y="-210.3" font-family="Times,serif" font-size="14.00">0x804938f:</text>
<text text-anchor="start" x="814.5" y="-195.3" font-family="Times,serif" font-size="14.00"> v3 = g9</text>
<text text-anchor="start" x="814.5" y="-180.3" font-family="Times,serif" font-size="14.00"> *(IntToPtrCastExpr&lt;ptr&gt;(((v4 + 134522975) + (80 * v3)))) = 0</text>
<text text-anchor="start" x="814.5" y="-165.3" font-family="Times,serif" font-size="14.00"> v5 = v3</text>
<text text-anchor="start" x="814.5" y="-150.3" font-family="Times,serif" font-size="14.00"> g9 = (v5 + 1)</text>
<text text-anchor="start" x="814.5" y="-135.3" font-family="Times,serif" font-size="14.00"> g1 = ((16 * ((4 * v3) + v5)) + 134522976)</text>
<text text-anchor="start" x="814.5" y="-120.3" font-family="Times,serif" font-size="14.00"> g2 = v2</text>
<text text-anchor="start" x="814.5" y="-105.3" font-family="Times,serif" font-size="14.00"> g3 = v1</text>
</g>
<!-- Node0x2cbbf10&#45;&gt;Node0x2cbc150 -->
<g id="edge27" class="edge"><title>Node0x2cbbf10&#45;&gt;Node0x2cbc150</title>
<path fill="none" stroke="black" d="M1102.17,-383.181C1108.52,-378.113 1114.51,-372.015 1118.5,-365 1129.05,-346.45 1125.67,-272.245 1122.5,-263 1119.11,-253.104 1114.3,-243.429 1108.72,-234.233"/>
<polygon fill="black" stroke="black" points="1111.51,-232.091 1103.16,-225.571 1105.62,-235.876 1111.51,-232.091"/>
<text text-anchor="middle" x="1159" y="-293.8" font-family="Times,serif" font-size="14.00">len != 79</text>
</g>
<!-- Node0x2cbc550&#45;&gt;Node0x2cbc150 -->
<g id="edge28" class="edge"><title>Node0x2cbc550&#45;&gt;Node0x2cbc150</title>
<path fill="none" stroke="black" d="M999.331,-263.376C1003.26,-254.594 1007.67,-244.759 1012.14,-234.766"/>
<polygon fill="black" stroke="black" points="1015.37,-236.127 1016.26,-225.57 1008.98,-233.267 1015.37,-236.127"/>
</g>
<!-- Node0x2cbc150&#45;&gt;Node0x2c8a2e0 -->
<g id="edge29" class="edge"><title>Node0x2cbc150&#45;&gt;Node0x2c8a2e0</title>
<path fill="none" stroke="black" d="M861.735,-97.4408C815.168,-81.3738 769.77,-65.7101 739.442,-55.2461"/>
<polygon fill="black" stroke="black" points="740.35,-51.8568 729.755,-51.9037 738.066,-58.474 740.35,-51.8568"/>
</g>
</g>
</svg>
