<?xml version="1.0" encoding="UTF-8" standalone="no"?>
<!DOCTYPE svg PUBLIC "-//W3C//DTD SVG 1.1//EN"
 "http://www.w3.org/Graphics/SVG/1.1/DTD/svg11.dtd">
<!-- Generated by graphviz version 2.38.0 (20140413.2041)
 -->
<!-- Title: Control&#45;flow graph for function &#39;secret_phase()&#39;. Pages: 1 -->
<svg width="464pt" height="818pt"
 viewBox="0.00 0.00 464.00 818.00" xmlns="http://www.w3.org/2000/svg" xmlns:xlink="http://www.w3.org/1999/xlink">
<g id="graph0" class="graph" transform="scale(1 1) rotate(0) translate(4 814)">
<title>Control&#45;flow graph for function &#39;secret_phase()&#39;.</title>
<polygon fill="white" stroke="none" points="-4,4 -4,-814 460,-814 460,4 -4,4"/>
<text text-anchor="middle" x="228" y="-7.8" font-family="Times,serif" font-size="14.00">Control&#45;flow graph for function &#39;secret_phase()&#39;.</text>
<!-- Node0x2cbce70 -->
<g id="node1" class="node"><title>Node0x2cbce70</title>
<polygon fill="none" stroke="black" points="198.5,-773.5 198.5,-809.5 257.5,-809.5 257.5,-773.5 198.5,-773.5"/>
<text text-anchor="start" x="206.5" y="-787.8" font-family="Times,serif" font-size="14.00">entry:</text>
</g>
<!-- Node0x2b92670 -->
<g id="node2" class="node"><title>Node0x2b92670</title>
<polygon fill="none" stroke="black" points="0,-637.5 0,-735.5 456,-735.5 456,-637.5 0,-637.5"/>
<text text-anchor="start" x="8" y="-720.3" font-family="Times,serif" font-size="14.00">v1 = g2</text>
<text text-anchor="start" x="8" y="-705.3" font-family="Times,serif" font-size="14.00"> read_line()</text>
<text text-anchor="start" x="8" y="-690.3" font-family="Times,serif" font-size="14.00"> endptr = NULL</text>
<text text-anchor="start" x="8" y="-675.3" font-family="Times,serif" font-size="14.00"> str_as_l = strtol(IntToPtrCastExpr&lt;ptr&gt;(g1), &amp;(endptr), 10)</text>
<text text-anchor="start" x="8" y="-660.3" font-family="Times,serif" font-size="14.00"> g2 = str_as_l</text>
<text text-anchor="start" x="8" y="-645.3" font-family="Times,serif" font-size="14.00"> v2 = str_as_l</text>
</g>
<!-- Node0x2cbce70&#45;&gt;Node0x2b92670 -->
<g id="edge1" class="edge"><title>Node0x2cbce70&#45;&gt;Node0x2b92670</title>
<path fill="none" stroke="black" d="M228,-773.492C228,-765.692 228,-755.94 228,-745.829"/>
<polygon fill="black" stroke="black" points="231.5,-745.659 228,-735.659 224.5,-745.659 231.5,-745.659"/>
</g>
<!-- Node0x2e78070 -->
<g id="node3" class="node"><title>Node0x2e78070</title>
<polygon fill="none" stroke="black" points="143,-563.5 143,-599.5 313,-599.5 313,-563.5 143,-563.5"/>
<text text-anchor="start" x="151" y="-577.8" font-family="Times,serif" font-size="14.00">if (str_as_l &gt;= 1002):</text>
</g>
<!-- Node0x2b92670&#45;&gt;Node0x2e78070 -->
<g id="edge2" class="edge"><title>Node0x2b92670&#45;&gt;Node0x2e78070</title>
<path fill="none" stroke="black" d="M228,-637.317C228,-627.893 228,-618.32 228,-609.868"/>
<polygon fill="black" stroke="black" points="231.5,-609.856 228,-599.856 224.5,-609.856 231.5,-609.856"/>
</g>
<!-- Node0x2cbce10 -->
<g id="node4" class="node"><title>Node0x2cbce10</title>
<polygon fill="none" stroke="black" points="110,-458.5 110,-511.5 244,-511.5 244,-458.5 110,-458.5"/>
<text text-anchor="start" x="118" y="-496.3" font-family="Times,serif" font-size="14.00">0x8048c57:</text>
<text text-anchor="start" x="118" y="-481.3" font-family="Times,serif" font-size="14.00"> explode_bomb()</text>
<text text-anchor="start" x="118" y="-466.3" font-family="Times,serif" font-size="14.00"> v2 = g2</text>
</g>
<!-- Node0x2e78070&#45;&gt;Node0x2cbce10 -->
<g id="edge3" class="edge"><title>Node0x2e78070&#45;&gt;Node0x2cbce10</title>
<path fill="none" stroke="black" d="M178.046,-563.405C170.46,-558.626 163.631,-552.59 159,-545 154.55,-537.706 154.622,-529.229 156.83,-521.013"/>
<polygon fill="black" stroke="black" points="160.133,-522.17 160.259,-511.576 153.554,-519.779 160.133,-522.17"/>
<text text-anchor="middle" x="221.5" y="-533.8" font-family="Times,serif" font-size="14.00">str_as_l &gt;= 1002</text>
</g>
<!-- Node0x2c2b650 -->
<g id="node5" class="node"><title>Node0x2c2b650</title>
<polygon fill="none" stroke="black" points="115.5,-367.5 115.5,-420.5 406.5,-420.5 406.5,-367.5 115.5,-367.5"/>
<text text-anchor="start" x="123.5" y="-405.3" font-family="Times,serif" font-size="14.00">0x8048c5c:</text>
<text text-anchor="start" x="123.5" y="-390.3" font-family="Times,serif" font-size="14.00"> endptr = IntToPtrCastExpr&lt;ptr&gt;(v2)</text>
<text text-anchor="start" x="123.5" y="-375.3" font-family="Times,serif" font-size="14.00"> fun7()</text>
</g>
<!-- Node0x2e78070&#45;&gt;Node0x2c2b650 -->
<g id="edge4" class="edge"><title>Node0x2e78070&#45;&gt;Node0x2c2b650</title>
<path fill="none" stroke="black" d="M266.727,-563.301C273.656,-558.413 279.95,-552.363 284,-545 303.678,-509.227 291.104,-461.797 278.114,-429.933"/>
<polygon fill="black" stroke="black" points="281.26,-428.387 274.104,-420.573 274.825,-431.144 281.26,-428.387"/>
<text text-anchor="middle" x="350.5" y="-481.3" font-family="Times,serif" font-size="14.00">str_as_l &lt; 1002</text>
</g>
<!-- Node0x2cbce10&#45;&gt;Node0x2c2b650 -->
<g id="edge5" class="edge"><title>Node0x2cbce10&#45;&gt;Node0x2c2b650</title>
<path fill="none" stroke="black" d="M201.296,-458.258C210.177,-448.848 220.35,-438.069 229.753,-428.107"/>
<polygon fill="black" stroke="black" points="232.44,-430.359 236.758,-420.685 227.349,-425.555 232.44,-430.359"/>
</g>
<!-- Node0x2b926d0 -->
<g id="node6" class="node"><title>Node0x2b926d0</title>
<polygon fill="none" stroke="black" points="211,-293.5 211,-329.5 311,-329.5 311,-293.5 211,-293.5"/>
<text text-anchor="start" x="219" y="-307.8" font-family="Times,serif" font-size="14.00">if (g1 != 6):</text>
</g>
<!-- Node0x2c2b650&#45;&gt;Node0x2b926d0 -->
<g id="edge6" class="edge"><title>Node0x2c2b650&#45;&gt;Node0x2b926d0</title>
<path fill="none" stroke="black" d="M261,-367.086C261,-358.46 261,-348.822 261,-340.075"/>
<polygon fill="black" stroke="black" points="264.5,-339.973 261,-329.974 257.5,-339.974 264.5,-339.973"/>
</g>
<!-- Node0x2b9b0f0 -->
<g id="node7" class="node"><title>Node0x2b9b0f0</title>
<polygon fill="none" stroke="black" points="127,-203.5 127,-241.5 261,-241.5 261,-203.5 127,-203.5"/>
<text text-anchor="start" x="135" y="-226.3" font-family="Times,serif" font-size="14.00">0x8048c71:</text>
<text text-anchor="start" x="135" y="-211.3" font-family="Times,serif" font-size="14.00"> explode_bomb()</text>
</g>
<!-- Node0x2b926d0&#45;&gt;Node0x2b9b0f0 -->
<g id="edge7" class="edge"><title>Node0x2b926d0&#45;&gt;Node0x2b9b0f0</title>
<path fill="none" stroke="black" d="M243.953,-293.315C238.636,-287.657 232.888,-281.218 228,-275 221.873,-267.206 215.734,-258.318 210.391,-250.145"/>
<polygon fill="black" stroke="black" points="213.286,-248.176 204.944,-241.643 207.391,-251.952 213.286,-248.176"/>
<text text-anchor="middle" x="255.5" y="-263.8" font-family="Times,serif" font-size="14.00">g1 != 6</text>
</g>
<!-- Node0x2c2b6b0 -->
<g id="node8" class="node"><title>Node0x2c2b6b0</title>
<polygon fill="none" stroke="black" points="87.5,-97.5 87.5,-165.5 442.5,-165.5 442.5,-97.5 87.5,-97.5"/>
<text text-anchor="start" x="95.5" y="-150.3" font-family="Times,serif" font-size="14.00">0x8048c76:</text>
<text text-anchor="start" x="95.5" y="-135.3" font-family="Times,serif" font-size="14.00"> puts(&quot;Wow! You&#39;ve defused the secret stage!&quot;)</text>
<text text-anchor="start" x="95.5" y="-120.3" font-family="Times,serif" font-size="14.00"> phase_defused()</text>
<text text-anchor="start" x="95.5" y="-105.3" font-family="Times,serif" font-size="14.00"> g2 = v1</text>
</g>
<!-- Node0x2b926d0&#45;&gt;Node0x2c2b6b0 -->
<g id="edge8" class="edge"><title>Node0x2b926d0&#45;&gt;Node0x2c2b6b0</title>
<path fill="none" stroke="black" d="M274.269,-293.358C277.818,-287.805 281.173,-281.416 283,-275 292.316,-242.283 286.592,-203.971 279.212,-175.316"/>
<polygon fill="black" stroke="black" points="282.571,-174.33 276.554,-165.609 275.819,-176.178 282.571,-174.33"/>
<text text-anchor="middle" x="317.5" y="-218.8" font-family="Times,serif" font-size="14.00">g1 == 6</text>
</g>
<!-- Node0x2b9b0f0&#45;&gt;Node0x2c2b6b0 -->
<g id="edge9" class="edge"><title>Node0x2b9b0f0&#45;&gt;Node0x2c2b6b0</title>
<path fill="none" stroke="black" d="M208.368,-203.49C215.278,-194.828 223.867,-184.061 232.251,-173.552"/>
<polygon fill="black" stroke="black" points="235.09,-175.605 238.591,-165.605 229.618,-171.239 235.09,-175.605"/>
</g>
<!-- Node0x2b65930 -->
<g id="node9" class="node"><title>Node0x2b65930</title>
<polygon fill="none" stroke="black" points="238,-23.5 238,-59.5 292,-59.5 292,-23.5 238,-23.5"/>
<text text-anchor="start" x="246" y="-37.8" font-family="Times,serif" font-size="14.00">exit:</text>
</g>
<!-- Node0x2c2b6b0&#45;&gt;Node0x2b65930 -->
<g id="edge10" class="edge"><title>Node0x2c2b6b0&#45;&gt;Node0x2b65930</title>
<path fill="none" stroke="black" d="M265,-97.4817C265,-88.3281 265,-78.4972 265,-69.7155"/>
<polygon fill="black" stroke="black" points="268.5,-69.6402 265,-59.6402 261.5,-69.6403 268.5,-69.6402"/>
</g>
</g>
</svg>
