<?xml version="1.0" encoding="UTF-8" standalone="no"?>
<!DOCTYPE svg PUBLIC "-//W3C//DTD SVG 1.1//EN"
 "http://www.w3.org/Graphics/SVG/1.1/DTD/svg11.dtd">
<!-- Generated by graphviz version 2.38.0 (20140413.2041)
 -->
<!-- Title: Control&#45;flow graph for function &#39;open_clientfd()&#39;. Pages: 1 -->
<svg width="1176pt" height="994pt"
 viewBox="0.00 0.00 1176.00 994.00" xmlns="http://www.w3.org/2000/svg" xmlns:xlink="http://www.w3.org/1999/xlink">
<g id="graph0" class="graph" transform="scale(1 1) rotate(0) translate(4 990)">
<title>Control&#45;flow graph for function &#39;open_clientfd()&#39;.</title>
<polygon fill="white" stroke="none" points="-4,4 -4,-990 1172,-990 1172,4 -4,4"/>
<text text-anchor="middle" x="584" y="-7.8" font-family="Times,serif" font-size="14.00">Control&#45;flow graph for function &#39;open_clientfd()&#39;.</text>
<!-- Node0x2b52f40 -->
<g id="node1" class="node"><title>Node0x2b52f40</title>
<polygon fill="none" stroke="black" points="257.5,-949.5 257.5,-985.5 316.5,-985.5 316.5,-949.5 257.5,-949.5"/>
<text text-anchor="start" x="265.5" y="-963.8" font-family="Times,serif" font-size="14.00">entry:</text>
</g>
<!-- Node0x2cad2b0 -->
<g id="node2" class="node"><title>Node0x2cad2b0</title>
<polygon fill="none" stroke="black" points="0,-875.5 0,-911.5 574,-911.5 574,-875.5 0,-875.5"/>
<text text-anchor="start" x="8" y="-889.8" font-family="Times,serif" font-size="14.00">sock_fd = socket((AF_INET &#45;&gt; 2), (SOCK_STREAM &#45;&gt; 1), (IPPROTO_IP &#45;&gt; 0))</text>
</g>
<!-- Node0x2b52f40&#45;&gt;Node0x2cad2b0 -->
<g id="edge1" class="edge"><title>Node0x2b52f40&#45;&gt;Node0x2cad2b0</title>
<path fill="none" stroke="black" d="M287,-949.437C287,-941.307 287,-931.376 287,-922.205"/>
<polygon fill="black" stroke="black" points="290.5,-921.941 287,-911.941 283.5,-921.941 290.5,-921.941"/>
</g>
<!-- Node0x2c7bca0 -->
<g id="node3" class="node"><title>Node0x2c7bca0</title>
<polygon fill="none" stroke="black" points="215.5,-801.5 215.5,-837.5 358.5,-837.5 358.5,-801.5 215.5,-801.5"/>
<text text-anchor="start" x="223.5" y="-815.8" font-family="Times,serif" font-size="14.00">if (sock_fd &lt;= 0):</text>
</g>
<!-- Node0x2cad2b0&#45;&gt;Node0x2c7bca0 -->
<g id="edge2" class="edge"><title>Node0x2cad2b0&#45;&gt;Node0x2c7bca0</title>
<path fill="none" stroke="black" d="M287,-875.437C287,-867.307 287,-857.376 287,-848.205"/>
<polygon fill="black" stroke="black" points="290.5,-847.941 287,-837.941 283.5,-847.941 290.5,-847.941"/>
</g>
<!-- Node0x2ca1440 -->
<g id="node4" class="node"><title>Node0x2ca1440</title>
<polygon fill="none" stroke="black" points="132,-594.5 132,-662.5 300,-662.5 300,-594.5 132,-594.5"/>
<text text-anchor="start" x="140" y="-647.3" font-family="Times,serif" font-size="14.00">0x804946e:</text>
<text text-anchor="start" x="140" y="-632.3" font-family="Times,serif" font-size="14.00"> puts(&quot;Bad host (1).&quot;)</text>
<text text-anchor="start" x="140" y="-617.3" font-family="Times,serif" font-size="14.00"> exit(8)</text>
<text text-anchor="start" x="140" y="-602.3" font-family="Times,serif" font-size="14.00"> # UNREACHABLE</text>
</g>
<!-- Node0x2c7bca0&#45;&gt;Node0x2ca1440 -->
<g id="edge3" class="edge"><title>Node0x2c7bca0&#45;&gt;Node0x2ca1440</title>
<path fill="none" stroke="black" d="M239.3,-801.494C231.653,-796.68 224.715,-790.609 220,-783 199.725,-750.285 201.047,-705.649 206.054,-672.942"/>
<polygon fill="black" stroke="black" points="209.557,-673.219 207.787,-662.773 202.657,-672.043 209.557,-673.219"/>
<text text-anchor="middle" x="268.5" y="-771.8" font-family="Times,serif" font-size="14.00">sock_fd &lt;= 0</text>
</g>
<!-- Node0x2cc2d00 -->
<g id="node5" class="node"><title>Node0x2cc2d00</title>
<polygon fill="none" stroke="black" points="244,-681.5 244,-749.5 520,-749.5 520,-681.5 244,-681.5"/>
<text text-anchor="start" x="252" y="-734.3" font-family="Times,serif" font-size="14.00">0x8049486:</text>
<text text-anchor="start" x="252" y="-719.3" font-family="Times,serif" font-size="14.00"> name</text>
<text text-anchor="start" x="252" y="-704.3" font-family="Times,serif" font-size="14.00"> v1 = gethostbyname(name)</text>
<text text-anchor="start" x="252" y="-689.3" font-family="Times,serif" font-size="14.00"> v2 = PtrToIntCastExpr&lt;int32&gt;(v1)</text>
</g>
<!-- Node0x2c7bca0&#45;&gt;Node0x2cc2d00 -->
<g id="edge4" class="edge"><title>Node0x2c7bca0&#45;&gt;Node0x2cc2d00</title>
<path fill="none" stroke="black" d="M303.115,-801.197C314.398,-789.083 329.956,-772.379 344.275,-757.005"/>
<polygon fill="black" stroke="black" points="346.926,-759.293 351.181,-749.59 341.804,-754.522 346.926,-759.293"/>
<text text-anchor="middle" x="374.5" y="-771.8" font-family="Times,serif" font-size="14.00">sock_fd &gt; 0</text>
</g>
<!-- Node0x2ca00f0 -->
<g id="node6" class="node"><title>Node0x2ca00f0</title>
<polygon fill="none" stroke="black" points="284,-23.5 284,-59.5 338,-59.5 338,-23.5 284,-23.5"/>
<text text-anchor="start" x="292" y="-37.8" font-family="Times,serif" font-size="14.00">exit:</text>
</g>
<!-- Node0x2ca1440&#45;&gt;Node0x2ca00f0 -->
<g id="edge5" class="edge"><title>Node0x2ca1440&#45;&gt;Node0x2ca00f0</title>
<path fill="none" stroke="black" d="M216,-594.372C216,-571.849 216,-541.377 216,-514.5 216,-514.5 216,-514.5 216,-130.5 216,-97.2168 247.771,-72.999 274.567,-58.4925"/>
<polygon fill="black" stroke="black" points="276.477,-61.4462 283.777,-53.7675 273.282,-55.218 276.477,-61.4462"/>
</g>
<!-- Node0x2d29e10 -->
<g id="node7" class="node"><title>Node0x2d29e10</title>
<polygon fill="none" stroke="black" points="312,-539.5 312,-575.5 452,-575.5 452,-539.5 312,-539.5"/>
<text text-anchor="start" x="320" y="-553.8" font-family="Times,serif" font-size="14.00">if (v1 == NULL):</text>
</g>
<!-- Node0x2cc2d00&#45;&gt;Node0x2d29e10 -->
<g id="edge6" class="edge"><title>Node0x2cc2d00&#45;&gt;Node0x2d29e10</title>
<path fill="none" stroke="black" d="M382,-681.416C382,-652.96 382,-612.405 382,-585.777"/>
<polygon fill="black" stroke="black" points="385.5,-585.632 382,-575.632 378.5,-585.632 385.5,-585.632"/>
</g>
<!-- Node0x2d29b70 -->
<g id="node8" class="node"><title>Node0x2d29b70</title>
<polygon fill="none" stroke="black" points="231,-272.5 231,-340.5 399,-340.5 399,-272.5 231,-272.5"/>
<text text-anchor="start" x="239" y="-325.3" font-family="Times,serif" font-size="14.00">0x8049495:</text>
<text text-anchor="start" x="239" y="-310.3" font-family="Times,serif" font-size="14.00"> puts(&quot;Bad host (2).&quot;)</text>
<text text-anchor="start" x="239" y="-295.3" font-family="Times,serif" font-size="14.00"> exit(8)</text>
<text text-anchor="start" x="239" y="-280.3" font-family="Times,serif" font-size="14.00"> # UNREACHABLE</text>
</g>
<!-- Node0x2d29e10&#45;&gt;Node0x2d29b70 -->
<g id="edge7" class="edge"><title>Node0x2d29e10&#45;&gt;Node0x2d29b70</title>
<path fill="none" stroke="black" d="M366.221,-539.336C355.205,-526.276 341.226,-507.313 334,-488 317.245,-443.221 313.677,-388.113 313.55,-350.651"/>
<polygon fill="black" stroke="black" points="317.05,-350.593 313.597,-340.577 310.05,-350.56 317.05,-350.593"/>
<text text-anchor="middle" x="399" y="-509.8" font-family="Times,serif" font-size="14.00">v1 == NULL</text>
</g>
<!-- Node0x2d29f70 -->
<g id="node9" class="node"><title>Node0x2d29f70</title>
<polygon fill="none" stroke="black" points="343.5,-359.5 343.5,-487.5 1050.5,-487.5 1050.5,-359.5 343.5,-359.5"/>
<text text-anchor="start" x="351.5" y="-472.3" font-family="Times,serif" font-size="14.00">0x80494ad:</text>
<text text-anchor="start" x="351.5" y="-457.3" font-family="Times,serif" font-size="14.00"> v3</text>
<text text-anchor="start" x="351.5" y="-442.3" font-family="Times,serif" font-size="14.00"> addr = &amp;(v3)</text>
<text text-anchor="start" x="351.5" y="-427.3" font-family="Times,serif" font-size="14.00"> data = 0</text>
<text text-anchor="start" x="351.5" y="-412.3" font-family="Times,serif" font-size="14.00"> v3 = 2</text>
<text text-anchor="start" x="351.5" y="-397.3" font-family="Times,serif" font-size="14.00"> n = *(IntToPtrCastExpr&lt;ptr&gt;((v2 + 12)))</text>
<text text-anchor="start" x="351.5" y="-382.3" font-family="Times,serif" font-size="14.00"> str = *(IntToPtrCastExpr&lt;ptr&gt;((v2 + 16)))</text>
<text text-anchor="start" x="351.5" y="-367.3" font-family="Times,serif" font-size="14.00"> bcopy(IntToPtrCastExpr&lt;ptr&gt;(*(IntToPtrCastExpr&lt;ptr&gt;(str))), BitCastExpr&lt;ptr&gt;(&amp;(data)), n)</text>
</g>
<!-- Node0x2d29e10&#45;&gt;Node0x2d29f70 -->
<g id="edge8" class="edge"><title>Node0x2d29e10&#45;&gt;Node0x2d29f70</title>
<path fill="none" stroke="black" d="M422.858,-539.379C452.48,-526.966 494.625,-509.305 537.01,-491.543"/>
<polygon fill="black" stroke="black" points="538.469,-494.727 546.339,-487.634 535.764,-488.271 538.469,-494.727"/>
<text text-anchor="middle" x="547" y="-509.8" font-family="Times,serif" font-size="14.00">v1 != NULL</text>
</g>
<!-- Node0x2d29b70&#45;&gt;Node0x2ca00f0 -->
<g id="edge9" class="edge"><title>Node0x2d29b70&#45;&gt;Node0x2ca00f0</title>
<path fill="none" stroke="black" d="M310.859,-272.265C306.281,-231.107 300.044,-158.858 304,-97 304.571,-88.066 305.665,-78.3584 306.82,-69.6448"/>
<polygon fill="black" stroke="black" points="310.302,-70.0182 308.23,-59.628 303.37,-69.0427 310.302,-70.0182"/>
</g>
<!-- Node0x2abe960 -->
<g id="node10" class="node"><title>Node0x2abe960</title>
<polygon fill="none" stroke="black" points="471.5,-217.5 471.5,-253.5 922.5,-253.5 922.5,-217.5 471.5,-217.5"/>
<text text-anchor="start" x="479.5" y="-231.8" font-family="Times,serif" font-size="14.00">if (connect(sock_fd, IntToPtrCastExpr&lt;ptr&gt;(addr), 16) &gt; 0):</text>
</g>
<!-- Node0x2d29f70&#45;&gt;Node0x2abe960 -->
<g id="edge10" class="edge"><title>Node0x2d29f70&#45;&gt;Node0x2abe960</title>
<path fill="none" stroke="black" d="M697,-359.269C697,-326.793 697,-288.903 697,-263.901"/>
<polygon fill="black" stroke="black" points="700.5,-263.707 697,-253.707 693.5,-263.707 700.5,-263.707"/>
</g>
<!-- Node0x2ca0b40 -->
<g id="node11" class="node"><title>Node0x2ca0b40</title>
<polygon fill="none" stroke="black" points="313.5,-112.5 313.5,-150.5 414.5,-150.5 414.5,-112.5 313.5,-112.5"/>
<text text-anchor="start" x="321.5" y="-135.3" font-family="Times,serif" font-size="14.00">0x8049528:</text>
<text text-anchor="start" x="321.5" y="-120.3" font-family="Times,serif" font-size="14.00"> return</text>
</g>
<!-- Node0x2abe960&#45;&gt;Node0x2ca0b40 -->
<g id="edge11" class="edge"><title>Node0x2abe960&#45;&gt;Node0x2ca0b40</title>
<path fill="none" stroke="black" d="M471.252,-223.945C405.591,-218.559 348.513,-210.604 338,-199 327.895,-187.847 333.222,-172.316 341.617,-159.068"/>
<polygon fill="black" stroke="black" points="344.567,-160.957 347.445,-150.761 338.837,-156.937 344.567,-160.957"/>
<text text-anchor="middle" x="541" y="-187.8" font-family="Times,serif" font-size="14.00">connect(sock_fd, IntToPtrCastExpr&lt;ptr&gt;(addr), 16) &gt; 0</text>
</g>
<!-- Node0x2ca1130 -->
<g id="node12" class="node"><title>Node0x2ca1130</title>
<polygon fill="none" stroke="black" points="559,-97.5 559,-165.5 727,-165.5 727,-97.5 559,-97.5"/>
<text text-anchor="start" x="567" y="-150.3" font-family="Times,serif" font-size="14.00">0x8049510:</text>
<text text-anchor="start" x="567" y="-135.3" font-family="Times,serif" font-size="14.00"> puts(&quot;Bad host (3).&quot;)</text>
<text text-anchor="start" x="567" y="-120.3" font-family="Times,serif" font-size="14.00"> exit(8)</text>
<text text-anchor="start" x="567" y="-105.3" font-family="Times,serif" font-size="14.00"> # UNREACHABLE</text>
</g>
<!-- Node0x2abe960&#45;&gt;Node0x2ca1130 -->
<g id="edge12" class="edge"><title>Node0x2abe960&#45;&gt;Node0x2ca1130</title>
<path fill="none" stroke="black" d="M731.924,-217.403C745.375,-208.38 755.844,-196.583 748,-184 744.392,-178.212 739.923,-173.056 734.88,-168.466"/>
<polygon fill="black" stroke="black" points="737.079,-165.743 727.116,-162.138 732.657,-171.169 737.079,-165.743"/>
<text text-anchor="middle" x="959" y="-187.8" font-family="Times,serif" font-size="14.00">connect(sock_fd, IntToPtrCastExpr&lt;ptr&gt;(addr), 16) &lt;= 0</text>
</g>
<!-- Node0x2ca0b40&#45;&gt;Node0x2ca00f0 -->
<g id="edge13" class="edge"><title>Node0x2ca0b40&#45;&gt;Node0x2ca00f0</title>
<path fill="none" stroke="black" d="M353.018,-112.266C345.358,-99.5468 335.026,-82.3917 326.524,-68.2761"/>
<polygon fill="black" stroke="black" points="329.406,-66.2768 321.248,-59.5162 323.409,-69.8883 329.406,-66.2768"/>
</g>
<!-- Node0x2ca1130&#45;&gt;Node0x2ca00f0 -->
<g id="edge14" class="edge"><title>Node0x2ca1130&#45;&gt;Node0x2ca00f0</title>
<path fill="none" stroke="black" d="M558.793,-108.18C490.857,-90.173 398.555,-65.7073 347.955,-52.2954"/>
<polygon fill="black" stroke="black" points="348.676,-48.8656 338.113,-49.6865 346.882,-55.6319 348.676,-48.8656"/>
</g>
</g>
</svg>
